<svg width="360" height="800" viewBox="0 0 360 800" fill="none" xmlns="http://www.w3.org/2000/svg">
<g clip-path="url(#clip0_63_592)">
<rect width="360" height="800" fill="white"/>
<path d="M360 0H0V56H360V0Z" fill="#FAFAFA" stroke="#D0D0D0"/>
<path d="M332 36C336.418 36 340 32.4183 340 28C340 23.5817 336.418 20 332 20C327.582 20 324 23.5817 324 28C324 32.4183 327.582 36 332 36Z" fill="#E0E0E0" stroke="#BDBDBD"/>
<path d="M296 96H64C50.7452 96 40 106.745 40 120V272C40 285.255 50.7452 296 64 296H296C309.255 296 320 285.255 320 272V120C320 106.745 309.255 96 296 96Z" fill="#EEEEEE" stroke="#DDDDDD"/>
<path d="M148.011 316.909V330H145.243V316.909H148.011ZM150.237 330V320.182H152.832V321.914H152.947C153.152 321.339 153.493 320.885 153.97 320.553C154.447 320.22 155.018 320.054 155.683 320.054C156.356 320.054 156.93 320.222 157.403 320.559C157.876 320.891 158.191 321.343 158.349 321.914H158.451C158.651 321.352 159.013 320.902 159.537 320.565C160.066 320.224 160.69 320.054 161.41 320.054C162.327 320.054 163.07 320.346 163.641 320.93C164.216 321.509 164.504 322.332 164.504 323.397V330H161.787V323.934C161.787 323.388 161.643 322.979 161.353 322.707C161.063 322.434 160.701 322.298 160.266 322.298C159.772 322.298 159.386 322.455 159.109 322.771C158.832 323.082 158.694 323.493 158.694 324.004V330H156.054V323.876C156.054 323.395 155.915 323.011 155.638 322.726C155.366 322.44 155.006 322.298 154.558 322.298C154.256 322.298 153.983 322.374 153.74 322.528C153.501 322.677 153.312 322.888 153.171 323.161C153.03 323.429 152.96 323.744 152.96 324.107V330H150.237ZM166.655 333.682V320.182H169.34V321.831H169.461C169.58 321.567 169.753 321.298 169.979 321.026C170.209 320.749 170.507 320.518 170.874 320.335C171.244 320.148 171.705 320.054 172.254 320.054C172.97 320.054 173.631 320.241 174.236 320.616C174.841 320.987 175.325 321.548 175.687 322.298C176.049 323.043 176.23 323.979 176.23 325.104C176.23 326.199 176.053 327.124 175.7 327.878C175.35 328.628 174.873 329.197 174.268 329.585C173.667 329.968 172.994 330.16 172.248 330.16C171.72 330.16 171.27 330.072 170.899 329.898C170.533 329.723 170.232 329.504 169.998 329.239C169.764 328.971 169.585 328.7 169.461 328.428H169.378V333.682H166.655ZM169.32 325.091C169.32 325.675 169.401 326.184 169.563 326.619C169.725 327.053 169.96 327.392 170.267 327.635C170.573 327.874 170.946 327.993 171.385 327.993C171.828 327.993 172.203 327.871 172.51 327.629C172.817 327.381 173.049 327.04 173.207 326.606C173.369 326.167 173.45 325.662 173.45 325.091C173.45 324.524 173.371 324.026 173.213 323.595C173.056 323.165 172.823 322.828 172.517 322.585C172.21 322.342 171.833 322.221 171.385 322.221C170.942 322.221 170.567 322.338 170.26 322.572C169.958 322.807 169.725 323.139 169.563 323.57C169.401 324 169.32 324.507 169.32 325.091ZM180.845 330.185C180.219 330.185 179.661 330.077 179.171 329.859C178.681 329.638 178.293 329.312 178.007 328.881C177.726 328.447 177.585 327.906 177.585 327.258C177.585 326.712 177.686 326.254 177.886 325.884C178.086 325.513 178.359 325.214 178.704 324.989C179.049 324.763 179.441 324.592 179.88 324.477C180.323 324.362 180.788 324.281 181.274 324.234C181.845 324.175 182.305 324.119 182.654 324.068C183.004 324.013 183.257 323.932 183.415 323.825C183.573 323.719 183.651 323.561 183.651 323.352V323.314C183.651 322.909 183.524 322.596 183.268 322.374C183.017 322.153 182.659 322.042 182.194 322.042C181.704 322.042 181.314 322.151 181.024 322.368C180.735 322.581 180.543 322.849 180.449 323.173L177.931 322.969C178.058 322.372 178.31 321.857 178.685 321.422C179.06 320.983 179.544 320.646 180.136 320.412C180.732 320.173 181.423 320.054 182.207 320.054C182.752 320.054 183.274 320.118 183.773 320.246C184.276 320.374 184.721 320.572 185.109 320.84C185.501 321.109 185.81 321.454 186.036 321.876C186.262 322.293 186.374 322.794 186.374 323.378V330H183.792V328.638H183.715C183.558 328.945 183.347 329.216 183.083 329.45C182.818 329.68 182.501 329.862 182.13 329.994C181.759 330.121 181.331 330.185 180.845 330.185ZM181.625 328.306C182.026 328.306 182.379 328.227 182.686 328.07C182.993 327.908 183.234 327.69 183.409 327.418C183.583 327.145 183.671 326.836 183.671 326.491V325.449C183.585 325.504 183.468 325.555 183.319 325.602C183.174 325.645 183.01 325.685 182.827 325.724C182.644 325.758 182.46 325.79 182.277 325.82C182.094 325.845 181.928 325.869 181.779 325.89C181.459 325.937 181.18 326.011 180.941 326.114C180.703 326.216 180.517 326.354 180.385 326.529C180.253 326.7 180.187 326.913 180.187 327.168C180.187 327.539 180.321 327.822 180.59 328.018C180.862 328.21 181.208 328.306 181.625 328.306ZM192.923 330.192C191.917 330.192 191.052 329.979 190.328 329.553C189.608 329.122 189.054 328.526 188.666 327.763C188.282 327 188.091 326.122 188.091 325.129C188.091 324.124 188.285 323.241 188.672 322.483C189.064 321.72 189.621 321.126 190.341 320.7C191.061 320.269 191.917 320.054 192.91 320.054C193.767 320.054 194.517 320.21 195.16 320.521C195.804 320.832 196.313 321.268 196.688 321.831C197.063 322.393 197.27 323.054 197.308 323.812H194.738C194.666 323.322 194.474 322.928 194.163 322.63C193.856 322.327 193.454 322.176 192.955 322.176C192.533 322.176 192.165 322.291 191.849 322.521C191.538 322.747 191.295 323.077 191.121 323.512C190.946 323.947 190.858 324.473 190.858 325.091C190.858 325.717 190.944 326.25 191.114 326.689C191.289 327.128 191.534 327.462 191.849 327.692C192.165 327.923 192.533 328.038 192.955 328.038C193.266 328.038 193.545 327.974 193.792 327.846C194.044 327.718 194.251 327.533 194.412 327.29C194.579 327.043 194.687 326.746 194.738 326.401H197.308C197.265 327.151 197.061 327.812 196.694 328.383C196.332 328.95 195.831 329.393 195.192 329.712C194.553 330.032 193.797 330.192 192.923 330.192ZM204.274 320.182V322.227H198.361V320.182H204.274ZM199.703 317.83H202.426V326.983C202.426 327.234 202.465 327.43 202.542 327.571C202.618 327.707 202.725 327.803 202.861 327.859C203.002 327.914 203.164 327.942 203.347 327.942C203.475 327.942 203.603 327.931 203.73 327.91C203.858 327.884 203.956 327.865 204.025 327.852L204.453 329.879C204.316 329.921 204.125 329.97 203.877 330.026C203.63 330.085 203.33 330.121 202.976 330.134C202.32 330.16 201.745 330.072 201.25 329.872C200.76 329.672 200.379 329.361 200.106 328.939C199.833 328.517 199.699 327.984 199.703 327.341V317.83ZM210.378 330.192C209.385 330.192 208.527 329.981 207.802 329.559C207.082 329.133 206.526 328.54 206.134 327.782C205.742 327.019 205.546 326.135 205.546 325.129C205.546 324.115 205.742 323.229 206.134 322.47C206.526 321.707 207.082 321.115 207.802 320.693C208.527 320.267 209.385 320.054 210.378 320.054C211.371 320.054 212.228 320.267 212.948 320.693C213.672 321.115 214.23 321.707 214.623 322.47C215.015 323.229 215.211 324.115 215.211 325.129C215.211 326.135 215.015 327.019 214.623 327.782C214.23 328.54 213.672 329.133 212.948 329.559C212.228 329.981 211.371 330.192 210.378 330.192ZM210.391 328.082C210.843 328.082 211.22 327.955 211.522 327.699C211.825 327.439 212.053 327.085 212.206 326.638C212.364 326.19 212.443 325.681 212.443 325.11C212.443 324.539 212.364 324.03 212.206 323.582C212.053 323.135 211.825 322.781 211.522 322.521C211.22 322.261 210.843 322.131 210.391 322.131C209.935 322.131 209.551 322.261 209.24 322.521C208.934 322.781 208.701 323.135 208.544 323.582C208.39 324.03 208.314 324.539 208.314 325.11C208.314 325.681 208.39 326.19 208.544 326.638C208.701 327.085 208.934 327.439 209.24 327.699C209.551 327.955 209.935 328.082 210.391 328.082Z" fill="#333333"/>
<path d="M114.942 354.92L114.038 355.176C113.981 355.026 113.898 354.879 113.787 354.737C113.679 354.592 113.531 354.473 113.344 354.379C113.156 354.286 112.916 354.239 112.623 354.239C112.223 354.239 111.889 354.331 111.622 354.516C111.358 354.697 111.226 354.929 111.226 355.21C111.226 355.46 111.317 355.658 111.498 355.803C111.68 355.947 111.964 356.068 112.351 356.165L113.322 356.403C113.907 356.545 114.344 356.763 114.631 357.055C114.917 357.345 115.061 357.719 115.061 358.176C115.061 358.551 114.953 358.886 114.737 359.182C114.524 359.477 114.226 359.71 113.842 359.881C113.459 360.051 113.013 360.136 112.504 360.136C111.836 360.136 111.284 359.991 110.846 359.702C110.409 359.412 110.132 358.989 110.015 358.432L110.97 358.193C111.061 358.545 111.233 358.81 111.486 358.986C111.741 359.162 112.075 359.25 112.487 359.25C112.956 359.25 113.328 359.151 113.604 358.952C113.882 358.75 114.021 358.509 114.021 358.227C114.021 358 113.942 357.81 113.782 357.656C113.623 357.5 113.379 357.384 113.05 357.307L111.959 357.051C111.359 356.909 110.919 356.689 110.638 356.391C110.359 356.089 110.22 355.713 110.22 355.261C110.22 354.892 110.324 354.565 110.531 354.281C110.741 353.997 111.027 353.774 111.388 353.612C111.751 353.45 112.163 353.369 112.623 353.369C113.271 353.369 113.78 353.511 114.149 353.795C114.521 354.08 114.785 354.455 114.942 354.92ZM118.501 360.153C118.086 360.153 117.71 360.075 117.372 359.919C117.034 359.76 116.765 359.531 116.566 359.233C116.367 358.932 116.268 358.568 116.268 358.142C116.268 357.767 116.342 357.463 116.49 357.23C116.637 356.994 116.835 356.81 117.082 356.676C117.329 356.543 117.602 356.443 117.9 356.378C118.201 356.31 118.504 356.256 118.808 356.216C119.205 356.165 119.528 356.126 119.775 356.101C120.025 356.072 120.207 356.026 120.32 355.96C120.437 355.895 120.495 355.781 120.495 355.619V355.585C120.495 355.165 120.38 354.838 120.15 354.605C119.923 354.372 119.578 354.256 119.115 354.256C118.634 354.256 118.258 354.361 117.985 354.571C117.713 354.781 117.521 355.006 117.41 355.244L116.455 354.903C116.626 354.506 116.853 354.196 117.137 353.974C117.424 353.75 117.737 353.594 118.075 353.506C118.416 353.415 118.751 353.369 119.08 353.369C119.291 353.369 119.532 353.395 119.805 353.446C120.08 353.494 120.346 353.595 120.602 353.749C120.86 353.902 121.075 354.134 121.245 354.443C121.416 354.753 121.501 355.168 121.501 355.688V360H120.495V359.114H120.444C120.376 359.256 120.262 359.408 120.103 359.57C119.944 359.732 119.732 359.869 119.468 359.983C119.204 360.097 118.882 360.153 118.501 360.153ZM118.654 359.25C119.052 359.25 119.387 359.172 119.66 359.016C119.936 358.859 120.143 358.658 120.282 358.411C120.424 358.163 120.495 357.903 120.495 357.631V356.71C120.453 356.761 120.359 356.808 120.214 356.851C120.072 356.891 119.907 356.926 119.72 356.957C119.535 356.986 119.355 357.011 119.178 357.034C119.005 357.054 118.865 357.071 118.757 357.085C118.495 357.119 118.251 357.175 118.024 357.251C117.799 357.325 117.617 357.437 117.478 357.588C117.342 357.736 117.274 357.937 117.274 358.193C117.274 358.543 117.403 358.807 117.661 358.986C117.923 359.162 118.254 359.25 118.654 359.25ZM124.342 351.273V360H123.336V351.273H124.342ZM131.536 353.455L129.116 360H128.093L125.673 353.455H126.764L128.57 358.67H128.639L130.445 353.455H131.536ZM134.591 360.153C134.176 360.153 133.8 360.075 133.461 359.919C133.123 359.76 132.855 359.531 132.656 359.233C132.457 358.932 132.358 358.568 132.358 358.142C132.358 357.767 132.432 357.463 132.579 357.23C132.727 356.994 132.925 356.81 133.172 356.676C133.419 356.543 133.692 356.443 133.99 356.378C134.291 356.31 134.594 356.256 134.898 356.216C135.295 356.165 135.618 356.126 135.865 356.101C136.115 356.072 136.297 356.026 136.41 355.96C136.527 355.895 136.585 355.781 136.585 355.619V355.585C136.585 355.165 136.47 354.838 136.24 354.605C136.013 354.372 135.667 354.256 135.204 354.256C134.724 354.256 134.348 354.361 134.075 354.571C133.802 354.781 133.611 355.006 133.5 355.244L132.545 354.903C132.716 354.506 132.943 354.196 133.227 353.974C133.514 353.75 133.827 353.594 134.165 353.506C134.506 353.415 134.841 353.369 135.17 353.369C135.381 353.369 135.622 353.395 135.895 353.446C136.17 353.494 136.436 353.595 136.692 353.749C136.95 353.902 137.165 354.134 137.335 354.443C137.506 354.753 137.591 355.168 137.591 355.688V360H136.585V359.114H136.534C136.466 359.256 136.352 359.408 136.193 359.57C136.034 359.732 135.822 359.869 135.558 359.983C135.294 360.097 134.971 360.153 134.591 360.153ZM134.744 359.25C135.142 359.25 135.477 359.172 135.75 359.016C136.025 358.859 136.233 358.658 136.372 358.411C136.514 358.163 136.585 357.903 136.585 357.631V356.71C136.542 356.761 136.449 356.808 136.304 356.851C136.162 356.891 135.997 356.926 135.809 356.957C135.625 356.986 135.444 357.011 135.268 357.034C135.095 357.054 134.954 357.071 134.846 357.085C134.585 357.119 134.341 357.175 134.113 357.251C133.889 357.325 133.707 357.437 133.568 357.588C133.432 357.736 133.363 357.937 133.363 358.193C133.363 358.543 133.493 358.807 133.751 358.986C134.013 359.162 134.344 359.25 134.744 359.25ZM148.154 353.455L145.733 360H144.71L142.29 353.455H143.381L145.188 358.67H145.256L147.063 353.455H148.154ZM149.481 360V353.455H150.487V360H149.481ZM149.992 352.364C149.796 352.364 149.627 352.297 149.485 352.163C149.346 352.03 149.276 351.869 149.276 351.682C149.276 351.494 149.346 351.334 149.485 351.2C149.627 351.067 149.796 351 149.992 351C150.188 351 150.356 351.067 150.495 351.2C150.637 351.334 150.708 351.494 150.708 351.682C150.708 351.869 150.637 352.03 150.495 352.163C150.356 352.297 150.188 352.364 149.992 352.364ZM154.8 360.136C154.255 360.136 153.773 359.999 153.356 359.723C152.938 359.445 152.611 359.053 152.376 358.547C152.14 358.038 152.022 357.438 152.022 356.744C152.022 356.057 152.14 355.46 152.376 354.955C152.611 354.449 152.939 354.058 153.36 353.783C153.78 353.507 154.266 353.369 154.817 353.369C155.243 353.369 155.58 353.44 155.827 353.582C156.077 353.722 156.268 353.881 156.398 354.06C156.532 354.236 156.635 354.381 156.709 354.494H156.795V351.273H157.8V360H156.829V358.994H156.709C156.635 359.114 156.53 359.264 156.394 359.446C156.258 359.625 156.063 359.786 155.81 359.928C155.557 360.067 155.221 360.136 154.8 360.136ZM154.937 359.233C155.34 359.233 155.681 359.128 155.959 358.918C156.238 358.705 156.449 358.411 156.594 358.036C156.739 357.658 156.812 357.222 156.812 356.727C156.812 356.239 156.741 355.811 156.599 355.445C156.456 355.075 156.246 354.788 155.968 354.584C155.689 354.376 155.346 354.273 154.937 354.273C154.51 354.273 154.155 354.382 153.871 354.601C153.59 354.817 153.378 355.111 153.236 355.483C153.097 355.852 153.028 356.267 153.028 356.727C153.028 357.193 153.099 357.616 153.241 357.997C153.385 358.375 153.599 358.676 153.88 358.901C154.164 359.122 154.516 359.233 154.937 359.233ZM161.708 360.153C161.293 360.153 160.917 360.075 160.579 359.919C160.241 359.76 159.972 359.531 159.773 359.233C159.574 358.932 159.475 358.568 159.475 358.142C159.475 357.767 159.549 357.463 159.697 357.23C159.844 356.994 160.042 356.81 160.289 356.676C160.536 356.543 160.809 356.443 161.107 356.378C161.408 356.31 161.711 356.256 162.015 356.216C162.412 356.165 162.735 356.126 162.982 356.101C163.232 356.072 163.414 356.026 163.528 355.96C163.644 355.895 163.702 355.781 163.702 355.619V355.585C163.702 355.165 163.587 354.838 163.357 354.605C163.13 354.372 162.785 354.256 162.322 354.256C161.841 354.256 161.465 354.361 161.192 354.571C160.92 354.781 160.728 355.006 160.617 355.244L159.662 354.903C159.833 354.506 160.06 354.196 160.344 353.974C160.631 353.75 160.944 353.594 161.282 353.506C161.623 353.415 161.958 353.369 162.287 353.369C162.498 353.369 162.739 353.395 163.012 353.446C163.287 353.494 163.553 353.595 163.809 353.749C164.067 353.902 164.282 354.134 164.452 354.443C164.623 354.753 164.708 355.168 164.708 355.688V360H163.702V359.114H163.651C163.583 359.256 163.469 359.408 163.31 359.57C163.151 359.732 162.939 359.869 162.675 359.983C162.411 360.097 162.089 360.153 161.708 360.153ZM161.861 359.25C162.259 359.25 162.594 359.172 162.867 359.016C163.143 358.859 163.35 358.658 163.489 358.411C163.631 358.163 163.702 357.903 163.702 357.631V356.71C163.66 356.761 163.566 356.808 163.421 356.851C163.279 356.891 163.114 356.926 162.927 356.957C162.742 356.986 162.562 357.011 162.385 357.034C162.212 357.054 162.072 357.071 161.964 357.085C161.702 357.119 161.458 357.175 161.231 357.251C161.006 357.325 160.824 357.437 160.685 357.588C160.549 357.736 160.481 357.937 160.481 358.193C160.481 358.543 160.61 358.807 160.868 358.986C161.13 359.162 161.461 359.25 161.861 359.25ZM171.18 354.92L170.276 355.176C170.22 355.026 170.136 354.879 170.025 354.737C169.917 354.592 169.769 354.473 169.582 354.379C169.394 354.286 169.154 354.239 168.862 354.239C168.461 354.239 168.127 354.331 167.86 354.516C167.596 354.697 167.464 354.929 167.464 355.21C167.464 355.46 167.555 355.658 167.737 355.803C167.919 355.947 168.203 356.068 168.589 356.165L169.561 356.403C170.146 356.545 170.582 356.763 170.869 357.055C171.156 357.345 171.299 357.719 171.299 358.176C171.299 358.551 171.191 358.886 170.975 359.182C170.762 359.477 170.464 359.71 170.08 359.881C169.697 360.051 169.251 360.136 168.742 360.136C168.075 360.136 167.522 359.991 167.085 359.702C166.647 359.412 166.37 358.989 166.254 358.432L167.208 358.193C167.299 358.545 167.471 358.81 167.724 358.986C167.98 359.162 168.313 359.25 168.725 359.25C169.194 359.25 169.566 359.151 169.842 358.952C170.12 358.75 170.259 358.509 170.259 358.227C170.259 358 170.18 357.81 170.021 357.656C169.862 357.5 169.617 357.384 169.288 357.307L168.197 357.051C167.597 356.909 167.157 356.689 166.876 356.391C166.597 356.089 166.458 355.713 166.458 355.261C166.458 354.892 166.562 354.565 166.769 354.281C166.98 353.997 167.265 353.774 167.626 353.612C167.99 353.45 168.401 353.369 168.862 353.369C169.509 353.369 170.018 353.511 170.387 353.795C170.759 354.08 171.024 354.455 171.18 354.92ZM178.847 360.136C178.233 360.136 177.705 359.991 177.262 359.702C176.819 359.412 176.478 359.013 176.239 358.504C176.001 357.996 175.881 357.415 175.881 356.761C175.881 356.097 176.003 355.51 176.248 355.001C176.495 354.49 176.839 354.091 177.279 353.804C177.722 353.514 178.239 353.369 178.83 353.369C179.29 353.369 179.705 353.455 180.074 353.625C180.444 353.795 180.746 354.034 180.982 354.341C181.218 354.648 181.364 355.006 181.421 355.415H180.415C180.339 355.116 180.168 354.852 179.904 354.622C179.643 354.389 179.29 354.273 178.847 354.273C178.455 354.273 178.111 354.375 177.816 354.58C177.523 354.781 177.295 355.067 177.13 355.436C176.968 355.803 176.887 356.233 176.887 356.727C176.887 357.233 176.966 357.673 177.126 358.048C177.287 358.423 177.515 358.714 177.807 358.922C178.103 359.129 178.449 359.233 178.847 359.233C179.108 359.233 179.346 359.188 179.559 359.097C179.772 359.006 179.952 358.875 180.1 358.705C180.248 358.534 180.353 358.33 180.415 358.091H181.421C181.364 358.477 181.224 358.825 180.999 359.135C180.778 359.442 180.483 359.686 180.117 359.868C179.753 360.047 179.33 360.136 178.847 360.136ZM185.55 360.136C184.959 360.136 184.441 359.996 183.995 359.714C183.552 359.433 183.205 359.04 182.955 358.534C182.708 358.028 182.584 357.437 182.584 356.761C182.584 356.08 182.708 355.484 182.955 354.976C183.205 354.467 183.552 354.072 183.995 353.791C184.441 353.51 184.959 353.369 185.55 353.369C186.141 353.369 186.658 353.51 187.101 353.791C187.547 354.072 187.894 354.467 188.141 354.976C188.391 355.484 188.516 356.08 188.516 356.761C188.516 357.437 188.391 358.028 188.141 358.534C187.894 359.04 187.547 359.433 187.101 359.714C186.658 359.996 186.141 360.136 185.55 360.136ZM185.55 359.233C185.999 359.233 186.368 359.118 186.658 358.888C186.948 358.658 187.162 358.355 187.302 357.98C187.441 357.605 187.51 357.199 187.51 356.761C187.51 356.324 187.441 355.916 187.302 355.538C187.162 355.161 186.948 354.855 186.658 354.622C186.368 354.389 185.999 354.273 185.55 354.273C185.101 354.273 184.732 354.389 184.442 354.622C184.153 354.855 183.938 355.161 183.799 355.538C183.66 355.916 183.59 356.324 183.59 356.761C183.59 357.199 183.66 357.605 183.799 357.98C183.938 358.355 184.153 358.658 184.442 358.888C184.732 359.118 185.101 359.233 185.55 359.233ZM191.057 356.062V360H190.051V353.455H191.023V354.477H191.108C191.262 354.145 191.494 353.878 191.807 353.676C192.119 353.472 192.523 353.369 193.017 353.369C193.46 353.369 193.848 353.46 194.181 353.642C194.513 353.821 194.771 354.094 194.956 354.46C195.141 354.824 195.233 355.284 195.233 355.841V360H194.227V355.909C194.227 355.395 194.094 354.994 193.827 354.707C193.56 354.418 193.193 354.273 192.727 354.273C192.406 354.273 192.119 354.342 191.867 354.482C191.617 354.621 191.419 354.824 191.274 355.091C191.129 355.358 191.057 355.682 191.057 356.062ZM203.292 353.455V354.307H199.9V353.455H203.292ZM200.889 351.886H201.895V358.125C201.895 358.409 201.936 358.622 202.018 358.764C202.104 358.903 202.211 358.997 202.342 359.045C202.476 359.091 202.616 359.114 202.764 359.114C202.875 359.114 202.966 359.108 203.037 359.097C203.108 359.082 203.165 359.071 203.207 359.062L203.412 359.966C203.344 359.991 203.248 360.017 203.126 360.043C203.004 360.071 202.849 360.085 202.662 360.085C202.378 360.085 202.099 360.024 201.827 359.902C201.557 359.78 201.332 359.594 201.153 359.344C200.977 359.094 200.889 358.778 200.889 358.398V351.886ZM208.93 357.324V353.455H209.936V360H208.93V358.892H208.862C208.709 359.224 208.47 359.507 208.146 359.74C207.822 359.97 207.413 360.085 206.919 360.085C206.51 360.085 206.146 359.996 205.828 359.817C205.51 359.635 205.26 359.362 205.078 358.999C204.896 358.632 204.805 358.17 204.805 357.614V353.455H205.811V357.545C205.811 358.023 205.944 358.403 206.211 358.688C206.481 358.972 206.825 359.114 207.243 359.114C207.493 359.114 207.747 359.05 208.006 358.922C208.267 358.794 208.486 358.598 208.662 358.334C208.841 358.07 208.93 357.733 208.93 357.324ZM217.079 360.153C216.664 360.153 216.288 360.075 215.95 359.919C215.612 359.76 215.343 359.531 215.144 359.233C214.945 358.932 214.846 358.568 214.846 358.142C214.846 357.767 214.92 357.463 215.068 357.23C215.215 356.994 215.413 356.81 215.66 356.676C215.907 356.543 216.18 356.443 216.478 356.378C216.779 356.31 217.082 356.256 217.386 356.216C217.784 356.165 218.106 356.126 218.353 356.101C218.603 356.072 218.785 356.026 218.899 355.96C219.015 355.895 219.073 355.781 219.073 355.619V355.585C219.073 355.165 218.958 354.838 218.728 354.605C218.501 354.372 218.156 354.256 217.693 354.256C217.213 354.256 216.836 354.361 216.563 354.571C216.291 354.781 216.099 355.006 215.988 355.244L215.034 354.903C215.204 354.506 215.431 354.196 215.715 353.974C216.002 353.75 216.315 353.594 216.653 353.506C216.994 353.415 217.329 353.369 217.659 353.369C217.869 353.369 218.11 353.395 218.383 353.446C218.659 353.494 218.924 353.595 219.18 353.749C219.438 353.902 219.653 354.134 219.823 354.443C219.994 354.753 220.079 355.168 220.079 355.688V360H219.073V359.114H219.022C218.954 359.256 218.84 359.408 218.681 359.57C218.522 359.732 218.311 359.869 218.046 359.983C217.782 360.097 217.46 360.153 217.079 360.153ZM217.232 359.25C217.63 359.25 217.965 359.172 218.238 359.016C218.514 358.859 218.721 358.658 218.86 358.411C219.002 358.163 219.073 357.903 219.073 357.631V356.71C219.031 356.761 218.937 356.808 218.792 356.851C218.65 356.891 218.485 356.926 218.298 356.957C218.113 356.986 217.933 357.011 217.757 357.034C217.583 357.054 217.443 357.071 217.335 357.085C217.073 357.119 216.829 357.175 216.602 357.251C216.377 357.325 216.195 357.437 216.056 357.588C215.92 357.736 215.852 357.937 215.852 358.193C215.852 358.543 215.981 358.807 216.24 358.986C216.501 359.162 216.832 359.25 217.232 359.25ZM221.915 362.455V353.455H222.886V354.494H223.006C223.079 354.381 223.182 354.236 223.312 354.06C223.446 353.881 223.636 353.722 223.883 353.582C224.133 353.44 224.471 353.369 224.898 353.369C225.449 353.369 225.934 353.507 226.355 353.783C226.775 354.058 227.104 354.449 227.339 354.955C227.575 355.46 227.693 356.057 227.693 356.744C227.693 357.438 227.575 358.038 227.339 358.547C227.104 359.053 226.777 359.445 226.359 359.723C225.942 359.999 225.46 360.136 224.915 360.136C224.494 360.136 224.157 360.067 223.905 359.928C223.652 359.786 223.457 359.625 223.321 359.446C223.184 359.264 223.079 359.114 223.006 358.994H222.92V362.455H221.915ZM222.903 356.727C222.903 357.222 222.976 357.658 223.121 358.036C223.265 358.411 223.477 358.705 223.756 358.918C224.034 359.128 224.375 359.233 224.778 359.233C225.199 359.233 225.55 359.122 225.831 358.901C226.115 358.676 226.328 358.375 226.47 357.997C226.615 357.616 226.687 357.193 226.687 356.727C226.687 356.267 226.616 355.852 226.474 355.483C226.335 355.111 226.123 354.817 225.839 354.601C225.558 354.382 225.204 354.273 224.778 354.273C224.369 354.273 224.025 354.376 223.747 354.584C223.469 354.788 223.258 355.075 223.116 355.445C222.974 355.811 222.903 356.239 222.903 356.727ZM231.886 360.136C231.295 360.136 230.777 359.996 230.331 359.714C229.888 359.433 229.541 359.04 229.291 358.534C229.044 358.028 228.92 357.437 228.92 356.761C228.92 356.08 229.044 355.484 229.291 354.976C229.541 354.467 229.888 354.072 230.331 353.791C230.777 353.51 231.295 353.369 231.886 353.369C232.477 353.369 232.994 353.51 233.437 353.791C233.883 354.072 234.23 354.467 234.477 354.976C234.727 355.484 234.852 356.08 234.852 356.761C234.852 357.437 234.727 358.028 234.477 358.534C234.23 359.04 233.883 359.433 233.437 359.714C232.994 359.996 232.477 360.136 231.886 360.136ZM231.886 359.233C232.335 359.233 232.704 359.118 232.994 358.888C233.284 358.658 233.498 358.355 233.638 357.98C233.777 357.605 233.846 357.199 233.846 356.761C233.846 356.324 233.777 355.916 233.638 355.538C233.498 355.161 233.284 354.855 232.994 354.622C232.704 354.389 232.335 354.273 231.886 354.273C231.437 354.273 231.068 354.389 230.778 354.622C230.488 354.855 230.274 355.161 230.135 355.538C229.996 355.916 229.926 356.324 229.926 356.761C229.926 357.199 229.996 357.605 230.135 357.98C230.274 358.355 230.488 358.658 230.778 358.888C231.068 359.118 231.437 359.233 231.886 359.233ZM236.387 360V353.455H237.359V354.443H237.427C237.546 354.119 237.762 353.857 238.075 353.655C238.387 353.453 238.74 353.352 239.132 353.352C239.205 353.352 239.298 353.354 239.409 353.357C239.519 353.359 239.603 353.364 239.66 353.369V354.392C239.626 354.384 239.548 354.371 239.426 354.354C239.306 354.334 239.18 354.324 239.046 354.324C238.728 354.324 238.444 354.391 238.194 354.524C237.947 354.655 237.751 354.837 237.606 355.07C237.464 355.3 237.393 355.562 237.393 355.858V360H236.387ZM244.109 353.455V354.307H240.717V353.455H244.109ZM241.705 351.886H242.711V358.125C242.711 358.409 242.752 358.622 242.835 358.764C242.92 358.903 243.028 358.997 243.159 359.045C243.292 359.091 243.433 359.114 243.58 359.114C243.691 359.114 243.782 359.108 243.853 359.097C243.924 359.082 243.981 359.071 244.024 359.062L244.228 359.966C244.16 359.991 244.065 360.017 243.943 360.043C243.82 360.071 243.666 360.085 243.478 360.085C243.194 360.085 242.916 360.024 242.643 359.902C242.373 359.78 242.149 359.594 241.97 359.344C241.794 359.094 241.705 358.778 241.705 358.398V351.886ZM248.296 360.136C247.665 360.136 247.121 359.997 246.664 359.719C246.209 359.438 245.858 359.045 245.611 358.543C245.367 358.037 245.244 357.449 245.244 356.778C245.244 356.108 245.367 355.517 245.611 355.006C245.858 354.491 246.202 354.091 246.642 353.804C247.085 353.514 247.602 353.369 248.193 353.369C248.534 353.369 248.871 353.426 249.203 353.54C249.536 353.653 249.838 353.838 250.111 354.094C250.384 354.347 250.601 354.682 250.763 355.099C250.925 355.517 251.006 356.031 251.006 356.642V357.068H245.96V356.199H249.983C249.983 355.83 249.909 355.5 249.762 355.21C249.617 354.92 249.409 354.692 249.139 354.524C248.872 354.357 248.557 354.273 248.193 354.273C247.793 354.273 247.446 354.372 247.154 354.571C246.864 354.767 246.641 355.023 246.485 355.338C246.328 355.653 246.25 355.991 246.25 356.352V356.932C246.25 357.426 246.335 357.845 246.506 358.189C246.679 358.53 246.919 358.79 247.226 358.969C247.533 359.145 247.889 359.233 248.296 359.233C248.56 359.233 248.798 359.196 249.012 359.122C249.227 359.045 249.414 358.932 249.57 358.781C249.726 358.628 249.847 358.437 249.932 358.21L250.904 358.483C250.801 358.812 250.629 359.102 250.388 359.352C250.146 359.599 249.848 359.793 249.493 359.932C249.138 360.068 248.739 360.136 248.296 360.136Z" fill="#666666"/>
<path d="M160 403C161.657 403 163 401.657 163 400C163 398.343 161.657 397 160 397C158.343 397 157 398.343 157 400C157 401.657 158.343 403 160 403Z" fill="#CCCCCC" stroke="#CCCCCC"/>
<path d="M180 403C181.657 403 183 401.657 183 400C183 398.343 181.657 397 180 397C178.343 397 177 398.343 177 400C177 401.657 178.343 403 180 403Z" fill="#CCCCCC" stroke="#CCCCCC"/>
<path d="M200 404C202.209 404 204 402.209 204 400C204 397.791 202.209 396 200 396C197.791 396 196 397.791 196 400C196 402.209 197.791 404 200 404Z" fill="#D32F2F" stroke="#D32F2F"/>
<path d="M318 680H42C29.8497 680 20 689.85 20 702C20 714.15 29.8497 724 42 724H318C330.15 724 340 714.15 340 702C340 689.85 330.15 680 318 680Z" fill="#E57373" stroke="#BDBDBD"/>
<path d="M159.058 702H158.001C157.939 701.696 157.829 701.429 157.673 701.199C157.52 700.969 157.332 700.776 157.111 700.619C156.892 700.46 156.649 700.341 156.382 700.261C156.115 700.182 155.836 700.142 155.547 700.142C155.018 700.142 154.54 700.276 154.111 700.543C153.684 700.81 153.345 701.203 153.092 701.723C152.842 702.243 152.717 702.881 152.717 703.636C152.717 704.392 152.842 705.03 153.092 705.55C153.345 706.07 153.684 706.463 154.111 706.73C154.54 706.997 155.018 707.131 155.547 707.131C155.836 707.131 156.115 707.091 156.382 707.011C156.649 706.932 156.892 706.814 157.111 706.658C157.332 706.499 157.52 706.304 157.673 706.074C157.829 705.841 157.939 705.574 158.001 705.273H159.058C158.979 705.719 158.834 706.118 158.623 706.47C158.413 706.822 158.152 707.122 157.839 707.369C157.527 707.614 157.176 707.8 156.787 707.928C156.4 708.055 155.987 708.119 155.547 708.119C154.802 708.119 154.14 707.938 153.561 707.574C152.981 707.21 152.525 706.693 152.193 706.023C151.861 705.352 151.694 704.557 151.694 703.636C151.694 702.716 151.861 701.92 152.193 701.25C152.525 700.58 152.981 700.062 153.561 699.699C154.14 699.335 154.802 699.153 155.547 699.153C155.987 699.153 156.4 699.217 156.787 699.345C157.176 699.473 157.527 699.661 157.839 699.908C158.152 700.152 158.413 700.45 158.623 700.803C158.834 701.152 158.979 701.551 159.058 702ZM163.289 708.136C162.698 708.136 162.179 707.996 161.733 707.714C161.29 707.433 160.943 707.04 160.693 706.534C160.446 706.028 160.323 705.437 160.323 704.761C160.323 704.08 160.446 703.484 160.693 702.976C160.943 702.467 161.29 702.072 161.733 701.791C162.179 701.51 162.698 701.369 163.289 701.369C163.879 701.369 164.396 701.51 164.84 701.791C165.286 702.072 165.632 702.467 165.879 702.976C166.129 703.484 166.254 704.08 166.254 704.761C166.254 705.437 166.129 706.028 165.879 706.534C165.632 707.04 165.286 707.433 164.84 707.714C164.396 707.996 163.879 708.136 163.289 708.136ZM163.289 707.233C163.737 707.233 164.107 707.118 164.396 706.888C164.686 706.658 164.901 706.355 165.04 705.98C165.179 705.605 165.249 705.199 165.249 704.761C165.249 704.324 165.179 703.916 165.04 703.538C164.901 703.161 164.686 702.855 164.396 702.622C164.107 702.389 163.737 702.273 163.289 702.273C162.84 702.273 162.47 702.389 162.181 702.622C161.891 702.855 161.676 703.161 161.537 703.538C161.398 703.916 161.328 704.324 161.328 704.761C161.328 705.199 161.398 705.605 161.537 705.98C161.676 706.355 161.891 706.658 162.181 706.888C162.47 707.118 162.84 707.233 163.289 707.233ZM167.79 708V701.455H168.761V702.477H168.846C168.983 702.128 169.203 701.857 169.507 701.663C169.811 701.467 170.176 701.369 170.602 701.369C171.034 701.369 171.393 701.467 171.68 701.663C171.97 701.857 172.196 702.128 172.358 702.477H172.426C172.594 702.139 172.845 701.871 173.18 701.672C173.515 701.47 173.917 701.369 174.386 701.369C174.971 701.369 175.45 701.553 175.822 701.919C176.194 702.283 176.381 702.849 176.381 703.619V708H175.375V703.619C175.375 703.136 175.243 702.791 174.979 702.584C174.714 702.376 174.403 702.273 174.045 702.273C173.585 702.273 173.229 702.412 172.976 702.69C172.723 702.966 172.596 703.315 172.596 703.739V708H171.574V703.517C171.574 703.145 171.453 702.845 171.211 702.618C170.97 702.388 170.659 702.273 170.278 702.273C170.017 702.273 169.773 702.342 169.545 702.482C169.321 702.621 169.139 702.814 169 703.061C168.863 703.305 168.795 703.588 168.795 703.909V708H167.79ZM180.964 708.136C180.333 708.136 179.789 707.997 179.331 707.719C178.877 707.438 178.526 707.045 178.279 706.543C178.035 706.037 177.912 705.449 177.912 704.778C177.912 704.108 178.035 703.517 178.279 703.006C178.526 702.491 178.87 702.091 179.31 701.804C179.753 701.514 180.27 701.369 180.861 701.369C181.202 701.369 181.539 701.426 181.871 701.54C182.204 701.653 182.506 701.838 182.779 702.094C183.052 702.347 183.269 702.682 183.431 703.099C183.593 703.517 183.674 704.031 183.674 704.642V705.068H178.628V704.199H182.651C182.651 703.83 182.577 703.5 182.43 703.21C182.285 702.92 182.077 702.692 181.807 702.524C181.54 702.357 181.225 702.273 180.861 702.273C180.461 702.273 180.114 702.372 179.822 702.571C179.532 702.767 179.309 703.023 179.153 703.338C178.996 703.653 178.918 703.991 178.918 704.352V704.932C178.918 705.426 179.003 705.845 179.174 706.189C179.347 706.53 179.587 706.79 179.894 706.969C180.201 707.145 180.557 707.233 180.964 707.233C181.228 707.233 181.466 707.196 181.68 707.122C181.895 707.045 182.081 706.932 182.238 706.781C182.394 706.628 182.515 706.437 182.6 706.21L183.572 706.483C183.469 706.812 183.297 707.102 183.056 707.352C182.814 707.599 182.516 707.793 182.161 707.932C181.806 708.068 181.407 708.136 180.964 708.136ZM186.209 704.062V708H185.204V701.455H186.175V702.477H186.26C186.414 702.145 186.647 701.878 186.959 701.676C187.272 701.472 187.675 701.369 188.17 701.369C188.613 701.369 189.001 701.46 189.333 701.642C189.665 701.821 189.924 702.094 190.108 702.46C190.293 702.824 190.385 703.284 190.385 703.841V708H189.38V703.909C189.38 703.395 189.246 702.994 188.979 702.707C188.712 702.418 188.346 702.273 187.88 702.273C187.559 702.273 187.272 702.342 187.019 702.482C186.769 702.621 186.572 702.824 186.427 703.091C186.282 703.358 186.209 703.682 186.209 704.062ZM192.036 708V707.233L195.752 702.46V702.392H192.155V701.455H197.047V702.256L193.433 706.994V707.062H197.166V708H192.036ZM200.642 708.153C200.227 708.153 199.85 708.075 199.512 707.919C199.174 707.76 198.906 707.531 198.707 707.233C198.508 706.932 198.409 706.568 198.409 706.142C198.409 705.767 198.482 705.463 198.63 705.23C198.778 704.994 198.975 704.81 199.222 704.676C199.47 704.543 199.742 704.443 200.041 704.378C200.342 704.31 200.644 704.256 200.948 704.216C201.346 704.165 201.669 704.126 201.916 704.101C202.166 704.072 202.347 704.026 202.461 703.96C202.578 703.895 202.636 703.781 202.636 703.619V703.585C202.636 703.165 202.521 702.838 202.291 702.605C202.063 702.372 201.718 702.256 201.255 702.256C200.775 702.256 200.399 702.361 200.126 702.571C199.853 702.781 199.661 703.006 199.551 703.244L198.596 702.903C198.767 702.506 198.994 702.196 199.278 701.974C199.565 701.75 199.877 701.594 200.215 701.506C200.556 701.415 200.892 701.369 201.221 701.369C201.431 701.369 201.673 701.395 201.945 701.446C202.221 701.494 202.487 701.595 202.742 701.749C203.001 701.902 203.215 702.134 203.386 702.443C203.556 702.753 203.642 703.168 203.642 703.688V708H202.636V707.114H202.585C202.517 707.256 202.403 707.408 202.244 707.57C202.085 707.732 201.873 707.869 201.609 707.983C201.345 708.097 201.022 708.153 200.642 708.153ZM200.795 707.25C201.193 707.25 201.528 707.172 201.801 707.016C202.076 706.859 202.284 706.658 202.423 706.411C202.565 706.163 202.636 705.903 202.636 705.631V704.71C202.593 704.761 202.499 704.808 202.355 704.851C202.213 704.891 202.048 704.926 201.86 704.957C201.676 704.986 201.495 705.011 201.319 705.034C201.146 705.054 201.005 705.071 200.897 705.085C200.636 705.119 200.392 705.175 200.164 705.251C199.94 705.325 199.758 705.437 199.619 705.588C199.482 705.736 199.414 705.937 199.414 706.193C199.414 706.543 199.544 706.807 199.802 706.986C200.063 707.162 200.394 707.25 200.795 707.25ZM205.477 708V701.455H206.449V702.443H206.517C206.636 702.119 206.852 701.857 207.165 701.655C207.477 701.453 207.829 701.352 208.221 701.352C208.295 701.352 208.388 701.354 208.498 701.357C208.609 701.359 208.693 701.364 208.75 701.369V702.392C208.716 702.384 208.638 702.371 208.515 702.354C208.396 702.334 208.27 702.324 208.136 702.324C207.818 702.324 207.534 702.391 207.284 702.524C207.037 702.655 206.841 702.837 206.696 703.07C206.554 703.3 206.483 703.562 206.483 703.858V708H205.477Z" fill="#333333"/>
<path opacity="0.01" d="M318 680H42C29.8497 680 20 689.85 20 702C20 714.15 29.8497 724 42 724H318C330.15 724 340 714.15 340 702C340 689.85 330.15 680 318 680Z" fill="black" stroke="black"/>
</g>
<defs>
<clipPath id="clip0_63_592">
<rect width="360" height="800" fill="white"/>
</clipPath>
</defs>
</svg>
