<svg width="360" height="800" viewBox="0 0 360 800" fill="none" xmlns="http://www.w3.org/2000/svg">
<g clip-path="url(#clip0_63_637)">
<rect width="360" height="800" fill="white"/>
<path d="M360 0H0V56H360V0Z" fill="#FAFAFA" stroke="#D0D0D0"/>
<path d="M24 36C28.4183 36 32 32.4183 32 28C32 23.5817 28.4183 20 24 20C19.5817 20 16 23.5817 16 28C16 32.4183 19.5817 36 24 36Z" fill="#E0E0E0" stroke="#BDBDBD"/>
<path d="M67.2784 25.4375H64.7898C64.7443 25.1155 64.6515 24.8295 64.5114 24.5795C64.3712 24.3258 64.1913 24.1098 63.9716 23.9318C63.7519 23.7538 63.4981 23.6174 63.2102 23.5227C62.9261 23.428 62.6174 23.3807 62.2841 23.3807C61.6818 23.3807 61.1572 23.5303 60.7102 23.8295C60.2633 24.125 59.9167 24.5568 59.6705 25.125C59.4242 25.6894 59.3011 26.375 59.3011 27.1818C59.3011 28.0114 59.4242 28.7083 59.6705 29.2727C59.9205 29.8371 60.2689 30.2633 60.7159 30.5511C61.1629 30.839 61.6799 30.983 62.267 30.983C62.5966 30.983 62.9015 30.9394 63.1818 30.8523C63.4659 30.7652 63.7178 30.6383 63.9375 30.4716C64.1572 30.3011 64.339 30.0947 64.483 29.8523C64.6307 29.6098 64.733 29.3333 64.7898 29.0227L67.2784 29.0341C67.214 29.5682 67.053 30.0833 66.7955 30.5795C66.5417 31.072 66.1989 31.5133 65.767 31.9034C65.339 32.2898 64.8277 32.5966 64.233 32.8239C63.642 33.0473 62.9735 33.1591 62.2273 33.1591C61.1894 33.1591 60.2614 32.9242 59.4432 32.4545C58.6288 31.9848 57.9848 31.3049 57.5114 30.4148C57.0417 29.5246 56.8068 28.447 56.8068 27.1818C56.8068 25.9129 57.0455 24.8333 57.5227 23.9432C58 23.053 58.6477 22.375 59.4659 21.9091C60.2841 21.4394 61.2045 21.2045 62.2273 21.2045C62.9015 21.2045 63.5265 21.2992 64.1023 21.4886C64.6818 21.678 65.1951 21.9545 65.642 22.3182C66.089 22.678 66.4527 23.1193 66.733 23.642C67.017 24.1648 67.1989 24.7633 67.2784 25.4375ZM68.9972 33V24.2727H71.3438V25.7955H71.4347C71.5938 25.2538 71.8608 24.8447 72.2358 24.5682C72.6108 24.2879 73.0426 24.1477 73.5312 24.1477C73.6525 24.1477 73.7831 24.1553 73.9233 24.1705C74.0634 24.1856 74.1866 24.2064 74.2926 24.233V26.3807C74.179 26.3466 74.0218 26.3163 73.821 26.2898C73.6203 26.2633 73.4366 26.25 73.2699 26.25C72.9138 26.25 72.5956 26.3277 72.3153 26.483C72.0388 26.6345 71.8191 26.8466 71.6562 27.1193C71.4972 27.392 71.4176 27.7064 71.4176 28.0625V33H68.9972ZM79.1151 33.1705C78.2173 33.1705 77.4446 32.9886 76.7969 32.625C76.1529 32.2576 75.6567 31.7386 75.3082 31.0682C74.9598 30.3939 74.7855 29.5966 74.7855 28.6761C74.7855 27.7784 74.9598 26.9905 75.3082 26.3125C75.6567 25.6345 76.1473 25.1061 76.7798 24.7273C77.4162 24.3485 78.1624 24.1591 79.0185 24.1591C79.5942 24.1591 80.1302 24.2519 80.6264 24.4375C81.1264 24.6193 81.562 24.8939 81.9332 25.2614C82.3082 25.6288 82.5999 26.0909 82.8082 26.6477C83.0166 27.2008 83.1207 27.8485 83.1207 28.5909V29.2557H75.7514V27.7557H80.8423C80.8423 27.4072 80.7666 27.0985 80.6151 26.8295C80.4635 26.5606 80.2533 26.3504 79.9844 26.1989C79.7192 26.0436 79.4105 25.9659 79.0582 25.9659C78.6908 25.9659 78.3651 26.0511 78.081 26.2216C77.8007 26.3883 77.581 26.6136 77.4219 26.8977C77.2628 27.178 77.1813 27.4905 77.1776 27.8352V29.2614C77.1776 29.6932 77.2571 30.0663 77.4162 30.3807C77.5791 30.6951 77.8082 30.9375 78.1037 31.108C78.3991 31.2784 78.7495 31.3636 79.1548 31.3636C79.4238 31.3636 79.67 31.3258 79.8935 31.25C80.117 31.1742 80.3082 31.0606 80.4673 30.9091C80.6264 30.7576 80.7476 30.572 80.831 30.3523L83.0696 30.5C82.956 31.0379 82.723 31.5076 82.3707 31.9091C82.0223 32.3068 81.5715 32.6174 81.0185 32.8409C80.4692 33.0606 79.8348 33.1705 79.1151 33.1705ZM87.1889 33.1648C86.6321 33.1648 86.1359 33.0682 85.7003 32.875C85.2647 32.678 84.92 32.3883 84.6662 32.0057C84.4162 31.6193 84.2912 31.1383 84.2912 30.5625C84.2912 30.0777 84.3802 29.6705 84.5582 29.3409C84.7363 29.0114 84.9787 28.7462 85.2855 28.5455C85.5923 28.3447 85.9408 28.1932 86.331 28.0909C86.7249 27.9886 87.1378 27.9167 87.5696 27.875C88.0772 27.822 88.4863 27.7727 88.7969 27.7273C89.1075 27.678 89.3329 27.6061 89.473 27.5114C89.6132 27.4167 89.6832 27.2765 89.6832 27.0909V27.0568C89.6832 26.697 89.5696 26.4186 89.3423 26.2216C89.1188 26.0246 88.8007 25.9261 88.3878 25.9261C87.9522 25.9261 87.6056 26.0227 87.348 26.2159C87.0904 26.4053 86.92 26.6439 86.8366 26.9318L84.598 26.75C84.7116 26.2197 84.9351 25.7614 85.2685 25.375C85.6018 24.9848 86.0317 24.6856 86.5582 24.4773C87.0885 24.2652 87.7022 24.1591 88.3991 24.1591C88.884 24.1591 89.348 24.2159 89.7912 24.3295C90.2382 24.4432 90.634 24.6193 90.9787 24.858C91.3272 25.0966 91.6018 25.4034 91.8026 25.7784C92.0033 26.1496 92.1037 26.5947 92.1037 27.1136V33H89.8082V31.7898H89.7401C89.5999 32.0625 89.4124 32.303 89.1776 32.5114C88.9427 32.7159 88.6605 32.8769 88.331 32.9943C88.0014 33.108 87.6207 33.1648 87.1889 33.1648ZM87.8821 31.4943C88.2382 31.4943 88.5526 31.4242 88.8253 31.2841C89.098 31.1402 89.312 30.947 89.4673 30.7045C89.6226 30.4621 89.7003 30.1875 89.7003 29.8807V28.9545C89.6245 29.0038 89.5204 29.0492 89.3878 29.0909C89.259 29.1288 89.1132 29.1648 88.9503 29.1989C88.7874 29.2292 88.6245 29.2576 88.4616 29.2841C88.2988 29.3068 88.151 29.3277 88.0185 29.3466C87.7344 29.3883 87.4863 29.4545 87.2741 29.5455C87.062 29.6364 86.8973 29.7595 86.7798 29.9148C86.6624 30.0663 86.6037 30.2557 86.6037 30.483C86.6037 30.8125 86.723 31.0644 86.9616 31.2386C87.2041 31.4091 87.5109 31.4943 87.8821 31.4943ZM93.9815 33V24.2727H96.3281V25.7955H96.419C96.5781 25.2538 96.8452 24.8447 97.2202 24.5682C97.5952 24.2879 98.027 24.1477 98.5156 24.1477C98.6368 24.1477 98.7675 24.1553 98.9077 24.1705C99.0478 24.1856 99.1709 24.2064 99.277 24.233V26.3807C99.1634 26.3466 99.0062 26.3163 98.8054 26.2898C98.6046 26.2633 98.4209 26.25 98.2543 26.25C97.8982 26.25 97.58 26.3277 97.2997 26.483C97.0232 26.6345 96.8035 26.8466 96.6406 27.1193C96.4815 27.392 96.402 27.7064 96.402 28.0625V33H93.9815ZM108.175 33.1705C107.281 33.1705 106.512 32.9811 105.868 32.6023C105.228 32.2197 104.735 31.6894 104.391 31.0114C104.05 30.3333 103.879 29.553 103.879 28.6705C103.879 27.7765 104.052 26.9924 104.396 26.3182C104.745 25.6402 105.239 25.1117 105.879 24.733C106.519 24.3504 107.281 24.1591 108.163 24.1591C108.925 24.1591 109.591 24.2973 110.163 24.5739C110.735 24.8504 111.188 25.2386 111.521 25.7386C111.855 26.2386 112.038 26.8258 112.072 27.5H109.788C109.724 27.0644 109.554 26.714 109.277 26.4489C109.004 26.1799 108.646 26.0455 108.203 26.0455C107.828 26.0455 107.5 26.1477 107.22 26.3523C106.944 26.553 106.728 26.8466 106.572 27.233C106.417 27.6193 106.339 28.0871 106.339 28.6364C106.339 29.1932 106.415 29.6667 106.567 30.0568C106.722 30.447 106.94 30.7443 107.22 30.9489C107.5 31.1534 107.828 31.2557 108.203 31.2557C108.48 31.2557 108.728 31.1989 108.947 31.0852C109.171 30.9716 109.355 30.8068 109.499 30.5909C109.646 30.3712 109.743 30.108 109.788 29.8011H112.072C112.035 30.4678 111.853 31.0549 111.527 31.5625C111.205 32.0663 110.76 32.4602 110.192 32.7443C109.624 33.0284 108.951 33.1705 108.175 33.1705ZM119.219 29.2841V24.2727H121.639V33H119.315V31.4148H119.224C119.027 31.9261 118.7 32.3371 118.241 32.6477C117.787 32.9583 117.232 33.1136 116.577 33.1136C115.993 33.1136 115.48 32.9811 115.037 32.7159C114.594 32.4508 114.247 32.0739 113.997 31.5852C113.751 31.0966 113.626 30.5114 113.622 29.8295V24.2727H116.043V29.3977C116.046 29.9129 116.185 30.3201 116.457 30.6193C116.73 30.9186 117.096 31.0682 117.554 31.0682C117.846 31.0682 118.118 31.0019 118.372 30.8693C118.626 30.733 118.83 30.5322 118.986 30.267C119.145 30.0019 119.223 29.6742 119.219 29.2841ZM127.553 33.1705C126.655 33.1705 125.882 32.9886 125.234 32.625C124.59 32.2576 124.094 31.7386 123.746 31.0682C123.397 30.3939 123.223 29.5966 123.223 28.6761C123.223 27.7784 123.397 26.9905 123.746 26.3125C124.094 25.6345 124.585 25.1061 125.217 24.7273C125.854 24.3485 126.6 24.1591 127.456 24.1591C128.032 24.1591 128.568 24.2519 129.064 24.4375C129.564 24.6193 130 24.8939 130.371 25.2614C130.746 25.6288 131.037 26.0909 131.246 26.6477C131.454 27.2008 131.558 27.8485 131.558 28.5909V29.2557H124.189V27.7557H129.28C129.28 27.4072 129.204 27.0985 129.053 26.8295C128.901 26.5606 128.691 26.3504 128.422 26.1989C128.157 26.0436 127.848 25.9659 127.496 25.9659C127.128 25.9659 126.803 26.0511 126.518 26.2216C126.238 26.3883 126.018 26.6136 125.859 26.8977C125.7 27.178 125.619 27.4905 125.615 27.8352V29.2614C125.615 29.6932 125.695 30.0663 125.854 30.3807C126.017 30.6951 126.246 30.9375 126.541 31.108C126.837 31.2784 127.187 31.3636 127.592 31.3636C127.861 31.3636 128.107 31.3258 128.331 31.25C128.554 31.1742 128.746 31.0606 128.905 30.9091C129.064 30.7576 129.185 30.572 129.268 30.3523L131.507 30.5C131.393 31.0379 131.161 31.5076 130.808 31.9091C130.46 32.3068 130.009 32.6174 129.456 32.8409C128.907 33.0606 128.272 33.1705 127.553 33.1705ZM135.558 27.9545V33H133.138V24.2727H135.445V25.8125H135.547C135.74 25.3049 136.064 24.9034 136.518 24.608C136.973 24.3087 137.524 24.1591 138.172 24.1591C138.778 24.1591 139.306 24.2917 139.757 24.5568C140.208 24.822 140.558 25.2008 140.808 25.6932C141.058 26.1818 141.183 26.7652 141.183 27.4432V33H138.763V27.875C138.767 27.3409 138.63 26.9242 138.354 26.625C138.077 26.322 137.696 26.1705 137.212 26.1705C136.886 26.1705 136.598 26.2405 136.348 26.3807C136.102 26.5208 135.909 26.7254 135.768 26.9943C135.632 27.2595 135.562 27.5795 135.558 27.9545ZM147.733 24.2727V26.0909H142.477V24.2727H147.733ZM143.67 22.1818H146.091V30.3182C146.091 30.5417 146.125 30.7159 146.193 30.8409C146.261 30.9621 146.356 31.0473 146.477 31.0966C146.602 31.1458 146.746 31.1705 146.909 31.1705C147.023 31.1705 147.136 31.161 147.25 31.142C147.364 31.1193 147.451 31.1023 147.511 31.0909L147.892 32.892C147.771 32.9299 147.6 32.9735 147.381 33.0227C147.161 33.0758 146.894 33.108 146.58 33.1193C145.996 33.142 145.485 33.0644 145.045 32.8864C144.61 32.7083 144.271 32.4318 144.028 32.0568C143.786 31.6818 143.667 31.2083 143.67 30.6364V22.1818ZM151.798 33.1648C151.241 33.1648 150.745 33.0682 150.31 32.875C149.874 32.678 149.529 32.3883 149.276 32.0057C149.026 31.6193 148.901 31.1383 148.901 30.5625C148.901 30.0777 148.99 29.6705 149.168 29.3409C149.346 29.0114 149.588 28.7462 149.895 28.5455C150.202 28.3447 150.55 28.1932 150.94 28.0909C151.334 27.9886 151.747 27.9167 152.179 27.875C152.687 27.822 153.096 27.7727 153.406 27.7273C153.717 27.678 153.942 27.6061 154.082 27.5114C154.223 27.4167 154.293 27.2765 154.293 27.0909V27.0568C154.293 26.697 154.179 26.4186 153.952 26.2216C153.728 26.0246 153.41 25.9261 152.997 25.9261C152.562 25.9261 152.215 26.0227 151.957 26.2159C151.7 26.4053 151.529 26.6439 151.446 26.9318L149.207 26.75C149.321 26.2197 149.545 25.7614 149.878 25.375C150.211 24.9848 150.641 24.6856 151.168 24.4773C151.698 24.2652 152.312 24.1591 153.009 24.1591C153.493 24.1591 153.957 24.2159 154.401 24.3295C154.848 24.4432 155.243 24.6193 155.588 24.858C155.937 25.0966 156.211 25.4034 156.412 25.7784C156.613 26.1496 156.713 26.5947 156.713 27.1136V33H154.418V31.7898H154.349C154.209 32.0625 154.022 32.303 153.787 32.5114C153.552 32.7159 153.27 32.8769 152.94 32.9943C152.611 33.108 152.23 33.1648 151.798 33.1648ZM152.491 31.4943C152.848 31.4943 153.162 31.4242 153.435 31.2841C153.707 31.1402 153.921 30.947 154.077 30.7045C154.232 30.4621 154.31 30.1875 154.31 29.8807V28.9545C154.234 29.0038 154.13 29.0492 153.997 29.0909C153.868 29.1288 153.723 29.1648 153.56 29.1989C153.397 29.2292 153.234 29.2576 153.071 29.2841C152.908 29.3068 152.76 29.3277 152.628 29.3466C152.344 29.3883 152.096 29.4545 151.884 29.5455C151.671 29.6364 151.507 29.7595 151.389 29.9148C151.272 30.0663 151.213 30.2557 151.213 30.483C151.213 30.8125 151.332 31.0644 151.571 31.2386C151.813 31.4091 152.12 31.4943 152.491 31.4943Z" fill="#333333"/>
<path d="M332 36C336.418 36 340 32.4183 340 28C340 23.5817 336.418 20 332 20C327.582 20 324 23.5817 324 28C324 32.4183 327.582 36 332 36Z" fill="#E0E0E0" stroke="#BDBDBD"/>
<path d="M330 96H30C24.4772 96 20 100.477 20 106V134C20 139.523 24.4772 144 30 144H330C335.523 144 340 139.523 340 134V106C340 100.477 335.523 96 330 96Z" fill="white" stroke="#DDDDDD"/>
<path d="M37.9773 117.273V126H36.9545L32.1989 119.148H32.1136V126H31.0568V117.273H32.0795L36.8523 124.142H36.9375V117.273H37.9773ZM42.6147 126.136C42.0238 126.136 41.5053 125.996 41.0593 125.714C40.6161 125.433 40.2695 125.04 40.0195 124.534C39.7724 124.028 39.6488 123.437 39.6488 122.761C39.6488 122.08 39.7724 121.484 40.0195 120.976C40.2695 120.467 40.6161 120.072 41.0593 119.791C41.5053 119.51 42.0238 119.369 42.6147 119.369C43.2056 119.369 43.7227 119.51 44.1658 119.791C44.6119 120.072 44.9585 120.467 45.2056 120.976C45.4556 121.484 45.5806 122.08 45.5806 122.761C45.5806 123.437 45.4556 124.028 45.2056 124.534C44.9585 125.04 44.6119 125.433 44.1658 125.714C43.7227 125.996 43.2056 126.136 42.6147 126.136ZM42.6147 125.233C43.0636 125.233 43.4329 125.118 43.7227 124.888C44.0124 124.658 44.2269 124.355 44.3661 123.98C44.5053 123.605 44.5749 123.199 44.5749 122.761C44.5749 122.324 44.5053 121.916 44.3661 121.538C44.2269 121.161 44.0124 120.855 43.7227 120.622C43.4329 120.389 43.0636 120.273 42.6147 120.273C42.1658 120.273 41.7965 120.389 41.5067 120.622C41.217 120.855 41.0025 121.161 40.8633 121.538C40.7241 121.916 40.6545 122.324 40.6545 122.761C40.6545 123.199 40.7241 123.605 40.8633 123.98C41.0025 124.355 41.217 124.658 41.5067 124.888C41.7965 125.118 42.1658 125.233 42.6147 125.233ZM47.1158 126V119.455H48.0874V120.477H48.1726C48.3089 120.128 48.5291 119.857 48.8331 119.663C49.1371 119.467 49.5021 119.369 49.9283 119.369C50.3601 119.369 50.7195 119.467 51.0064 119.663C51.2962 119.857 51.522 120.128 51.6839 120.477H51.7521C51.9197 120.139 52.1712 119.871 52.5064 119.672C52.8416 119.47 53.2436 119.369 53.7124 119.369C54.2976 119.369 54.7763 119.553 55.1484 119.919C55.5206 120.283 55.7067 120.849 55.7067 121.619V126H54.701V121.619C54.701 121.136 54.5689 120.791 54.3047 120.584C54.0405 120.376 53.7294 120.273 53.3714 120.273C52.9112 120.273 52.5547 120.412 52.3018 120.69C52.049 120.966 51.9226 121.315 51.9226 121.739V126H50.8999V121.517C50.8999 121.145 50.7791 120.845 50.5376 120.618C50.2962 120.388 49.9851 120.273 49.6044 120.273C49.343 120.273 49.0987 120.342 48.8714 120.482C48.647 120.621 48.4652 120.814 48.326 121.061C48.1896 121.305 48.1214 121.588 48.1214 121.909V126H47.1158ZM57.6818 126V117.273H58.6875V120.494H58.7727C58.8466 120.381 58.9489 120.236 59.0795 120.06C59.2131 119.881 59.4034 119.722 59.6506 119.582C59.9006 119.44 60.2386 119.369 60.6648 119.369C61.2159 119.369 61.7017 119.507 62.1222 119.783C62.5426 120.058 62.8707 120.449 63.1065 120.955C63.3423 121.46 63.4602 122.057 63.4602 122.744C63.4602 123.438 63.3423 124.038 63.1065 124.547C62.8707 125.053 62.544 125.445 62.1264 125.723C61.7088 125.999 61.2273 126.136 60.6818 126.136C60.2614 126.136 59.9247 126.067 59.6719 125.928C59.419 125.786 59.2244 125.625 59.0881 125.446C58.9517 125.264 58.8466 125.114 58.7727 124.994H58.6534V126H57.6818ZM58.6705 122.727C58.6705 123.222 58.7429 123.658 58.8878 124.036C59.0327 124.411 59.2443 124.705 59.5227 124.918C59.8011 125.128 60.142 125.233 60.5455 125.233C60.9659 125.233 61.3168 125.122 61.598 124.901C61.8821 124.676 62.0952 124.375 62.2372 123.997C62.3821 123.616 62.4545 123.193 62.4545 122.727C62.4545 122.267 62.3835 121.852 62.2415 121.483C62.1023 121.111 61.8906 120.817 61.6065 120.601C61.3253 120.382 60.9716 120.273 60.5455 120.273C60.1364 120.273 59.7926 120.376 59.5142 120.584C59.2358 120.788 59.0256 121.075 58.8835 121.445C58.7415 121.811 58.6705 122.239 58.6705 122.727ZM64.9986 126V119.455H65.9702V120.443H66.0384C66.1577 120.119 66.3736 119.857 66.6861 119.655C66.9986 119.453 67.3509 119.352 67.7429 119.352C67.8168 119.352 67.9091 119.354 68.0199 119.357C68.1307 119.359 68.2145 119.364 68.2713 119.369V120.392C68.2372 120.384 68.1591 120.371 68.0369 120.354C67.9176 120.334 67.7912 120.324 67.6577 120.324C67.3395 120.324 67.0554 120.391 66.8054 120.524C66.5582 120.655 66.3622 120.837 66.2173 121.07C66.0753 121.3 66.0043 121.562 66.0043 121.858V126H64.9986ZM72.0085 126.136C71.3778 126.136 70.8338 125.997 70.3764 125.719C69.9219 125.438 69.571 125.045 69.3239 124.543C69.0795 124.037 68.9574 123.449 68.9574 122.778C68.9574 122.108 69.0795 121.517 69.3239 121.006C69.571 120.491 69.9148 120.091 70.3551 119.804C70.7983 119.514 71.3153 119.369 71.9062 119.369C72.2472 119.369 72.5838 119.426 72.9162 119.54C73.2486 119.653 73.5511 119.838 73.8239 120.094C74.0966 120.347 74.3139 120.682 74.4759 121.099C74.6378 121.517 74.7188 122.031 74.7188 122.642V123.068H69.6733V122.199H73.696C73.696 121.83 73.6222 121.5 73.4744 121.21C73.3295 120.92 73.1222 120.692 72.8523 120.524C72.5852 120.357 72.2699 120.273 71.9062 120.273C71.5057 120.273 71.1591 120.372 70.8665 120.571C70.5767 120.767 70.3537 121.023 70.1974 121.338C70.0412 121.653 69.9631 121.991 69.9631 122.352V122.932C69.9631 123.426 70.0483 123.845 70.2188 124.189C70.392 124.53 70.6321 124.79 70.9389 124.969C71.2457 125.145 71.6023 125.233 72.0085 125.233C72.2727 125.233 72.5114 125.196 72.7244 125.122C72.9403 125.045 73.1264 124.932 73.2827 124.781C73.4389 124.628 73.5597 124.437 73.6449 124.21L74.6165 124.483C74.5142 124.812 74.3423 125.102 74.1009 125.352C73.8594 125.599 73.5611 125.793 73.206 125.932C72.8509 126.068 72.4517 126.136 72.0085 126.136ZM80.2713 128.455C80.1009 128.455 79.9489 128.44 79.8153 128.412C79.6818 128.386 79.5895 128.361 79.5384 128.335L79.794 127.449C80.0384 127.511 80.2543 127.534 80.4418 127.517C80.6293 127.5 80.7955 127.416 80.9403 127.266C81.0881 127.118 81.223 126.878 81.3452 126.545L81.5327 126.034L79.1122 119.455H80.2031L82.0099 124.67H82.0781L83.8849 119.455H84.9759L82.1974 126.955C82.0724 127.293 81.9176 127.572 81.733 127.794C81.5483 128.018 81.3338 128.185 81.0895 128.293C80.848 128.401 80.5753 128.455 80.2713 128.455ZM91.6044 126.153C91.1896 126.153 90.8132 126.075 90.4751 125.919C90.1371 125.76 89.8686 125.531 89.6697 125.233C89.4709 124.932 89.3714 124.568 89.3714 124.142C89.3714 123.767 89.4453 123.463 89.593 123.23C89.7408 122.994 89.9382 122.81 90.1854 122.676C90.4325 122.543 90.7053 122.443 91.0036 122.378C91.3047 122.31 91.6072 122.256 91.9112 122.216C92.3089 122.165 92.6314 122.126 92.8786 122.101C93.1286 122.072 93.3104 122.026 93.424 121.96C93.5405 121.895 93.5987 121.781 93.5987 121.619V121.585C93.5987 121.165 93.4837 120.838 93.2536 120.605C93.0263 120.372 92.6811 120.256 92.218 120.256C91.7379 120.256 91.3615 120.361 91.0888 120.571C90.8161 120.781 90.6243 121.006 90.5135 121.244L89.5589 120.903C89.7294 120.506 89.9567 120.196 90.2408 119.974C90.5277 119.75 90.8402 119.594 91.1783 119.506C91.5192 119.415 91.8544 119.369 92.1839 119.369C92.3942 119.369 92.6357 119.395 92.9084 119.446C93.1839 119.494 93.4496 119.595 93.7053 119.749C93.9638 119.902 94.1783 120.134 94.3487 120.443C94.5192 120.753 94.6044 121.168 94.6044 121.688V126H93.5987V125.114H93.5476C93.4794 125.256 93.3658 125.408 93.2067 125.57C93.0476 125.732 92.8359 125.869 92.5717 125.983C92.3075 126.097 91.9851 126.153 91.6044 126.153ZM91.7578 125.25C92.1555 125.25 92.4908 125.172 92.7635 125.016C93.0391 124.859 93.2464 124.658 93.3857 124.411C93.5277 124.163 93.5987 123.903 93.5987 123.631V122.71C93.5561 122.761 93.4624 122.808 93.3175 122.851C93.1754 122.891 93.0107 122.926 92.8232 122.957C92.6385 122.986 92.4581 123.011 92.282 123.034C92.1087 123.054 91.968 123.071 91.8601 123.085C91.5987 123.119 91.3544 123.175 91.1271 123.251C90.9027 123.325 90.7209 123.437 90.5817 123.588C90.4453 123.736 90.3771 123.937 90.3771 124.193C90.3771 124.543 90.5064 124.807 90.7649 124.986C91.0263 125.162 91.3572 125.25 91.7578 125.25ZM96.44 128.455V119.455H97.4116V120.494H97.5309C97.6048 120.381 97.707 120.236 97.8377 120.06C97.9712 119.881 98.1616 119.722 98.4087 119.582C98.6587 119.44 98.9968 119.369 99.4229 119.369C99.9741 119.369 100.46 119.507 100.88 119.783C101.301 120.058 101.629 120.449 101.865 120.955C102.1 121.46 102.218 122.057 102.218 122.744C102.218 123.438 102.1 124.038 101.865 124.547C101.629 125.053 101.302 125.445 100.885 125.723C100.467 125.999 99.9854 126.136 99.44 126.136C99.0195 126.136 98.6829 126.067 98.43 125.928C98.1772 125.786 97.9826 125.625 97.8462 125.446C97.7099 125.264 97.6048 125.114 97.5309 124.994H97.4457V128.455H96.44ZM97.4286 122.727C97.4286 123.222 97.5011 123.658 97.646 124.036C97.7908 124.411 98.0025 124.705 98.2809 124.918C98.5593 125.128 98.9002 125.233 99.3036 125.233C99.7241 125.233 100.075 125.122 100.356 124.901C100.64 124.676 100.853 124.375 100.995 123.997C101.14 123.616 101.213 123.193 101.213 122.727C101.213 122.267 101.142 121.852 101 121.483C100.86 121.111 100.649 120.817 100.365 120.601C100.083 120.382 99.7298 120.273 99.3036 120.273C98.8945 120.273 98.5508 120.376 98.2724 120.584C97.994 120.788 97.7837 121.075 97.6417 121.445C97.4996 121.811 97.4286 122.239 97.4286 122.727ZM106.497 126.136C105.866 126.136 105.322 125.997 104.865 125.719C104.41 125.438 104.059 125.045 103.812 124.543C103.568 124.037 103.446 123.449 103.446 122.778C103.446 122.108 103.568 121.517 103.812 121.006C104.059 120.491 104.403 120.091 104.843 119.804C105.287 119.514 105.804 119.369 106.395 119.369C106.735 119.369 107.072 119.426 107.404 119.54C107.737 119.653 108.039 119.838 108.312 120.094C108.585 120.347 108.802 120.682 108.964 121.099C109.126 121.517 109.207 122.031 109.207 122.642V123.068H104.162V122.199H108.184C108.184 121.83 108.11 121.5 107.963 121.21C107.818 120.92 107.61 120.692 107.341 120.524C107.074 120.357 106.758 120.273 106.395 120.273C105.994 120.273 105.647 120.372 105.355 120.571C105.065 120.767 104.842 121.023 104.686 121.338C104.529 121.653 104.451 121.991 104.451 122.352V122.932C104.451 123.426 104.537 123.845 104.707 124.189C104.88 124.53 105.12 124.79 105.427 124.969C105.734 125.145 106.091 125.233 106.497 125.233C106.761 125.233 107 125.196 107.213 125.122C107.429 125.045 107.615 124.932 107.771 124.781C107.927 124.628 108.048 124.437 108.133 124.21L109.105 124.483C109.002 124.812 108.831 125.102 108.589 125.352C108.348 125.599 108.049 125.793 107.694 125.932C107.339 126.068 106.94 126.136 106.497 126.136ZM111.743 117.273V126H110.737V117.273H111.743ZM114.59 117.273V126H113.585V117.273H114.59ZM116.432 126V119.455H117.438V126H116.432ZM116.944 118.364C116.748 118.364 116.578 118.297 116.436 118.163C116.297 118.03 116.228 117.869 116.228 117.682C116.228 117.494 116.297 117.334 116.436 117.2C116.578 117.067 116.748 117 116.944 117C117.14 117 117.307 117.067 117.446 117.2C117.588 117.334 117.659 117.494 117.659 117.682C117.659 117.869 117.588 118.03 117.446 118.163C117.307 118.297 117.14 118.364 116.944 118.364ZM121.751 126.136C121.206 126.136 120.724 125.999 120.307 125.723C119.889 125.445 119.563 125.053 119.327 124.547C119.091 124.038 118.973 123.438 118.973 122.744C118.973 122.057 119.091 121.46 119.327 120.955C119.563 120.449 119.891 120.058 120.311 119.783C120.732 119.507 121.217 119.369 121.768 119.369C122.195 119.369 122.531 119.44 122.778 119.582C123.028 119.722 123.219 119.881 123.349 120.06C123.483 120.236 123.587 120.381 123.661 120.494H123.746V117.273H124.751V126H123.78V124.994H123.661C123.587 125.114 123.482 125.264 123.345 125.446C123.209 125.625 123.014 125.786 122.761 125.928C122.509 126.067 122.172 126.136 121.751 126.136ZM121.888 125.233C122.291 125.233 122.632 125.128 122.911 124.918C123.189 124.705 123.401 124.411 123.545 124.036C123.69 123.658 123.763 123.222 123.763 122.727C123.763 122.239 123.692 121.811 123.55 121.445C123.408 121.075 123.197 120.788 122.919 120.584C122.641 120.376 122.297 120.273 121.888 120.273C121.462 120.273 121.107 120.382 120.822 120.601C120.541 120.817 120.33 121.111 120.188 121.483C120.048 121.852 119.979 122.267 119.979 122.727C119.979 123.193 120.05 123.616 120.192 123.997C120.337 124.375 120.55 124.676 120.831 124.901C121.115 125.122 121.467 125.233 121.888 125.233ZM129.392 126.136C128.801 126.136 128.283 125.996 127.837 125.714C127.393 125.433 127.047 125.04 126.797 124.534C126.55 124.028 126.426 123.437 126.426 122.761C126.426 122.08 126.55 121.484 126.797 120.976C127.047 120.467 127.393 120.072 127.837 119.791C128.283 119.51 128.801 119.369 129.392 119.369C129.983 119.369 130.5 119.51 130.943 119.791C131.389 120.072 131.736 120.467 131.983 120.976C132.233 121.484 132.358 122.08 132.358 122.761C132.358 123.437 132.233 124.028 131.983 124.534C131.736 125.04 131.389 125.433 130.943 125.714C130.5 125.996 129.983 126.136 129.392 126.136ZM129.392 125.233C129.841 125.233 130.21 125.118 130.5 124.888C130.79 124.658 131.004 124.355 131.143 123.98C131.283 123.605 131.352 123.199 131.352 122.761C131.352 122.324 131.283 121.916 131.143 121.538C131.004 121.161 130.79 120.855 130.5 120.622C130.21 120.389 129.841 120.273 129.392 120.273C128.943 120.273 128.574 120.389 128.284 120.622C127.994 120.855 127.78 121.161 127.641 121.538C127.501 121.916 127.432 122.324 127.432 122.761C127.432 123.199 127.501 123.605 127.641 123.98C127.78 124.355 127.994 124.658 128.284 124.888C128.574 125.118 128.943 125.233 129.392 125.233Z" fill="#777777"/>
<path d="M330 156H30C24.4772 156 20 160.477 20 166V194C20 199.523 24.4772 204 30 204H330C335.523 204 340 199.523 340 194V166C340 160.477 335.523 156 330 156Z" fill="white" stroke="#DDDDDD"/>
<path d="M31.0568 186V177.273H36.3239V178.21H32.1136V181.159H36.0511V182.097H32.1136V185.062H36.392V186H31.0568ZM38.0923 186V179.455H39.0639V180.477H39.1491C39.2855 180.128 39.5057 179.857 39.8097 179.663C40.1136 179.467 40.4787 179.369 40.9048 179.369C41.3366 179.369 41.696 179.467 41.983 179.663C42.2727 179.857 42.4986 180.128 42.6605 180.477H42.7287C42.8963 180.139 43.1477 179.871 43.483 179.672C43.8182 179.47 44.2202 179.369 44.6889 179.369C45.2741 179.369 45.7528 179.553 46.125 179.919C46.4972 180.283 46.6832 180.849 46.6832 181.619V186H45.6776V181.619C45.6776 181.136 45.5455 180.791 45.2812 180.584C45.017 180.376 44.706 180.273 44.348 180.273C43.8878 180.273 43.5313 180.412 43.2784 180.69C43.0256 180.966 42.8991 181.315 42.8991 181.739V186H41.8764V181.517C41.8764 181.145 41.7557 180.845 41.5142 180.618C41.2727 180.388 40.9616 180.273 40.581 180.273C40.3196 180.273 40.0753 180.342 39.848 180.482C39.6236 180.621 39.4418 180.814 39.3026 181.061C39.1662 181.305 39.098 181.588 39.098 181.909V186H38.0923ZM50.4482 186.153C50.0334 186.153 49.657 186.075 49.3189 185.919C48.9808 185.76 48.7124 185.531 48.5135 185.233C48.3146 184.932 48.2152 184.568 48.2152 184.142C48.2152 183.767 48.2891 183.463 48.4368 183.23C48.5845 182.994 48.782 182.81 49.0291 182.676C49.2763 182.543 49.549 182.443 49.8473 182.378C50.1484 182.31 50.451 182.256 50.755 182.216C51.1527 182.165 51.4751 182.126 51.7223 182.101C51.9723 182.072 52.1541 182.026 52.2678 181.96C52.3842 181.895 52.4425 181.781 52.4425 181.619V181.585C52.4425 181.165 52.3274 180.838 52.0973 180.605C51.87 180.372 51.5249 180.256 51.0618 180.256C50.5817 180.256 50.2053 180.361 49.9325 180.571C49.6598 180.781 49.468 181.006 49.3572 181.244L48.4027 180.903C48.5732 180.506 48.8004 180.196 49.0845 179.974C49.3714 179.75 49.6839 179.594 50.022 179.506C50.3629 179.415 50.6982 179.369 51.0277 179.369C51.2379 179.369 51.4794 179.395 51.7521 179.446C52.0277 179.494 52.2933 179.595 52.549 179.749C52.8075 179.902 53.022 180.134 53.1925 180.443C53.3629 180.753 53.4482 181.168 53.4482 181.688V186H52.4425V185.114H52.3913C52.3232 185.256 52.2095 185.408 52.0504 185.57C51.8913 185.732 51.6797 185.869 51.4155 185.983C51.1513 186.097 50.8288 186.153 50.4482 186.153ZM50.6016 185.25C50.9993 185.25 51.3345 185.172 51.6072 185.016C51.8828 184.859 52.0902 184.658 52.2294 184.411C52.3714 184.163 52.4425 183.903 52.4425 183.631V182.71C52.3999 182.761 52.3061 182.808 52.1612 182.851C52.0192 182.891 51.8544 182.926 51.6669 182.957C51.4822 182.986 51.3018 183.011 51.1257 183.034C50.9524 183.054 50.8118 183.071 50.7038 183.085C50.4425 183.119 50.1982 183.175 49.9709 183.251C49.7464 183.325 49.5646 183.437 49.4254 183.588C49.2891 183.736 49.2209 183.937 49.2209 184.193C49.2209 184.543 49.3501 184.807 49.6087 184.986C49.87 185.162 50.201 185.25 50.6016 185.25ZM55.2837 186V179.455H56.2894V186H55.2837ZM55.7951 178.364C55.5991 178.364 55.43 178.297 55.288 178.163C55.1488 178.03 55.0792 177.869 55.0792 177.682C55.0792 177.494 55.1488 177.334 55.288 177.2C55.43 177.067 55.5991 177 55.7951 177C55.9911 177 56.1587 177.067 56.2979 177.2C56.44 177.334 56.511 177.494 56.511 177.682C56.511 177.869 56.44 178.03 56.2979 178.163C56.1587 178.297 55.9911 178.364 55.7951 178.364ZM59.1371 177.273V186H58.1314V177.273H59.1371Z" fill="#777777"/>
<path d="M330 216H30C24.4772 216 20 220.477 20 226V254C20 259.523 24.4772 264 30 264H330C335.523 264 340 259.523 340 254V226C340 220.477 335.523 216 330 216Z" fill="white" stroke="#DDDDDD"/>
<path d="M38.0795 240H37.0227C36.9602 239.696 36.8509 239.429 36.6946 239.199C36.5412 238.969 36.3537 238.776 36.1321 238.619C35.9134 238.46 35.6705 238.341 35.4034 238.261C35.1364 238.182 34.858 238.142 34.5682 238.142C34.0398 238.142 33.5611 238.276 33.1321 238.543C32.706 238.81 32.3665 239.203 32.1136 239.723C31.8636 240.243 31.7386 240.881 31.7386 241.636C31.7386 242.392 31.8636 243.03 32.1136 243.55C32.3665 244.07 32.706 244.463 33.1321 244.73C33.5611 244.997 34.0398 245.131 34.5682 245.131C34.858 245.131 35.1364 245.091 35.4034 245.011C35.6705 244.932 35.9134 244.814 36.1321 244.658C36.3537 244.499 36.5412 244.304 36.6946 244.074C36.8509 243.841 36.9602 243.574 37.0227 243.273H38.0795C38 243.719 37.8551 244.118 37.6449 244.47C37.4347 244.822 37.1733 245.122 36.8608 245.369C36.5483 245.614 36.1974 245.8 35.8082 245.928C35.4219 246.055 35.0085 246.119 34.5682 246.119C33.8239 246.119 33.1619 245.938 32.5824 245.574C32.0028 245.21 31.5469 244.693 31.2145 244.023C30.8821 243.352 30.7159 242.557 30.7159 241.636C30.7159 240.716 30.8821 239.92 31.2145 239.25C31.5469 238.58 32.0028 238.062 32.5824 237.699C33.1619 237.335 33.8239 237.153 34.5682 237.153C35.0085 237.153 35.4219 237.217 35.8082 237.345C36.1974 237.473 36.5483 237.661 36.8608 237.908C37.1733 238.152 37.4347 238.45 37.6449 238.803C37.8551 239.152 38 239.551 38.0795 240ZM42.31 246.136C41.7191 246.136 41.2006 245.996 40.7546 245.714C40.3114 245.433 39.9648 245.04 39.7148 244.534C39.4677 244.028 39.3441 243.437 39.3441 242.761C39.3441 242.08 39.4677 241.484 39.7148 240.976C39.9648 240.467 40.3114 240.072 40.7546 239.791C41.2006 239.51 41.7191 239.369 42.31 239.369C42.9009 239.369 43.418 239.51 43.8612 239.791C44.3072 240.072 44.6538 240.467 44.9009 240.976C45.1509 241.484 45.2759 242.08 45.2759 242.761C45.2759 243.437 45.1509 244.028 44.9009 244.534C44.6538 245.04 44.3072 245.433 43.8612 245.714C43.418 245.996 42.9009 246.136 42.31 246.136ZM42.31 245.233C42.7589 245.233 43.1282 245.118 43.418 244.888C43.7077 244.658 43.9222 244.355 44.0614 243.98C44.2006 243.605 44.2702 243.199 44.2702 242.761C44.2702 242.324 44.2006 241.916 44.0614 241.538C43.9222 241.161 43.7077 240.855 43.418 240.622C43.1282 240.389 42.7589 240.273 42.31 240.273C41.8612 240.273 41.4918 240.389 41.2021 240.622C40.9123 240.855 40.6978 241.161 40.5586 241.538C40.4194 241.916 40.3498 242.324 40.3498 242.761C40.3498 243.199 40.4194 243.605 40.5586 243.98C40.6978 244.355 40.9123 244.658 41.2021 244.888C41.4918 245.118 41.8612 245.233 42.31 245.233ZM47.8168 242.062V246H46.8111V239.455H47.7827V240.477H47.8679C48.0213 240.145 48.2543 239.878 48.5668 239.676C48.8793 239.472 49.2827 239.369 49.777 239.369C50.2202 239.369 50.608 239.46 50.9403 239.642C51.2727 239.821 51.5313 240.094 51.7159 240.46C51.9006 240.824 51.9929 241.284 51.9929 241.841V246H50.9872V241.909C50.9872 241.395 50.8537 240.994 50.5866 240.707C50.3196 240.418 49.9531 240.273 49.4872 240.273C49.1662 240.273 48.8793 240.342 48.6264 240.482C48.3764 240.621 48.179 240.824 48.0341 241.091C47.8892 241.358 47.8168 241.682 47.8168 242.062ZM56.6772 239.455V240.307H53.2852V239.455H56.6772ZM54.2738 237.886H55.2795V244.125C55.2795 244.409 55.3207 244.622 55.4031 244.764C55.4883 244.903 55.5962 244.997 55.7269 245.045C55.8604 245.091 56.0011 245.114 56.1488 245.114C56.2596 245.114 56.3505 245.108 56.4215 245.097C56.4925 245.082 56.5494 245.071 56.592 245.062L56.7965 245.966C56.7283 245.991 56.6332 246.017 56.511 246.043C56.3888 246.071 56.234 246.085 56.0465 246.085C55.7624 246.085 55.484 246.024 55.2113 245.902C54.9414 245.78 54.717 245.594 54.538 245.344C54.3619 245.094 54.2738 244.778 54.2738 244.398V237.886ZM58.19 246V239.455H59.1616V240.443H59.2298C59.3491 240.119 59.565 239.857 59.8775 239.655C60.19 239.453 60.5423 239.352 60.9343 239.352C61.0082 239.352 61.1005 239.354 61.2113 239.357C61.3221 239.359 61.4059 239.364 61.4627 239.369V240.392C61.4286 240.384 61.3505 240.371 61.2283 240.354C61.109 240.334 60.9826 240.324 60.8491 240.324C60.5309 240.324 60.2468 240.391 59.9968 240.524C59.7496 240.655 59.5536 240.837 59.4087 241.07C59.2667 241.3 59.1957 241.562 59.1957 241.858V246H58.19ZM64.581 246.153C64.1662 246.153 63.7898 246.075 63.4517 245.919C63.1136 245.76 62.8452 245.531 62.6463 245.233C62.4474 244.932 62.348 244.568 62.348 244.142C62.348 243.767 62.4219 243.463 62.5696 243.23C62.7173 242.994 62.9148 242.81 63.1619 242.676C63.4091 242.543 63.6818 242.443 63.9801 242.378C64.2813 242.31 64.5838 242.256 64.8878 242.216C65.2855 242.165 65.608 242.126 65.8551 242.101C66.1051 242.072 66.2869 242.026 66.4006 241.96C66.517 241.895 66.5753 241.781 66.5753 241.619V241.585C66.5753 241.165 66.4602 240.838 66.2301 240.605C66.0028 240.372 65.6577 240.256 65.1946 240.256C64.7145 240.256 64.3381 240.361 64.0653 240.571C63.7926 240.781 63.6009 241.006 63.4901 241.244L62.5355 240.903C62.706 240.506 62.9332 240.196 63.2173 239.974C63.5043 239.75 63.8168 239.594 64.1548 239.506C64.4957 239.415 64.831 239.369 65.1605 239.369C65.3707 239.369 65.6122 239.395 65.8849 239.446C66.1605 239.494 66.4261 239.595 66.6818 239.749C66.9403 239.902 67.1548 240.134 67.3253 240.443C67.4957 240.753 67.581 241.168 67.581 241.688V246H66.5753V245.114H66.5241C66.456 245.256 66.3423 245.408 66.1832 245.57C66.0241 245.732 65.8125 245.869 65.5483 245.983C65.2841 246.097 64.9616 246.153 64.581 246.153ZM64.7344 245.25C65.1321 245.25 65.4673 245.172 65.7401 245.016C66.0156 244.859 66.223 244.658 66.3622 244.411C66.5043 244.163 66.5753 243.903 66.5753 243.631V242.71C66.5327 242.761 66.4389 242.808 66.294 242.851C66.152 242.891 65.9872 242.926 65.7997 242.957C65.6151 242.986 65.4347 243.011 65.2585 243.034C65.0852 243.054 64.9446 243.071 64.8366 243.085C64.5753 243.119 64.331 243.175 64.1037 243.251C63.8793 243.325 63.6974 243.437 63.5582 243.588C63.4219 243.736 63.3537 243.937 63.3537 244.193C63.3537 244.543 63.483 244.807 63.7415 244.986C64.0028 245.162 64.3338 245.25 64.7344 245.25ZM74.0529 240.92L73.1495 241.176C73.0927 241.026 73.0089 240.879 72.8981 240.737C72.7901 240.592 72.6424 240.473 72.4549 240.379C72.2674 240.286 72.0273 240.239 71.7347 240.239C71.3342 240.239 71.0004 240.331 70.7333 240.516C70.4691 240.697 70.337 240.929 70.337 241.21C70.337 241.46 70.4279 241.658 70.6097 241.803C70.7915 241.947 71.0756 242.068 71.462 242.165L72.4336 242.403C73.0188 242.545 73.4549 242.763 73.7418 243.055C74.0288 243.345 74.1722 243.719 74.1722 244.176C74.1722 244.551 74.0643 244.886 73.8484 245.182C73.6353 245.477 73.337 245.71 72.9535 245.881C72.57 246.051 72.1239 246.136 71.6154 246.136C70.9478 246.136 70.3952 245.991 69.9577 245.702C69.5202 245.412 69.2433 244.989 69.1268 244.432L70.0813 244.193C70.1722 244.545 70.3441 244.81 70.5969 244.986C70.8526 245.162 71.1864 245.25 71.5984 245.25C72.0671 245.25 72.4393 245.151 72.7148 244.952C72.9933 244.75 73.1325 244.509 73.1325 244.227C73.1325 244 73.0529 243.81 72.8938 243.656C72.7347 243.5 72.4904 243.384 72.1609 243.307L71.07 243.051C70.4705 242.909 70.0302 242.689 69.7489 242.391C69.4705 242.089 69.3313 241.713 69.3313 241.261C69.3313 240.892 69.435 240.565 69.6424 240.281C69.8526 239.997 70.1381 239.774 70.4989 239.612C70.8626 239.45 71.2745 239.369 71.7347 239.369C72.3825 239.369 72.891 239.511 73.2603 239.795C73.6325 240.08 73.8967 240.455 74.0529 240.92ZM78.4304 246.136C77.7997 246.136 77.2557 245.997 76.7983 245.719C76.3438 245.438 75.9929 245.045 75.7457 244.543C75.5014 244.037 75.3793 243.449 75.3793 242.778C75.3793 242.108 75.5014 241.517 75.7457 241.006C75.9929 240.491 76.3366 240.091 76.777 239.804C77.2202 239.514 77.7372 239.369 78.3281 239.369C78.669 239.369 79.0057 239.426 79.3381 239.54C79.6705 239.653 79.973 239.838 80.2457 240.094C80.5185 240.347 80.7358 240.682 80.8977 241.099C81.0597 241.517 81.1406 242.031 81.1406 242.642V243.068H76.0952V242.199H80.1179C80.1179 241.83 80.044 241.5 79.8963 241.21C79.7514 240.92 79.544 240.692 79.2741 240.524C79.0071 240.357 78.6918 240.273 78.3281 240.273C77.9276 240.273 77.581 240.372 77.2884 240.571C76.9986 240.767 76.7756 241.023 76.6193 241.338C76.4631 241.653 76.3849 241.991 76.3849 242.352V242.932C76.3849 243.426 76.4702 243.845 76.6406 244.189C76.8139 244.53 77.054 244.79 77.3608 244.969C77.6676 245.145 78.0241 245.233 78.4304 245.233C78.6946 245.233 78.9332 245.196 79.1463 245.122C79.3622 245.045 79.5483 244.932 79.7045 244.781C79.8608 244.628 79.9815 244.437 80.0668 244.21L81.0384 244.483C80.9361 244.812 80.7642 245.102 80.5227 245.352C80.2813 245.599 79.983 245.793 79.6278 245.932C79.2727 246.068 78.8736 246.136 78.4304 246.136ZM83.6761 242.062V246H82.6705V239.455H83.642V240.477H83.7273C83.8807 240.145 84.1136 239.878 84.4261 239.676C84.7386 239.472 85.142 239.369 85.6364 239.369C86.0795 239.369 86.4673 239.46 86.7997 239.642C87.1321 239.821 87.3906 240.094 87.5753 240.46C87.7599 240.824 87.8523 241.284 87.8523 241.841V246H86.8466V241.909C86.8466 241.395 86.7131 240.994 86.446 240.707C86.179 240.418 85.8125 240.273 85.3466 240.273C85.0256 240.273 84.7386 240.342 84.4858 240.482C84.2358 240.621 84.0384 240.824 83.8935 241.091C83.7486 241.358 83.6761 241.682 83.6761 242.062ZM83.9489 238.67L83.1648 238.636C83.1648 238.202 83.2884 237.847 83.5355 237.571C83.7855 237.293 84.0938 237.153 84.4602 237.153C84.6222 237.153 84.7656 237.182 84.8906 237.239C85.0156 237.293 85.1349 237.355 85.2486 237.426C85.3622 237.497 85.4787 237.561 85.598 237.618C85.7202 237.672 85.858 237.699 86.0114 237.699C86.1733 237.699 86.3097 237.636 86.4205 237.511C86.5341 237.384 86.5909 237.23 86.5909 237.051L87.358 237.119C87.358 237.562 87.233 237.915 86.983 238.176C86.7358 238.437 86.429 238.568 86.0625 238.568C85.8665 238.568 85.7045 238.541 85.5767 238.487C85.4489 238.43 85.3352 238.366 85.2358 238.295C85.1364 238.224 85.0313 238.162 84.9205 238.108C84.8097 238.051 84.6733 238.023 84.5114 238.023C84.3494 238.023 84.2145 238.087 84.1065 238.214C84.0014 238.339 83.9489 238.491 83.9489 238.67ZM91.6161 246.153C91.2013 246.153 90.8249 246.075 90.4869 245.919C90.1488 245.76 89.8803 245.531 89.6815 245.233C89.4826 244.932 89.3832 244.568 89.3832 244.142C89.3832 243.767 89.457 243.463 89.6048 243.23C89.7525 242.994 89.9499 242.81 90.1971 242.676C90.4442 242.543 90.717 242.443 91.0153 242.378C91.3164 242.31 91.619 242.256 91.9229 242.216C92.3207 242.165 92.6431 242.126 92.8903 242.101C93.1403 242.072 93.3221 242.026 93.4357 241.96C93.5522 241.895 93.6104 241.781 93.6104 241.619V241.585C93.6104 241.165 93.4954 240.838 93.2653 240.605C93.038 240.372 92.6928 240.256 92.2298 240.256C91.7496 240.256 91.3732 240.361 91.1005 240.571C90.8278 240.781 90.636 241.006 90.5252 241.244L89.5707 240.903C89.7411 240.506 89.9684 240.196 90.2525 239.974C90.5394 239.75 90.8519 239.594 91.19 239.506C91.5309 239.415 91.8661 239.369 92.1957 239.369C92.4059 239.369 92.6474 239.395 92.9201 239.446C93.1957 239.494 93.4613 239.595 93.717 239.749C93.9755 239.902 94.19 240.134 94.3604 240.443C94.5309 240.753 94.6161 241.168 94.6161 241.688V246H93.6104V245.114H93.5593C93.4911 245.256 93.3775 245.408 93.2184 245.57C93.0593 245.732 92.8477 245.869 92.5835 245.983C92.3192 246.097 91.9968 246.153 91.6161 246.153ZM91.7695 245.25C92.1673 245.25 92.5025 245.172 92.7752 245.016C93.0508 244.859 93.2582 244.658 93.3974 244.411C93.5394 244.163 93.6104 243.903 93.6104 243.631V242.71C93.5678 242.761 93.4741 242.808 93.3292 242.851C93.1871 242.891 93.0224 242.926 92.8349 242.957C92.6502 242.986 92.4698 243.011 92.2937 243.034C92.1204 243.054 91.9798 243.071 91.8718 243.085C91.6104 243.119 91.3661 243.175 91.1388 243.251C90.9144 243.325 90.7326 243.437 90.5934 243.588C90.457 243.736 90.3888 243.937 90.3888 244.193C90.3888 244.543 90.5181 244.807 90.7766 244.986C91.038 245.162 91.369 245.25 91.7695 245.25Z" fill="#777777"/>
<path d="M318 472H42C29.8497 472 20 481.85 20 494C20 506.15 29.8497 516 42 516H318C330.15 516 340 506.15 340 494C340 481.85 330.15 472 318 472Z" fill="#E57373" stroke="#BDBDBD"/>
<path d="M151.388 494H150.331C150.269 493.696 150.159 493.429 150.003 493.199C149.85 492.969 149.662 492.776 149.441 492.619C149.222 492.46 148.979 492.341 148.712 492.261C148.445 492.182 148.167 492.142 147.877 492.142C147.348 492.142 146.87 492.276 146.441 492.543C146.015 492.81 145.675 493.203 145.422 493.723C145.172 494.243 145.047 494.881 145.047 495.636C145.047 496.392 145.172 497.03 145.422 497.55C145.675 498.07 146.015 498.463 146.441 498.73C146.87 498.997 147.348 499.131 147.877 499.131C148.167 499.131 148.445 499.091 148.712 499.011C148.979 498.932 149.222 498.814 149.441 498.658C149.662 498.499 149.85 498.304 150.003 498.074C150.159 497.841 150.269 497.574 150.331 497.273H151.388C151.309 497.719 151.164 498.118 150.953 498.47C150.743 498.822 150.482 499.122 150.169 499.369C149.857 499.614 149.506 499.8 149.117 499.928C148.73 500.055 148.317 500.119 147.877 500.119C147.132 500.119 146.471 499.938 145.891 499.574C145.311 499.21 144.855 498.693 144.523 498.023C144.191 497.352 144.025 496.557 144.025 495.636C144.025 494.716 144.191 493.92 144.523 493.25C144.855 492.58 145.311 492.062 145.891 491.699C146.471 491.335 147.132 491.153 147.877 491.153C148.317 491.153 148.73 491.217 149.117 491.345C149.506 491.473 149.857 491.661 150.169 491.908C150.482 492.152 150.743 492.45 150.953 492.803C151.164 493.152 151.309 493.551 151.388 494ZM152.96 500V493.455H153.931V494.443H153.999C154.119 494.119 154.335 493.857 154.647 493.655C154.96 493.453 155.312 493.352 155.704 493.352C155.778 493.352 155.87 493.354 155.981 493.357C156.092 493.359 156.175 493.364 156.232 493.369V494.392C156.198 494.384 156.12 494.371 155.998 494.354C155.879 494.334 155.752 494.324 155.619 494.324C155.3 494.324 155.016 494.391 154.766 494.524C154.519 494.655 154.323 494.837 154.178 495.07C154.036 495.3 153.965 495.562 153.965 495.858V500H152.96ZM159.969 500.136C159.339 500.136 158.795 499.997 158.337 499.719C157.883 499.438 157.532 499.045 157.285 498.543C157.04 498.037 156.918 497.449 156.918 496.778C156.918 496.108 157.04 495.517 157.285 495.006C157.532 494.491 157.876 494.091 158.316 493.804C158.759 493.514 159.276 493.369 159.867 493.369C160.208 493.369 160.545 493.426 160.877 493.54C161.21 493.653 161.512 493.838 161.785 494.094C162.058 494.347 162.275 494.682 162.437 495.099C162.599 495.517 162.68 496.031 162.68 496.642V497.068H157.634V496.199H161.657C161.657 495.83 161.583 495.5 161.435 495.21C161.29 494.92 161.083 494.692 160.813 494.524C160.546 494.357 160.231 494.273 159.867 494.273C159.467 494.273 159.12 494.372 158.827 494.571C158.538 494.767 158.315 495.023 158.158 495.338C158.002 495.653 157.924 495.991 157.924 496.352V496.932C157.924 497.426 158.009 497.845 158.18 498.189C158.353 498.53 158.593 498.79 158.9 498.969C159.207 499.145 159.563 499.233 159.969 499.233C160.234 499.233 160.472 499.196 160.685 499.122C160.901 499.045 161.087 498.932 161.244 498.781C161.4 498.628 161.521 498.437 161.606 498.21L162.577 498.483C162.475 498.812 162.303 499.102 162.062 499.352C161.82 499.599 161.522 499.793 161.167 499.932C160.812 500.068 160.413 500.136 159.969 500.136ZM166.136 500.153C165.721 500.153 165.344 500.075 165.006 499.919C164.668 499.76 164.4 499.531 164.201 499.233C164.002 498.932 163.903 498.568 163.903 498.142C163.903 497.767 163.977 497.463 164.124 497.23C164.272 496.994 164.469 496.81 164.717 496.676C164.964 496.543 165.237 496.443 165.535 496.378C165.836 496.31 166.138 496.256 166.442 496.216C166.84 496.165 167.163 496.126 167.41 496.101C167.66 496.072 167.842 496.026 167.955 495.96C168.072 495.895 168.13 495.781 168.13 495.619V495.585C168.13 495.165 168.015 494.838 167.785 494.605C167.558 494.372 167.212 494.256 166.749 494.256C166.269 494.256 165.893 494.361 165.62 494.571C165.347 494.781 165.156 495.006 165.045 495.244L164.09 494.903C164.261 494.506 164.488 494.196 164.772 493.974C165.059 493.75 165.371 493.594 165.71 493.506C166.05 493.415 166.386 493.369 166.715 493.369C166.925 493.369 167.167 493.395 167.44 493.446C167.715 493.494 167.981 493.595 168.237 493.749C168.495 493.902 168.71 494.134 168.88 494.443C169.05 494.753 169.136 495.168 169.136 495.688V500H168.13V499.114H168.079C168.011 499.256 167.897 499.408 167.738 499.57C167.579 499.732 167.367 499.869 167.103 499.983C166.839 500.097 166.516 500.153 166.136 500.153ZM166.289 499.25C166.687 499.25 167.022 499.172 167.295 499.016C167.57 498.859 167.778 498.658 167.917 498.411C168.059 498.163 168.13 497.903 168.13 497.631V496.71C168.087 496.761 167.994 496.808 167.849 496.851C167.707 496.891 167.542 496.926 167.354 496.957C167.17 496.986 166.989 497.011 166.813 497.034C166.64 497.054 166.499 497.071 166.391 497.085C166.13 497.119 165.886 497.175 165.658 497.251C165.434 497.325 165.252 497.437 165.113 497.588C164.977 497.736 164.908 497.937 164.908 498.193C164.908 498.543 165.038 498.807 165.296 498.986C165.558 499.162 165.888 499.25 166.289 499.25ZM170.971 500V493.455H171.943V494.443H172.011C172.13 494.119 172.346 493.857 172.659 493.655C172.971 493.453 173.324 493.352 173.716 493.352C173.789 493.352 173.882 493.354 173.993 493.357C174.103 493.359 174.187 493.364 174.244 493.369V494.392C174.21 494.384 174.132 494.371 174.01 494.354C173.89 494.334 173.764 494.324 173.63 494.324C173.312 494.324 173.028 494.391 172.778 494.524C172.531 494.655 172.335 494.837 172.19 495.07C172.048 495.3 171.977 495.562 171.977 495.858V500H170.971ZM181.47 500.136C180.857 500.136 180.328 499.991 179.885 499.702C179.442 499.412 179.101 499.013 178.862 498.504C178.624 497.996 178.504 497.415 178.504 496.761C178.504 496.097 178.626 495.51 178.871 495.001C179.118 494.49 179.462 494.091 179.902 493.804C180.345 493.514 180.862 493.369 181.453 493.369C181.913 493.369 182.328 493.455 182.697 493.625C183.067 493.795 183.369 494.034 183.605 494.341C183.841 494.648 183.987 495.006 184.044 495.415H183.038C182.962 495.116 182.791 494.852 182.527 494.622C182.266 494.389 181.913 494.273 181.47 494.273C181.078 494.273 180.734 494.375 180.439 494.58C180.146 494.781 179.918 495.067 179.753 495.436C179.591 495.803 179.51 496.233 179.51 496.727C179.51 497.233 179.589 497.673 179.749 498.048C179.911 498.423 180.138 498.714 180.43 498.922C180.726 499.129 181.072 499.233 181.47 499.233C181.732 499.233 181.969 499.188 182.182 499.097C182.395 499.006 182.575 498.875 182.723 498.705C182.871 498.534 182.976 498.33 183.038 498.091H184.044C183.987 498.477 183.847 498.825 183.622 499.135C183.401 499.442 183.107 499.686 182.74 499.868C182.376 500.047 181.953 500.136 181.47 500.136ZM189.639 497.324V493.455H190.645V500H189.639V498.892H189.571C189.418 499.224 189.179 499.507 188.855 499.74C188.531 499.97 188.122 500.085 187.628 500.085C187.219 500.085 186.855 499.996 186.537 499.817C186.219 499.635 185.969 499.362 185.787 498.999C185.605 498.632 185.514 498.17 185.514 497.614V493.455H186.52V497.545C186.52 498.023 186.653 498.403 186.92 498.688C187.19 498.972 187.534 499.114 187.952 499.114C188.202 499.114 188.456 499.05 188.714 498.922C188.976 498.794 189.195 498.598 189.371 498.334C189.55 498.07 189.639 497.733 189.639 497.324ZM195.231 500.136C194.6 500.136 194.056 499.997 193.599 499.719C193.145 499.438 192.794 499.045 192.547 498.543C192.302 498.037 192.18 497.449 192.18 496.778C192.18 496.108 192.302 495.517 192.547 495.006C192.794 494.491 193.137 494.091 193.578 493.804C194.021 493.514 194.538 493.369 195.129 493.369C195.47 493.369 195.806 493.426 196.139 493.54C196.471 493.653 196.774 493.838 197.047 494.094C197.319 494.347 197.537 494.682 197.699 495.099C197.86 495.517 197.941 496.031 197.941 496.642V497.068H192.896V496.199H196.919C196.919 495.83 196.845 495.5 196.697 495.21C196.552 494.92 196.345 494.692 196.075 494.524C195.808 494.357 195.493 494.273 195.129 494.273C194.728 494.273 194.382 494.372 194.089 494.571C193.799 494.767 193.576 495.023 193.42 495.338C193.264 495.653 193.186 495.991 193.186 496.352V496.932C193.186 497.426 193.271 497.845 193.441 498.189C193.615 498.53 193.855 498.79 194.162 498.969C194.468 499.145 194.825 499.233 195.231 499.233C195.495 499.233 195.734 499.196 195.947 499.122C196.163 499.045 196.349 498.932 196.505 498.781C196.662 498.628 196.782 498.437 196.868 498.21L197.839 498.483C197.737 498.812 197.565 499.102 197.324 499.352C197.082 499.599 196.784 499.793 196.429 499.932C196.074 500.068 195.674 500.136 195.231 500.136ZM200.477 496.062V500H199.471V493.455H200.443V494.477H200.528C200.681 494.145 200.914 493.878 201.227 493.676C201.539 493.472 201.943 493.369 202.437 493.369C202.88 493.369 203.268 493.46 203.6 493.642C203.933 493.821 204.191 494.094 204.376 494.46C204.561 494.824 204.653 495.284 204.653 495.841V500H203.647V495.909C203.647 495.395 203.514 494.994 203.247 494.707C202.98 494.418 202.613 494.273 202.147 494.273C201.826 494.273 201.539 494.342 201.287 494.482C201.037 494.621 200.839 494.824 200.694 495.091C200.549 495.358 200.477 495.682 200.477 496.062ZM209.337 493.455V494.307H205.945V493.455H209.337ZM206.934 491.886H207.94V498.125C207.94 498.409 207.981 498.622 208.063 498.764C208.148 498.903 208.256 498.997 208.387 499.045C208.521 499.091 208.661 499.114 208.809 499.114C208.92 499.114 209.011 499.108 209.082 499.097C209.153 499.082 209.21 499.071 209.252 499.062L209.457 499.966C209.388 499.991 209.293 500.017 209.171 500.043C209.049 500.071 208.894 500.085 208.707 500.085C208.423 500.085 208.144 500.024 207.871 499.902C207.602 499.78 207.377 499.594 207.198 499.344C207.022 499.094 206.934 498.778 206.934 498.398V491.886ZM212.776 500.153C212.362 500.153 211.985 500.075 211.647 499.919C211.309 499.76 211.04 499.531 210.842 499.233C210.643 498.932 210.543 498.568 210.543 498.142C210.543 497.767 210.617 497.463 210.765 497.23C210.913 496.994 211.11 496.81 211.357 496.676C211.604 496.543 211.877 496.443 212.175 496.378C212.477 496.31 212.779 496.256 213.083 496.216C213.481 496.165 213.803 496.126 214.05 496.101C214.3 496.072 214.482 496.026 214.596 495.96C214.712 495.895 214.771 495.781 214.771 495.619V495.585C214.771 495.165 214.656 494.838 214.425 494.605C214.198 494.372 213.853 494.256 213.39 494.256C212.91 494.256 212.533 494.361 212.261 494.571C211.988 494.781 211.796 495.006 211.685 495.244L210.731 494.903C210.901 494.506 211.129 494.196 211.413 493.974C211.7 493.75 212.012 493.594 212.35 493.506C212.691 493.415 213.026 493.369 213.356 493.369C213.566 493.369 213.808 493.395 214.08 493.446C214.356 493.494 214.621 493.595 214.877 493.749C215.136 493.902 215.35 494.134 215.521 494.443C215.691 494.753 215.776 495.168 215.776 495.688V500H214.771V499.114H214.719C214.651 499.256 214.538 499.408 214.379 499.57C214.219 499.732 214.008 499.869 213.744 499.983C213.479 500.097 213.157 500.153 212.776 500.153ZM212.93 499.25C213.327 499.25 213.663 499.172 213.935 499.016C214.211 498.859 214.418 498.658 214.558 498.411C214.7 498.163 214.771 497.903 214.771 497.631V496.71C214.728 496.761 214.634 496.808 214.489 496.851C214.347 496.891 214.183 496.926 213.995 496.957C213.81 496.986 213.63 497.011 213.454 497.034C213.281 497.054 213.14 497.071 213.032 497.085C212.771 497.119 212.526 497.175 212.299 497.251C212.075 497.325 211.893 497.437 211.754 497.588C211.617 497.736 211.549 497.937 211.549 498.193C211.549 498.543 211.678 498.807 211.937 498.986C212.198 499.162 212.529 499.25 212.93 499.25Z" fill="#333333"/>
<path opacity="0.01" d="M318 472H42C29.8497 472 20 481.85 20 494C20 506.15 29.8497 516 42 516H318C330.15 516 340 506.15 340 494C340 481.85 330.15 472 318 472Z" fill="black" stroke="black"/>
<path d="M330 276H30C24.4772 276 20 280.477 20 286V314C20 319.523 24.4772 324 30 324H330C335.523 324 340 319.523 340 314V286C340 280.477 335.523 276 330 276Z" fill="white" stroke="#DDDDDD"/>
<path d="M30.5795 298.21V297.273H37.125V298.21H34.3807V306H33.3239V298.21H30.5795ZM40.4148 306.136C39.7841 306.136 39.2401 305.997 38.7827 305.719C38.3281 305.438 37.9773 305.045 37.7301 304.543C37.4858 304.037 37.3636 303.449 37.3636 302.778C37.3636 302.108 37.4858 301.517 37.7301 301.006C37.9773 300.491 38.321 300.091 38.7614 299.804C39.2045 299.514 39.7216 299.369 40.3125 299.369C40.6534 299.369 40.9901 299.426 41.3224 299.54C41.6548 299.653 41.9574 299.838 42.2301 300.094C42.5028 300.347 42.7202 300.682 42.8821 301.099C43.044 301.517 43.125 302.031 43.125 302.642V303.068H38.0795V302.199H42.1023C42.1023 301.83 42.0284 301.5 41.8807 301.21C41.7358 300.92 41.5284 300.692 41.2585 300.524C40.9915 300.357 40.6761 300.273 40.3125 300.273C39.9119 300.273 39.5653 300.372 39.2727 300.571C38.983 300.767 38.7599 301.023 38.6037 301.338C38.4474 301.653 38.3693 301.991 38.3693 302.352V302.932C38.3693 303.426 38.4545 303.845 38.625 304.189C38.7983 304.53 39.0384 304.79 39.3452 304.969C39.652 305.145 40.0085 305.233 40.4148 305.233C40.679 305.233 40.9176 305.196 41.1307 305.122C41.3466 305.045 41.5327 304.932 41.6889 304.781C41.8452 304.628 41.9659 304.437 42.0511 304.21L43.0227 304.483C42.9205 304.812 42.7486 305.102 42.5071 305.352C42.2656 305.599 41.9673 305.793 41.6122 305.932C41.2571 306.068 40.858 306.136 40.4148 306.136ZM45.6605 297.273V306H44.6548V297.273H45.6605ZM50.2468 306.136C49.6161 306.136 49.0721 305.997 48.6147 305.719C48.1602 305.438 47.8093 305.045 47.5621 304.543C47.3178 304.037 47.1957 303.449 47.1957 302.778C47.1957 302.108 47.3178 301.517 47.5621 301.006C47.8093 300.491 48.1531 300.091 48.5934 299.804C49.0366 299.514 49.5536 299.369 50.1445 299.369C50.4854 299.369 50.8221 299.426 51.1545 299.54C51.4869 299.653 51.7894 299.838 52.0621 300.094C52.3349 300.347 52.5522 300.682 52.7141 301.099C52.8761 301.517 52.957 302.031 52.957 302.642V303.068H47.9116V302.199H51.9343C51.9343 301.83 51.8604 301.5 51.7127 301.21C51.5678 300.92 51.3604 300.692 51.0906 300.524C50.8235 300.357 50.5082 300.273 50.1445 300.273C49.744 300.273 49.3974 300.372 49.1048 300.571C48.815 300.767 48.592 301.023 48.4357 301.338C48.2795 301.653 48.2013 301.991 48.2013 302.352V302.932C48.2013 303.426 48.2866 303.845 48.457 304.189C48.6303 304.53 48.8704 304.79 49.1772 304.969C49.484 305.145 49.8406 305.233 50.2468 305.233C50.511 305.233 50.7496 305.196 50.9627 305.122C51.1786 305.045 51.3647 304.932 51.521 304.781C51.6772 304.628 51.7979 304.437 51.8832 304.21L52.8548 304.483C52.7525 304.812 52.5806 305.102 52.3391 305.352C52.0977 305.599 51.7994 305.793 51.4442 305.932C51.0891 306.068 50.69 306.136 50.2468 306.136ZM49.6332 298.568L50.6729 296.591H51.8491L50.5195 298.568H49.6332ZM57.4016 299.455V300.307H53.8732V299.455H57.4016ZM54.93 306V298.551C54.93 298.176 55.0181 297.864 55.1942 297.614C55.3704 297.364 55.5991 297.176 55.8803 297.051C56.1616 296.926 56.4585 296.864 56.771 296.864C57.0181 296.864 57.2198 296.884 57.3761 296.923C57.5323 296.963 57.6488 297 57.7255 297.034L57.4357 297.903C57.3846 297.886 57.3136 297.865 57.2227 297.839C57.1346 297.814 57.0181 297.801 56.8732 297.801C56.5408 297.801 56.3008 297.885 56.1531 298.053C56.0082 298.22 55.9357 298.466 55.9357 298.79V306H54.93ZM61.2006 306.136C60.6097 306.136 60.0913 305.996 59.6452 305.714C59.2021 305.433 58.8555 305.04 58.6055 304.534C58.3583 304.028 58.2347 303.437 58.2347 302.761C58.2347 302.08 58.3583 301.484 58.6055 300.976C58.8555 300.467 59.2021 300.072 59.6452 299.791C60.0913 299.51 60.6097 299.369 61.2006 299.369C61.7915 299.369 62.3086 299.51 62.7518 299.791C63.1978 300.072 63.5444 300.467 63.7915 300.976C64.0415 301.484 64.1665 302.08 64.1665 302.761C64.1665 303.437 64.0415 304.028 63.7915 304.534C63.5444 305.04 63.1978 305.433 62.7518 305.714C62.3086 305.996 61.7915 306.136 61.2006 306.136ZM61.2006 305.233C61.6495 305.233 62.0188 305.118 62.3086 304.888C62.5984 304.658 62.8129 304.355 62.9521 303.98C63.0913 303.605 63.1609 303.199 63.1609 302.761C63.1609 302.324 63.0913 301.916 62.9521 301.538C62.8129 301.161 62.5984 300.855 62.3086 300.622C62.0188 300.389 61.6495 300.273 61.2006 300.273C60.7518 300.273 60.3825 300.389 60.0927 300.622C59.8029 300.855 59.5884 301.161 59.4492 301.538C59.31 301.916 59.2404 302.324 59.2404 302.761C59.2404 303.199 59.31 303.605 59.4492 303.98C59.5884 304.355 59.8029 304.658 60.0927 304.888C60.3825 305.118 60.7518 305.233 61.2006 305.233ZM66.7074 302.062V306H65.7017V299.455H66.6733V300.477H66.7585C66.9119 300.145 67.1449 299.878 67.4574 299.676C67.7699 299.472 68.1733 299.369 68.6676 299.369C69.1108 299.369 69.4986 299.46 69.831 299.642C70.1634 299.821 70.4219 300.094 70.6065 300.46C70.7912 300.824 70.8835 301.284 70.8835 301.841V306H69.8778V301.909C69.8778 301.395 69.7443 300.994 69.4773 300.707C69.2102 300.418 68.8438 300.273 68.3778 300.273C68.0568 300.273 67.7699 300.342 67.517 300.482C67.267 300.621 67.0696 300.824 66.9247 301.091C66.7798 301.358 66.7074 301.682 66.7074 302.062ZM75.3803 306.136C74.7894 306.136 74.271 305.996 73.8249 305.714C73.3817 305.433 73.0352 305.04 72.7852 304.534C72.538 304.028 72.4144 303.437 72.4144 302.761C72.4144 302.08 72.538 301.484 72.7852 300.976C73.0352 300.467 73.3817 300.072 73.8249 299.791C74.271 299.51 74.7894 299.369 75.3803 299.369C75.9712 299.369 76.4883 299.51 76.9315 299.791C77.3775 300.072 77.7241 300.467 77.9712 300.976C78.2212 301.484 78.3462 302.08 78.3462 302.761C78.3462 303.437 78.2212 304.028 77.9712 304.534C77.7241 305.04 77.3775 305.433 76.9315 305.714C76.4883 305.996 75.9712 306.136 75.3803 306.136ZM75.3803 305.233C75.8292 305.233 76.1985 305.118 76.4883 304.888C76.7781 304.658 76.9925 304.355 77.1317 303.98C77.271 303.605 77.3406 303.199 77.3406 302.761C77.3406 302.324 77.271 301.916 77.1317 301.538C76.9925 301.161 76.7781 300.855 76.4883 300.622C76.1985 300.389 75.8292 300.273 75.3803 300.273C74.9315 300.273 74.5621 300.389 74.2724 300.622C73.9826 300.855 73.7681 301.161 73.6289 301.538C73.4897 301.916 73.4201 302.324 73.4201 302.761C73.4201 303.199 73.4897 303.605 73.6289 303.98C73.7681 304.355 73.9826 304.658 74.2724 304.888C74.5621 305.118 74.9315 305.233 75.3803 305.233Z" fill="#777777"/>
<path d="M330 336H30C24.4772 336 20 340.477 20 346V374C20 379.523 24.4772 384 30 384H330C335.523 384 340 379.523 340 374V346C340 340.477 335.523 336 330 336Z" fill="white" stroke="#DDDDDD"/>
<path d="M30.5795 357.21V356.273H37.125V357.21H34.3807V365H33.3239V357.21H30.5795ZM38.6197 365V358.455H39.6254V365H38.6197ZM39.131 357.364C38.935 357.364 38.766 357.297 38.6239 357.163C38.4847 357.03 38.4151 356.869 38.4151 356.682C38.4151 356.494 38.4847 356.334 38.6239 356.2C38.766 356.067 38.935 356 39.131 356C39.3271 356 39.4947 356.067 39.6339 356.2C39.7759 356.334 39.8469 356.494 39.8469 356.682C39.8469 356.869 39.7759 357.03 39.6339 357.163C39.4947 357.297 39.3271 357.364 39.131 357.364ZM41.4673 367.455V358.455H42.4389V359.494H42.5582C42.6321 359.381 42.7344 359.236 42.8651 359.06C42.9986 358.881 43.1889 358.722 43.4361 358.582C43.6861 358.44 44.0241 358.369 44.4503 358.369C45.0014 358.369 45.4872 358.507 45.9077 358.783C46.3281 359.058 46.6563 359.449 46.892 359.955C47.1278 360.46 47.2457 361.057 47.2457 361.744C47.2457 362.438 47.1278 363.038 46.892 363.547C46.6563 364.053 46.3295 364.445 45.9119 364.723C45.4943 364.999 45.0128 365.136 44.4673 365.136C44.0469 365.136 43.7102 365.067 43.4574 364.928C43.2045 364.786 43.0099 364.625 42.8736 364.446C42.7372 364.264 42.6321 364.114 42.5582 363.994H42.473V367.455H41.4673ZM42.456 361.727C42.456 362.222 42.5284 362.658 42.6733 363.036C42.8182 363.411 43.0298 363.705 43.3082 363.918C43.5866 364.128 43.9276 364.233 44.331 364.233C44.7514 364.233 45.1023 364.122 45.3835 363.901C45.6676 363.676 45.8807 363.375 46.0227 362.997C46.1676 362.616 46.2401 362.193 46.2401 361.727C46.2401 361.267 46.169 360.852 46.027 360.483C45.8878 360.111 45.6761 359.817 45.392 359.601C45.1108 359.382 44.7571 359.273 44.331 359.273C43.9219 359.273 43.5781 359.376 43.2997 359.584C43.0213 359.788 42.8111 360.075 42.669 360.445C42.527 360.811 42.456 361.239 42.456 361.727ZM51.4389 365.136C50.848 365.136 50.3295 364.996 49.8835 364.714C49.4403 364.433 49.0938 364.04 48.8438 363.534C48.5966 363.028 48.473 362.437 48.473 361.761C48.473 361.08 48.5966 360.484 48.8438 359.976C49.0938 359.467 49.4403 359.072 49.8835 358.791C50.3295 358.51 50.848 358.369 51.4389 358.369C52.0298 358.369 52.5469 358.51 52.9901 358.791C53.4361 359.072 53.7827 359.467 54.0298 359.976C54.2798 360.484 54.4048 361.08 54.4048 361.761C54.4048 362.437 54.2798 363.028 54.0298 363.534C53.7827 364.04 53.4361 364.433 52.9901 364.714C52.5469 364.996 52.0298 365.136 51.4389 365.136ZM51.4389 364.233C51.8878 364.233 52.2571 364.118 52.5469 363.888C52.8366 363.658 53.0511 363.355 53.1903 362.98C53.3295 362.605 53.3991 362.199 53.3991 361.761C53.3991 361.324 53.3295 360.916 53.1903 360.538C53.0511 360.161 52.8366 359.855 52.5469 359.622C52.2571 359.389 51.8878 359.273 51.4389 359.273C50.9901 359.273 50.6207 359.389 50.331 359.622C50.0412 359.855 49.8267 360.161 49.6875 360.538C49.5483 360.916 49.4787 361.324 49.4787 361.761C49.4787 362.199 49.5483 362.605 49.6875 362.98C49.8267 363.355 50.0412 363.658 50.331 363.888C50.6207 364.118 50.9901 364.233 51.4389 364.233ZM61.7866 365.136C61.2411 365.136 60.7596 364.999 60.342 364.723C59.9244 364.445 59.5977 364.053 59.3619 363.547C59.1261 363.038 59.0082 362.438 59.0082 361.744C59.0082 361.057 59.1261 360.46 59.3619 359.955C59.5977 359.449 59.9258 359.058 60.3462 358.783C60.7667 358.507 61.2525 358.369 61.8036 358.369C62.2298 358.369 62.5664 358.44 62.8136 358.582C63.0636 358.722 63.2539 358.881 63.3846 359.06C63.5181 359.236 63.6218 359.381 63.6957 359.494H63.7809V356.273H64.7866V365H63.815V363.994H63.6957C63.6218 364.114 63.5167 364.264 63.3803 364.446C63.244 364.625 63.0494 364.786 62.7965 364.928C62.5437 365.067 62.207 365.136 61.7866 365.136ZM61.9229 364.233C62.3263 364.233 62.6673 364.128 62.9457 363.918C63.2241 363.705 63.4357 363.411 63.5806 363.036C63.7255 362.658 63.7979 362.222 63.7979 361.727C63.7979 361.239 63.7269 360.811 63.5849 360.445C63.4428 360.075 63.2326 359.788 62.9542 359.584C62.6758 359.376 62.332 359.273 61.9229 359.273C61.4968 359.273 61.1417 359.382 60.8576 359.601C60.5763 359.817 60.3647 360.111 60.2227 360.483C60.0835 360.852 60.0138 361.267 60.0138 361.727C60.0138 362.193 60.0849 362.616 60.2269 362.997C60.3718 363.375 60.5849 363.676 60.8661 363.901C61.1502 364.122 61.5025 364.233 61.9229 364.233ZM69.5124 365.136C68.8817 365.136 68.3377 364.997 67.8803 364.719C67.4258 364.438 67.0749 364.045 66.8278 363.543C66.5835 363.037 66.4613 362.449 66.4613 361.778C66.4613 361.108 66.5835 360.517 66.8278 360.006C67.0749 359.491 67.4187 359.091 67.859 358.804C68.3022 358.514 68.8192 358.369 69.4102 358.369C69.7511 358.369 70.0877 358.426 70.4201 358.54C70.7525 358.653 71.055 358.838 71.3278 359.094C71.6005 359.347 71.8178 359.682 71.9798 360.099C72.1417 360.517 72.2227 361.031 72.2227 361.642V362.068H67.1772V361.199H71.1999C71.1999 360.83 71.1261 360.5 70.9783 360.21C70.8335 359.92 70.6261 359.692 70.3562 359.524C70.0891 359.357 69.7738 359.273 69.4102 359.273C69.0096 359.273 68.663 359.372 68.3704 359.571C68.0806 359.767 67.8576 360.023 67.7013 360.338C67.5451 360.653 67.467 360.991 67.467 361.352V361.932C67.467 362.426 67.5522 362.845 67.7227 363.189C67.896 363.53 68.136 363.79 68.4428 363.969C68.7496 364.145 69.1062 364.233 69.5124 364.233C69.7766 364.233 70.0153 364.196 70.2283 364.122C70.4442 364.045 70.6303 363.932 70.7866 363.781C70.9428 363.628 71.0636 363.437 71.1488 363.21L72.1204 363.483C72.0181 363.812 71.8462 364.102 71.6048 364.352C71.3633 364.599 71.065 364.793 70.7099 364.932C70.3548 365.068 69.9556 365.136 69.5124 365.136ZM81.7638 359.92L80.8604 360.176C80.8036 360.026 80.7198 359.879 80.609 359.737C80.5011 359.592 80.3533 359.473 80.1658 359.379C79.9783 359.286 79.7383 359.239 79.4457 359.239C79.0451 359.239 78.7113 359.331 78.4442 359.516C78.18 359.697 78.0479 359.929 78.0479 360.21C78.0479 360.46 78.1388 360.658 78.3207 360.803C78.5025 360.947 78.7866 361.068 79.1729 361.165L80.1445 361.403C80.7298 361.545 81.1658 361.763 81.4528 362.055C81.7397 362.345 81.8832 362.719 81.8832 363.176C81.8832 363.551 81.7752 363.886 81.5593 364.182C81.3462 364.477 81.0479 364.71 80.6644 364.881C80.2809 365.051 79.8349 365.136 79.3263 365.136C78.6587 365.136 78.1062 364.991 77.6687 364.702C77.2312 364.412 76.9542 363.989 76.8377 363.432L77.7923 363.193C77.8832 363.545 78.055 363.81 78.3079 363.986C78.5636 364.162 78.8974 364.25 79.3093 364.25C79.7781 364.25 80.1502 364.151 80.4258 363.952C80.7042 363.75 80.8434 363.509 80.8434 363.227C80.8434 363 80.7638 362.81 80.6048 362.656C80.4457 362.5 80.2013 362.384 79.8718 362.307L78.7809 362.051C78.1815 361.909 77.7411 361.689 77.4599 361.391C77.1815 361.089 77.0423 360.713 77.0423 360.261C77.0423 359.892 77.146 359.565 77.3533 359.281C77.5636 358.997 77.8491 358.774 78.2099 358.612C78.5735 358.45 78.9854 358.369 79.4457 358.369C80.0934 358.369 80.6019 358.511 80.9712 358.795C81.3434 359.08 81.6076 359.455 81.7638 359.92ZM85.3232 365.153C84.9084 365.153 84.532 365.075 84.1939 364.919C83.8558 364.76 83.5874 364.531 83.3885 364.233C83.1896 363.932 83.0902 363.568 83.0902 363.142C83.0902 362.767 83.1641 362.463 83.3118 362.23C83.4595 361.994 83.657 361.81 83.9041 361.676C84.1513 361.543 84.424 361.443 84.7223 361.378C85.0234 361.31 85.326 361.256 85.63 361.216C86.0277 361.165 86.3501 361.126 86.5973 361.101C86.8473 361.072 87.0291 361.026 87.1428 360.96C87.2592 360.895 87.3175 360.781 87.3175 360.619V360.585C87.3175 360.165 87.2024 359.838 86.9723 359.605C86.745 359.372 86.3999 359.256 85.9368 359.256C85.4567 359.256 85.0803 359.361 84.8075 359.571C84.5348 359.781 84.343 360.006 84.2322 360.244L83.2777 359.903C83.4482 359.506 83.6754 359.196 83.9595 358.974C84.2464 358.75 84.5589 358.594 84.897 358.506C85.2379 358.415 85.5732 358.369 85.9027 358.369C86.1129 358.369 86.3544 358.395 86.6271 358.446C86.9027 358.494 87.1683 358.595 87.424 358.749C87.6825 358.902 87.897 359.134 88.0675 359.443C88.2379 359.753 88.3232 360.168 88.3232 360.688V365H87.3175V364.114H87.2663C87.1982 364.256 87.0845 364.408 86.9254 364.57C86.7663 364.732 86.5547 364.869 86.2905 364.983C86.0263 365.097 85.7038 365.153 85.3232 365.153ZM85.4766 364.25C85.8743 364.25 86.2095 364.172 86.4822 364.016C86.7578 363.859 86.9652 363.658 87.1044 363.411C87.2464 363.163 87.3175 362.903 87.3175 362.631V361.71C87.2749 361.761 87.1811 361.808 87.0362 361.851C86.8942 361.891 86.7294 361.926 86.5419 361.957C86.3572 361.986 86.1768 362.011 86.0007 362.034C85.8274 362.054 85.6868 362.071 85.5788 362.085C85.3175 362.119 85.0732 362.175 84.8459 362.251C84.6214 362.325 84.4396 362.437 84.3004 362.588C84.1641 362.736 84.0959 362.937 84.0959 363.193C84.0959 363.543 84.2251 363.807 84.4837 363.986C84.745 364.162 85.076 364.25 85.4766 364.25ZM91.1644 361.062V365H90.1587V358.455H91.1303V359.477H91.2156C91.369 359.145 91.6019 358.878 91.9144 358.676C92.2269 358.472 92.6303 358.369 93.1246 358.369C93.5678 358.369 93.9556 358.46 94.288 358.642C94.6204 358.821 94.8789 359.094 95.0636 359.46C95.2482 359.824 95.3406 360.284 95.3406 360.841V365H94.3349V360.909C94.3349 360.395 94.2013 359.994 93.9343 359.707C93.6673 359.418 93.3008 359.273 92.8349 359.273C92.5138 359.273 92.2269 359.342 91.9741 359.482C91.7241 359.621 91.5266 359.824 91.3817 360.091C91.2369 360.358 91.1644 360.682 91.1644 361.062ZM99.8203 367.591C99.3345 367.591 98.9169 367.528 98.5675 367.403C98.218 367.281 97.9268 367.119 97.6939 366.918C97.4638 366.719 97.2805 366.506 97.1442 366.278L97.9453 365.716C98.0362 365.835 98.1513 365.972 98.2905 366.125C98.4297 366.281 98.62 366.416 98.8615 366.53C99.1058 366.646 99.4254 366.705 99.8203 366.705C100.349 366.705 100.785 366.577 101.129 366.321C101.472 366.065 101.644 365.665 101.644 365.119V363.79H101.559C101.485 363.909 101.38 364.057 101.244 364.233C101.11 364.406 100.917 364.561 100.664 364.697C100.414 364.831 100.076 364.898 99.6499 364.898C99.1214 364.898 98.647 364.773 98.2266 364.523C97.8089 364.273 97.478 363.909 97.2337 363.432C96.9922 362.955 96.8714 362.375 96.8714 361.693C96.8714 361.023 96.9893 360.439 97.2251 359.942C97.4609 359.442 97.7891 359.055 98.2095 358.783C98.63 358.507 99.1158 358.369 99.6669 358.369C100.093 358.369 100.431 358.44 100.681 358.582C100.934 358.722 101.127 358.881 101.261 359.06C101.397 359.236 101.502 359.381 101.576 359.494H101.678V358.455H102.65V365.188C102.65 365.75 102.522 366.207 102.266 366.56C102.013 366.915 101.673 367.175 101.244 367.339C100.817 367.507 100.343 367.591 99.8203 367.591ZM99.7862 363.994C100.19 363.994 100.531 363.902 100.809 363.717C101.087 363.533 101.299 363.267 101.444 362.92C101.589 362.574 101.661 362.159 101.661 361.676C101.661 361.205 101.59 360.788 101.448 360.428C101.306 360.067 101.096 359.784 100.817 359.58C100.539 359.375 100.195 359.273 99.7862 359.273C99.3601 359.273 99.005 359.381 98.7209 359.597C98.4396 359.812 98.228 360.102 98.0859 360.466C97.9467 360.83 97.8771 361.233 97.8771 361.676C97.8771 362.131 97.9482 362.533 98.0902 362.882C98.2351 363.229 98.4482 363.501 98.7294 363.7C99.0135 363.896 99.3658 363.994 99.7862 363.994ZM104.491 365V358.455H105.462V359.443H105.531C105.65 359.119 105.866 358.857 106.178 358.655C106.491 358.453 106.843 358.352 107.235 358.352C107.309 358.352 107.401 358.354 107.512 358.357C107.623 358.359 107.707 358.364 107.763 358.369V359.392C107.729 359.384 107.651 359.371 107.529 359.354C107.41 359.334 107.283 359.324 107.15 359.324C106.832 359.324 106.548 359.391 106.298 359.524C106.05 359.655 105.854 359.837 105.71 360.07C105.567 360.3 105.496 360.562 105.496 360.858V365H104.491ZM111.501 365.136C110.87 365.136 110.326 364.997 109.869 364.719C109.414 364.438 109.063 364.045 108.816 363.543C108.572 363.037 108.45 362.449 108.45 361.778C108.45 361.108 108.572 360.517 108.816 360.006C109.063 359.491 109.407 359.091 109.847 358.804C110.29 358.514 110.808 358.369 111.398 358.369C111.739 358.369 112.076 358.426 112.408 358.54C112.741 358.653 113.043 358.838 113.316 359.094C113.589 359.347 113.806 359.682 113.968 360.099C114.13 360.517 114.211 361.031 114.211 361.642V362.068H109.165V361.199H113.188C113.188 360.83 113.114 360.5 112.967 360.21C112.822 359.92 112.614 359.692 112.344 359.524C112.077 359.357 111.762 359.273 111.398 359.273C110.998 359.273 110.651 359.372 110.359 359.571C110.069 359.767 109.846 360.023 109.69 360.338C109.533 360.653 109.455 360.991 109.455 361.352V361.932C109.455 362.426 109.54 362.845 109.711 363.189C109.884 363.53 110.124 363.79 110.431 363.969C110.738 364.145 111.094 364.233 111.501 364.233C111.765 364.233 112.004 364.196 112.217 364.122C112.433 364.045 112.619 363.932 112.775 363.781C112.931 363.628 113.052 363.437 113.137 363.21L114.109 363.483C114.006 363.812 113.835 364.102 113.593 364.352C113.352 364.599 113.053 364.793 112.698 364.932C112.343 365.068 111.944 365.136 111.501 365.136Z" fill="#777777"/>
<path d="M330 396H30C24.4772 396 20 400.477 20 406V434C20 439.523 24.4772 444 30 444H330C335.523 444 340 439.523 340 434V406C340 400.477 335.523 396 330 396Z" fill="white" stroke="#DDDDDD"/>
<path d="M38.0795 420H37.0227C36.9602 419.696 36.8509 419.429 36.6946 419.199C36.5412 418.969 36.3537 418.776 36.1321 418.619C35.9134 418.46 35.6705 418.341 35.4034 418.261C35.1364 418.182 34.858 418.142 34.5682 418.142C34.0398 418.142 33.5611 418.276 33.1321 418.543C32.706 418.81 32.3665 419.203 32.1136 419.723C31.8636 420.243 31.7386 420.881 31.7386 421.636C31.7386 422.392 31.8636 423.03 32.1136 423.55C32.3665 424.07 32.706 424.463 33.1321 424.73C33.5611 424.997 34.0398 425.131 34.5682 425.131C34.858 425.131 35.1364 425.091 35.4034 425.011C35.6705 424.932 35.9134 424.814 36.1321 424.658C36.3537 424.499 36.5412 424.304 36.6946 424.074C36.8509 423.841 36.9602 423.574 37.0227 423.273H38.0795C38 423.719 37.8551 424.118 37.6449 424.47C37.4347 424.822 37.1733 425.122 36.8608 425.369C36.5483 425.614 36.1974 425.8 35.8082 425.928C35.4219 426.055 35.0085 426.119 34.5682 426.119C33.8239 426.119 33.1619 425.938 32.5824 425.574C32.0028 425.21 31.5469 424.693 31.2145 424.023C30.8821 423.352 30.7159 422.557 30.7159 421.636C30.7159 420.716 30.8821 419.92 31.2145 419.25C31.5469 418.58 32.0028 418.062 32.5824 417.699C33.1619 417.335 33.8239 417.153 34.5682 417.153C35.0085 417.153 35.4219 417.217 35.8082 417.345C36.1974 417.473 36.5483 417.661 36.8608 417.908C37.1733 418.152 37.4347 418.45 37.6449 418.803C37.8551 419.152 38 419.551 38.0795 420ZM39.6509 426V419.455H40.6566V426H39.6509ZM40.1623 418.364C39.9663 418.364 39.7972 418.297 39.6552 418.163C39.516 418.03 39.4464 417.869 39.4464 417.682C39.4464 417.494 39.516 417.334 39.6552 417.2C39.7972 417.067 39.9663 417 40.1623 417C40.3583 417 40.5259 417.067 40.6651 417.2C40.8072 417.334 40.8782 417.494 40.8782 417.682C40.8782 417.869 40.8072 418.03 40.6651 418.163C40.5259 418.297 40.3583 418.364 40.1623 418.364ZM46.6236 423.324V419.455H47.6293V426H46.6236V424.892H46.5554C46.402 425.224 46.1634 425.507 45.8395 425.74C45.5156 425.97 45.1065 426.085 44.6122 426.085C44.2031 426.085 43.8395 425.996 43.5213 425.817C43.2031 425.635 42.9531 425.362 42.7713 424.999C42.5895 424.632 42.4986 424.17 42.4986 423.614V419.455H43.5043V423.545C43.5043 424.023 43.6378 424.403 43.9048 424.688C44.1747 424.972 44.5185 425.114 44.9361 425.114C45.1861 425.114 45.4403 425.05 45.6989 424.922C45.9602 424.794 46.179 424.598 46.3551 424.334C46.5341 424.07 46.6236 423.733 46.6236 423.324ZM51.9428 426.136C51.3974 426.136 50.9158 425.999 50.4982 425.723C50.0806 425.445 49.7539 425.053 49.5181 424.547C49.2823 424.038 49.1644 423.438 49.1644 422.744C49.1644 422.057 49.2823 421.46 49.5181 420.955C49.7539 420.449 50.082 420.058 50.5025 419.783C50.9229 419.507 51.4087 419.369 51.9599 419.369C52.386 419.369 52.7227 419.44 52.9698 419.582C53.2198 419.722 53.4102 419.881 53.5408 420.06C53.6744 420.236 53.7781 420.381 53.8519 420.494H53.9371V417.273H54.9428V426H53.9712V424.994H53.8519C53.7781 425.114 53.6729 425.264 53.5366 425.446C53.4002 425.625 53.2056 425.786 52.9528 425.928C52.6999 426.067 52.3633 426.136 51.9428 426.136ZM52.0792 425.233C52.4826 425.233 52.8235 425.128 53.1019 424.918C53.3803 424.705 53.592 424.411 53.7369 424.036C53.8817 423.658 53.9542 423.222 53.9542 422.727C53.9542 422.239 53.8832 421.811 53.7411 421.445C53.5991 421.075 53.3888 420.788 53.1104 420.584C52.832 420.376 52.4883 420.273 52.0792 420.273C51.6531 420.273 51.2979 420.382 51.0138 420.601C50.7326 420.817 50.521 421.111 50.3789 421.483C50.2397 421.852 50.1701 422.267 50.1701 422.727C50.1701 423.193 50.2411 423.616 50.3832 423.997C50.5281 424.375 50.7411 424.676 51.0224 424.901C51.3065 425.122 51.6587 425.233 52.0792 425.233ZM58.8505 426.153C58.4357 426.153 58.0593 426.075 57.7212 425.919C57.3832 425.76 57.1147 425.531 56.9158 425.233C56.717 424.932 56.6175 424.568 56.6175 424.142C56.6175 423.767 56.6914 423.463 56.8391 423.23C56.9869 422.994 57.1843 422.81 57.4315 422.676C57.6786 422.543 57.9513 422.443 58.2496 422.378C58.5508 422.31 58.8533 422.256 59.1573 422.216C59.555 422.165 59.8775 422.126 60.1246 422.101C60.3746 422.072 60.5565 422.026 60.6701 421.96C60.7866 421.895 60.8448 421.781 60.8448 421.619V421.585C60.8448 421.165 60.7298 420.838 60.4996 420.605C60.2724 420.372 59.9272 420.256 59.4641 420.256C58.984 420.256 58.6076 420.361 58.3349 420.571C58.0621 420.781 57.8704 421.006 57.7596 421.244L56.805 420.903C56.9755 420.506 57.2028 420.196 57.4869 419.974C57.7738 419.75 58.0863 419.594 58.4244 419.506C58.7653 419.415 59.1005 419.369 59.43 419.369C59.6403 419.369 59.8817 419.395 60.1545 419.446C60.43 419.494 60.6957 419.595 60.9513 419.749C61.2099 419.902 61.4244 420.134 61.5948 420.443C61.7653 420.753 61.8505 421.168 61.8505 421.688V426H60.8448V425.114H60.7937C60.7255 425.256 60.6119 425.408 60.4528 425.57C60.2937 425.732 60.082 425.869 59.8178 425.983C59.5536 426.097 59.2312 426.153 58.8505 426.153ZM59.0039 425.25C59.4016 425.25 59.7369 425.172 60.0096 425.016C60.2852 424.859 60.4925 424.658 60.6317 424.411C60.7738 424.163 60.8448 423.903 60.8448 423.631V422.71C60.8022 422.761 60.7085 422.808 60.5636 422.851C60.4215 422.891 60.2567 422.926 60.0692 422.957C59.8846 422.986 59.7042 423.011 59.5281 423.034C59.3548 423.054 59.2141 423.071 59.1062 423.085C58.8448 423.119 58.6005 423.175 58.3732 423.251C58.1488 423.325 57.967 423.437 57.8278 423.588C57.6914 423.736 57.6232 423.937 57.6232 424.193C57.6232 424.543 57.7525 424.807 58.011 424.986C58.2724 425.162 58.6033 425.25 59.0039 425.25ZM66.1577 426.136C65.6122 426.136 65.1307 425.999 64.7131 425.723C64.2955 425.445 63.9688 425.053 63.733 424.547C63.4972 424.038 63.3793 423.438 63.3793 422.744C63.3793 422.057 63.4972 421.46 63.733 420.955C63.9688 420.449 64.2969 420.058 64.7173 419.783C65.1378 419.507 65.6236 419.369 66.1747 419.369C66.6009 419.369 66.9375 419.44 67.1847 419.582C67.4347 419.722 67.625 419.881 67.7557 420.06C67.8892 420.236 67.9929 420.381 68.0668 420.494H68.152V417.273H69.1577V426H68.1861V424.994H68.0668C67.9929 425.114 67.8878 425.264 67.7514 425.446C67.6151 425.625 67.4205 425.786 67.1676 425.928C66.9148 426.067 66.5781 426.136 66.1577 426.136ZM66.294 425.233C66.6974 425.233 67.0384 425.128 67.3168 424.918C67.5952 424.705 67.8068 424.411 67.9517 424.036C68.0966 423.658 68.169 423.222 68.169 422.727C68.169 422.239 68.098 421.811 67.956 421.445C67.8139 421.075 67.6037 420.788 67.3253 420.584C67.0469 420.376 66.7031 420.273 66.294 420.273C65.8679 420.273 65.5128 420.382 65.2287 420.601C64.9474 420.817 64.7358 421.111 64.5938 421.483C64.4545 421.852 64.3849 422.267 64.3849 422.727C64.3849 423.193 64.456 423.616 64.598 423.997C64.7429 424.375 64.956 424.676 65.2372 424.901C65.5213 425.122 65.8736 425.233 66.294 425.233Z" fill="#777777"/>
</g>
<defs>
<clipPath id="clip0_63_637">
<rect width="360" height="800" fill="white"/>
</clipPath>
</defs>
</svg>
