<svg width="360" height="800" viewBox="0 0 360 800" fill="none" xmlns="http://www.w3.org/2000/svg">
<g clip-path="url(#clip0_63_716)">
<rect width="360" height="800" fill="white"/>
<path d="M360 0H0V56H360V0Z" fill="#FAFAFA" stroke="#D0D0D0"/>
<path d="M30.7443 21.3636V33H28.6193L23.5568 25.6761H23.4716V33H21.0114V21.3636H23.1705L28.1932 28.6818H28.2955V21.3636H30.7443ZM36.6747 33.1705C35.7921 33.1705 35.0289 32.983 34.3849 32.608C33.7448 32.2292 33.2505 31.7027 32.902 31.0284C32.5535 30.3504 32.3793 29.5644 32.3793 28.6705C32.3793 27.7689 32.5535 26.9811 32.902 26.3068C33.2505 25.6288 33.7448 25.1023 34.3849 24.7273C35.0289 24.3485 35.7921 24.1591 36.6747 24.1591C37.5573 24.1591 38.3187 24.3485 38.9588 24.7273C39.6027 25.1023 40.099 25.6288 40.4474 26.3068C40.7959 26.9811 40.9702 27.7689 40.9702 28.6705C40.9702 29.5644 40.7959 30.3504 40.4474 31.0284C40.099 31.7027 39.6027 32.2292 38.9588 32.608C38.3187 32.983 37.5573 33.1705 36.6747 33.1705ZM36.6861 31.2955C37.0876 31.2955 37.4228 31.1818 37.6918 30.9545C37.9607 30.7235 38.1634 30.4091 38.2997 30.0114C38.4399 29.6136 38.5099 29.161 38.5099 28.6534C38.5099 28.1458 38.4399 27.6932 38.2997 27.2955C38.1634 26.8977 37.9607 26.5833 37.6918 26.3523C37.4228 26.1212 37.0876 26.0057 36.6861 26.0057C36.2808 26.0057 35.9399 26.1212 35.6634 26.3523C35.3906 26.5833 35.1842 26.8977 35.044 27.2955C34.9077 27.6932 34.8395 28.1458 34.8395 28.6534C34.8395 29.161 34.9077 29.6136 35.044 30.0114C35.1842 30.4091 35.3906 30.7235 35.6634 30.9545C35.9399 31.1818 36.2808 31.2955 36.6861 31.2955ZM47.1861 24.2727V26.0909H41.9304V24.2727H47.1861ZM43.1236 22.1818H45.544V30.3182C45.544 30.5417 45.5781 30.7159 45.6463 30.8409C45.7145 30.9621 45.8092 31.0473 45.9304 31.0966C46.0554 31.1458 46.1993 31.1705 46.3622 31.1705C46.4759 31.1705 46.5895 31.161 46.7031 31.142C46.8168 31.1193 46.9039 31.1023 46.9645 31.0909L47.3452 32.892C47.224 32.9299 47.0535 32.9735 46.8338 33.0227C46.6141 33.0758 46.3471 33.108 46.0327 33.1193C45.4493 33.142 44.938 33.0644 44.4986 32.8864C44.063 32.7083 43.724 32.4318 43.4815 32.0568C43.2391 31.6818 43.1198 31.2083 43.1236 30.6364V22.1818ZM48.7628 33V24.2727H51.1832V33H48.7628ZM49.9787 23.1477C49.6188 23.1477 49.3101 23.0284 49.0526 22.7898C48.7988 22.5473 48.6719 22.2576 48.6719 21.9205C48.6719 21.5871 48.7988 21.3011 49.0526 21.0625C49.3101 20.8201 49.6188 20.6989 49.9787 20.6989C50.3385 20.6989 50.6454 20.8201 50.8991 21.0625C51.1567 21.3011 51.2855 21.5871 51.2855 21.9205C51.2855 22.2576 51.1567 22.5473 50.8991 22.7898C50.6454 23.0284 50.3385 23.1477 49.9787 23.1477ZM57.8153 24.2727V26.0909H52.429V24.2727H57.8153ZM53.6619 33V23.642C53.6619 23.0095 53.785 22.4848 54.0312 22.0682C54.2812 21.6515 54.6222 21.339 55.054 21.1307C55.4858 20.9223 55.9763 20.8182 56.5256 20.8182C56.8968 20.8182 57.2358 20.8466 57.5426 20.9034C57.8532 20.9602 58.0843 21.0114 58.2358 21.0568L57.804 22.875C57.7093 22.8447 57.5919 22.8163 57.4517 22.7898C57.3153 22.7633 57.1752 22.75 57.0312 22.75C56.6752 22.75 56.4271 22.8333 56.2869 23C56.1468 23.1629 56.0767 23.392 56.0767 23.6875V33H53.6619ZM59.294 33V24.2727H61.7145V33H59.294ZM60.5099 23.1477C60.1501 23.1477 59.8414 23.0284 59.5838 22.7898C59.33 22.5473 59.2031 22.2576 59.2031 21.9205C59.2031 21.5871 59.33 21.3011 59.5838 21.0625C59.8414 20.8201 60.1501 20.6989 60.5099 20.6989C60.8698 20.6989 61.1766 20.8201 61.4304 21.0625C61.688 21.3011 61.8168 21.5871 61.8168 21.9205C61.8168 22.2576 61.688 22.5473 61.4304 22.7898C61.1766 23.0284 60.8698 23.1477 60.5099 23.1477ZM67.5966 33.1705C66.7027 33.1705 65.9337 32.9811 65.2898 32.6023C64.6496 32.2197 64.1572 31.6894 63.8125 31.0114C63.4716 30.3333 63.3011 29.553 63.3011 28.6705C63.3011 27.7765 63.4735 26.9924 63.8182 26.3182C64.1667 25.6402 64.661 25.1117 65.3011 24.733C65.9413 24.3504 66.7027 24.1591 67.5852 24.1591C68.3466 24.1591 69.0133 24.2973 69.5852 24.5739C70.1572 24.8504 70.6098 25.2386 70.9432 25.7386C71.2765 26.2386 71.4602 26.8258 71.4943 27.5H69.2102C69.1458 27.0644 68.9754 26.714 68.6989 26.4489C68.4261 26.1799 68.0682 26.0455 67.625 26.0455C67.25 26.0455 66.9223 26.1477 66.642 26.3523C66.3655 26.553 66.1496 26.8466 65.9943 27.233C65.839 27.6193 65.7614 28.0871 65.7614 28.6364C65.7614 29.1932 65.8371 29.6667 65.9886 30.0568C66.1439 30.447 66.3617 30.7443 66.642 30.9489C66.9223 31.1534 67.25 31.2557 67.625 31.2557C67.9015 31.2557 68.1496 31.1989 68.3693 31.0852C68.5928 30.9716 68.7765 30.8068 68.9205 30.5909C69.0682 30.3712 69.1648 30.108 69.2102 29.8011H71.4943C71.4564 30.4678 71.2746 31.0549 70.9489 31.5625C70.6269 32.0663 70.1818 32.4602 69.6136 32.7443C69.0455 33.0284 68.3731 33.1705 67.5966 33.1705ZM75.5327 33.1648C74.9759 33.1648 74.4796 33.0682 74.044 32.875C73.6084 32.678 73.2637 32.3883 73.0099 32.0057C72.7599 31.6193 72.6349 31.1383 72.6349 30.5625C72.6349 30.0777 72.724 29.6705 72.902 29.3409C73.08 29.0114 73.3224 28.7462 73.6293 28.5455C73.9361 28.3447 74.2846 28.1932 74.6747 28.0909C75.0687 27.9886 75.4815 27.9167 75.9134 27.875C76.4209 27.822 76.83 27.7727 77.1406 27.7273C77.4512 27.678 77.6766 27.6061 77.8168 27.5114C77.9569 27.4167 78.027 27.2765 78.027 27.0909V27.0568C78.027 26.697 77.9134 26.4186 77.6861 26.2216C77.4626 26.0246 77.1444 25.9261 76.7315 25.9261C76.2959 25.9261 75.9493 26.0227 75.6918 26.2159C75.4342 26.4053 75.2637 26.6439 75.1804 26.9318L72.9418 26.75C73.0554 26.2197 73.2789 25.7614 73.6122 25.375C73.9455 24.9848 74.3755 24.6856 74.902 24.4773C75.4323 24.2652 76.0459 24.1591 76.7429 24.1591C77.2277 24.1591 77.6918 24.2159 78.1349 24.3295C78.5819 24.4432 78.9777 24.6193 79.3224 24.858C79.6709 25.0966 79.9455 25.4034 80.1463 25.7784C80.3471 26.1496 80.4474 26.5947 80.4474 27.1136V33H78.152V31.7898H78.0838C77.9437 32.0625 77.7562 32.303 77.5213 32.5114C77.2865 32.7159 77.0043 32.8769 76.6747 32.9943C76.3452 33.108 75.9645 33.1648 75.5327 33.1648ZM76.2259 31.4943C76.5819 31.4943 76.8963 31.4242 77.169 31.2841C77.4418 31.1402 77.6558 30.947 77.8111 30.7045C77.9664 30.4621 78.044 30.1875 78.044 29.8807V28.9545C77.9683 29.0038 77.8641 29.0492 77.7315 29.0909C77.6027 29.1288 77.4569 29.1648 77.294 29.1989C77.1312 29.2292 76.9683 29.2576 76.8054 29.2841C76.6425 29.3068 76.4948 29.3277 76.3622 29.3466C76.0781 29.3883 75.83 29.4545 75.6179 29.5455C75.4058 29.6364 75.241 29.7595 75.1236 29.9148C75.0062 30.0663 74.9474 30.2557 74.9474 30.483C74.9474 30.8125 75.0668 31.0644 75.3054 31.2386C75.5478 31.4091 75.8546 31.4943 76.2259 31.4943ZM86.2685 33.1705C85.3745 33.1705 84.6056 32.9811 83.9616 32.6023C83.3215 32.2197 82.8291 31.6894 82.4844 31.0114C82.1435 30.3333 81.973 29.553 81.973 28.6705C81.973 27.7765 82.1454 26.9924 82.4901 26.3182C82.8385 25.6402 83.3329 25.1117 83.973 24.733C84.6132 24.3504 85.3745 24.1591 86.2571 24.1591C87.0185 24.1591 87.6851 24.2973 88.2571 24.5739C88.8291 24.8504 89.2817 25.2386 89.6151 25.7386C89.9484 26.2386 90.1321 26.8258 90.1662 27.5H87.8821C87.8177 27.0644 87.6473 26.714 87.3707 26.4489C87.098 26.1799 86.7401 26.0455 86.2969 26.0455C85.9219 26.0455 85.5942 26.1477 85.3139 26.3523C85.0374 26.553 84.8215 26.8466 84.6662 27.233C84.5109 27.6193 84.4332 28.0871 84.4332 28.6364C84.4332 29.1932 84.509 29.6667 84.6605 30.0568C84.8158 30.447 85.0336 30.7443 85.3139 30.9489C85.5942 31.1534 85.9219 31.2557 86.2969 31.2557C86.5734 31.2557 86.8215 31.1989 87.0412 31.0852C87.2647 30.9716 87.4484 30.8068 87.5923 30.5909C87.7401 30.3712 87.8366 30.108 87.8821 29.8011H90.1662C90.1283 30.4678 89.9465 31.0549 89.6207 31.5625C89.2988 32.0663 88.8537 32.4602 88.2855 32.7443C87.7173 33.0284 87.045 33.1705 86.2685 33.1705ZM91.7159 33V24.2727H94.1364V33H91.7159ZM92.9318 23.1477C92.572 23.1477 92.2633 23.0284 92.0057 22.7898C91.7519 22.5473 91.625 22.2576 91.625 21.9205C91.625 21.5871 91.7519 21.3011 92.0057 21.0625C92.2633 20.8201 92.572 20.6989 92.9318 20.6989C93.2917 20.6989 93.5985 20.8201 93.8523 21.0625C94.1098 21.3011 94.2386 21.5871 94.2386 21.9205C94.2386 22.2576 94.1098 22.5473 93.8523 22.7898C93.5985 23.0284 93.2917 23.1477 92.9318 23.1477ZM100.018 33.1705C99.1359 33.1705 98.3726 32.983 97.7287 32.608C97.0885 32.2292 96.5942 31.7027 96.2457 31.0284C95.8973 30.3504 95.723 29.5644 95.723 28.6705C95.723 27.7689 95.8973 26.9811 96.2457 26.3068C96.5942 25.6288 97.0885 25.1023 97.7287 24.7273C98.3726 24.3485 99.1359 24.1591 100.018 24.1591C100.901 24.1591 101.662 24.3485 102.303 24.7273C102.946 25.1023 103.443 25.6288 103.791 26.3068C104.14 26.9811 104.314 27.7689 104.314 28.6705C104.314 29.5644 104.14 30.3504 103.791 31.0284C103.443 31.7027 102.946 32.2292 102.303 32.608C101.662 32.983 100.901 33.1705 100.018 33.1705ZM100.03 31.2955C100.431 31.2955 100.767 31.1818 101.036 30.9545C101.304 30.7235 101.507 30.4091 101.643 30.0114C101.784 29.6136 101.854 29.161 101.854 28.6534C101.854 28.1458 101.784 27.6932 101.643 27.2955C101.507 26.8977 101.304 26.5833 101.036 26.3523C100.767 26.1212 100.431 26.0057 100.03 26.0057C99.6245 26.0057 99.2836 26.1212 99.0071 26.3523C98.7344 26.5833 98.5279 26.8977 98.3878 27.2955C98.2514 27.6932 98.1832 28.1458 98.1832 28.6534C98.1832 29.161 98.2514 29.6136 98.3878 30.0114C98.5279 30.4091 98.7344 30.7235 99.0071 30.9545C99.2836 31.1818 99.6245 31.2955 100.03 31.2955ZM108.308 27.9545V33H105.888V24.2727H108.195V25.8125H108.297C108.49 25.3049 108.814 24.9034 109.268 24.608C109.723 24.3087 110.274 24.1591 110.922 24.1591C111.528 24.1591 112.056 24.2917 112.507 24.5568C112.958 24.822 113.308 25.2008 113.558 25.6932C113.808 26.1818 113.933 26.7652 113.933 27.4432V33H111.513V27.875C111.517 27.3409 111.38 26.9242 111.104 26.625C110.827 26.322 110.446 26.1705 109.962 26.1705C109.636 26.1705 109.348 26.2405 109.098 26.3807C108.852 26.5208 108.659 26.7254 108.518 26.9943C108.382 27.2595 108.312 27.5795 108.308 27.9545ZM119.818 33.1705C118.92 33.1705 118.148 32.9886 117.5 32.625C116.856 32.2576 116.36 31.7386 116.011 31.0682C115.663 30.3939 115.489 29.5966 115.489 28.6761C115.489 27.7784 115.663 26.9905 116.011 26.3125C116.36 25.6345 116.85 25.1061 117.483 24.7273C118.119 24.3485 118.866 24.1591 119.722 24.1591C120.297 24.1591 120.833 24.2519 121.33 24.4375C121.83 24.6193 122.265 24.8939 122.636 25.2614C123.011 25.6288 123.303 26.0909 123.511 26.6477C123.72 27.2008 123.824 27.8485 123.824 28.5909V29.2557H116.455V27.7557H121.545C121.545 27.4072 121.47 27.0985 121.318 26.8295C121.167 26.5606 120.956 26.3504 120.688 26.1989C120.422 26.0436 120.114 25.9659 119.761 25.9659C119.394 25.9659 119.068 26.0511 118.784 26.2216C118.504 26.3883 118.284 26.6136 118.125 26.8977C117.966 27.178 117.884 27.4905 117.881 27.8352V29.2614C117.881 29.6932 117.96 30.0663 118.119 30.3807C118.282 30.6951 118.511 30.9375 118.807 31.108C119.102 31.2784 119.453 31.3636 119.858 31.3636C120.127 31.3636 120.373 31.3258 120.597 31.25C120.82 31.1742 121.011 31.0606 121.17 30.9091C121.33 30.7576 121.451 30.572 121.534 30.3523L123.773 30.5C123.659 31.0379 123.426 31.5076 123.074 31.9091C122.725 32.3068 122.275 32.6174 121.722 32.8409C121.172 33.0606 120.538 33.1705 119.818 33.1705ZM132.665 26.7614L130.449 26.8977C130.411 26.7083 130.33 26.5379 130.205 26.3864C130.08 26.2311 129.915 26.108 129.71 26.017C129.509 25.9223 129.269 25.875 128.989 25.875C128.614 25.875 128.297 25.9545 128.04 26.1136C127.782 26.2689 127.653 26.4773 127.653 26.7386C127.653 26.947 127.737 27.1231 127.903 27.267C128.07 27.411 128.356 27.5265 128.761 27.6136L130.341 27.9318C131.189 28.1061 131.822 28.3864 132.239 28.7727C132.655 29.1591 132.864 29.6667 132.864 30.2955C132.864 30.8674 132.695 31.3693 132.358 31.8011C132.025 32.233 131.566 32.5701 130.983 32.8125C130.403 33.0511 129.735 33.1705 128.977 33.1705C127.822 33.1705 126.902 32.9299 126.216 32.4489C125.534 31.964 125.134 31.3049 125.017 30.4716L127.398 30.3466C127.47 30.6989 127.644 30.9678 127.92 31.1534C128.197 31.3352 128.551 31.4261 128.983 31.4261C129.407 31.4261 129.748 31.3447 130.006 31.1818C130.267 31.0152 130.4 30.8011 130.403 30.5398C130.4 30.3201 130.307 30.1402 130.125 30C129.943 29.8561 129.663 29.7462 129.284 29.6705L127.773 29.3693C126.92 29.1989 126.286 28.9034 125.869 28.483C125.456 28.0625 125.25 27.5265 125.25 26.875C125.25 26.3144 125.402 25.8314 125.705 25.4261C126.011 25.0208 126.441 24.7083 126.994 24.4886C127.551 24.2689 128.203 24.1591 128.949 24.1591C130.051 24.1591 130.919 24.392 131.551 24.858C132.188 25.3239 132.559 25.9583 132.665 26.7614Z" fill="#333333"/>
<path d="M296 120H64C50.7452 120 40 130.745 40 144V276C40 289.255 50.7452 300 64 300H296C309.255 300 320 289.255 320 276V144C320 130.745 309.255 120 296 120Z" fill="#EEEEEE" stroke="#DDDDDD"/>
<path d="M79.9293 324.241V324.458C79.9293 325.2 79.8633 325.794 79.7312 326.241C79.5991 326.685 79.4073 327.043 79.1559 327.315C78.9087 327.584 78.6062 327.831 78.2482 328.057C77.9883 328.223 77.7518 328.4 77.5387 328.587C77.3299 328.771 77.1637 328.973 77.0401 329.195C76.9165 329.416 76.8548 329.668 76.8548 329.949C76.8548 330.243 76.9251 330.499 77.0657 330.716C77.2063 330.938 77.3938 331.108 77.6282 331.227C77.8668 331.351 78.1289 331.413 78.4144 331.413C78.6914 331.413 78.9535 331.351 79.2006 331.227C79.4478 331.108 79.6502 330.929 79.8079 330.69C79.9656 330.452 80.0508 330.158 80.0636 329.808H82.6715C82.6545 330.661 82.4499 331.366 82.0579 331.924C81.6701 332.482 81.1566 332.898 80.5174 333.17C79.8825 333.447 79.1772 333.586 78.4016 333.586C77.5579 333.586 76.8079 333.445 76.1516 333.164C75.4996 332.887 74.9883 332.484 74.6175 331.956C74.2468 331.428 74.0614 330.788 74.0614 330.038C74.0614 329.54 74.1424 329.099 74.3043 328.715C74.4705 328.327 74.7006 327.987 74.9947 327.692C75.293 327.394 75.6403 327.128 76.0366 326.893C76.3732 326.689 76.6481 326.48 76.8612 326.267C77.0785 326.05 77.2383 325.798 77.3406 325.513C77.4471 325.223 77.5025 324.871 77.5067 324.458V324.241H79.9293ZM78.6637 320.15C79.0898 320.15 79.4542 320.299 79.7567 320.597C80.0593 320.896 80.2063 321.258 80.1978 321.684C80.2063 322.102 80.0593 322.46 79.7567 322.758C79.4542 323.056 79.0898 323.205 78.6637 323.205C78.2589 323.205 77.9031 323.056 77.5962 322.758C77.2937 322.46 77.1381 322.102 77.1296 321.684C77.1339 321.398 77.2063 321.141 77.3469 320.911C77.4918 320.68 77.6793 320.497 77.9094 320.361C78.1438 320.22 78.3952 320.15 78.6637 320.15ZM86.7496 330H83.7837L88.3029 316.909H91.8697L96.3825 330H93.4165L90.1374 319.901H90.0352L86.7496 330ZM86.5643 324.854H93.57V327.015H86.5643V324.854ZM101.886 330.192C100.88 330.192 100.015 329.979 99.2908 329.553C98.5707 329.122 98.0167 328.526 97.6289 327.763C97.2454 327 97.0536 326.122 97.0536 325.129C97.0536 324.124 97.2475 323.241 97.6353 322.483C98.0273 321.72 98.5835 321.126 99.3036 320.7C100.024 320.269 100.88 320.054 101.873 320.054C102.73 320.054 103.48 320.21 104.123 320.521C104.767 320.832 105.276 321.268 105.651 321.831C106.026 322.393 106.233 323.054 106.271 323.812H103.701C103.629 323.322 103.437 322.928 103.126 322.63C102.819 322.327 102.417 322.176 101.918 322.176C101.496 322.176 101.127 322.291 100.812 322.521C100.501 322.747 100.258 323.077 100.083 323.512C99.9087 323.947 99.8214 324.473 99.8214 325.091C99.8214 325.717 99.9066 326.25 100.077 326.689C100.252 327.128 100.497 327.462 100.812 327.692C101.127 327.923 101.496 328.038 101.918 328.038C102.229 328.038 102.508 327.974 102.755 327.846C103.007 327.718 103.213 327.533 103.375 327.29C103.542 327.043 103.65 326.746 103.701 326.401H106.271C106.228 327.151 106.024 327.812 105.657 328.383C105.295 328.95 104.794 329.393 104.155 329.712C103.516 330.032 102.76 330.192 101.886 330.192ZM113.237 320.182V322.227H107.324V320.182H113.237ZM108.666 317.83H111.389V326.983C111.389 327.234 111.428 327.43 111.504 327.571C111.581 327.707 111.688 327.803 111.824 327.859C111.965 327.914 112.127 327.942 112.31 327.942C112.438 327.942 112.566 327.931 112.693 327.91C112.821 327.884 112.919 327.865 112.987 327.852L113.416 329.879C113.279 329.921 113.088 329.97 112.84 330.026C112.593 330.085 112.293 330.121 111.939 330.134C111.283 330.16 110.708 330.072 110.213 329.872C109.723 329.672 109.342 329.361 109.069 328.939C108.796 328.517 108.662 327.984 108.666 327.341V317.83ZM115.01 330V320.182H117.733V330H115.01ZM116.378 318.916C115.974 318.916 115.626 318.782 115.336 318.513C115.051 318.241 114.908 317.915 114.908 317.536C114.908 317.161 115.051 316.839 115.336 316.57C115.626 316.298 115.974 316.161 116.378 316.161C116.783 316.161 117.128 316.298 117.414 316.57C117.704 316.839 117.849 317.161 117.849 317.536C117.849 317.915 117.704 318.241 117.414 318.513C117.128 318.782 116.783 318.916 116.378 318.916ZM129.068 320.182L125.636 330H122.567L119.135 320.182H122.011L124.05 327.207H124.153L126.185 320.182H129.068ZM132.998 330.185C132.371 330.185 131.813 330.077 131.323 329.859C130.833 329.638 130.445 329.312 130.16 328.881C129.878 328.447 129.738 327.906 129.738 327.258C129.738 326.712 129.838 326.254 130.038 325.884C130.238 325.513 130.511 325.214 130.856 324.989C131.202 324.763 131.594 324.592 132.032 324.477C132.476 324.362 132.94 324.281 133.426 324.234C133.997 324.175 134.457 324.119 134.807 324.068C135.156 324.013 135.41 323.932 135.567 323.825C135.725 323.719 135.804 323.561 135.804 323.352V323.314C135.804 322.909 135.676 322.596 135.42 322.374C135.169 322.153 134.811 322.042 134.346 322.042C133.856 322.042 133.466 322.151 133.177 322.368C132.887 322.581 132.695 322.849 132.601 323.173L130.083 322.969C130.211 322.372 130.462 321.857 130.837 321.422C131.212 320.983 131.696 320.646 132.288 320.412C132.885 320.173 133.575 320.054 134.359 320.054C134.905 320.054 135.427 320.118 135.925 320.246C136.428 320.374 136.873 320.572 137.261 320.84C137.653 321.109 137.962 321.454 138.188 321.876C138.414 322.293 138.527 322.794 138.527 323.378V330H135.944V328.638H135.868C135.71 328.945 135.499 329.216 135.235 329.45C134.971 329.68 134.653 329.862 134.282 329.994C133.912 330.121 133.483 330.185 132.998 330.185ZM133.778 328.306C134.178 328.306 134.532 328.227 134.839 328.07C135.145 327.908 135.386 327.69 135.561 327.418C135.736 327.145 135.823 326.836 135.823 326.491V325.449C135.738 325.504 135.621 325.555 135.471 325.602C135.327 325.645 135.162 325.685 134.979 325.724C134.796 325.758 134.613 325.79 134.43 325.82C134.246 325.845 134.08 325.869 133.931 325.89C133.611 325.937 133.332 326.011 133.094 326.114C132.855 326.216 132.67 326.354 132.537 326.529C132.405 326.7 132.339 326.913 132.339 327.168C132.339 327.539 132.474 327.822 132.742 328.018C133.015 328.21 133.36 328.306 133.778 328.306ZM140.639 330V320.182H143.279V321.895H143.382C143.561 321.286 143.861 320.825 144.283 320.514C144.705 320.199 145.191 320.041 145.74 320.041C145.877 320.041 146.024 320.05 146.181 320.067C146.339 320.084 146.477 320.107 146.597 320.137V322.553C146.469 322.515 146.292 322.481 146.066 322.451C145.84 322.421 145.634 322.406 145.446 322.406C145.046 322.406 144.688 322.494 144.372 322.668C144.061 322.839 143.814 323.077 143.631 323.384C143.452 323.691 143.362 324.045 143.362 324.445V330H140.639ZM154.894 324.324V330H152.171V320.182H154.766V321.914H154.881C155.098 321.343 155.463 320.891 155.974 320.559C156.485 320.222 157.105 320.054 157.834 320.054C158.516 320.054 159.11 320.203 159.617 320.501C160.124 320.8 160.519 321.226 160.8 321.78C161.081 322.33 161.222 322.986 161.222 323.749V330H158.499V324.234C158.503 323.634 158.35 323.165 158.039 322.828C157.727 322.487 157.299 322.317 156.754 322.317C156.387 322.317 156.063 322.396 155.782 322.553C155.505 322.711 155.288 322.941 155.13 323.244C154.977 323.542 154.898 323.902 154.894 324.324ZM167.804 330.192C166.811 330.192 165.952 329.981 165.228 329.559C164.508 329.133 163.952 328.54 163.56 327.782C163.168 327.019 162.972 326.135 162.972 325.129C162.972 324.115 163.168 323.229 163.56 322.47C163.952 321.707 164.508 321.115 165.228 320.693C165.952 320.267 166.811 320.054 167.804 320.054C168.797 320.054 169.653 320.267 170.374 320.693C171.098 321.115 171.656 321.707 172.048 322.47C172.44 323.229 172.636 324.115 172.636 325.129C172.636 326.135 172.44 327.019 172.048 327.782C171.656 328.54 171.098 329.133 170.374 329.559C169.653 329.981 168.797 330.192 167.804 330.192ZM167.817 328.082C168.268 328.082 168.646 327.955 168.948 327.699C169.251 327.439 169.479 327.085 169.632 326.638C169.79 326.19 169.869 325.681 169.869 325.11C169.869 324.539 169.79 324.03 169.632 323.582C169.479 323.135 169.251 322.781 168.948 322.521C168.646 322.261 168.268 322.131 167.817 322.131C167.361 322.131 166.977 322.261 166.666 322.521C166.359 322.781 166.127 323.135 165.969 323.582C165.816 324.03 165.739 324.539 165.739 325.11C165.739 325.681 165.816 326.19 165.969 326.638C166.127 327.085 166.359 327.439 166.666 327.699C166.977 327.955 167.361 328.082 167.817 328.082ZM179.629 320.182V322.227H173.717V320.182H179.629ZM175.059 317.83H177.782V326.983C177.782 327.234 177.82 327.43 177.897 327.571C177.974 327.707 178.08 327.803 178.217 327.859C178.357 327.914 178.519 327.942 178.702 327.942C178.83 327.942 178.958 327.931 179.086 327.91C179.214 327.884 179.312 327.865 179.38 327.852L179.808 329.879C179.672 329.921 179.48 329.97 179.233 330.026C178.986 330.085 178.685 330.121 178.332 330.134C177.675 330.16 177.1 330.072 176.606 329.872C176.116 329.672 175.734 329.361 175.462 328.939C175.189 328.517 175.055 327.984 175.059 327.341V317.83ZM181.403 330V320.182H184.126V330H181.403ZM182.771 318.916C182.366 318.916 182.019 318.782 181.729 318.513C181.444 318.241 181.301 317.915 181.301 317.536C181.301 317.161 181.444 316.839 181.729 316.57C182.019 316.298 182.366 316.161 182.771 316.161C183.176 316.161 183.521 316.298 183.806 316.57C184.096 316.839 184.241 317.161 184.241 317.536C184.241 317.915 184.096 318.241 183.806 318.513C183.521 318.782 183.176 318.916 182.771 318.916ZM191.587 320.182V322.227H185.528V320.182H191.587ZM186.915 330V319.472C186.915 318.761 187.053 318.17 187.33 317.702C187.611 317.233 187.995 316.881 188.481 316.647C188.966 316.413 189.518 316.295 190.136 316.295C190.554 316.295 190.935 316.327 191.28 316.391C191.63 316.455 191.89 316.513 192.06 316.564L191.574 318.609C191.468 318.575 191.336 318.543 191.178 318.513C191.025 318.484 190.867 318.469 190.705 318.469C190.305 318.469 190.025 318.562 189.868 318.75C189.71 318.933 189.631 319.191 189.631 319.523V330H186.915ZM193.251 330V320.182H195.974V330H193.251ZM194.619 318.916C194.214 318.916 193.866 318.782 193.577 318.513C193.291 318.241 193.148 317.915 193.148 317.536C193.148 317.161 193.291 316.839 193.577 316.57C193.866 316.298 194.214 316.161 194.619 316.161C195.023 316.161 195.369 316.298 195.654 316.57C195.944 316.839 196.089 317.161 196.089 317.536C196.089 317.915 195.944 318.241 195.654 318.513C195.369 318.782 195.023 318.916 194.619 318.916ZM202.591 330.192C201.585 330.192 200.72 329.979 199.996 329.553C199.276 329.122 198.722 328.526 198.334 327.763C197.95 327 197.759 326.122 197.759 325.129C197.759 324.124 197.953 323.241 198.34 322.483C198.732 321.72 199.289 321.126 200.009 320.7C200.729 320.269 201.585 320.054 202.578 320.054C203.435 320.054 204.185 320.21 204.828 320.521C205.472 320.832 205.981 321.268 206.356 321.831C206.731 322.393 206.938 323.054 206.976 323.812H204.406C204.334 323.322 204.142 322.928 203.831 322.63C203.524 322.327 203.122 322.176 202.623 322.176C202.201 322.176 201.833 322.291 201.517 322.521C201.206 322.747 200.963 323.077 200.789 323.512C200.614 323.947 200.526 324.473 200.526 325.091C200.526 325.717 200.612 326.25 200.782 326.689C200.957 327.128 201.202 327.462 201.517 327.692C201.833 327.923 202.201 328.038 202.623 328.038C202.934 328.038 203.213 327.974 203.46 327.846C203.712 327.718 203.919 327.533 204.08 327.29C204.247 327.043 204.355 326.746 204.406 326.401H206.976C206.933 327.151 206.729 327.812 206.362 328.383C206 328.95 205.499 329.393 204.86 329.712C204.221 330.032 203.465 330.192 202.591 330.192ZM211.519 330.185C210.893 330.185 210.335 330.077 209.844 329.859C209.354 329.638 208.967 329.312 208.681 328.881C208.4 328.447 208.259 327.906 208.259 327.258C208.259 326.712 208.359 326.254 208.56 325.884C208.76 325.513 209.033 325.214 209.378 324.989C209.723 324.763 210.115 324.592 210.554 324.477C210.997 324.362 211.462 324.281 211.947 324.234C212.518 324.175 212.979 324.119 213.328 324.068C213.678 324.013 213.931 323.932 214.089 323.825C214.246 323.719 214.325 323.561 214.325 323.352V323.314C214.325 322.909 214.197 322.596 213.942 322.374C213.69 322.153 213.332 322.042 212.868 322.042C212.378 322.042 211.988 322.151 211.698 322.368C211.408 322.581 211.217 322.849 211.123 323.173L208.604 322.969C208.732 322.372 208.984 321.857 209.359 321.422C209.734 320.983 210.217 320.646 210.81 320.412C211.406 320.173 212.097 320.054 212.881 320.054C213.426 320.054 213.948 320.118 214.447 320.246C214.95 320.374 215.395 320.572 215.783 320.84C216.175 321.109 216.484 321.454 216.71 321.876C216.935 322.293 217.048 322.794 217.048 323.378V330H214.466V328.638H214.389C214.232 328.945 214.021 329.216 213.756 329.45C213.492 329.68 213.175 329.862 212.804 329.994C212.433 330.121 212.005 330.185 211.519 330.185ZM212.299 328.306C212.7 328.306 213.053 328.227 213.36 328.07C213.667 327.908 213.908 327.69 214.082 327.418C214.257 327.145 214.344 326.836 214.344 326.491V325.449C214.259 325.504 214.142 325.555 213.993 325.602C213.848 325.645 213.684 325.685 213.501 325.724C213.317 325.758 213.134 325.79 212.951 325.82C212.768 325.845 212.602 325.869 212.452 325.89C212.133 325.937 211.854 326.011 211.615 326.114C211.376 326.216 211.191 326.354 211.059 326.529C210.927 326.7 210.861 326.913 210.861 327.168C210.861 327.539 210.995 327.822 211.263 328.018C211.536 328.21 211.881 328.306 212.299 328.306ZM223.597 330.192C222.591 330.192 221.726 329.979 221.002 329.553C220.282 329.122 219.728 328.526 219.34 327.763C218.956 327 218.765 326.122 218.765 325.129C218.765 324.124 218.958 323.241 219.346 322.483C219.738 321.72 220.294 321.126 221.015 320.7C221.735 320.269 222.591 320.054 223.584 320.054C224.441 320.054 225.191 320.21 225.834 320.521C226.478 320.832 226.987 321.268 227.362 321.831C227.737 322.393 227.944 323.054 227.982 323.812H225.412C225.34 323.322 225.148 322.928 224.837 322.63C224.53 322.327 224.127 322.176 223.629 322.176C223.207 322.176 222.838 322.291 222.523 322.521C222.212 322.747 221.969 323.077 221.794 323.512C221.62 323.947 221.532 324.473 221.532 325.091C221.532 325.717 221.618 326.25 221.788 326.689C221.963 327.128 222.208 327.462 222.523 327.692C222.838 327.923 223.207 328.038 223.629 328.038C223.94 328.038 224.219 327.974 224.466 327.846C224.718 327.718 224.924 327.533 225.086 327.29C225.252 327.043 225.361 326.746 225.412 326.401H227.982C227.939 327.151 227.735 327.812 227.368 328.383C227.006 328.95 226.505 329.393 225.866 329.712C225.227 330.032 224.471 330.192 223.597 330.192ZM229.725 330V320.182H232.448V330H229.725ZM231.093 318.916C230.688 318.916 230.341 318.782 230.051 318.513C229.766 318.241 229.623 317.915 229.623 317.536C229.623 317.161 229.766 316.839 230.051 316.57C230.341 316.298 230.688 316.161 231.093 316.161C231.498 316.161 231.843 316.298 232.129 316.57C232.419 316.839 232.563 317.161 232.563 317.536C232.563 317.915 232.419 318.241 232.129 318.513C231.843 318.782 231.498 318.916 231.093 318.916ZM239.066 330.192C238.073 330.192 237.214 329.981 236.49 329.559C235.77 329.133 235.213 328.54 234.821 327.782C234.429 327.019 234.233 326.135 234.233 325.129C234.233 324.115 234.429 323.229 234.821 322.47C235.213 321.707 235.77 321.115 236.49 320.693C237.214 320.267 238.073 320.054 239.066 320.054C240.059 320.054 240.915 320.267 241.635 320.693C242.36 321.115 242.918 321.707 243.31 322.47C243.702 323.229 243.898 324.115 243.898 325.129C243.898 326.135 243.702 327.019 243.31 327.782C242.918 328.54 242.36 329.133 241.635 329.559C240.915 329.981 240.059 330.192 239.066 330.192ZM239.078 328.082C239.53 328.082 239.907 327.955 240.21 327.699C240.512 327.439 240.74 327.085 240.894 326.638C241.051 326.19 241.13 325.681 241.13 325.11C241.13 324.539 241.051 324.03 240.894 323.582C240.74 323.135 240.512 322.781 240.21 322.521C239.907 322.261 239.53 322.131 239.078 322.131C238.623 322.131 238.239 322.261 237.928 322.521C237.621 322.781 237.389 323.135 237.231 323.582C237.078 324.03 237.001 324.539 237.001 325.11C237.001 325.681 237.078 326.19 237.231 326.638C237.389 327.085 237.621 327.439 237.928 327.699C238.239 327.955 238.623 328.082 239.078 328.082ZM248.392 324.324V330H245.669V320.182H248.264V321.914H248.379C248.596 321.343 248.961 320.891 249.472 320.559C249.983 320.222 250.603 320.054 251.332 320.054C252.014 320.054 252.608 320.203 253.115 320.501C253.623 320.8 254.017 321.226 254.298 321.78C254.579 322.33 254.72 322.986 254.72 323.749V330H251.997V324.234C252.001 323.634 251.848 323.165 251.537 322.828C251.225 322.487 250.797 322.317 250.252 322.317C249.885 322.317 249.561 322.396 249.28 322.553C249.003 322.711 248.786 322.941 248.628 323.244C248.475 323.542 248.396 323.902 248.392 324.324ZM261.34 330.192C260.33 330.192 259.461 329.987 258.732 329.578C258.008 329.165 257.45 328.581 257.058 327.827C256.666 327.068 256.47 326.171 256.47 325.136C256.47 324.126 256.666 323.239 257.058 322.477C257.45 321.714 258.002 321.119 258.713 320.693C259.429 320.267 260.269 320.054 261.232 320.054C261.879 320.054 262.482 320.158 263.041 320.367C263.603 320.572 264.093 320.881 264.511 321.294C264.933 321.707 265.261 322.227 265.495 322.854C265.73 323.476 265.847 324.205 265.847 325.04V325.788H257.556V324.1H263.284C263.284 323.708 263.198 323.361 263.028 323.058C262.857 322.756 262.621 322.519 262.318 322.349C262.02 322.174 261.673 322.087 261.276 322.087C260.863 322.087 260.497 322.183 260.177 322.374C259.862 322.562 259.615 322.815 259.436 323.135C259.257 323.45 259.165 323.802 259.161 324.19V325.794C259.161 326.28 259.25 326.7 259.429 327.053C259.612 327.407 259.87 327.68 260.203 327.871C260.535 328.063 260.929 328.159 261.385 328.159C261.688 328.159 261.965 328.116 262.216 328.031C262.468 327.946 262.683 327.818 262.862 327.648C263.041 327.477 263.177 327.268 263.271 327.021L265.789 327.188C265.661 327.793 265.399 328.321 265.003 328.773C264.611 329.22 264.104 329.57 263.482 329.821C262.864 330.068 262.15 330.192 261.34 330.192ZM275.793 322.982L273.3 323.135C273.257 322.922 273.166 322.73 273.025 322.56C272.884 322.385 272.699 322.246 272.469 322.144C272.243 322.038 271.972 321.984 271.657 321.984C271.235 321.984 270.879 322.074 270.59 322.253C270.3 322.428 270.155 322.662 270.155 322.956C270.155 323.19 270.249 323.388 270.436 323.55C270.624 323.712 270.945 323.842 271.401 323.94L273.178 324.298C274.133 324.494 274.845 324.81 275.313 325.244C275.782 325.679 276.017 326.25 276.017 326.957C276.017 327.601 275.827 328.165 275.448 328.651C275.073 329.137 274.557 329.516 273.901 329.789C273.249 330.058 272.497 330.192 271.644 330.192C270.345 330.192 269.309 329.921 268.538 329.38C267.771 328.835 267.321 328.093 267.189 327.156L269.867 327.015C269.948 327.411 270.144 327.714 270.455 327.923C270.767 328.127 271.165 328.229 271.651 328.229C272.128 328.229 272.512 328.138 272.801 327.955C273.095 327.767 273.244 327.526 273.249 327.232C273.244 326.985 273.14 326.783 272.936 326.625C272.731 326.463 272.416 326.339 271.99 326.254L270.289 325.915C269.33 325.724 268.617 325.391 268.148 324.918C267.683 324.445 267.451 323.842 267.451 323.109C267.451 322.479 267.622 321.935 267.963 321.479C268.308 321.023 268.791 320.672 269.414 320.425C270.04 320.178 270.773 320.054 271.612 320.054C272.852 320.054 273.828 320.316 274.54 320.84C275.256 321.364 275.673 322.078 275.793 322.982ZM280.071 326.075V325.858C280.075 325.112 280.141 324.518 280.269 324.075C280.401 323.631 280.593 323.273 280.844 323.001C281.096 322.728 281.398 322.481 281.752 322.259C282.016 322.089 282.252 321.912 282.461 321.729C282.67 321.545 282.836 321.343 282.96 321.121C283.083 320.896 283.145 320.644 283.145 320.367C283.145 320.073 283.075 319.815 282.934 319.594C282.794 319.372 282.604 319.202 282.365 319.082C282.131 318.963 281.871 318.903 281.586 318.903C281.309 318.903 281.047 318.965 280.799 319.089C280.552 319.208 280.35 319.387 280.192 319.626C280.034 319.86 279.949 320.152 279.936 320.501H277.328C277.35 319.649 277.554 318.946 277.942 318.392C278.33 317.834 278.843 317.418 279.483 317.146C280.122 316.869 280.827 316.73 281.598 316.73C282.446 316.73 283.196 316.871 283.848 317.152C284.5 317.429 285.012 317.832 285.382 318.36C285.753 318.888 285.939 319.526 285.939 320.271C285.939 320.77 285.855 321.213 285.689 321.601C285.527 321.984 285.299 322.325 285.005 322.624C284.711 322.918 284.364 323.184 283.963 323.423C283.627 323.623 283.35 323.832 283.132 324.049C282.919 324.266 282.76 324.518 282.653 324.803C282.551 325.089 282.498 325.44 282.493 325.858V326.075H280.071ZM281.336 330.166C280.91 330.166 280.546 330.017 280.243 329.719C279.945 329.416 279.798 329.054 279.802 328.632C279.798 328.214 279.945 327.857 280.243 327.558C280.546 327.26 280.91 327.111 281.336 327.111C281.741 327.111 282.097 327.26 282.404 327.558C282.711 327.857 282.866 328.214 282.87 328.632C282.866 328.913 282.792 329.171 282.647 329.406C282.506 329.636 282.321 329.821 282.091 329.962C281.86 330.098 281.609 330.166 281.336 330.166Z" fill="#212121"/>
<path d="M86.9611 360V351.273H89.91C90.5918 351.273 91.1515 351.389 91.589 351.622C92.0265 351.852 92.3503 352.169 92.5605 352.572C92.7708 352.976 92.8759 353.435 92.8759 353.949C92.8759 354.463 92.7708 354.919 92.5605 355.317C92.3503 355.714 92.0279 356.027 91.5932 356.254C91.1586 356.479 90.6032 356.591 89.927 356.591H87.5407V355.636H89.8929C90.3588 355.636 90.7338 355.568 91.0179 355.432C91.3049 355.295 91.5123 355.102 91.6401 354.852C91.7708 354.599 91.8361 354.298 91.8361 353.949C91.8361 353.599 91.7708 353.294 91.6401 353.033C91.5094 352.771 91.3006 352.57 91.0137 352.428C90.7267 352.283 90.3475 352.21 89.8759 352.21H88.0179V360H86.9611ZM91.0691 356.08L93.2168 360H91.9895L89.8759 356.08H91.0691ZM97.1745 360.136C96.5439 360.136 95.9998 359.997 95.5424 359.719C95.0879 359.438 94.737 359.045 94.4899 358.543C94.2456 358.037 94.1234 357.449 94.1234 356.778C94.1234 356.108 94.2456 355.517 94.4899 355.006C94.737 354.491 95.0808 354.091 95.5211 353.804C95.9643 353.514 96.4814 353.369 97.0723 353.369C97.4132 353.369 97.7498 353.426 98.0822 353.54C98.4146 353.653 98.7172 353.838 98.9899 354.094C99.2626 354.347 99.4799 354.682 99.6419 355.099C99.8038 355.517 99.8848 356.031 99.8848 356.642V357.068H94.8393V356.199H98.862C98.862 355.83 98.7882 355.5 98.6404 355.21C98.4956 354.92 98.2882 354.692 98.0183 354.524C97.7512 354.357 97.4359 354.273 97.0723 354.273C96.6717 354.273 96.3251 354.372 96.0325 354.571C95.7427 354.767 95.5197 355.023 95.3635 355.338C95.2072 355.653 95.1291 355.991 95.1291 356.352V356.932C95.1291 357.426 95.2143 357.845 95.3848 358.189C95.5581 358.53 95.7981 358.79 96.1049 358.969C96.4118 359.145 96.7683 359.233 97.1745 359.233C97.4387 359.233 97.6774 359.196 97.8904 359.122C98.1064 359.045 98.2924 358.932 98.4487 358.781C98.6049 358.628 98.7257 358.437 98.8109 358.21L99.7825 358.483C99.6802 358.812 99.5083 359.102 99.2669 359.352C99.0254 359.599 98.7271 359.793 98.372 359.932C98.0169 360.068 97.6177 360.136 97.1745 360.136ZM104.074 360.136C103.46 360.136 102.932 359.991 102.488 359.702C102.045 359.412 101.704 359.013 101.466 358.504C101.227 357.996 101.108 357.415 101.108 356.761C101.108 356.097 101.23 355.51 101.474 355.001C101.721 354.49 102.065 354.091 102.506 353.804C102.949 353.514 103.466 353.369 104.057 353.369C104.517 353.369 104.932 353.455 105.301 353.625C105.67 353.795 105.973 354.034 106.209 354.341C106.444 354.648 106.591 355.006 106.648 355.415H105.642C105.565 355.116 105.395 354.852 105.131 354.622C104.869 354.389 104.517 354.273 104.074 354.273C103.682 354.273 103.338 354.375 103.042 354.58C102.75 354.781 102.521 355.067 102.356 355.436C102.194 355.803 102.113 356.233 102.113 356.727C102.113 357.233 102.193 357.673 102.352 358.048C102.514 358.423 102.741 358.714 103.034 358.922C103.329 359.129 103.676 359.233 104.074 359.233C104.335 359.233 104.572 359.188 104.785 359.097C104.998 359.006 105.179 358.875 105.327 358.705C105.474 358.534 105.579 358.33 105.642 358.091H106.648C106.591 358.477 106.45 358.825 106.226 359.135C106.004 359.442 105.71 359.686 105.344 359.868C104.98 360.047 104.557 360.136 104.074 360.136ZM110.777 360.136C110.186 360.136 109.667 359.996 109.221 359.714C108.778 359.433 108.432 359.04 108.182 358.534C107.934 358.028 107.811 357.437 107.811 356.761C107.811 356.08 107.934 355.484 108.182 354.976C108.432 354.467 108.778 354.072 109.221 353.791C109.667 353.51 110.186 353.369 110.777 353.369C111.368 353.369 111.885 353.51 112.328 353.791C112.774 354.072 113.121 354.467 113.368 354.976C113.618 355.484 113.743 356.08 113.743 356.761C113.743 357.437 113.618 358.028 113.368 358.534C113.121 359.04 112.774 359.433 112.328 359.714C111.885 359.996 111.368 360.136 110.777 360.136ZM110.777 359.233C111.226 359.233 111.595 359.118 111.885 358.888C112.175 358.658 112.389 358.355 112.528 357.98C112.667 357.605 112.737 357.199 112.737 356.761C112.737 356.324 112.667 355.916 112.528 355.538C112.389 355.161 112.175 354.855 111.885 354.622C111.595 354.389 111.226 354.273 110.777 354.273C110.328 354.273 109.959 354.389 109.669 354.622C109.379 354.855 109.165 355.161 109.025 355.538C108.886 355.916 108.817 356.324 108.817 356.761C108.817 357.199 108.886 357.605 109.025 357.98C109.165 358.355 109.379 358.658 109.669 358.888C109.959 359.118 110.328 359.233 110.777 359.233ZM115.278 360V353.455H116.249V354.443H116.318C116.437 354.119 116.653 353.857 116.965 353.655C117.278 353.453 117.63 353.352 118.022 353.352C118.096 353.352 118.188 353.354 118.299 353.357C118.41 353.359 118.494 353.364 118.551 353.369V354.392C118.517 354.384 118.438 354.371 118.316 354.354C118.197 354.334 118.07 354.324 117.937 354.324C117.619 354.324 117.335 354.391 117.085 354.524C116.838 354.655 116.642 354.837 116.497 355.07C116.355 355.3 116.284 355.562 116.284 355.858V360H115.278ZM122.015 360.136C121.47 360.136 120.988 359.999 120.57 359.723C120.153 359.445 119.826 359.053 119.59 358.547C119.355 358.038 119.237 357.438 119.237 356.744C119.237 356.057 119.355 355.46 119.59 354.955C119.826 354.449 120.154 354.058 120.575 353.783C120.995 353.507 121.481 353.369 122.032 353.369C122.458 353.369 122.795 353.44 123.042 353.582C123.292 353.722 123.482 353.881 123.613 354.06C123.747 354.236 123.85 354.381 123.924 354.494H124.009V351.273H125.015V360H124.044V358.994H123.924C123.85 359.114 123.745 359.264 123.609 359.446C123.472 359.625 123.278 359.786 123.025 359.928C122.772 360.067 122.436 360.136 122.015 360.136ZM122.151 359.233C122.555 359.233 122.896 359.128 123.174 358.918C123.453 358.705 123.664 358.411 123.809 358.036C123.954 357.658 124.026 357.222 124.026 356.727C124.026 356.239 123.955 355.811 123.813 355.445C123.671 355.075 123.461 354.788 123.183 354.584C122.904 354.376 122.561 354.273 122.151 354.273C121.725 354.273 121.37 354.382 121.086 354.601C120.805 354.817 120.593 355.111 120.451 355.483C120.312 355.852 120.242 356.267 120.242 356.727C120.242 357.193 120.313 357.616 120.455 357.997C120.6 358.375 120.813 358.676 121.095 358.901C121.379 359.122 121.731 359.233 122.151 359.233ZM128.923 360.153C128.508 360.153 128.132 360.075 127.794 359.919C127.455 359.76 127.187 359.531 126.988 359.233C126.789 358.932 126.69 358.568 126.69 358.142C126.69 357.767 126.764 357.463 126.911 357.23C127.059 356.994 127.257 356.81 127.504 356.676C127.751 356.543 128.024 356.443 128.322 356.378C128.623 356.31 128.926 356.256 129.23 356.216C129.627 356.165 129.95 356.126 130.197 356.101C130.447 356.072 130.629 356.026 130.742 355.96C130.859 355.895 130.917 355.781 130.917 355.619V355.585C130.917 355.165 130.802 354.838 130.572 354.605C130.345 354.372 129.999 354.256 129.536 354.256C129.056 354.256 128.68 354.361 128.407 354.571C128.134 354.781 127.943 355.006 127.832 355.244L126.877 354.903C127.048 354.506 127.275 354.196 127.559 353.974C127.846 353.75 128.159 353.594 128.497 353.506C128.838 353.415 129.173 353.369 129.502 353.369C129.713 353.369 129.954 353.395 130.227 353.446C130.502 353.494 130.768 353.595 131.024 353.749C131.282 353.902 131.497 354.134 131.667 354.443C131.838 354.753 131.923 355.168 131.923 355.688V360H130.917V359.114H130.866C130.798 359.256 130.684 359.408 130.525 359.57C130.366 359.732 130.154 359.869 129.89 359.983C129.626 360.097 129.303 360.153 128.923 360.153ZM129.076 359.25C129.474 359.25 129.809 359.172 130.082 359.016C130.357 358.859 130.565 358.658 130.704 358.411C130.846 358.163 130.917 357.903 130.917 357.631V356.71C130.874 356.761 130.781 356.808 130.636 356.851C130.494 356.891 130.329 356.926 130.142 356.957C129.957 356.986 129.776 357.011 129.6 357.034C129.427 357.054 129.286 357.071 129.178 357.085C128.917 357.119 128.673 357.175 128.445 357.251C128.221 357.325 128.039 357.437 127.9 357.588C127.764 357.736 127.695 357.937 127.695 358.193C127.695 358.543 127.825 358.807 128.083 358.986C128.345 359.162 128.676 359.25 129.076 359.25ZM136.605 353.455V354.307H133.213V353.455H136.605ZM134.202 351.886H135.207V358.125C135.207 358.409 135.248 358.622 135.331 358.764C135.416 358.903 135.524 358.997 135.655 359.045C135.788 359.091 135.929 359.114 136.077 359.114C136.187 359.114 136.278 359.108 136.349 359.097C136.42 359.082 136.477 359.071 136.52 359.062L136.724 359.966C136.656 359.991 136.561 360.017 136.439 360.043C136.317 360.071 136.162 360.085 135.974 360.085C135.69 360.085 135.412 360.024 135.139 359.902C134.869 359.78 134.645 359.594 134.466 359.344C134.29 359.094 134.202 358.778 134.202 358.398V351.886ZM140.706 360.136C140.116 360.136 139.597 359.996 139.151 359.714C138.708 359.433 138.361 359.04 138.111 358.534C137.864 358.028 137.741 357.437 137.741 356.761C137.741 356.08 137.864 355.484 138.111 354.976C138.361 354.467 138.708 354.072 139.151 353.791C139.597 353.51 140.116 353.369 140.706 353.369C141.297 353.369 141.814 353.51 142.258 353.791C142.704 354.072 143.05 354.467 143.297 354.976C143.547 355.484 143.672 356.08 143.672 356.761C143.672 357.437 143.547 358.028 143.297 358.534C143.05 359.04 142.704 359.433 142.258 359.714C141.814 359.996 141.297 360.136 140.706 360.136ZM140.706 359.233C141.155 359.233 141.525 359.118 141.814 358.888C142.104 358.658 142.319 358.355 142.458 357.98C142.597 357.605 142.667 357.199 142.667 356.761C142.667 356.324 142.597 355.916 142.458 355.538C142.319 355.161 142.104 354.855 141.814 354.622C141.525 354.389 141.155 354.273 140.706 354.273C140.258 354.273 139.888 354.389 139.599 354.622C139.309 354.855 139.094 355.161 138.955 355.538C138.816 355.916 138.746 356.324 138.746 356.761C138.746 357.199 138.816 357.605 138.955 357.98C139.094 358.355 139.309 358.658 139.599 358.888C139.888 359.118 140.258 359.233 140.706 359.233ZM145.208 360V353.455H146.179V354.443H146.247C146.367 354.119 146.583 353.857 146.895 353.655C147.208 353.453 147.56 353.352 147.952 353.352C148.026 353.352 148.118 353.354 148.229 353.357C148.34 353.359 148.423 353.364 148.48 353.369V354.392C148.446 354.384 148.368 354.371 148.246 354.354C148.127 354.334 148 354.324 147.867 354.324C147.548 354.324 147.264 354.391 147.014 354.524C146.767 354.655 146.571 354.837 146.426 355.07C146.284 355.3 146.213 355.562 146.213 355.858V360H145.208ZM149.672 360V353.455H150.678V360H149.672ZM150.184 352.364C149.988 352.364 149.819 352.297 149.677 352.163C149.537 352.03 149.468 351.869 149.468 351.682C149.468 351.494 149.537 351.334 149.677 351.2C149.819 351.067 149.988 351 150.184 351C150.38 351 150.547 351.067 150.687 351.2C150.829 351.334 150.9 351.494 150.9 351.682C150.9 351.869 150.829 352.03 150.687 352.163C150.547 352.297 150.38 352.364 150.184 352.364ZM155.179 360.136C154.588 360.136 154.07 359.996 153.624 359.714C153.181 359.433 152.834 359.04 152.584 358.534C152.337 358.028 152.213 357.437 152.213 356.761C152.213 356.08 152.337 355.484 152.584 354.976C152.834 354.467 153.181 354.072 153.624 353.791C154.07 353.51 154.588 353.369 155.179 353.369C155.77 353.369 156.287 353.51 156.73 353.791C157.176 354.072 157.523 354.467 157.77 354.976C158.02 355.484 158.145 356.08 158.145 356.761C158.145 357.437 158.02 358.028 157.77 358.534C157.523 359.04 157.176 359.433 156.73 359.714C156.287 359.996 155.77 360.136 155.179 360.136ZM155.179 359.233C155.628 359.233 155.997 359.118 156.287 358.888C156.577 358.658 156.791 358.355 156.931 357.98C157.07 357.605 157.139 357.199 157.139 356.761C157.139 356.324 157.07 355.916 156.931 355.538C156.791 355.161 156.577 354.855 156.287 354.622C155.997 354.389 155.628 354.273 155.179 354.273C154.73 354.273 154.361 354.389 154.071 354.622C153.781 354.855 153.567 355.161 153.428 355.538C153.289 355.916 153.219 356.324 153.219 356.761C153.219 357.199 153.289 357.605 153.428 357.98C153.567 358.355 153.781 358.658 154.071 358.888C154.361 359.118 154.73 359.233 155.179 359.233ZM164.317 354.92L163.413 355.176C163.356 355.026 163.273 354.879 163.162 354.737C163.054 354.592 162.906 354.473 162.719 354.379C162.531 354.286 162.291 354.239 161.998 354.239C161.598 354.239 161.264 354.331 160.997 354.516C160.733 354.697 160.601 354.929 160.601 355.21C160.601 355.46 160.692 355.658 160.873 355.803C161.055 355.947 161.339 356.068 161.726 356.165L162.697 356.403C163.282 356.545 163.719 356.763 164.006 357.055C164.292 357.345 164.436 357.719 164.436 358.176C164.436 358.551 164.328 358.886 164.112 359.182C163.899 359.477 163.601 359.71 163.217 359.881C162.834 360.051 162.388 360.136 161.879 360.136C161.211 360.136 160.659 359.991 160.221 359.702C159.784 359.412 159.507 358.989 159.39 358.432L160.345 358.193C160.436 358.545 160.608 358.81 160.861 358.986C161.116 359.162 161.45 359.25 161.862 359.25C162.331 359.25 162.703 359.151 162.979 358.952C163.257 358.75 163.396 358.509 163.396 358.227C163.396 358 163.317 357.81 163.157 357.656C162.998 357.5 162.754 357.384 162.425 357.307L161.334 357.051C160.734 356.909 160.294 356.689 160.013 356.391C159.734 356.089 159.595 355.713 159.595 355.261C159.595 354.892 159.699 354.565 159.906 354.281C160.116 353.997 160.402 353.774 160.763 353.612C161.126 353.45 161.538 353.369 161.998 353.369C162.646 353.369 163.155 353.511 163.524 353.795C163.896 354.08 164.16 354.455 164.317 354.92ZM169.972 362.455C169.802 362.455 169.65 362.44 169.517 362.412C169.383 362.386 169.291 362.361 169.24 362.335L169.495 361.449C169.74 361.511 169.955 361.534 170.143 361.517C170.33 361.5 170.497 361.416 170.642 361.266C170.789 361.118 170.924 360.878 171.046 360.545L171.234 360.034L168.813 353.455H169.904L171.711 358.67H171.779L173.586 353.455H174.677L171.899 360.955C171.774 361.293 171.619 361.572 171.434 361.794C171.249 362.018 171.035 362.185 170.791 362.293C170.549 362.401 170.276 362.455 169.972 362.455ZM181.306 360.153C180.891 360.153 180.514 360.075 180.176 359.919C179.838 359.76 179.57 359.531 179.371 359.233C179.172 358.932 179.073 358.568 179.073 358.142C179.073 357.767 179.146 357.463 179.294 357.23C179.442 356.994 179.639 356.81 179.887 356.676C180.134 356.543 180.406 356.443 180.705 356.378C181.006 356.31 181.308 356.256 181.612 356.216C182.01 356.165 182.333 356.126 182.58 356.101C182.83 356.072 183.012 356.026 183.125 355.96C183.242 355.895 183.3 355.781 183.3 355.619V355.585C183.3 355.165 183.185 354.838 182.955 354.605C182.727 354.372 182.382 354.256 181.919 354.256C181.439 354.256 181.063 354.361 180.79 354.571C180.517 354.781 180.325 355.006 180.215 355.244L179.26 354.903C179.431 354.506 179.658 354.196 179.942 353.974C180.229 353.75 180.541 353.594 180.879 353.506C181.22 353.415 181.556 353.369 181.885 353.369C182.095 353.369 182.337 353.395 182.61 353.446C182.885 353.494 183.151 353.595 183.406 353.749C183.665 353.902 183.879 354.134 184.05 354.443C184.22 354.753 184.306 355.168 184.306 355.688V360H183.3V359.114H183.249C183.181 359.256 183.067 359.408 182.908 359.57C182.749 359.732 182.537 359.869 182.273 359.983C182.009 360.097 181.686 360.153 181.306 360.153ZM181.459 359.25C181.857 359.25 182.192 359.172 182.465 359.016C182.74 358.859 182.948 358.658 183.087 358.411C183.229 358.163 183.3 357.903 183.3 357.631V356.71C183.257 356.761 183.164 356.808 183.019 356.851C182.877 356.891 182.712 356.926 182.524 356.957C182.34 356.986 182.159 357.011 181.983 357.034C181.81 357.054 181.669 357.071 181.561 357.085C181.3 357.119 181.056 357.175 180.828 357.251C180.604 357.325 180.422 357.437 180.283 357.588C180.146 357.736 180.078 357.937 180.078 358.193C180.078 358.543 180.208 358.807 180.466 358.986C180.727 359.162 181.058 359.25 181.459 359.25ZM187.147 351.273V360H186.141V351.273H187.147ZM191.733 360.136C191.102 360.136 190.558 359.997 190.101 359.719C189.646 359.438 189.296 359.045 189.048 358.543C188.804 358.037 188.682 357.449 188.682 356.778C188.682 356.108 188.804 355.517 189.048 355.006C189.296 354.491 189.639 354.091 190.08 353.804C190.523 353.514 191.04 353.369 191.631 353.369C191.972 353.369 192.308 353.426 192.641 353.54C192.973 353.653 193.276 353.838 193.548 354.094C193.821 354.347 194.039 354.682 194.2 355.099C194.362 355.517 194.443 356.031 194.443 356.642V357.068H189.398V356.199H193.421C193.421 355.83 193.347 355.5 193.199 355.21C193.054 354.92 192.847 354.692 192.577 354.524C192.31 354.357 191.994 354.273 191.631 354.273C191.23 354.273 190.884 354.372 190.591 354.571C190.301 354.767 190.078 355.023 189.922 355.338C189.766 355.653 189.688 355.991 189.688 356.352V356.932C189.688 357.426 189.773 357.845 189.943 358.189C190.117 358.53 190.357 358.79 190.664 358.969C190.97 359.145 191.327 359.233 191.733 359.233C191.997 359.233 192.236 359.196 192.449 359.122C192.665 359.045 192.851 358.932 193.007 358.781C193.164 358.628 193.284 358.437 193.369 358.21L194.341 358.483C194.239 358.812 194.067 359.102 193.825 359.352C193.584 359.599 193.286 359.793 192.931 359.932C192.575 360.068 192.176 360.136 191.733 360.136ZM195.973 360V353.455H196.945V354.443H197.013C197.132 354.119 197.348 353.857 197.661 353.655C197.973 353.453 198.325 353.352 198.718 353.352C198.791 353.352 198.884 353.354 198.994 353.357C199.105 353.359 199.189 353.364 199.246 353.369V354.392C199.212 354.384 199.134 354.371 199.012 354.354C198.892 354.334 198.766 354.324 198.632 354.324C198.314 354.324 198.03 354.391 197.78 354.524C197.533 354.655 197.337 354.837 197.192 355.07C197.05 355.3 196.979 355.562 196.979 355.858V360H195.973ZM203.695 353.455V354.307H200.303V353.455H203.695ZM201.291 351.886H202.297V358.125C202.297 358.409 202.338 358.622 202.421 358.764C202.506 358.903 202.614 358.997 202.744 359.045C202.878 359.091 203.019 359.114 203.166 359.114C203.277 359.114 203.368 359.108 203.439 359.097C203.51 359.082 203.567 359.071 203.61 359.062L203.814 359.966C203.746 359.991 203.651 360.017 203.529 360.043C203.406 360.071 203.252 360.085 203.064 360.085C202.78 360.085 202.502 360.024 202.229 359.902C201.959 359.78 201.735 359.594 201.556 359.344C201.379 359.094 201.291 358.778 201.291 358.398V351.886ZM207.134 360.153C206.719 360.153 206.343 360.075 206.004 359.919C205.666 359.76 205.398 359.531 205.199 359.233C205 358.932 204.901 358.568 204.901 358.142C204.901 357.767 204.975 357.463 205.122 357.23C205.27 356.994 205.468 356.81 205.715 356.676C205.962 356.543 206.235 356.443 206.533 356.378C206.834 356.31 207.137 356.256 207.441 356.216C207.838 356.165 208.161 356.126 208.408 356.101C208.658 356.072 208.84 356.026 208.953 355.96C209.07 355.895 209.128 355.781 209.128 355.619V355.585C209.128 355.165 209.013 354.838 208.783 354.605C208.556 354.372 208.21 354.256 207.747 354.256C207.267 354.256 206.891 354.361 206.618 354.571C206.345 354.781 206.154 355.006 206.043 355.244L205.088 354.903C205.259 354.506 205.486 354.196 205.77 353.974C206.057 353.75 206.369 353.594 206.708 353.506C207.048 353.415 207.384 353.369 207.713 353.369C207.923 353.369 208.165 353.395 208.438 353.446C208.713 353.494 208.979 353.595 209.235 353.749C209.493 353.902 209.708 354.134 209.878 354.443C210.048 354.753 210.134 355.168 210.134 355.688V360H209.128V359.114H209.077C209.009 359.256 208.895 359.408 208.736 359.57C208.577 359.732 208.365 359.869 208.101 359.983C207.837 360.097 207.514 360.153 207.134 360.153ZM207.287 359.25C207.685 359.25 208.02 359.172 208.293 359.016C208.568 358.859 208.776 358.658 208.915 358.411C209.057 358.163 209.128 357.903 209.128 357.631V356.71C209.085 356.761 208.992 356.808 208.847 356.851C208.705 356.891 208.54 356.926 208.352 356.957C208.168 356.986 207.987 357.011 207.811 357.034C207.638 357.054 207.497 357.071 207.389 357.085C207.128 357.119 206.884 357.175 206.656 357.251C206.432 357.325 206.25 357.437 206.111 357.588C205.975 357.736 205.906 357.937 205.906 358.193C205.906 358.543 206.036 358.807 206.294 358.986C206.556 359.162 206.887 359.25 207.287 359.25ZM216.606 354.92L215.702 355.176C215.645 355.026 215.562 354.879 215.451 354.737C215.343 354.592 215.195 354.473 215.008 354.379C214.82 354.286 214.58 354.239 214.287 354.239C213.887 354.239 213.553 354.331 213.286 354.516C213.022 354.697 212.89 354.929 212.89 355.21C212.89 355.46 212.981 355.658 213.162 355.803C213.344 355.947 213.628 356.068 214.015 356.165L214.986 356.403C215.572 356.545 216.008 356.763 216.295 357.055C216.581 357.345 216.725 357.719 216.725 358.176C216.725 358.551 216.617 358.886 216.401 359.182C216.188 359.477 215.89 359.71 215.506 359.881C215.123 360.051 214.677 360.136 214.168 360.136C213.501 360.136 212.948 359.991 212.51 359.702C212.073 359.412 211.796 358.989 211.68 358.432L212.634 358.193C212.725 358.545 212.897 358.81 213.15 358.986C213.405 359.162 213.739 359.25 214.151 359.25C214.62 359.25 214.992 359.151 215.268 358.952C215.546 358.75 215.685 358.509 215.685 358.227C215.685 358 215.606 357.81 215.447 357.656C215.287 357.5 215.043 357.384 214.714 357.307L213.623 357.051C213.023 356.909 212.583 356.689 212.302 356.391C212.023 356.089 211.884 355.713 211.884 355.261C211.884 354.892 211.988 354.565 212.195 354.281C212.405 353.997 212.691 353.774 213.052 353.612C213.415 353.45 213.827 353.369 214.287 353.369C214.935 353.369 215.444 353.511 215.813 353.795C216.185 354.08 216.449 354.455 216.606 354.92ZM225.739 357.324V353.455H226.744V360H225.739V358.892H225.671C225.517 359.224 225.279 359.507 224.955 359.74C224.631 359.97 224.222 360.085 223.727 360.085C223.318 360.085 222.955 359.996 222.637 359.817C222.318 359.635 222.068 359.362 221.887 358.999C221.705 358.632 221.614 358.17 221.614 357.614V353.455H222.619V357.545C222.619 358.023 222.753 358.403 223.02 358.688C223.29 358.972 223.634 359.114 224.051 359.114C224.301 359.114 224.556 359.05 224.814 358.922C225.075 358.794 225.294 358.598 225.47 358.334C225.649 358.07 225.739 357.733 225.739 357.324ZM228.586 360V353.455H229.558V354.443H229.626C229.746 354.119 229.961 353.857 230.274 353.655C230.586 353.453 230.939 353.352 231.331 353.352C231.405 353.352 231.497 353.354 231.608 353.357C231.719 353.359 231.802 353.364 231.859 353.369V354.392C231.825 354.384 231.747 354.371 231.625 354.354C231.506 354.334 231.379 354.324 231.246 354.324C230.927 354.324 230.643 354.391 230.393 354.524C230.146 354.655 229.95 354.837 229.805 355.07C229.663 355.3 229.592 355.562 229.592 355.858V360H228.586ZM235.494 362.591C235.008 362.591 234.591 362.528 234.241 362.403C233.892 362.281 233.601 362.119 233.368 361.918C233.138 361.719 232.954 361.506 232.818 361.278L233.619 360.716C233.71 360.835 233.825 360.972 233.964 361.125C234.104 361.281 234.294 361.416 234.535 361.53C234.78 361.646 235.099 361.705 235.494 361.705C236.023 361.705 236.459 361.577 236.802 361.321C237.146 361.065 237.318 360.665 237.318 360.119V358.79H237.233C237.159 358.909 237.054 359.057 236.917 359.233C236.784 359.406 236.591 359.561 236.338 359.697C236.088 359.831 235.75 359.898 235.324 359.898C234.795 359.898 234.321 359.773 233.9 359.523C233.483 359.273 233.152 358.909 232.907 358.432C232.666 357.955 232.545 357.375 232.545 356.693C232.545 356.023 232.663 355.439 232.899 354.942C233.135 354.442 233.463 354.055 233.883 353.783C234.304 353.507 234.79 353.369 235.341 353.369C235.767 353.369 236.105 353.44 236.355 353.582C236.608 353.722 236.801 353.881 236.934 354.06C237.071 354.236 237.176 354.381 237.25 354.494H237.352V353.455H238.324V360.188C238.324 360.75 238.196 361.207 237.94 361.56C237.687 361.915 237.346 362.175 236.917 362.339C236.491 362.507 236.017 362.591 235.494 362.591ZM235.46 358.994C235.863 358.994 236.204 358.902 236.483 358.717C236.761 358.533 236.973 358.267 237.118 357.92C237.263 357.574 237.335 357.159 237.335 356.676C237.335 356.205 237.264 355.788 237.122 355.428C236.98 355.067 236.77 354.784 236.491 354.58C236.213 354.375 235.869 354.273 235.46 354.273C235.034 354.273 234.679 354.381 234.395 354.597C234.113 354.812 233.902 355.102 233.76 355.466C233.621 355.83 233.551 356.233 233.551 356.676C233.551 357.131 233.622 357.533 233.764 357.882C233.909 358.229 234.122 358.501 234.403 358.7C234.687 358.896 235.04 358.994 235.46 358.994ZM242.909 360.136C242.278 360.136 241.734 359.997 241.277 359.719C240.822 359.438 240.471 359.045 240.224 358.543C239.98 358.037 239.858 357.449 239.858 356.778C239.858 356.108 239.98 355.517 240.224 355.006C240.471 354.491 240.815 354.091 241.256 353.804C241.699 353.514 242.216 353.369 242.807 353.369C243.148 353.369 243.484 353.426 243.817 353.54C244.149 353.653 244.452 353.838 244.724 354.094C244.997 354.347 245.214 354.682 245.376 355.099C245.538 355.517 245.619 356.031 245.619 356.642V357.068H240.574V356.199H244.596C244.596 355.83 244.523 355.5 244.375 355.21C244.23 354.92 244.023 354.692 243.753 354.524C243.486 354.357 243.17 354.273 242.807 354.273C242.406 354.273 242.059 354.372 241.767 354.571C241.477 354.767 241.254 355.023 241.098 355.338C240.942 355.653 240.863 355.991 240.863 356.352V356.932C240.863 357.426 240.949 357.845 241.119 358.189C241.292 358.53 241.532 358.79 241.839 358.969C242.146 359.145 242.503 359.233 242.909 359.233C243.173 359.233 243.412 359.196 243.625 359.122C243.841 359.045 244.027 358.932 244.183 358.781C244.339 358.628 244.46 358.437 244.545 358.21L245.517 358.483C245.415 358.812 245.243 359.102 245.001 359.352C244.76 359.599 244.461 359.793 244.106 359.932C243.751 360.068 243.352 360.136 242.909 360.136ZM248.155 356.062V360H247.149V353.455H248.121V354.477H248.206C248.359 354.145 248.592 353.878 248.905 353.676C249.217 353.472 249.621 353.369 250.115 353.369C250.558 353.369 250.946 353.46 251.278 353.642C251.611 353.821 251.869 354.094 252.054 354.46C252.238 354.824 252.331 355.284 252.331 355.841V360H251.325V355.909C251.325 355.395 251.192 354.994 250.925 354.707C250.657 354.418 250.291 354.273 249.825 354.273C249.504 354.273 249.217 354.342 248.964 354.482C248.714 354.621 248.517 354.824 248.372 355.091C248.227 355.358 248.155 355.682 248.155 356.062ZM257.015 353.455V354.307H253.623V353.455H257.015ZM254.612 351.886H255.617V358.125C255.617 358.409 255.659 358.622 255.741 358.764C255.826 358.903 255.934 358.997 256.065 359.045C256.198 359.091 256.339 359.114 256.487 359.114C256.597 359.114 256.688 359.108 256.759 359.097C256.83 359.082 256.887 359.071 256.93 359.062L257.134 359.966C257.066 359.991 256.971 360.017 256.849 360.043C256.727 360.071 256.572 360.085 256.384 360.085C256.1 360.085 255.822 360.024 255.549 359.902C255.279 359.78 255.055 359.594 254.876 359.344C254.7 359.094 254.612 358.778 254.612 358.398V351.886ZM261.202 360.136C260.571 360.136 260.027 359.997 259.57 359.719C259.115 359.438 258.764 359.045 258.517 358.543C258.273 358.037 258.151 357.449 258.151 356.778C258.151 356.108 258.273 355.517 258.517 355.006C258.764 354.491 259.108 354.091 259.548 353.804C259.992 353.514 260.509 353.369 261.1 353.369C261.441 353.369 261.777 353.426 262.11 353.54C262.442 353.653 262.744 353.838 263.017 354.094C263.29 354.347 263.507 354.682 263.669 355.099C263.831 355.517 263.912 356.031 263.912 356.642V357.068H258.867V356.199H262.889C262.889 355.83 262.816 355.5 262.668 355.21C262.523 354.92 262.316 354.692 262.046 354.524C261.779 354.357 261.463 354.273 261.1 354.273C260.699 354.273 260.352 354.372 260.06 354.571C259.77 354.767 259.547 355.023 259.391 355.338C259.235 355.653 259.156 355.991 259.156 356.352V356.932C259.156 357.426 259.242 357.845 259.412 358.189C259.585 358.53 259.825 358.79 260.132 358.969C260.439 359.145 260.796 359.233 261.202 359.233C261.466 359.233 261.705 359.196 261.918 359.122C262.134 359.045 262.32 358.932 262.476 358.781C262.632 358.628 262.753 358.437 262.838 358.21L263.81 358.483C263.708 358.812 263.536 359.102 263.294 359.352C263.053 359.599 262.754 359.793 262.399 359.932C262.044 360.068 261.645 360.136 261.202 360.136ZM270.078 354.92L269.175 355.176C269.118 355.026 269.034 354.879 268.923 354.737C268.816 354.592 268.668 354.473 268.48 354.379C268.293 354.286 268.053 354.239 267.76 354.239C267.36 354.239 267.026 354.331 266.759 354.516C266.494 354.697 266.362 354.929 266.362 355.21C266.362 355.46 266.453 355.658 266.635 355.803C266.817 355.947 267.101 356.068 267.487 356.165L268.459 356.403C269.044 356.545 269.48 356.763 269.767 357.055C270.054 357.345 270.198 357.719 270.198 358.176C270.198 358.551 270.09 358.886 269.874 359.182C269.661 359.477 269.362 359.71 268.979 359.881C268.595 360.051 268.149 360.136 267.641 360.136C266.973 360.136 266.421 359.991 265.983 359.702C265.546 359.412 265.269 358.989 265.152 358.432L266.107 358.193C266.198 358.545 266.369 358.81 266.622 358.986C266.878 359.162 267.212 359.25 267.624 359.25C268.093 359.25 268.465 359.151 268.74 358.952C269.019 358.75 269.158 358.509 269.158 358.227C269.158 358 269.078 357.81 268.919 357.656C268.76 357.5 268.516 357.384 268.186 357.307L267.095 357.051C266.496 356.909 266.056 356.689 265.774 356.391C265.496 356.089 265.357 355.713 265.357 355.261C265.357 354.892 265.46 354.565 265.668 354.281C265.878 353.997 266.164 353.774 266.524 353.612C266.888 353.45 267.3 353.369 267.76 353.369C268.408 353.369 268.916 353.511 269.286 353.795C269.658 354.08 269.922 354.455 270.078 354.92ZM272.444 360.068C272.234 360.068 272.054 359.993 271.903 359.842C271.753 359.692 271.677 359.511 271.677 359.301C271.677 359.091 271.753 358.911 271.903 358.76C272.054 358.609 272.234 358.534 272.444 358.534C272.655 358.534 272.835 358.609 272.986 358.76C273.136 358.911 273.211 359.091 273.211 359.301C273.211 359.44 273.176 359.568 273.105 359.685C273.037 359.801 272.944 359.895 272.828 359.966C272.714 360.034 272.586 360.068 272.444 360.068Z" fill="#666666"/>
<path d="M318 680H42C29.8497 680 20 689.85 20 702C20 714.15 29.8497 724 42 724H318C330.15 724 340 714.15 340 702C340 689.85 330.15 680 318 680Z" fill="#E0E0E0" stroke="#BDBDBD"/>
<path d="M120.36 708H119.252L122.457 699.273H123.548L126.752 708H125.644L123.036 700.653H122.968L120.36 708ZM120.769 704.591H125.235V705.528H120.769V704.591ZM130.634 708.136C130.021 708.136 129.492 707.991 129.049 707.702C128.606 707.412 128.265 707.013 128.026 706.504C127.788 705.996 127.668 705.415 127.668 704.761C127.668 704.097 127.79 703.51 128.035 703.001C128.282 702.49 128.626 702.091 129.066 701.804C129.509 701.514 130.026 701.369 130.617 701.369C131.077 701.369 131.492 701.455 131.862 701.625C132.231 701.795 132.533 702.034 132.769 702.341C133.005 702.648 133.151 703.006 133.208 703.415H132.202C132.126 703.116 131.955 702.852 131.691 702.622C131.43 702.389 131.077 702.273 130.634 702.273C130.242 702.273 129.898 702.375 129.603 702.58C129.31 702.781 129.082 703.067 128.917 703.436C128.755 703.803 128.674 704.233 128.674 704.727C128.674 705.233 128.754 705.673 128.913 706.048C129.075 706.423 129.302 706.714 129.594 706.922C129.89 707.129 130.237 707.233 130.634 707.233C130.896 707.233 131.133 707.188 131.346 707.097C131.559 707.006 131.739 706.875 131.887 706.705C132.035 706.534 132.14 706.33 132.202 706.091H133.208C133.151 706.477 133.011 706.825 132.786 707.135C132.565 707.442 132.271 707.686 131.904 707.868C131.54 708.047 131.117 708.136 130.634 708.136ZM137.525 701.455V702.307H134.133V701.455H137.525ZM135.121 699.886H136.127V706.125C136.127 706.409 136.168 706.622 136.251 706.764C136.336 706.903 136.444 706.997 136.575 707.045C136.708 707.091 136.849 707.114 136.996 707.114C137.107 707.114 137.198 707.108 137.269 707.097C137.34 707.082 137.397 707.071 137.44 707.062L137.644 707.966C137.576 707.991 137.481 708.017 137.359 708.043C137.237 708.071 137.082 708.085 136.894 708.085C136.61 708.085 136.332 708.024 136.059 707.902C135.789 707.78 135.565 707.594 135.386 707.344C135.21 707.094 135.121 706.778 135.121 706.398V699.886ZM139.038 708V701.455H140.043V708H139.038ZM139.549 700.364C139.353 700.364 139.184 700.297 139.042 700.163C138.903 700.03 138.833 699.869 138.833 699.682C138.833 699.494 138.903 699.334 139.042 699.2C139.184 699.067 139.353 699 139.549 699C139.745 699 139.913 699.067 140.052 699.2C140.194 699.334 140.265 699.494 140.265 699.682C140.265 699.869 140.194 700.03 140.052 700.163C139.913 700.297 139.745 700.364 139.549 700.364ZM147.238 701.455L144.817 708H143.794L141.374 701.455H142.465L144.272 706.67H144.34L146.147 701.455H147.238ZM150.292 708.153C149.877 708.153 149.501 708.075 149.163 707.919C148.825 707.76 148.556 707.531 148.357 707.233C148.158 706.932 148.059 706.568 148.059 706.142C148.059 705.767 148.133 705.463 148.281 705.23C148.428 704.994 148.626 704.81 148.873 704.676C149.12 704.543 149.393 704.443 149.691 704.378C149.992 704.31 150.295 704.256 150.599 704.216C150.996 704.165 151.319 704.126 151.566 704.101C151.816 704.072 151.998 704.026 152.112 703.96C152.228 703.895 152.286 703.781 152.286 703.619V703.585C152.286 703.165 152.171 702.838 151.941 702.605C151.714 702.372 151.369 702.256 150.906 702.256C150.425 702.256 150.049 702.361 149.776 702.571C149.504 702.781 149.312 703.006 149.201 703.244L148.246 702.903C148.417 702.506 148.644 702.196 148.928 701.974C149.215 701.75 149.528 701.594 149.866 701.506C150.207 701.415 150.542 701.369 150.871 701.369C151.082 701.369 151.323 701.395 151.596 701.446C151.871 701.494 152.137 701.595 152.393 701.749C152.651 701.902 152.866 702.134 153.036 702.443C153.207 702.753 153.292 703.168 153.292 703.688V708H152.286V707.114H152.235C152.167 707.256 152.053 707.408 151.894 707.57C151.735 707.732 151.523 707.869 151.259 707.983C150.995 708.097 150.673 708.153 150.292 708.153ZM150.445 707.25C150.843 707.25 151.178 707.172 151.451 707.016C151.727 706.859 151.934 706.658 152.073 706.411C152.215 706.163 152.286 705.903 152.286 705.631V704.71C152.244 704.761 152.15 704.808 152.005 704.851C151.863 704.891 151.698 704.926 151.511 704.957C151.326 704.986 151.146 705.011 150.969 705.034C150.796 705.054 150.656 705.071 150.548 705.085C150.286 705.119 150.042 705.175 149.815 705.251C149.59 705.325 149.408 705.437 149.269 705.588C149.133 705.736 149.065 705.937 149.065 706.193C149.065 706.543 149.194 706.807 149.452 706.986C149.714 707.162 150.045 707.25 150.445 707.25ZM155.127 708V701.455H156.099V702.443H156.167C156.287 702.119 156.502 701.857 156.815 701.655C157.127 701.453 157.48 701.352 157.872 701.352C157.946 701.352 158.038 701.354 158.149 701.357C158.26 701.359 158.343 701.364 158.4 701.369V702.392C158.366 702.384 158.288 702.371 158.166 702.354C158.047 702.334 157.92 702.324 157.787 702.324C157.468 702.324 157.184 702.391 156.934 702.524C156.687 702.655 156.491 702.837 156.346 703.07C156.204 703.3 156.133 703.562 156.133 703.858V708H155.127ZM163.973 704.062V708H162.967V701.455H163.939V702.477H164.024C164.178 702.145 164.411 701.878 164.723 701.676C165.036 701.472 165.439 701.369 165.933 701.369C166.376 701.369 166.764 701.46 167.097 701.642C167.429 701.821 167.688 702.094 167.872 702.46C168.057 702.824 168.149 703.284 168.149 703.841V708H167.143V703.909C167.143 703.395 167.01 702.994 166.743 702.707C166.476 702.418 166.109 702.273 165.643 702.273C165.322 702.273 165.036 702.342 164.783 702.482C164.533 702.621 164.335 702.824 164.19 703.091C164.045 703.358 163.973 703.682 163.973 704.062ZM172.646 708.136C172.055 708.136 171.537 707.996 171.091 707.714C170.647 707.433 170.301 707.04 170.051 706.534C169.804 706.028 169.68 705.437 169.68 704.761C169.68 704.08 169.804 703.484 170.051 702.976C170.301 702.467 170.647 702.072 171.091 701.791C171.537 701.51 172.055 701.369 172.646 701.369C173.237 701.369 173.754 701.51 174.197 701.791C174.643 702.072 174.99 702.467 175.237 702.976C175.487 703.484 175.612 704.08 175.612 704.761C175.612 705.437 175.487 706.028 175.237 706.534C174.99 707.04 174.643 707.433 174.197 707.714C173.754 707.996 173.237 708.136 172.646 708.136ZM172.646 707.233C173.095 707.233 173.464 707.118 173.754 706.888C174.044 706.658 174.258 706.355 174.397 705.98C174.537 705.605 174.606 705.199 174.606 704.761C174.606 704.324 174.537 703.916 174.397 703.538C174.258 703.161 174.044 702.855 173.754 702.622C173.464 702.389 173.095 702.273 172.646 702.273C172.197 702.273 171.828 702.389 171.538 702.622C171.248 702.855 171.034 703.161 170.895 703.538C170.755 703.916 170.686 704.324 170.686 704.761C170.686 705.199 170.755 705.605 170.895 705.98C171.034 706.355 171.248 706.658 171.538 706.888C171.828 707.118 172.197 707.233 172.646 707.233ZM179.994 701.455V702.307H176.602V701.455H179.994ZM177.59 699.886H178.596V706.125C178.596 706.409 178.637 706.622 178.719 706.764C178.805 706.903 178.913 706.997 179.043 707.045C179.177 707.091 179.317 707.114 179.465 707.114C179.576 707.114 179.667 707.108 179.738 707.097C179.809 707.082 179.866 707.071 179.908 707.062L180.113 707.966C180.045 707.991 179.95 708.017 179.827 708.043C179.705 708.071 179.55 708.085 179.363 708.085C179.079 708.085 178.8 708.024 178.528 707.902C178.258 707.78 178.033 707.594 177.854 707.344C177.678 707.094 177.59 706.778 177.59 706.398V699.886ZM181.506 708V701.455H182.512V708H181.506ZM182.018 700.364C181.822 700.364 181.653 700.297 181.511 700.163C181.371 700.03 181.302 699.869 181.302 699.682C181.302 699.494 181.371 699.334 181.511 699.2C181.653 699.067 181.822 699 182.018 699C182.214 699 182.381 699.067 182.521 699.2C182.663 699.334 182.734 699.494 182.734 699.682C182.734 699.869 182.663 700.03 182.521 700.163C182.381 700.297 182.214 700.364 182.018 700.364ZM187.269 701.455V702.307H183.74V701.455H187.269ZM184.797 708V700.551C184.797 700.176 184.885 699.864 185.061 699.614C185.238 699.364 185.466 699.176 185.748 699.051C186.029 698.926 186.326 698.864 186.638 698.864C186.885 698.864 187.087 698.884 187.243 698.923C187.4 698.963 187.516 699 187.593 699.034L187.303 699.903C187.252 699.886 187.181 699.865 187.09 699.839C187.002 699.814 186.885 699.801 186.74 699.801C186.408 699.801 186.168 699.885 186.02 700.053C185.875 700.22 185.803 700.466 185.803 700.79V708H184.797ZM188.678 708V701.455H189.684V708H188.678ZM189.19 700.364C188.994 700.364 188.825 700.297 188.683 700.163C188.543 700.03 188.474 699.869 188.474 699.682C188.474 699.494 188.543 699.334 188.683 699.2C188.825 699.067 188.994 699 189.19 699C189.386 699 189.553 699.067 189.692 699.2C189.835 699.334 189.906 699.494 189.906 699.682C189.906 699.869 189.835 700.03 189.692 700.163C189.553 700.297 189.386 700.364 189.19 700.364ZM194.185 708.136C193.571 708.136 193.043 707.991 192.6 707.702C192.157 707.412 191.816 707.013 191.577 706.504C191.338 705.996 191.219 705.415 191.219 704.761C191.219 704.097 191.341 703.51 191.586 703.001C191.833 702.49 192.176 702.091 192.617 701.804C193.06 701.514 193.577 701.369 194.168 701.369C194.628 701.369 195.043 701.455 195.412 701.625C195.782 701.795 196.084 702.034 196.32 702.341C196.556 702.648 196.702 703.006 196.759 703.415H195.753C195.676 703.116 195.506 702.852 195.242 702.622C194.98 702.389 194.628 702.273 194.185 702.273C193.793 702.273 193.449 702.375 193.154 702.58C192.861 702.781 192.632 703.067 192.468 703.436C192.306 703.803 192.225 704.233 192.225 704.727C192.225 705.233 192.304 705.673 192.463 706.048C192.625 706.423 192.853 706.714 193.145 706.922C193.441 707.129 193.787 707.233 194.185 707.233C194.446 707.233 194.684 707.188 194.897 707.097C195.11 707.006 195.29 706.875 195.438 706.705C195.586 706.534 195.691 706.33 195.753 706.091H196.759C196.702 706.477 196.561 706.825 196.337 707.135C196.115 707.442 195.821 707.686 195.455 707.868C195.091 708.047 194.668 708.136 194.185 708.136ZM200.155 708.153C199.74 708.153 199.364 708.075 199.026 707.919C198.688 707.76 198.419 707.531 198.221 707.233C198.022 706.932 197.922 706.568 197.922 706.142C197.922 705.767 197.996 705.463 198.144 705.23C198.292 704.994 198.489 704.81 198.736 704.676C198.983 704.543 199.256 704.443 199.554 704.378C199.855 704.31 200.158 704.256 200.462 704.216C200.86 704.165 201.182 704.126 201.429 704.101C201.679 704.072 201.861 704.026 201.975 703.96C202.091 703.895 202.15 703.781 202.15 703.619V703.585C202.15 703.165 202.034 702.838 201.804 702.605C201.577 702.372 201.232 702.256 200.769 702.256C200.289 702.256 199.912 702.361 199.64 702.571C199.367 702.781 199.175 703.006 199.064 703.244L198.11 702.903C198.28 702.506 198.507 702.196 198.792 701.974C199.078 701.75 199.391 701.594 199.729 701.506C200.07 701.415 200.405 701.369 200.735 701.369C200.945 701.369 201.186 701.395 201.459 701.446C201.735 701.494 202 701.595 202.256 701.749C202.515 701.902 202.729 702.134 202.9 702.443C203.07 702.753 203.155 703.168 203.155 703.688V708H202.15V707.114H202.098C202.03 707.256 201.917 707.408 201.757 707.57C201.598 707.732 201.387 707.869 201.123 707.983C200.858 708.097 200.536 708.153 200.155 708.153ZM200.309 707.25C200.706 707.25 201.042 707.172 201.314 707.016C201.59 706.859 201.797 706.658 201.936 706.411C202.078 706.163 202.15 705.903 202.15 705.631V704.71C202.107 704.761 202.013 704.808 201.868 704.851C201.726 704.891 201.561 704.926 201.374 704.957C201.189 704.986 201.009 705.011 200.833 705.034C200.659 705.054 200.519 705.071 200.411 705.085C200.15 705.119 199.905 705.175 199.678 705.251C199.453 705.325 199.272 705.437 199.132 705.588C198.996 705.736 198.928 705.937 198.928 706.193C198.928 706.543 199.057 706.807 199.316 706.986C199.577 707.162 199.908 707.25 200.309 707.25ZM207.65 708.136C207.036 708.136 206.508 707.991 206.065 707.702C205.621 707.412 205.281 707.013 205.042 706.504C204.803 705.996 204.684 705.415 204.684 704.761C204.684 704.097 204.806 703.51 205.05 703.001C205.298 702.49 205.641 702.091 206.082 701.804C206.525 701.514 207.042 701.369 207.633 701.369C208.093 701.369 208.508 701.455 208.877 701.625C209.246 701.795 209.549 702.034 209.785 702.341C210.021 702.648 210.167 703.006 210.224 703.415H209.218C209.141 703.116 208.971 702.852 208.707 702.622C208.445 702.389 208.093 702.273 207.65 702.273C207.258 702.273 206.914 702.375 206.619 702.58C206.326 702.781 206.097 703.067 205.933 703.436C205.771 703.803 205.69 704.233 205.69 704.727C205.69 705.233 205.769 705.673 205.928 706.048C206.09 706.423 206.317 706.714 206.61 706.922C206.906 707.129 207.252 707.233 207.65 707.233C207.911 707.233 208.148 707.188 208.362 707.097C208.575 707.006 208.755 706.875 208.903 706.705C209.05 706.534 209.156 706.33 209.218 706.091H210.224C210.167 706.477 210.026 706.825 209.802 707.135C209.58 707.442 209.286 707.686 208.92 707.868C208.556 708.047 208.133 708.136 207.65 708.136ZM211.694 708V701.455H212.7V708H211.694ZM212.205 700.364C212.009 700.364 211.84 700.297 211.698 700.163C211.559 700.03 211.489 699.869 211.489 699.682C211.489 699.494 211.559 699.334 211.698 699.2C211.84 699.067 212.009 699 212.205 699C212.401 699 212.569 699.067 212.708 699.2C212.85 699.334 212.921 699.494 212.921 699.682C212.921 699.869 212.85 700.03 212.708 700.163C212.569 700.297 212.401 700.364 212.205 700.364ZM217.201 708.136C216.61 708.136 216.091 707.996 215.645 707.714C215.202 707.433 214.855 707.04 214.605 706.534C214.358 706.028 214.235 705.437 214.235 704.761C214.235 704.08 214.358 703.484 214.605 702.976C214.855 702.467 215.202 702.072 215.645 701.791C216.091 701.51 216.61 701.369 217.201 701.369C217.792 701.369 218.309 701.51 218.752 701.791C219.198 702.072 219.544 702.467 219.792 702.976C220.042 703.484 220.167 704.08 220.167 704.761C220.167 705.437 220.042 706.028 219.792 706.534C219.544 707.04 219.198 707.433 218.752 707.714C218.309 707.996 217.792 708.136 217.201 708.136ZM217.201 707.233C217.65 707.233 218.019 707.118 218.309 706.888C218.598 706.658 218.813 706.355 218.952 705.98C219.091 705.605 219.161 705.199 219.161 704.761C219.161 704.324 219.091 703.916 218.952 703.538C218.813 703.161 218.598 702.855 218.309 702.622C218.019 702.389 217.65 702.273 217.201 702.273C216.752 702.273 216.382 702.389 216.093 702.622C215.803 702.855 215.588 703.161 215.449 703.538C215.31 703.916 215.24 704.324 215.24 704.761C215.24 705.199 215.31 705.605 215.449 705.98C215.588 706.355 215.803 706.658 216.093 706.888C216.382 707.118 216.752 707.233 217.201 707.233ZM222.707 704.062V708H221.702V701.455H222.673V702.477H222.759C222.912 702.145 223.145 701.878 223.457 701.676C223.77 701.472 224.173 701.369 224.668 701.369C225.111 701.369 225.499 701.46 225.831 701.642C226.163 701.821 226.422 702.094 226.607 702.46C226.791 702.824 226.884 703.284 226.884 703.841V708H225.878V703.909C225.878 703.395 225.744 702.994 225.477 702.707C225.21 702.418 224.844 702.273 224.378 702.273C224.057 702.273 223.77 702.342 223.517 702.482C223.267 702.621 223.07 702.824 222.925 703.091C222.78 703.358 222.707 703.682 222.707 704.062ZM231.466 708.136C230.835 708.136 230.291 707.997 229.833 707.719C229.379 707.438 229.028 707.045 228.781 706.543C228.537 706.037 228.414 705.449 228.414 704.778C228.414 704.108 228.537 703.517 228.781 703.006C229.028 702.491 229.372 702.091 229.812 701.804C230.255 701.514 230.772 701.369 231.363 701.369C231.704 701.369 232.041 701.426 232.373 701.54C232.706 701.653 233.008 701.838 233.281 702.094C233.554 702.347 233.771 702.682 233.933 703.099C234.095 703.517 234.176 704.031 234.176 704.642V705.068H229.13V704.199H233.153C233.153 703.83 233.079 703.5 232.931 703.21C232.787 702.92 232.579 702.692 232.309 702.524C232.042 702.357 231.727 702.273 231.363 702.273C230.963 702.273 230.616 702.372 230.324 702.571C230.034 702.767 229.811 703.023 229.654 703.338C229.498 703.653 229.42 703.991 229.42 704.352V704.932C229.42 705.426 229.505 705.845 229.676 706.189C229.849 706.53 230.089 706.79 230.396 706.969C230.703 707.145 231.059 707.233 231.466 707.233C231.73 707.233 231.968 707.196 232.181 707.122C232.397 707.045 232.583 706.932 232.74 706.781C232.896 706.628 233.017 706.437 233.102 706.21L234.074 706.483C233.971 706.812 233.799 707.102 233.558 707.352C233.316 707.599 233.018 707.793 232.663 707.932C232.308 708.068 231.909 708.136 231.466 708.136ZM240.342 702.92L239.439 703.176C239.382 703.026 239.298 702.879 239.187 702.737C239.079 702.592 238.931 702.473 238.744 702.379C238.556 702.286 238.316 702.239 238.024 702.239C237.623 702.239 237.289 702.331 237.022 702.516C236.758 702.697 236.626 702.929 236.626 703.21C236.626 703.46 236.717 703.658 236.899 703.803C237.081 703.947 237.365 704.068 237.751 704.165L238.723 704.403C239.308 704.545 239.744 704.763 240.031 705.055C240.318 705.345 240.461 705.719 240.461 706.176C240.461 706.551 240.353 706.886 240.137 707.182C239.924 707.477 239.626 707.71 239.243 707.881C238.859 708.051 238.413 708.136 237.904 708.136C237.237 708.136 236.684 707.991 236.247 707.702C235.809 707.412 235.532 706.989 235.416 706.432L236.37 706.193C236.461 706.545 236.633 706.81 236.886 706.986C237.142 707.162 237.475 707.25 237.887 707.25C238.356 707.25 238.728 707.151 239.004 706.952C239.282 706.75 239.422 706.509 239.422 706.227C239.422 706 239.342 705.81 239.183 705.656C239.024 705.5 238.779 705.384 238.45 705.307L237.359 705.051C236.76 704.909 236.319 704.689 236.038 704.391C235.76 704.089 235.62 703.713 235.62 703.261C235.62 702.892 235.724 702.565 235.931 702.281C236.142 701.997 236.427 701.774 236.788 701.612C237.152 701.45 237.564 701.369 238.024 701.369C238.672 701.369 239.18 701.511 239.549 701.795C239.922 702.08 240.186 702.455 240.342 702.92Z" fill="#333333"/>
<path opacity="0.01" d="M318 680H42C29.8497 680 20 689.85 20 702C20 714.15 29.8497 724 42 724H318C330.15 724 340 714.15 340 702C340 689.85 330.15 680 318 680Z" fill="black" stroke="black"/>
</g>
<defs>
<clipPath id="clip0_63_716">
<rect width="360" height="800" fill="white"/>
</clipPath>
</defs>
</svg>
