<svg width="360" height="800" viewBox="0 0 360 800" fill="none" xmlns="http://www.w3.org/2000/svg">
<g clip-path="url(#clip0_63_1462)">
<rect width="360" height="800" fill="white"/>
<path d="M360 0H0V56H360V0Z" fill="#FAFAFA" stroke="#D0D0D0"/>
<path d="M24 36C28.4183 36 32 32.4183 32 28C32 23.5817 28.4183 20 24 20C19.5817 20 16 23.5817 16 28C16 32.4183 19.5817 36 24 36Z" fill="#E0E0E0" stroke="#BDBDBD"/>
<path d="M63.3239 24.7102C63.2784 24.2519 63.0833 23.8958 62.7386 23.642C62.3939 23.3883 61.9261 23.2614 61.3352 23.2614C60.9337 23.2614 60.5947 23.3182 60.3182 23.4318C60.0417 23.5417 59.8295 23.6951 59.6818 23.892C59.5379 24.089 59.4659 24.3125 59.4659 24.5625C59.4583 24.7708 59.5019 24.9527 59.5966 25.108C59.6951 25.2633 59.8295 25.3977 60 25.5114C60.1705 25.6212 60.3674 25.7178 60.5909 25.8011C60.8144 25.8807 61.053 25.9489 61.3068 26.0057L62.3523 26.2557C62.8598 26.3693 63.3258 26.5208 63.75 26.7102C64.1742 26.8996 64.5417 27.1326 64.8523 27.4091C65.1629 27.6856 65.4034 28.0114 65.5739 28.3864C65.7481 28.7614 65.8371 29.1913 65.8409 29.6761C65.8371 30.3883 65.6553 31.0057 65.2955 31.5284C64.9394 32.0473 64.4242 32.4508 63.75 32.7386C63.0795 33.0227 62.2708 33.1648 61.3239 33.1648C60.3845 33.1648 59.5663 33.0208 58.8693 32.733C58.1761 32.4451 57.6345 32.0189 57.2443 31.4545C56.858 30.8864 56.6553 30.1837 56.6364 29.3466H59.017C59.0436 29.7367 59.1553 30.0625 59.3523 30.3239C59.553 30.5814 59.8201 30.7765 60.1534 30.9091C60.4905 31.0379 60.8712 31.1023 61.2955 31.1023C61.7121 31.1023 62.0739 31.0417 62.3807 30.9205C62.6913 30.7992 62.9318 30.6307 63.1023 30.4148C63.2727 30.1989 63.358 29.9508 63.358 29.6705C63.358 29.4091 63.2803 29.1894 63.125 29.0114C62.9735 28.8333 62.75 28.6818 62.4545 28.5568C62.1629 28.4318 61.8049 28.3182 61.3807 28.2159L60.1136 27.8977C59.1326 27.6591 58.358 27.286 57.7898 26.7784C57.2216 26.2708 56.9394 25.5871 56.9432 24.7273C56.9394 24.0227 57.1269 23.4072 57.5057 22.8807C57.8883 22.3542 58.4129 21.9432 59.0795 21.6477C59.7462 21.3523 60.5038 21.2045 61.3523 21.2045C62.2159 21.2045 62.9697 21.3523 63.6136 21.6477C64.2614 21.9432 64.7652 22.3542 65.125 22.8807C65.4848 23.4072 65.6705 24.017 65.6818 24.7102H63.3239ZM71.4276 33.1705C70.5298 33.1705 69.7571 32.9886 69.1094 32.625C68.4654 32.2576 67.9692 31.7386 67.6207 31.0682C67.2723 30.3939 67.098 29.5966 67.098 28.6761C67.098 27.7784 67.2723 26.9905 67.6207 26.3125C67.9692 25.6345 68.4598 25.1061 69.0923 24.7273C69.7287 24.3485 70.4749 24.1591 71.331 24.1591C71.9067 24.1591 72.4427 24.2519 72.9389 24.4375C73.4389 24.6193 73.8745 24.8939 74.2457 25.2614C74.6207 25.6288 74.9124 26.0909 75.1207 26.6477C75.3291 27.2008 75.4332 27.8485 75.4332 28.5909V29.2557H68.0639V27.7557H73.1548C73.1548 27.4072 73.0791 27.0985 72.9276 26.8295C72.776 26.5606 72.5658 26.3504 72.2969 26.1989C72.0317 26.0436 71.723 25.9659 71.3707 25.9659C71.0033 25.9659 70.6776 26.0511 70.3935 26.2216C70.1132 26.3883 69.8935 26.6136 69.7344 26.8977C69.5753 27.178 69.4938 27.4905 69.4901 27.8352V29.2614C69.4901 29.6932 69.5696 30.0663 69.7287 30.3807C69.8916 30.6951 70.1207 30.9375 70.4162 31.108C70.7116 31.2784 71.062 31.3636 71.4673 31.3636C71.7363 31.3636 71.9825 31.3258 72.206 31.25C72.4295 31.1742 72.6207 31.0606 72.7798 30.9091C72.9389 30.7576 73.0601 30.572 73.1435 30.3523L75.3821 30.5C75.2685 31.0379 75.0355 31.5076 74.6832 31.9091C74.3348 32.3068 73.884 32.6174 73.331 32.8409C72.7817 33.0606 72.1473 33.1705 71.4276 33.1705ZM80.9446 36.4545C80.1605 36.4545 79.4882 36.3466 78.9276 36.1307C78.3707 35.9186 77.9276 35.6288 77.598 35.2614C77.2685 34.8939 77.0545 34.4811 76.956 34.0227L79.1946 33.7216C79.2628 33.8958 79.3707 34.0587 79.5185 34.2102C79.6662 34.3617 79.8613 34.483 80.1037 34.5739C80.3499 34.6686 80.6491 34.7159 81.0014 34.7159C81.5279 34.7159 81.9616 34.5871 82.3026 34.3295C82.6473 34.0758 82.8196 33.6496 82.8196 33.0511V31.4545H82.7173C82.6113 31.697 82.4522 31.9261 82.2401 32.142C82.0279 32.358 81.7552 32.5341 81.4219 32.6705C81.0885 32.8068 80.6908 32.875 80.2287 32.875C79.5734 32.875 78.9768 32.7235 78.4389 32.4205C77.9048 32.1136 77.4787 31.6458 77.1605 31.017C76.8461 30.3845 76.6889 29.5852 76.6889 28.6193C76.6889 27.6307 76.8499 26.8049 77.1719 26.142C77.4938 25.4792 77.9219 24.983 78.456 24.6534C78.9938 24.3239 79.5829 24.1591 80.223 24.1591C80.7116 24.1591 81.1207 24.2424 81.4503 24.4091C81.7798 24.572 82.045 24.7765 82.2457 25.0227C82.4503 25.2652 82.6075 25.5038 82.7173 25.7386H82.8082V24.2727H85.2116V33.0852C85.2116 33.8277 85.0298 34.4489 84.6662 34.9489C84.3026 35.4489 83.7988 35.8239 83.1548 36.0739C82.5147 36.3277 81.7779 36.4545 80.9446 36.4545ZM80.9957 31.0568C81.3859 31.0568 81.7154 30.9602 81.9844 30.767C82.2571 30.5701 82.4654 30.2898 82.6094 29.9261C82.7571 29.5587 82.831 29.1193 82.831 28.608C82.831 28.0966 82.759 27.6534 82.6151 27.2784C82.4711 26.8996 82.2628 26.6061 81.9901 26.3977C81.7173 26.1894 81.3859 26.0852 80.9957 26.0852C80.598 26.0852 80.2628 26.1932 79.9901 26.4091C79.7173 26.6212 79.5109 26.9167 79.3707 27.2955C79.2306 27.6742 79.1605 28.1117 79.1605 28.608C79.1605 29.1117 79.2306 29.5473 79.3707 29.9148C79.5147 30.2784 79.7211 30.5606 79.9901 30.7614C80.2628 30.9583 80.598 31.0568 80.9957 31.0568ZM92.7344 29.2841V24.2727H95.1548V33H92.831V31.4148H92.7401C92.5431 31.9261 92.2154 32.3371 91.7571 32.6477C91.3026 32.9583 90.7476 33.1136 90.0923 33.1136C89.509 33.1136 88.9957 32.9811 88.5526 32.7159C88.1094 32.4508 87.7628 32.0739 87.5128 31.5852C87.2666 31.0966 87.1416 30.5114 87.1378 29.8295V24.2727H89.5582V29.3977C89.562 29.9129 89.7003 30.3201 89.973 30.6193C90.2457 30.9186 90.6113 31.0682 91.0696 31.0682C91.3613 31.0682 91.634 31.0019 91.8878 30.8693C92.1416 30.733 92.3461 30.5322 92.5014 30.267C92.6605 30.0019 92.7382 29.6742 92.7344 29.2841ZM97.0909 33V24.2727H99.4375V25.7955H99.5284C99.6875 25.2538 99.9545 24.8447 100.33 24.5682C100.705 24.2879 101.136 24.1477 101.625 24.1477C101.746 24.1477 101.877 24.1553 102.017 24.1705C102.157 24.1856 102.28 24.2064 102.386 24.233V26.3807C102.273 26.3466 102.116 26.3163 101.915 26.2898C101.714 26.2633 101.53 26.25 101.364 26.25C101.008 26.25 100.689 26.3277 100.409 26.483C100.133 26.6345 99.9129 26.8466 99.75 27.1193C99.5909 27.392 99.5114 27.7064 99.5114 28.0625V33H97.0909ZM103.638 33V24.2727H106.058V33H103.638ZM104.854 23.1477C104.494 23.1477 104.185 23.0284 103.928 22.7898C103.674 22.5473 103.547 22.2576 103.547 21.9205C103.547 21.5871 103.674 21.3011 103.928 21.0625C104.185 20.8201 104.494 20.6989 104.854 20.6989C105.214 20.6989 105.52 20.8201 105.774 21.0625C106.032 21.3011 106.161 21.5871 106.161 21.9205C106.161 22.2576 106.032 22.5473 105.774 22.7898C105.52 23.0284 105.214 23.1477 104.854 23.1477ZM111.213 33.142C110.55 33.142 109.95 32.9716 109.412 32.6307C108.878 32.286 108.454 31.7803 108.139 31.1136C107.829 30.4432 107.673 29.6212 107.673 28.6477C107.673 27.6477 107.834 26.8163 108.156 26.1534C108.478 25.4867 108.906 24.9886 109.44 24.6591C109.978 24.3258 110.567 24.1591 111.207 24.1591C111.696 24.1591 112.103 24.2424 112.429 24.4091C112.759 24.572 113.024 24.7765 113.224 25.0227C113.429 25.2652 113.584 25.5038 113.69 25.7386H113.764V21.3636H116.179V33H113.793V31.6023H113.69C113.577 31.8447 113.416 32.0852 113.207 32.3239C113.003 32.5587 112.736 32.7538 112.406 32.9091C112.08 33.0644 111.683 33.142 111.213 33.142ZM111.98 31.2159C112.37 31.2159 112.7 31.1098 112.969 30.8977C113.241 30.6818 113.45 30.3807 113.594 29.9943C113.741 29.608 113.815 29.1553 113.815 28.6364C113.815 28.1174 113.743 27.6667 113.599 27.2841C113.455 26.9015 113.247 26.6061 112.974 26.3977C112.702 26.1894 112.37 26.0852 111.98 26.0852C111.582 26.0852 111.247 26.1932 110.974 26.4091C110.702 26.625 110.495 26.9242 110.355 27.3068C110.215 27.6894 110.145 28.1326 110.145 28.6364C110.145 29.1439 110.215 29.5928 110.355 29.983C110.499 30.3693 110.705 30.6723 110.974 30.892C111.247 31.108 111.582 31.2159 111.98 31.2159ZM120.658 33.1648C120.101 33.1648 119.605 33.0682 119.169 32.875C118.733 32.678 118.389 32.3883 118.135 32.0057C117.885 31.6193 117.76 31.1383 117.76 30.5625C117.76 30.0777 117.849 29.6705 118.027 29.3409C118.205 29.0114 118.447 28.7462 118.754 28.5455C119.061 28.3447 119.41 28.1932 119.8 28.0909C120.194 27.9886 120.607 27.9167 121.038 27.875C121.546 27.822 121.955 27.7727 122.266 27.7273C122.576 27.678 122.802 27.6061 122.942 27.5114C123.082 27.4167 123.152 27.2765 123.152 27.0909V27.0568C123.152 26.697 123.038 26.4186 122.811 26.2216C122.588 26.0246 122.269 25.9261 121.857 25.9261C121.421 25.9261 121.074 26.0227 120.817 26.2159C120.559 26.4053 120.389 26.6439 120.305 26.9318L118.067 26.75C118.18 26.2197 118.404 25.7614 118.737 25.375C119.071 24.9848 119.5 24.6856 120.027 24.4773C120.557 24.2652 121.171 24.1591 121.868 24.1591C122.353 24.1591 122.817 24.2159 123.26 24.3295C123.707 24.4432 124.103 24.6193 124.447 24.858C124.796 25.0966 125.071 25.4034 125.271 25.7784C125.472 26.1496 125.572 26.5947 125.572 27.1136V33H123.277V31.7898H123.209C123.069 32.0625 122.881 32.303 122.646 32.5114C122.411 32.7159 122.129 32.8769 121.8 32.9943C121.47 33.108 121.089 33.1648 120.658 33.1648ZM121.351 31.4943C121.707 31.4943 122.021 31.4242 122.294 31.2841C122.567 31.1402 122.781 30.947 122.936 30.7045C123.091 30.4621 123.169 30.1875 123.169 29.8807V28.9545C123.093 29.0038 122.989 29.0492 122.857 29.0909C122.728 29.1288 122.582 29.1648 122.419 29.1989C122.256 29.2292 122.093 29.2576 121.93 29.2841C121.768 29.3068 121.62 29.3277 121.487 29.3466C121.203 29.3883 120.955 29.4545 120.743 29.5455C120.531 29.6364 120.366 29.7595 120.249 29.9148C120.131 30.0663 120.072 30.2557 120.072 30.483C120.072 30.8125 120.192 31.0644 120.43 31.2386C120.673 31.4091 120.98 31.4943 121.351 31.4943ZM130.666 33.142C130.003 33.142 129.403 32.9716 128.865 32.6307C128.331 32.286 127.907 31.7803 127.592 31.1136C127.282 30.4432 127.126 29.6212 127.126 28.6477C127.126 27.6477 127.287 26.8163 127.609 26.1534C127.931 25.4867 128.359 24.9886 128.893 24.6591C129.431 24.3258 130.02 24.1591 130.661 24.1591C131.149 24.1591 131.556 24.2424 131.882 24.4091C132.212 24.572 132.477 24.7765 132.678 25.0227C132.882 25.2652 133.037 25.5038 133.143 25.7386H133.217V21.3636H135.632V33H133.246V31.6023H133.143C133.03 31.8447 132.869 32.0852 132.661 32.3239C132.456 32.5587 132.189 32.7538 131.859 32.9091C131.534 33.0644 131.136 33.142 130.666 33.142ZM131.433 31.2159C131.823 31.2159 132.153 31.1098 132.422 30.8977C132.695 30.6818 132.903 30.3807 133.047 29.9943C133.195 29.608 133.268 29.1553 133.268 28.6364C133.268 28.1174 133.196 27.6667 133.053 27.2841C132.909 26.9015 132.7 26.6061 132.428 26.3977C132.155 26.1894 131.823 26.0852 131.433 26.0852C131.036 26.0852 130.7 26.1932 130.428 26.4091C130.155 26.625 129.948 26.9242 129.808 27.3068C129.668 27.6894 129.598 28.1326 129.598 28.6364C129.598 29.1439 129.668 29.5928 129.808 29.983C129.952 30.3693 130.159 30.6723 130.428 30.892C130.7 31.108 131.036 31.2159 131.433 31.2159Z" fill="#333333"/>
<path d="M332 36C336.418 36 340 32.4183 340 28C340 23.5817 336.418 20 332 20C327.582 20 324 23.5817 324 28C324 32.4183 327.582 36 332 36Z" fill="#E0E0E0" stroke="#BDBDBD"/>
<path d="M332 72H28C21.3726 72 16 77.3726 16 84V116C16 122.627 21.3726 128 28 128H332C338.627 128 344 122.627 344 116V84C344 77.3726 338.627 72 332 72Z" fill="white" stroke="#D0D0D0"/>
<path d="M36.4588 100.328H34.5923C34.5582 100.087 34.4886 99.8722 34.3835 99.6847C34.2784 99.4943 34.1435 99.3324 33.9787 99.1989C33.8139 99.0653 33.6236 98.9631 33.4077 98.892C33.1946 98.821 32.9631 98.7855 32.7131 98.7855C32.2614 98.7855 31.8679 98.8977 31.5327 99.1222C31.1974 99.3437 30.9375 99.6676 30.7528 100.094C30.5682 100.517 30.4759 101.031 30.4759 101.636C30.4759 102.259 30.5682 102.781 30.7528 103.205C30.9403 103.628 31.2017 103.947 31.5369 104.163C31.8722 104.379 32.2599 104.487 32.7003 104.487C32.9474 104.487 33.1761 104.455 33.3864 104.389C33.5994 104.324 33.7884 104.229 33.9531 104.104C34.1179 103.976 34.2543 103.821 34.3622 103.639C34.473 103.457 34.5497 103.25 34.5923 103.017L36.4588 103.026C36.4105 103.426 36.2898 103.812 36.0966 104.185C35.9063 104.554 35.6491 104.885 35.3253 105.178C35.0043 105.467 34.6207 105.697 34.1747 105.868C33.7315 106.036 33.2301 106.119 32.6705 106.119C31.892 106.119 31.196 105.943 30.5824 105.591C29.9716 105.239 29.4886 104.729 29.1335 104.061C28.7812 103.393 28.6051 102.585 28.6051 101.636C28.6051 100.685 28.7841 99.875 29.142 99.2074C29.5 98.5398 29.9858 98.0312 30.5994 97.6818C31.2131 97.3295 31.9034 97.1534 32.6705 97.1534C33.1761 97.1534 33.6449 97.2244 34.0767 97.3665C34.5114 97.5085 34.8963 97.7159 35.2315 97.9886C35.5668 98.2585 35.8395 98.5895 36.0497 98.9815C36.2628 99.3736 36.3991 99.8224 36.4588 100.328ZM39.6143 106.124C39.1967 106.124 38.8246 106.051 38.4979 105.906C38.1712 105.759 37.9126 105.541 37.7223 105.254C37.5348 104.964 37.4411 104.604 37.4411 104.172C37.4411 103.808 37.5078 103.503 37.6413 103.256C37.7749 103.009 37.9567 102.81 38.1868 102.659C38.4169 102.509 38.6783 102.395 38.9709 102.318C39.2663 102.241 39.576 102.188 39.8999 102.156C40.2805 102.116 40.5874 102.08 40.8203 102.045C41.0533 102.009 41.2223 101.955 41.3274 101.884C41.4325 101.812 41.4851 101.707 41.4851 101.568V101.543C41.4851 101.273 41.3999 101.064 41.2294 100.916C41.0618 100.768 40.8232 100.695 40.5135 100.695C40.1868 100.695 39.9268 100.767 39.7337 100.912C39.5405 101.054 39.4126 101.233 39.3501 101.449L37.6712 101.312C37.7564 100.915 37.924 100.571 38.174 100.281C38.424 99.9886 38.7464 99.7642 39.1413 99.608C39.5391 99.4489 39.9993 99.3693 40.522 99.3693C40.8857 99.3693 41.2337 99.4119 41.5661 99.4972C41.9013 99.5824 42.1982 99.7145 42.4567 99.8935C42.718 100.072 42.924 100.303 43.0746 100.584C43.2251 100.862 43.3004 101.196 43.3004 101.585V106H41.5788V105.092H41.5277C41.4226 105.297 41.282 105.477 41.1058 105.634C40.9297 105.787 40.718 105.908 40.4709 105.996C40.2237 106.081 39.9382 106.124 39.6143 106.124ZM40.1342 104.871C40.4013 104.871 40.6371 104.818 40.8416 104.713C41.0462 104.605 41.2067 104.46 41.3232 104.278C41.4396 104.097 41.4979 103.891 41.4979 103.661V102.966C41.4411 103.003 41.3629 103.037 41.2635 103.068C41.1669 103.097 41.0575 103.124 40.9354 103.149C40.8132 103.172 40.6911 103.193 40.5689 103.213C40.4467 103.23 40.3359 103.246 40.2365 103.26C40.0234 103.291 39.8374 103.341 39.6783 103.409C39.5192 103.477 39.3956 103.57 39.3075 103.686C39.2195 103.8 39.1754 103.942 39.1754 104.112C39.1754 104.359 39.2649 104.548 39.4439 104.679C39.6257 104.807 39.8558 104.871 40.1342 104.871ZM44.7088 106V99.4545H46.4389V100.609H46.5156C46.652 100.226 46.8793 99.9233 47.1974 99.7017C47.5156 99.4801 47.8963 99.3693 48.3395 99.3693C48.7884 99.3693 49.1705 99.4815 49.4858 99.706C49.8011 99.9276 50.0114 100.229 50.1165 100.609H50.1847C50.3182 100.234 50.5597 99.9347 50.9091 99.7102C51.2614 99.483 51.6776 99.3693 52.1577 99.3693C52.7685 99.3693 53.2642 99.5639 53.6449 99.9531C54.0284 100.339 54.2202 100.888 54.2202 101.598V106H52.4091V101.956C52.4091 101.592 52.3125 101.32 52.1193 101.138C51.9261 100.956 51.6847 100.865 51.3949 100.865C51.0653 100.865 50.8082 100.97 50.6236 101.18C50.4389 101.388 50.3466 101.662 50.3466 102.003V106H48.5866V101.918C48.5866 101.597 48.4943 101.341 48.3097 101.151C48.1278 100.96 47.8878 100.865 47.5895 100.865C47.3878 100.865 47.206 100.916 47.044 101.018C46.8849 101.118 46.7585 101.259 46.6648 101.44C46.571 101.619 46.5241 101.83 46.5241 102.071V106H44.7088ZM55.6882 106V97.2727H57.5036V100.554H57.5589C57.6385 100.378 57.7536 100.199 57.9041 100.017C58.0575 99.8324 58.2564 99.679 58.5007 99.5568C58.7479 99.4318 59.0547 99.3693 59.4212 99.3693C59.8984 99.3693 60.3388 99.4943 60.7422 99.7443C61.1456 99.9915 61.468 100.365 61.7095 100.865C61.951 101.362 62.0717 101.986 62.0717 102.736C62.0717 103.466 61.9538 104.082 61.718 104.585C61.4851 105.085 61.1669 105.464 60.7635 105.723C60.3629 105.979 59.9141 106.107 59.4169 106.107C59.0646 106.107 58.7649 106.048 58.5178 105.932C58.2734 105.815 58.0732 105.669 57.9169 105.493C57.7607 105.314 57.6413 105.134 57.5589 104.952H57.478V106H55.6882ZM57.4652 102.727C57.4652 103.116 57.5192 103.456 57.6271 103.746C57.7351 104.036 57.8913 104.261 58.0959 104.423C58.3004 104.582 58.549 104.662 58.8416 104.662C59.1371 104.662 59.3871 104.581 59.5916 104.419C59.7962 104.254 59.951 104.027 60.0561 103.737C60.1641 103.445 60.218 103.108 60.218 102.727C60.218 102.349 60.1655 102.017 60.0604 101.73C59.9553 101.443 59.8004 101.219 59.5959 101.057C59.3913 100.895 59.1399 100.814 58.8416 100.814C58.5462 100.814 58.2962 100.892 58.0916 101.048C57.8899 101.205 57.7351 101.426 57.6271 101.713C57.5192 102 57.4652 102.338 57.4652 102.727ZM63.283 106V99.4545H65.0984V106H63.283ZM64.195 98.6108C63.9251 98.6108 63.6935 98.5213 63.5004 98.3423C63.31 98.1605 63.2148 97.9432 63.2148 97.6903C63.2148 97.4403 63.31 97.2259 63.5004 97.0469C63.6935 96.8651 63.9251 96.7741 64.195 96.7741C64.4648 96.7741 64.695 96.8651 64.8853 97.0469C65.0785 97.2259 65.1751 97.4403 65.1751 97.6903C65.1751 97.9432 65.0785 98.1605 64.8853 98.3423C64.695 98.5213 64.4648 98.6108 64.195 98.6108ZM68.419 106.124C68.0014 106.124 67.6293 106.051 67.3026 105.906C66.9759 105.759 66.7173 105.541 66.527 105.254C66.3395 104.964 66.2457 104.604 66.2457 104.172C66.2457 103.808 66.3125 103.503 66.446 103.256C66.5795 103.009 66.7614 102.81 66.9915 102.659C67.2216 102.509 67.483 102.395 67.7756 102.318C68.071 102.241 68.3807 102.188 68.7045 102.156C69.0852 102.116 69.392 102.08 69.625 102.045C69.858 102.009 70.027 101.955 70.1321 101.884C70.2372 101.812 70.2898 101.707 70.2898 101.568V101.543C70.2898 101.273 70.2045 101.064 70.0341 100.916C69.8665 100.768 69.6278 100.695 69.3182 100.695C68.9915 100.695 68.7315 100.767 68.5384 100.912C68.3452 101.054 68.2173 101.233 68.1548 101.449L66.4759 101.312C66.5611 100.915 66.7287 100.571 66.9787 100.281C67.2287 99.9886 67.5511 99.7642 67.946 99.608C68.3438 99.4489 68.804 99.3693 69.3267 99.3693C69.6903 99.3693 70.0384 99.4119 70.3707 99.4972C70.706 99.5824 71.0028 99.7145 71.2614 99.8935C71.5227 100.072 71.7287 100.303 71.8793 100.584C72.0298 100.862 72.1051 101.196 72.1051 101.585V106H70.3835V105.092H70.3324C70.2273 105.297 70.0866 105.477 69.9105 105.634C69.7344 105.787 69.5227 105.908 69.2756 105.996C69.0284 106.081 68.7429 106.124 68.419 106.124ZM68.9389 104.871C69.206 104.871 69.4418 104.818 69.6463 104.713C69.8509 104.605 70.0114 104.46 70.1278 104.278C70.2443 104.097 70.3026 103.891 70.3026 103.661V102.966C70.2457 103.003 70.1676 103.037 70.0682 103.068C69.9716 103.097 69.8622 103.124 69.7401 103.149C69.6179 103.172 69.4957 103.193 69.3736 103.213C69.2514 103.23 69.1406 103.246 69.0412 103.26C68.8281 103.291 68.642 103.341 68.483 103.409C68.3239 103.477 68.2003 103.57 68.1122 103.686C68.0241 103.8 67.9801 103.942 67.9801 104.112C67.9801 104.359 68.0696 104.548 68.2486 104.679C68.4304 104.807 68.6605 104.871 68.9389 104.871ZM73.5135 106V99.4545H75.2734V100.597H75.3416C75.4609 100.19 75.6612 99.8835 75.9425 99.6761C76.2237 99.4659 76.5476 99.3608 76.9141 99.3608C77.005 99.3608 77.103 99.3665 77.2081 99.3778C77.3132 99.3892 77.4055 99.4048 77.4851 99.4247V101.036C77.3999 101.01 77.282 100.987 77.1314 100.967C76.9808 100.947 76.843 100.938 76.718 100.938C76.451 100.938 76.2124 100.996 76.0021 101.112C75.7947 101.226 75.63 101.385 75.5078 101.589C75.3885 101.794 75.3288 102.03 75.3288 102.297V106H73.5135ZM84.1584 106.128C83.4879 106.128 82.9112 105.986 82.4283 105.702C81.9482 105.415 81.5788 105.017 81.3203 104.509C81.0646 104 80.9368 103.415 80.9368 102.753C80.9368 102.082 81.0661 101.494 81.3246 100.989C81.5859 100.48 81.9567 100.084 82.4368 99.7997C82.9169 99.5128 83.4879 99.3693 84.1499 99.3693C84.7209 99.3693 85.2209 99.473 85.6499 99.6804C86.0788 99.8878 86.4183 100.179 86.6683 100.554C86.9183 100.929 87.0561 101.369 87.0817 101.875H85.3686C85.3203 101.548 85.1925 101.286 84.9851 101.087C84.7805 100.885 84.5121 100.784 84.1797 100.784C83.8984 100.784 83.6527 100.861 83.4425 101.014C83.2351 101.165 83.0732 101.385 82.9567 101.675C82.8402 101.964 82.782 102.315 82.782 102.727C82.782 103.145 82.8388 103.5 82.9524 103.793C83.0689 104.085 83.2322 104.308 83.4425 104.462C83.6527 104.615 83.8984 104.692 84.1797 104.692C84.3871 104.692 84.5732 104.649 84.7379 104.564C84.9055 104.479 85.0433 104.355 85.1513 104.193C85.2621 104.028 85.3345 103.831 85.3686 103.601H87.0817C87.0533 104.101 86.9169 104.541 86.6726 104.922C86.4311 105.3 86.0973 105.595 85.6712 105.808C85.245 106.021 84.7408 106.128 84.1584 106.128ZM91.2013 106.128C90.5394 106.128 89.967 105.987 89.484 105.706C89.0039 105.422 88.6332 105.027 88.3718 104.521C88.1104 104.013 87.9798 103.423 87.9798 102.753C87.9798 102.077 88.1104 101.486 88.3718 100.98C88.6332 100.472 89.0039 100.077 89.484 99.7955C89.967 99.5114 90.5394 99.3693 91.2013 99.3693C91.8633 99.3693 92.4343 99.5114 92.9144 99.7955C93.3974 100.077 93.7695 100.472 94.0309 100.98C94.2923 101.486 94.4229 102.077 94.4229 102.753C94.4229 103.423 94.2923 104.013 94.0309 104.521C93.7695 105.027 93.3974 105.422 92.9144 105.706C92.4343 105.987 91.8633 106.128 91.2013 106.128ZM91.2099 104.722C91.511 104.722 91.7624 104.636 91.9641 104.466C92.1658 104.293 92.3178 104.057 92.4201 103.759C92.5252 103.46 92.5778 103.121 92.5778 102.74C92.5778 102.359 92.5252 102.02 92.4201 101.722C92.3178 101.423 92.1658 101.187 91.9641 101.014C91.7624 100.841 91.511 100.754 91.2099 100.754C90.9059 100.754 90.6502 100.841 90.4428 101.014C90.2383 101.187 90.0835 101.423 89.9783 101.722C89.8761 102.02 89.8249 102.359 89.8249 102.74C89.8249 103.121 89.8761 103.46 89.9783 103.759C90.0835 104.057 90.2383 104.293 90.4428 104.466C90.6502 104.636 90.9059 104.722 91.2099 104.722ZM97.4187 102.216V106H95.6033V99.4545H97.3335V100.609H97.4102C97.555 100.229 97.7979 99.9276 98.1388 99.706C98.4798 99.4815 98.8931 99.3693 99.3789 99.3693C99.8335 99.3693 100.23 99.4688 100.568 99.6676C100.906 99.8665 101.169 100.151 101.356 100.52C101.544 100.886 101.637 101.324 101.637 101.832V106H99.8221V102.156C99.8249 101.756 99.7227 101.443 99.5153 101.219C99.3079 100.991 99.0224 100.878 98.6587 100.878C98.4144 100.878 98.1985 100.93 98.011 101.036C97.8263 101.141 97.6815 101.294 97.5763 101.496C97.4741 101.695 97.4215 101.935 97.4187 102.216ZM106.55 99.4545V100.818H102.608V99.4545H106.55ZM103.503 97.8864H105.318V103.989C105.318 104.156 105.344 104.287 105.395 104.381C105.446 104.472 105.517 104.536 105.608 104.572C105.702 104.609 105.81 104.628 105.932 104.628C106.017 104.628 106.102 104.621 106.188 104.607C106.273 104.589 106.338 104.577 106.384 104.568L106.669 105.919C106.578 105.947 106.45 105.98 106.286 106.017C106.121 106.057 105.92 106.081 105.685 106.089C105.247 106.107 104.864 106.048 104.534 105.915C104.207 105.781 103.953 105.574 103.771 105.293C103.589 105.011 103.5 104.656 103.503 104.227V97.8864ZM107.732 106V99.4545H109.492V100.597H109.56C109.68 100.19 109.88 99.8835 110.161 99.6761C110.442 99.4659 110.766 99.3608 111.133 99.3608C111.224 99.3608 111.322 99.3665 111.427 99.3778C111.532 99.3892 111.624 99.4048 111.704 99.4247V101.036C111.619 101.01 111.501 100.987 111.35 100.967C111.2 100.947 111.062 100.938 110.937 100.938C110.67 100.938 110.431 100.996 110.221 101.112C110.013 101.226 109.849 101.385 109.727 101.589C109.607 101.794 109.548 102.03 109.548 102.297V106H107.732ZM114.321 106.124C113.904 106.124 113.532 106.051 113.205 105.906C112.878 105.759 112.62 105.541 112.429 105.254C112.242 104.964 112.148 104.604 112.148 104.172C112.148 103.808 112.215 103.503 112.348 103.256C112.482 103.009 112.664 102.81 112.894 102.659C113.124 102.509 113.385 102.395 113.678 102.318C113.973 102.241 114.283 102.188 114.607 102.156C114.988 102.116 115.294 102.08 115.527 102.045C115.76 102.009 115.929 101.955 116.034 101.884C116.14 101.812 116.192 101.707 116.192 101.568V101.543C116.192 101.273 116.107 101.064 115.936 100.916C115.769 100.768 115.53 100.695 115.221 100.695C114.894 100.695 114.634 100.767 114.441 100.912C114.248 101.054 114.12 101.233 114.057 101.449L112.378 101.312C112.463 100.915 112.631 100.571 112.881 100.281C113.131 99.9886 113.453 99.7642 113.848 99.608C114.246 99.4489 114.706 99.3693 115.229 99.3693C115.593 99.3693 115.941 99.4119 116.273 99.4972C116.608 99.5824 116.905 99.7145 117.164 99.8935C117.425 100.072 117.631 100.303 117.782 100.584C117.932 100.862 118.007 101.196 118.007 101.585V106H116.286V105.092H116.235C116.13 105.297 115.989 105.477 115.813 105.634C115.637 105.787 115.425 105.908 115.178 105.996C114.931 106.081 114.645 106.124 114.321 106.124ZM114.841 104.871C115.108 104.871 115.344 104.818 115.549 104.713C115.753 104.605 115.914 104.46 116.03 104.278C116.147 104.097 116.205 103.891 116.205 103.661V102.966C116.148 103.003 116.07 103.037 115.971 103.068C115.874 103.097 115.765 103.124 115.642 103.149C115.52 103.172 115.398 103.193 115.276 103.213C115.154 103.23 115.043 103.246 114.944 103.26C114.73 103.291 114.544 103.341 114.385 103.409C114.226 103.477 114.103 103.57 114.015 103.686C113.926 103.8 113.882 103.942 113.882 104.112C113.882 104.359 113.972 104.548 114.151 104.679C114.333 104.807 114.563 104.871 114.841 104.871ZM124.862 101.321L123.2 101.423C123.172 101.281 123.11 101.153 123.017 101.04C122.923 100.923 122.799 100.831 122.646 100.763C122.495 100.692 122.315 100.656 122.105 100.656C121.824 100.656 121.586 100.716 121.393 100.835C121.2 100.952 121.103 101.108 121.103 101.304C121.103 101.46 121.166 101.592 121.291 101.7C121.416 101.808 121.63 101.895 121.934 101.96L123.119 102.199C123.755 102.33 124.23 102.54 124.542 102.83C124.855 103.119 125.011 103.5 125.011 103.972C125.011 104.401 124.885 104.777 124.632 105.101C124.382 105.425 124.038 105.678 123.6 105.859C123.166 106.038 122.664 106.128 122.096 106.128C121.23 106.128 120.539 105.947 120.025 105.587C119.514 105.223 119.214 104.729 119.126 104.104L120.912 104.01C120.966 104.274 121.096 104.476 121.304 104.615C121.511 104.751 121.777 104.82 122.1 104.82C122.419 104.82 122.674 104.759 122.868 104.636C123.064 104.511 123.163 104.351 123.166 104.155C123.163 103.99 123.093 103.855 122.957 103.75C122.821 103.642 122.61 103.56 122.326 103.503L121.193 103.277C120.554 103.149 120.078 102.928 119.765 102.612C119.456 102.297 119.301 101.895 119.301 101.406C119.301 100.986 119.414 100.624 119.642 100.32C119.872 100.016 120.194 99.7812 120.609 99.6165C121.027 99.4517 121.515 99.3693 122.075 99.3693C122.902 99.3693 123.552 99.544 124.027 99.8935C124.504 100.243 124.782 100.719 124.862 101.321ZM129.137 106.128C128.464 106.128 127.884 105.991 127.398 105.719C126.915 105.443 126.543 105.054 126.282 104.551C126.021 104.045 125.89 103.447 125.89 102.757C125.89 102.084 126.021 101.493 126.282 100.984C126.543 100.476 126.911 100.08 127.386 99.7955C127.863 99.5114 128.423 99.3693 129.065 99.3693C129.496 99.3693 129.898 99.4389 130.271 99.5781C130.646 99.7145 130.972 99.9205 131.251 100.196C131.532 100.472 131.751 100.818 131.907 101.236C132.063 101.651 132.141 102.136 132.141 102.693V103.192H126.614V102.067H130.433C130.433 101.805 130.376 101.574 130.262 101.372C130.148 101.17 129.991 101.013 129.789 100.899C129.59 100.783 129.359 100.724 129.094 100.724C128.819 100.724 128.575 100.788 128.362 100.916C128.151 101.041 127.987 101.21 127.867 101.423C127.748 101.634 127.687 101.868 127.684 102.126V103.196C127.684 103.52 127.744 103.8 127.863 104.036C127.985 104.271 128.157 104.453 128.379 104.581C128.6 104.709 128.863 104.773 129.167 104.773C129.369 104.773 129.553 104.744 129.721 104.688C129.888 104.631 130.032 104.545 130.151 104.432C130.271 104.318 130.362 104.179 130.424 104.014L132.103 104.125C132.018 104.528 131.843 104.881 131.579 105.182C131.317 105.48 130.979 105.713 130.565 105.881C130.153 106.045 129.677 106.128 129.137 106.128ZM135.141 102.216V106H133.326V99.4545H135.056V100.609H135.133C135.278 100.229 135.521 99.9276 135.862 99.706C136.202 99.4815 136.616 99.3693 137.102 99.3693C137.556 99.3693 137.952 99.4688 138.29 99.6676C138.629 99.8665 138.891 100.151 139.079 100.52C139.266 100.886 139.36 101.324 139.36 101.832V106H137.545V102.156C137.548 101.756 137.445 101.443 137.238 101.219C137.031 100.991 136.745 100.878 136.381 100.878C136.137 100.878 135.921 100.93 135.734 101.036C135.549 101.141 135.404 101.294 135.299 101.496C135.197 101.695 135.144 101.935 135.141 102.216ZM135.12 98.6491L134.11 98.6364C134.11 98.0938 134.244 97.6776 134.511 97.3878C134.781 97.098 135.109 96.9517 135.495 96.9489C135.694 96.9489 135.864 96.9815 136.006 97.0469C136.151 97.1094 136.281 97.1832 136.394 97.2685C136.511 97.3537 136.621 97.429 136.727 97.4943C136.832 97.5568 136.945 97.5881 137.067 97.5881C137.232 97.5852 137.357 97.5241 137.442 97.4048C137.531 97.2827 137.575 97.1236 137.575 96.9276L138.567 96.9574C138.562 97.4943 138.425 97.9091 138.158 98.2017C137.891 98.4915 137.566 98.6378 137.183 98.6406C136.969 98.6406 136.79 98.6094 136.646 98.5469C136.504 98.4815 136.379 98.4077 136.271 98.3253C136.163 98.2401 136.058 98.1648 135.955 98.0994C135.853 98.0341 135.738 98.0014 135.61 98.0014C135.462 98.0014 135.343 98.0597 135.252 98.1761C135.164 98.2926 135.12 98.4503 135.12 98.6491ZM142.657 106.124C142.24 106.124 141.868 106.051 141.541 105.906C141.214 105.759 140.956 105.541 140.765 105.254C140.578 104.964 140.484 104.604 140.484 104.172C140.484 103.808 140.551 103.503 140.684 103.256C140.818 103.009 141 102.81 141.23 102.659C141.46 102.509 141.721 102.395 142.014 102.318C142.309 102.241 142.619 102.188 142.943 102.156C143.324 102.116 143.63 102.08 143.863 102.045C144.096 102.009 144.265 101.955 144.37 101.884C144.475 101.812 144.528 101.707 144.528 101.568V101.543C144.528 101.273 144.443 101.064 144.272 100.916C144.105 100.768 143.866 100.695 143.556 100.695C143.23 100.695 142.97 100.767 142.777 100.912C142.583 101.054 142.456 101.233 142.393 101.449L140.714 101.312C140.799 100.915 140.967 100.571 141.217 100.281C141.467 99.9886 141.789 99.7642 142.184 99.608C142.582 99.4489 143.042 99.3693 143.565 99.3693C143.929 99.3693 144.277 99.4119 144.609 99.4972C144.944 99.5824 145.241 99.7145 145.5 99.8935C145.761 100.072 145.967 100.303 146.118 100.584C146.268 100.862 146.343 101.196 146.343 101.585V106H144.622V105.092H144.571C144.466 105.297 144.325 105.477 144.149 105.634C143.973 105.787 143.761 105.908 143.514 105.996C143.267 106.081 142.981 106.124 142.657 106.124ZM143.177 104.871C143.444 104.871 143.68 104.818 143.885 104.713C144.089 104.605 144.25 104.46 144.366 104.278C144.483 104.097 144.541 103.891 144.541 103.661V102.966C144.484 103.003 144.406 103.037 144.306 103.068C144.21 103.097 144.1 103.124 143.978 103.149C143.856 103.172 143.734 103.193 143.612 103.213C143.49 103.23 143.379 103.246 143.279 103.26C143.066 103.291 142.88 103.341 142.721 103.409C142.562 103.477 142.439 103.57 142.35 103.686C142.262 103.8 142.218 103.942 142.218 104.112C142.218 104.359 142.308 104.548 142.487 104.679C142.669 104.807 142.899 104.871 143.177 104.871Z" fill="#212121"/>
<path d="M332 136H28C21.3726 136 16 141.373 16 148V180C16 186.627 21.3726 192 28 192H332C338.627 192 344 186.627 344 180V148C344 141.373 338.627 136 332 136Z" fill="white" stroke="#D0D0D0"/>
<path d="M36.4588 164.328H34.5923C34.5582 164.087 34.4886 163.872 34.3835 163.685C34.2784 163.494 34.1435 163.332 33.9787 163.199C33.8139 163.065 33.6236 162.963 33.4077 162.892C33.1946 162.821 32.9631 162.786 32.7131 162.786C32.2614 162.786 31.8679 162.898 31.5327 163.122C31.1974 163.344 30.9375 163.668 30.7528 164.094C30.5682 164.517 30.4759 165.031 30.4759 165.636C30.4759 166.259 30.5682 166.781 30.7528 167.205C30.9403 167.628 31.2017 167.947 31.5369 168.163C31.8722 168.379 32.2599 168.487 32.7003 168.487C32.9474 168.487 33.1761 168.455 33.3864 168.389C33.5994 168.324 33.7884 168.229 33.9531 168.104C34.1179 167.976 34.2543 167.821 34.3622 167.639C34.473 167.457 34.5497 167.25 34.5923 167.017L36.4588 167.026C36.4105 167.426 36.2898 167.812 36.0966 168.185C35.9063 168.554 35.6491 168.885 35.3253 169.178C35.0043 169.467 34.6207 169.697 34.1747 169.868C33.7315 170.036 33.2301 170.119 32.6705 170.119C31.892 170.119 31.196 169.943 30.5824 169.591C29.9716 169.239 29.4886 168.729 29.1335 168.061C28.7812 167.393 28.6051 166.585 28.6051 165.636C28.6051 164.685 28.7841 163.875 29.142 163.207C29.5 162.54 29.9858 162.031 30.5994 161.682C31.2131 161.33 31.9034 161.153 32.6705 161.153C33.1761 161.153 33.6449 161.224 34.0767 161.366C34.5114 161.509 34.8963 161.716 35.2315 161.989C35.5668 162.259 35.8395 162.589 36.0497 162.982C36.2628 163.374 36.3991 163.822 36.4588 164.328ZM40.7308 170.128C40.0575 170.128 39.478 169.991 38.9922 169.719C38.5092 169.443 38.1371 169.054 37.8757 168.551C37.6143 168.045 37.4837 167.447 37.4837 166.757C37.4837 166.084 37.6143 165.493 37.8757 164.984C38.1371 164.476 38.505 164.08 38.9794 163.795C39.4567 163.511 40.0163 163.369 40.6584 163.369C41.0902 163.369 41.4922 163.439 41.8643 163.578C42.2393 163.714 42.5661 163.92 42.8445 164.196C43.1257 164.472 43.3445 164.818 43.5007 165.236C43.657 165.651 43.7351 166.136 43.7351 166.693V167.192H38.2081V166.067H42.0263C42.0263 165.805 41.9695 165.574 41.8558 165.372C41.7422 165.17 41.5845 165.013 41.3828 164.899C41.1839 164.783 40.9524 164.724 40.6882 164.724C40.4126 164.724 40.1683 164.788 39.9553 164.916C39.745 165.041 39.5803 165.21 39.4609 165.423C39.3416 165.634 39.2805 165.868 39.2777 166.126V167.196C39.2777 167.52 39.3374 167.8 39.4567 168.036C39.5788 168.271 39.7507 168.453 39.9723 168.581C40.1939 168.709 40.4567 168.773 40.7607 168.773C40.9624 168.773 41.147 168.744 41.3146 168.688C41.4822 168.631 41.6257 168.545 41.745 168.432C41.8643 168.318 41.9553 168.179 42.0178 168.014L43.6967 168.125C43.6115 168.528 43.4368 168.881 43.1726 169.182C42.9112 169.48 42.5732 169.713 42.1584 169.881C41.7464 170.045 41.2706 170.128 40.7308 170.128ZM44.9197 170V163.455H46.6797V164.597H46.7479C46.8672 164.19 47.0675 163.884 47.3487 163.676C47.63 163.466 47.9538 163.361 48.3203 163.361C48.4112 163.361 48.5092 163.366 48.6143 163.378C48.7195 163.389 48.8118 163.405 48.8913 163.425V165.036C48.8061 165.01 48.6882 164.987 48.5376 164.967C48.3871 164.947 48.2493 164.938 48.1243 164.938C47.8572 164.938 47.6186 164.996 47.4084 165.112C47.201 165.226 47.0362 165.385 46.9141 165.589C46.7947 165.794 46.7351 166.03 46.7351 166.297V170H44.9197ZM49.8299 170V163.455H51.5898V164.597H51.658C51.7773 164.19 51.9776 163.884 52.2589 163.676C52.5401 163.466 52.864 163.361 53.2305 163.361C53.3214 163.361 53.4194 163.366 53.5245 163.378C53.6296 163.389 53.7219 163.405 53.8015 163.425V165.036C53.7163 165.01 53.5984 164.987 53.4478 164.967C53.2972 164.947 53.1594 164.938 53.0344 164.938C52.7674 164.938 52.5288 164.996 52.3185 165.112C52.1112 165.226 51.9464 165.385 51.8242 165.589C51.7049 165.794 51.6452 166.03 51.6452 166.297V170H49.8299ZM56.419 170.124C56.0014 170.124 55.6293 170.051 55.3026 169.906C54.9759 169.759 54.7173 169.541 54.527 169.254C54.3395 168.964 54.2457 168.604 54.2457 168.172C54.2457 167.808 54.3125 167.503 54.446 167.256C54.5795 167.009 54.7614 166.81 54.9915 166.659C55.2216 166.509 55.483 166.395 55.7756 166.318C56.071 166.241 56.3807 166.188 56.7045 166.156C57.0852 166.116 57.392 166.08 57.625 166.045C57.858 166.009 58.027 165.955 58.1321 165.884C58.2372 165.812 58.2898 165.707 58.2898 165.568V165.543C58.2898 165.273 58.2045 165.064 58.0341 164.916C57.8665 164.768 57.6278 164.695 57.3182 164.695C56.9915 164.695 56.7315 164.767 56.5384 164.912C56.3452 165.054 56.2173 165.233 56.1548 165.449L54.4759 165.312C54.5611 164.915 54.7287 164.571 54.9787 164.281C55.2287 163.989 55.5511 163.764 55.946 163.608C56.3438 163.449 56.804 163.369 57.3267 163.369C57.6903 163.369 58.0384 163.412 58.3707 163.497C58.706 163.582 59.0028 163.714 59.2614 163.893C59.5227 164.072 59.7287 164.303 59.8793 164.584C60.0298 164.862 60.1051 165.196 60.1051 165.585V170H58.3835V169.092H58.3324C58.2273 169.297 58.0866 169.477 57.9105 169.634C57.7344 169.787 57.5227 169.908 57.2756 169.996C57.0284 170.081 56.7429 170.124 56.419 170.124ZM56.9389 168.871C57.206 168.871 57.4418 168.818 57.6463 168.713C57.8509 168.605 58.0114 168.46 58.1278 168.278C58.2443 168.097 58.3026 167.891 58.3026 167.661V166.966C58.2457 167.003 58.1676 167.037 58.0682 167.068C57.9716 167.097 57.8622 167.124 57.7401 167.149C57.6179 167.172 57.4957 167.193 57.3736 167.213C57.2514 167.23 57.1406 167.246 57.0412 167.26C56.8281 167.291 56.642 167.341 56.483 167.409C56.3239 167.477 56.2003 167.57 56.1122 167.686C56.0241 167.8 55.9801 167.942 55.9801 168.112C55.9801 168.359 56.0696 168.548 56.2486 168.679C56.4304 168.807 56.6605 168.871 56.9389 168.871ZM61.5135 170V163.455H63.2734V164.597H63.3416C63.4609 164.19 63.6612 163.884 63.9425 163.676C64.2237 163.466 64.5476 163.361 64.9141 163.361C65.005 163.361 65.103 163.366 65.2081 163.378C65.3132 163.389 65.4055 163.405 65.4851 163.425V165.036C65.3999 165.01 65.282 164.987 65.1314 164.967C64.9808 164.947 64.843 164.938 64.718 164.938C64.451 164.938 64.2124 164.996 64.0021 165.112C63.7947 165.226 63.63 165.385 63.5078 165.589C63.3885 165.794 63.3288 166.03 63.3288 166.297V170H61.5135ZM74.647 165.321L72.9851 165.423C72.9567 165.281 72.8956 165.153 72.8018 165.04C72.7081 164.923 72.5845 164.831 72.4311 164.763C72.2805 164.692 72.1001 164.656 71.8899 164.656C71.6087 164.656 71.3714 164.716 71.1783 164.835C70.9851 164.952 70.8885 165.108 70.8885 165.304C70.8885 165.46 70.951 165.592 71.076 165.7C71.201 165.808 71.4155 165.895 71.7195 165.96L72.9041 166.199C73.5405 166.33 74.0149 166.54 74.3274 166.83C74.6399 167.119 74.7962 167.5 74.7962 167.972C74.7962 168.401 74.6697 168.777 74.4169 169.101C74.1669 169.425 73.8232 169.678 73.3857 169.859C72.951 170.038 72.4496 170.128 71.8814 170.128C71.0149 170.128 70.3246 169.947 69.8104 169.587C69.299 169.223 68.9993 168.729 68.9112 168.104L70.6967 168.01C70.7507 168.274 70.8814 168.476 71.0888 168.615C71.2962 168.751 71.5618 168.82 71.8857 168.82C72.2038 168.82 72.4595 168.759 72.6527 168.636C72.8487 168.511 72.9482 168.351 72.951 168.155C72.9482 167.99 72.8786 167.855 72.7422 167.75C72.6058 167.642 72.3956 167.56 72.1115 167.503L70.978 167.277C70.3388 167.149 69.8629 166.928 69.5504 166.612C69.2408 166.297 69.0859 165.895 69.0859 165.406C69.0859 164.986 69.1996 164.624 69.4268 164.32C69.657 164.016 69.9794 163.781 70.3942 163.616C70.8118 163.452 71.3004 163.369 71.8601 163.369C72.6868 163.369 73.3374 163.544 73.8118 163.893C74.2891 164.243 74.5675 164.719 74.647 165.321ZM78.9222 170.128C78.2489 170.128 77.6694 169.991 77.1836 169.719C76.7006 169.443 76.3285 169.054 76.0671 168.551C75.8058 168.045 75.6751 167.447 75.6751 166.757C75.6751 166.084 75.8058 165.493 76.0671 164.984C76.3285 164.476 76.6964 164.08 77.1708 163.795C77.6481 163.511 78.2077 163.369 78.8498 163.369C79.2816 163.369 79.6836 163.439 80.0558 163.578C80.4308 163.714 80.7575 163.92 81.0359 164.196C81.3171 164.472 81.5359 164.818 81.6921 165.236C81.8484 165.651 81.9265 166.136 81.9265 166.693V167.192H76.3995V166.067H80.2177C80.2177 165.805 80.1609 165.574 80.0472 165.372C79.9336 165.17 79.7759 165.013 79.5742 164.899C79.3754 164.783 79.1438 164.724 78.8796 164.724C78.604 164.724 78.3597 164.788 78.1467 164.916C77.9364 165.041 77.7717 165.21 77.6523 165.423C77.533 165.634 77.4719 165.868 77.4691 166.126V167.196C77.4691 167.52 77.5288 167.8 77.6481 168.036C77.7702 168.271 77.9421 168.453 78.1637 168.581C78.3853 168.709 78.6481 168.773 78.9521 168.773C79.1538 168.773 79.3384 168.744 79.506 168.688C79.6737 168.631 79.8171 168.545 79.9364 168.432C80.0558 168.318 80.1467 168.179 80.2092 168.014L81.8881 168.125C81.8029 168.528 81.6282 168.881 81.364 169.182C81.1026 169.48 80.7646 169.713 80.3498 169.881C79.9379 170.045 79.462 170.128 78.9222 170.128ZM88.5572 165.321L86.8952 165.423C86.8668 165.281 86.8058 165.153 86.712 165.04C86.6183 164.923 86.4947 164.831 86.3413 164.763C86.1907 164.692 86.0103 164.656 85.8001 164.656C85.5188 164.656 85.2816 164.716 85.0884 164.835C84.8952 164.952 84.7987 165.108 84.7987 165.304C84.7987 165.46 84.8612 165.592 84.9862 165.7C85.1112 165.808 85.3256 165.895 85.6296 165.96L86.8143 166.199C87.4506 166.33 87.9251 166.54 88.2376 166.83C88.5501 167.119 88.7063 167.5 88.7063 167.972C88.7063 168.401 88.5799 168.777 88.3271 169.101C88.0771 169.425 87.7333 169.678 87.2958 169.859C86.8612 170.038 86.3597 170.128 85.7915 170.128C84.9251 170.128 84.2347 169.947 83.7205 169.587C83.2092 169.223 82.9094 168.729 82.8214 168.104L84.6069 168.01C84.6609 168.274 84.7915 168.476 84.9989 168.615C85.2063 168.751 85.4719 168.82 85.7958 168.82C86.114 168.82 86.3697 168.759 86.5629 168.636C86.7589 168.511 86.8583 168.351 86.8612 168.155C86.8583 167.99 86.7887 167.855 86.6523 167.75C86.516 167.642 86.3058 167.56 86.0217 167.503L84.8881 167.277C84.2489 167.149 83.7731 166.928 83.4606 166.612C83.1509 166.297 82.9961 165.895 82.9961 165.406C82.9961 164.986 83.1097 164.624 83.337 164.32C83.5671 164.016 83.8896 163.781 84.3043 163.616C84.7219 163.452 85.2106 163.369 85.7702 163.369C86.5969 163.369 87.2475 163.544 87.7219 163.893C88.1992 164.243 88.4776 164.719 88.5572 165.321ZM89.8494 170V163.455H91.6648V170H89.8494ZM90.7614 162.611C90.4915 162.611 90.2599 162.521 90.0668 162.342C89.8764 162.161 89.7812 161.943 89.7812 161.69C89.7812 161.44 89.8764 161.226 90.0668 161.047C90.2599 160.865 90.4915 160.774 90.7614 160.774C91.0313 160.774 91.2614 160.865 91.4517 161.047C91.6449 161.226 91.7415 161.44 91.7415 161.69C91.7415 161.943 91.6449 162.161 91.4517 162.342C91.2614 162.521 91.0313 162.611 90.7614 162.611ZM96.0763 170.128C95.4144 170.128 94.842 169.987 94.359 169.706C93.8789 169.422 93.5082 169.027 93.2468 168.521C92.9854 168.013 92.8548 167.423 92.8548 166.753C92.8548 166.077 92.9854 165.486 93.2468 164.98C93.5082 164.472 93.8789 164.077 94.359 163.795C94.842 163.511 95.4144 163.369 96.0763 163.369C96.7383 163.369 97.3093 163.511 97.7894 163.795C98.2724 164.077 98.6445 164.472 98.9059 164.98C99.1673 165.486 99.2979 166.077 99.2979 166.753C99.2979 167.423 99.1673 168.013 98.9059 168.521C98.6445 169.027 98.2724 169.422 97.7894 169.706C97.3093 169.987 96.7383 170.128 96.0763 170.128ZM96.0849 168.722C96.386 168.722 96.6374 168.636 96.8391 168.466C97.0408 168.293 97.1928 168.057 97.2951 167.759C97.4002 167.46 97.4528 167.121 97.4528 166.74C97.4528 166.359 97.4002 166.02 97.2951 165.722C97.1928 165.423 97.0408 165.187 96.8391 165.014C96.6374 164.841 96.386 164.754 96.0849 164.754C95.7809 164.754 95.5252 164.841 95.3178 165.014C95.1133 165.187 94.9585 165.423 94.8533 165.722C94.7511 166.02 94.6999 166.359 94.6999 166.74C94.6999 167.121 94.7511 167.46 94.8533 167.759C94.9585 168.057 95.1133 168.293 95.3178 168.466C95.5252 168.636 95.7809 168.722 96.0849 168.722ZM95.4244 162.611L96.3278 160.672H98.0067L96.707 162.611H95.4244ZM102.294 166.216V170H100.478V163.455H102.208V164.609H102.285C102.43 164.229 102.673 163.928 103.014 163.706C103.355 163.482 103.768 163.369 104.254 163.369C104.708 163.369 105.105 163.469 105.443 163.668C105.781 163.866 106.044 164.151 106.231 164.52C106.419 164.886 106.512 165.324 106.512 165.832V170H104.697V166.156C104.7 165.756 104.598 165.443 104.39 165.219C104.183 164.991 103.897 164.878 103.534 164.878C103.289 164.878 103.074 164.93 102.886 165.036C102.701 165.141 102.556 165.294 102.451 165.496C102.349 165.695 102.297 165.935 102.294 166.216ZM113.703 170.128C113.03 170.128 112.451 169.991 111.965 169.719C111.482 169.443 111.11 169.054 110.848 168.551C110.587 168.045 110.456 167.447 110.456 166.757C110.456 166.084 110.587 165.493 110.848 164.984C111.11 164.476 111.478 164.08 111.952 163.795C112.429 163.511 112.989 163.369 113.631 163.369C114.063 163.369 114.465 163.439 114.837 163.578C115.212 163.714 115.539 163.92 115.817 164.196C116.098 164.472 116.317 164.818 116.473 165.236C116.63 165.651 116.708 166.136 116.708 166.693V167.192H111.181V166.067H114.999C114.999 165.805 114.942 165.574 114.828 165.372C114.715 165.17 114.557 165.013 114.355 164.899C114.157 164.783 113.925 164.724 113.661 164.724C113.385 164.724 113.141 164.788 112.928 164.916C112.718 165.041 112.553 165.21 112.434 165.423C112.314 165.634 112.253 165.868 112.25 166.126V167.196C112.25 167.52 112.31 167.8 112.429 168.036C112.551 168.271 112.723 168.453 112.945 168.581C113.167 168.709 113.429 168.773 113.733 168.773C113.935 168.773 114.12 168.744 114.287 168.688C114.455 168.631 114.598 168.545 114.718 168.432C114.837 168.318 114.928 168.179 114.99 168.014L116.669 168.125C116.584 168.528 116.409 168.881 116.145 169.182C115.884 169.48 115.546 169.713 115.131 169.881C114.719 170.045 114.243 170.128 113.703 170.128ZM119.708 166.216V170H117.892V163.455H119.623V164.609H119.699C119.844 164.229 120.087 163.928 120.428 163.706C120.769 163.482 121.182 163.369 121.668 163.369C122.123 163.369 122.519 163.469 122.857 163.668C123.195 163.866 123.458 164.151 123.645 164.52C123.833 164.886 123.926 165.324 123.926 165.832V170H122.111V166.156C122.114 165.756 122.012 165.443 121.804 165.219C121.597 164.991 121.311 164.878 120.948 164.878C120.703 164.878 120.488 164.93 120.3 165.036C120.115 165.141 119.971 165.294 119.865 165.496C119.763 165.695 119.711 165.935 119.708 166.216ZM131.092 170.128C130.43 170.128 129.858 169.987 129.375 169.706C128.895 169.422 128.524 169.027 128.262 168.521C128.001 168.013 127.87 167.423 127.87 166.753C127.87 166.077 128.001 165.486 128.262 164.98C128.524 164.472 128.895 164.077 129.375 163.795C129.858 163.511 130.43 163.369 131.092 163.369C131.754 163.369 132.325 163.511 132.805 163.795C133.288 164.077 133.66 164.472 133.922 164.98C134.183 165.486 134.314 166.077 134.314 166.753C134.314 167.423 134.183 168.013 133.922 168.521C133.66 169.027 133.288 169.422 132.805 169.706C132.325 169.987 131.754 170.128 131.092 170.128ZM131.1 168.722C131.402 168.722 131.653 168.636 131.855 168.466C132.056 168.293 132.208 168.057 132.311 167.759C132.416 167.46 132.468 167.121 132.468 166.74C132.468 166.359 132.416 166.02 132.311 165.722C132.208 165.423 132.056 165.187 131.855 165.014C131.653 164.841 131.402 164.754 131.1 164.754C130.797 164.754 130.541 164.841 130.333 165.014C130.129 165.187 129.974 165.423 129.869 165.722C129.767 166.02 129.716 166.359 129.716 166.74C129.716 167.121 129.767 167.46 129.869 167.759C129.974 168.057 130.129 168.293 130.333 168.466C130.541 168.636 130.797 168.722 131.1 168.722ZM138.975 163.455V164.818H135.034V163.455H138.975ZM135.929 161.886H137.744V167.989C137.744 168.156 137.77 168.287 137.821 168.381C137.872 168.472 137.943 168.536 138.034 168.572C138.127 168.609 138.235 168.628 138.358 168.628C138.443 168.628 138.528 168.621 138.613 168.607C138.699 168.589 138.764 168.577 138.809 168.568L139.095 169.919C139.004 169.947 138.876 169.98 138.711 170.017C138.547 170.057 138.346 170.081 138.11 170.089C137.673 170.107 137.289 170.048 136.96 169.915C136.633 169.781 136.379 169.574 136.197 169.293C136.015 169.011 135.926 168.656 135.929 168.227V161.886ZM140.158 170V163.455H141.918V164.597H141.986C142.105 164.19 142.306 163.884 142.587 163.676C142.868 163.466 143.192 163.361 143.559 163.361C143.65 163.361 143.748 163.366 143.853 163.378C143.958 163.389 144.05 163.405 144.13 163.425V165.036C144.044 165.01 143.926 164.987 143.776 164.967C143.625 164.947 143.488 164.938 143.363 164.938C143.096 164.938 142.857 164.996 142.647 165.112C142.439 165.226 142.275 165.385 142.152 165.589C142.033 165.794 141.973 166.03 141.973 166.297V170H140.158ZM147.721 170.128C147.059 170.128 146.487 169.987 146.004 169.706C145.523 169.422 145.153 169.027 144.891 168.521C144.63 168.013 144.499 167.423 144.499 166.753C144.499 166.077 144.63 165.486 144.891 164.98C145.153 164.472 145.523 164.077 146.004 163.795C146.487 163.511 147.059 163.369 147.721 163.369C148.383 163.369 148.954 163.511 149.434 163.795C149.917 164.077 150.289 164.472 150.55 164.98C150.812 165.486 150.942 166.077 150.942 166.753C150.942 167.423 150.812 168.013 150.55 168.521C150.289 169.027 149.917 169.422 149.434 169.706C148.954 169.987 148.383 170.128 147.721 170.128ZM147.729 168.722C148.031 168.722 148.282 168.636 148.484 168.466C148.685 168.293 148.837 168.057 148.94 167.759C149.045 167.46 149.097 167.121 149.097 166.74C149.097 166.359 149.045 166.02 148.94 165.722C148.837 165.423 148.685 165.187 148.484 165.014C148.282 164.841 148.031 164.754 147.729 164.754C147.425 164.754 147.17 164.841 146.962 165.014C146.758 165.187 146.603 165.423 146.498 165.722C146.396 166.02 146.344 166.359 146.344 166.74C146.344 167.121 146.396 167.46 146.498 167.759C146.603 168.057 146.758 168.293 146.962 168.466C147.17 168.636 147.425 168.722 147.729 168.722ZM157.569 165.321L155.907 165.423C155.879 165.281 155.817 165.153 155.724 165.04C155.63 164.923 155.506 164.831 155.353 164.763C155.202 164.692 155.022 164.656 154.812 164.656C154.531 164.656 154.293 164.716 154.1 164.835C153.907 164.952 153.81 165.108 153.81 165.304C153.81 165.46 153.873 165.592 153.998 165.7C154.123 165.808 154.337 165.895 154.641 165.96L155.826 166.199C156.462 166.33 156.937 166.54 157.249 166.83C157.562 167.119 157.718 167.5 157.718 167.972C157.718 168.401 157.592 168.777 157.339 169.101C157.089 169.425 156.745 169.678 156.308 169.859C155.873 170.038 155.371 170.128 154.803 170.128C153.937 170.128 153.246 169.947 152.732 169.587C152.221 169.223 151.921 168.729 151.833 168.104L153.619 168.01C153.673 168.274 153.803 168.476 154.011 168.615C154.218 168.751 154.484 168.82 154.808 168.82C155.126 168.82 155.381 168.759 155.575 168.636C155.771 168.511 155.87 168.351 155.873 168.155C155.87 167.99 155.8 167.855 155.664 167.75C155.528 167.642 155.317 167.56 155.033 167.503L153.9 167.277C153.261 167.149 152.785 166.928 152.472 166.612C152.163 166.297 152.008 165.895 152.008 165.406C152.008 164.986 152.121 164.624 152.349 164.32C152.579 164.016 152.901 163.781 153.316 163.616C153.734 163.452 154.222 163.369 154.782 163.369C155.609 163.369 156.259 163.544 156.734 163.893C157.211 164.243 157.489 164.719 157.569 165.321ZM164.05 170.107C163.553 170.107 163.103 169.979 162.7 169.723C162.299 169.464 161.981 169.085 161.745 168.585C161.512 168.082 161.396 167.466 161.396 166.736C161.396 165.986 161.516 165.362 161.758 164.865C161.999 164.365 162.32 163.991 162.721 163.744C163.124 163.494 163.566 163.369 164.046 163.369C164.413 163.369 164.718 163.432 164.962 163.557C165.21 163.679 165.408 163.832 165.559 164.017C165.712 164.199 165.829 164.378 165.908 164.554H165.964V161.273H167.775V170H165.985V168.952H165.908C165.823 169.134 165.702 169.314 165.546 169.493C165.393 169.669 165.192 169.815 164.945 169.932C164.701 170.048 164.403 170.107 164.05 170.107ZM164.626 168.662C164.918 168.662 165.165 168.582 165.367 168.423C165.572 168.261 165.728 168.036 165.836 167.746C165.947 167.456 166.002 167.116 166.002 166.727C166.002 166.338 165.948 166 165.84 165.713C165.732 165.426 165.576 165.205 165.371 165.048C165.167 164.892 164.918 164.814 164.626 164.814C164.327 164.814 164.076 164.895 163.871 165.057C163.667 165.219 163.512 165.443 163.407 165.73C163.302 166.017 163.249 166.349 163.249 166.727C163.249 167.108 163.302 167.445 163.407 167.737C163.515 168.027 163.67 168.254 163.871 168.419C164.076 168.581 164.327 168.662 164.626 168.662ZM169.267 170V163.455H171.083V170H169.267ZM170.179 162.611C169.909 162.611 169.678 162.521 169.485 162.342C169.294 162.161 169.199 161.943 169.199 161.69C169.199 161.44 169.294 161.226 169.485 161.047C169.678 160.865 169.909 160.774 170.179 160.774C170.449 160.774 170.679 160.865 170.87 161.047C171.063 161.226 171.159 161.44 171.159 161.69C171.159 161.943 171.063 162.161 170.87 162.342C170.679 162.521 170.449 162.611 170.179 162.611ZM177.983 165.321L176.321 165.423C176.293 165.281 176.232 165.153 176.138 165.04C176.044 164.923 175.92 164.831 175.767 164.763C175.616 164.692 175.436 164.656 175.226 164.656C174.945 164.656 174.707 164.716 174.514 164.835C174.321 164.952 174.224 165.108 174.224 165.304C174.224 165.46 174.287 165.592 174.412 165.7C174.537 165.808 174.751 165.895 175.055 165.96L176.24 166.199C176.876 166.33 177.351 166.54 177.663 166.83C177.976 167.119 178.132 167.5 178.132 167.972C178.132 168.401 178.006 168.777 177.753 169.101C177.503 169.425 177.159 169.678 176.722 169.859C176.287 170.038 175.786 170.128 175.217 170.128C174.351 170.128 173.661 169.947 173.146 169.587C172.635 169.223 172.335 168.729 172.247 168.104L174.033 168.01C174.087 168.274 174.217 168.476 174.425 168.615C174.632 168.751 174.898 168.82 175.222 168.82C175.54 168.82 175.795 168.759 175.989 168.636C176.185 168.511 176.284 168.351 176.287 168.155C176.284 167.99 176.214 167.855 176.078 167.75C175.942 167.642 175.732 167.56 175.447 167.503L174.314 167.277C173.675 167.149 173.199 166.928 172.886 166.612C172.577 166.297 172.422 165.895 172.422 165.406C172.422 164.986 172.536 164.624 172.763 164.32C172.993 164.016 173.315 163.781 173.73 163.616C174.148 163.452 174.636 163.369 175.196 163.369C176.023 163.369 176.673 163.544 177.148 163.893C177.625 164.243 177.903 164.719 177.983 165.321ZM179.275 172.455V163.455H181.065V164.554H181.146C181.225 164.378 181.341 164.199 181.491 164.017C181.645 163.832 181.843 163.679 182.088 163.557C182.335 163.432 182.642 163.369 183.008 163.369C183.485 163.369 183.926 163.494 184.329 163.744C184.733 163.991 185.055 164.365 185.297 164.865C185.538 165.362 185.659 165.986 185.659 166.736C185.659 167.466 185.541 168.082 185.305 168.585C185.072 169.085 184.754 169.464 184.35 169.723C183.95 169.979 183.501 170.107 183.004 170.107C182.652 170.107 182.352 170.048 182.105 169.932C181.86 169.815 181.66 169.669 181.504 169.493C181.348 169.314 181.228 169.134 181.146 168.952H181.091V172.455H179.275ZM181.052 166.727C181.052 167.116 181.106 167.456 181.214 167.746C181.322 168.036 181.478 168.261 181.683 168.423C181.887 168.582 182.136 168.662 182.429 168.662C182.724 168.662 182.974 168.581 183.179 168.419C183.383 168.254 183.538 168.027 183.643 167.737C183.751 167.445 183.805 167.108 183.805 166.727C183.805 166.349 183.752 166.017 183.647 165.73C183.542 165.443 183.387 165.219 183.183 165.057C182.978 164.895 182.727 164.814 182.429 164.814C182.133 164.814 181.883 164.892 181.679 165.048C181.477 165.205 181.322 165.426 181.214 165.713C181.106 166 181.052 166.338 181.052 166.727ZM189.826 170.128C189.164 170.128 188.592 169.987 188.109 169.706C187.629 169.422 187.258 169.027 186.997 168.521C186.735 168.013 186.605 167.423 186.605 166.753C186.605 166.077 186.735 165.486 186.997 164.98C187.258 164.472 187.629 164.077 188.109 163.795C188.592 163.511 189.164 163.369 189.826 163.369C190.488 163.369 191.059 163.511 191.539 163.795C192.022 164.077 192.395 164.472 192.656 164.98C192.917 165.486 193.048 166.077 193.048 166.753C193.048 167.423 192.917 168.013 192.656 168.521C192.395 169.027 192.022 169.422 191.539 169.706C191.059 169.987 190.488 170.128 189.826 170.128ZM189.835 168.722C190.136 168.722 190.387 168.636 190.589 168.466C190.791 168.293 190.943 168.057 191.045 167.759C191.15 167.46 191.203 167.121 191.203 166.74C191.203 166.359 191.15 166.02 191.045 165.722C190.943 165.423 190.791 165.187 190.589 165.014C190.387 164.841 190.136 164.754 189.835 164.754C189.531 164.754 189.275 164.841 189.068 165.014C188.863 165.187 188.708 165.423 188.603 165.722C188.501 166.02 188.45 166.359 188.45 166.74C188.45 167.121 188.501 167.46 188.603 167.759C188.708 168.057 188.863 168.293 189.068 168.466C189.275 168.636 189.531 168.722 189.835 168.722ZM199.674 165.321L198.012 165.423C197.984 165.281 197.923 165.153 197.829 165.04C197.735 164.923 197.612 164.831 197.458 164.763C197.308 164.692 197.127 164.656 196.917 164.656C196.636 164.656 196.399 164.716 196.206 164.835C196.012 164.952 195.916 165.108 195.916 165.304C195.916 165.46 195.978 165.592 196.103 165.7C196.228 165.808 196.443 165.895 196.747 165.96L197.931 166.199C198.568 166.33 199.042 166.54 199.355 166.83C199.667 167.119 199.824 167.5 199.824 167.972C199.824 168.401 199.697 168.777 199.444 169.101C199.194 169.425 198.85 169.678 198.413 169.859C197.978 170.038 197.477 170.128 196.909 170.128C196.042 170.128 195.352 169.947 194.838 169.587C194.326 169.223 194.027 168.729 193.939 168.104L195.724 168.01C195.778 168.274 195.909 168.476 196.116 168.615C196.324 168.751 196.589 168.82 196.913 168.82C197.231 168.82 197.487 168.759 197.68 168.636C197.876 168.511 197.975 168.351 197.978 168.155C197.975 167.99 197.906 167.855 197.77 167.75C197.633 167.642 197.423 167.56 197.139 167.503L196.005 167.277C195.366 167.149 194.89 166.928 194.578 166.612C194.268 166.297 194.113 165.895 194.113 165.406C194.113 164.986 194.227 164.624 194.454 164.32C194.684 164.016 195.007 163.781 195.422 163.616C195.839 163.452 196.328 163.369 196.887 163.369C197.714 163.369 198.365 163.544 198.839 163.893C199.316 164.243 199.595 164.719 199.674 165.321ZM200.967 170V163.455H202.782V170H200.967ZM201.879 162.611C201.609 162.611 201.377 162.521 201.184 162.342C200.994 162.161 200.898 161.943 200.898 161.69C200.898 161.44 200.994 161.226 201.184 161.047C201.377 160.865 201.609 160.774 201.879 160.774C202.148 160.774 202.379 160.865 202.569 161.047C202.762 161.226 202.859 161.44 202.859 161.69C202.859 161.943 202.762 162.161 202.569 162.342C202.379 162.521 202.148 162.611 201.879 162.611ZM207.718 163.455V164.818H203.776V163.455H207.718ZM204.671 161.886H206.486V167.989C206.486 168.156 206.512 168.287 206.563 168.381C206.614 168.472 206.685 168.536 206.776 168.572C206.87 168.609 206.978 168.628 207.1 168.628C207.185 168.628 207.27 168.621 207.355 168.607C207.441 168.589 207.506 168.577 207.551 168.568L207.837 169.919C207.746 169.947 207.618 169.98 207.453 170.017C207.289 170.057 207.088 170.081 206.853 170.089C206.415 170.107 206.032 170.048 205.702 169.915C205.375 169.781 205.121 169.574 204.939 169.293C204.757 169.011 204.668 168.656 204.671 168.227V161.886ZM208.9 170V163.455H210.716V170H208.9ZM209.812 162.611C209.542 162.611 209.311 162.521 209.118 162.342C208.927 162.161 208.832 161.943 208.832 161.69C208.832 161.44 208.927 161.226 209.118 161.047C209.311 160.865 209.542 160.774 209.812 160.774C210.082 160.774 210.312 160.865 210.502 161.047C210.696 161.226 210.792 161.44 210.792 161.69C210.792 161.943 210.696 162.161 210.502 162.342C210.312 162.521 210.082 162.611 209.812 162.611ZM218.272 163.455L215.984 170H213.938L211.65 163.455H213.567L214.927 168.138H214.995L216.35 163.455H218.272ZM221.947 170.128C221.286 170.128 220.713 169.987 220.23 169.706C219.75 169.422 219.379 169.027 219.118 168.521C218.857 168.013 218.726 167.423 218.726 166.753C218.726 166.077 218.857 165.486 219.118 164.98C219.379 164.472 219.75 164.077 220.23 163.795C220.713 163.511 221.286 163.369 221.947 163.369C222.609 163.369 223.18 163.511 223.661 163.795C224.143 164.077 224.516 164.472 224.777 164.98C225.038 165.486 225.169 166.077 225.169 166.753C225.169 167.423 225.038 168.013 224.777 168.521C224.516 169.027 224.143 169.422 223.661 169.706C223.18 169.987 222.609 170.128 221.947 170.128ZM221.956 168.722C222.257 168.722 222.509 168.636 222.71 168.466C222.912 168.293 223.064 168.057 223.166 167.759C223.271 167.46 223.324 167.121 223.324 166.74C223.324 166.359 223.271 166.02 223.166 165.722C223.064 165.423 222.912 165.187 222.71 165.014C222.509 164.841 222.257 164.754 221.956 164.754C221.652 164.754 221.396 164.841 221.189 165.014C220.984 165.187 220.83 165.423 220.724 165.722C220.622 166.02 220.571 166.359 220.571 166.74C220.571 167.121 220.622 167.46 220.724 167.759C220.83 168.057 220.984 168.293 221.189 168.466C221.396 168.636 221.652 168.722 221.956 168.722ZM231.795 165.321L230.134 165.423C230.105 165.281 230.044 165.153 229.95 165.04C229.857 164.923 229.733 164.831 229.58 164.763C229.429 164.692 229.249 164.656 229.038 164.656C228.757 164.656 228.52 164.716 228.327 164.835C228.134 164.952 228.037 165.108 228.037 165.304C228.037 165.46 228.099 165.592 228.224 165.7C228.349 165.808 228.564 165.895 228.868 165.96L230.053 166.199C230.689 166.33 231.163 166.54 231.476 166.83C231.788 167.119 231.945 167.5 231.945 167.972C231.945 168.401 231.818 168.777 231.565 169.101C231.315 169.425 230.972 169.678 230.534 169.859C230.099 170.038 229.598 170.128 229.03 170.128C228.163 170.128 227.473 169.947 226.959 169.587C226.447 169.223 226.148 168.729 226.06 168.104L227.845 168.01C227.899 168.274 228.03 168.476 228.237 168.615C228.445 168.751 228.71 168.82 229.034 168.82C229.352 168.82 229.608 168.759 229.801 168.636C229.997 168.511 230.097 168.351 230.099 168.155C230.097 167.99 230.027 167.855 229.891 167.75C229.754 167.642 229.544 167.56 229.26 167.503L228.126 167.277C227.487 167.149 227.011 166.928 226.699 166.612C226.389 166.297 226.234 165.895 226.234 165.406C226.234 164.986 226.348 164.624 226.575 164.32C226.805 164.016 227.128 163.781 227.543 163.616C227.96 163.452 228.449 163.369 229.009 163.369C229.835 163.369 230.486 163.544 230.96 163.893C231.438 164.243 231.716 164.719 231.795 165.321Z" fill="#212121"/>
<path d="M332 200H28C21.3726 200 16 205.373 16 212V244C16 250.627 21.3726 256 28 256H332C338.627 256 344 250.627 344 244V212C344 205.373 338.627 200 332 200Z" fill="white" stroke="#D0D0D0"/>
<path d="M28.7074 234V232.67L31.8139 229.794C32.0781 229.538 32.2997 229.308 32.4787 229.104C32.6605 228.899 32.7983 228.699 32.892 228.503C32.9858 228.304 33.0327 228.089 33.0327 227.859C33.0327 227.604 32.9744 227.384 32.858 227.199C32.7415 227.011 32.5824 226.868 32.3807 226.768C32.179 226.666 31.9503 226.615 31.6946 226.615C31.4276 226.615 31.1946 226.669 30.9957 226.777C30.7969 226.885 30.6435 227.04 30.5355 227.241C30.4276 227.443 30.3736 227.683 30.3736 227.962H28.6222C28.6222 227.391 28.7514 226.895 29.0099 226.474C29.2685 226.054 29.6307 225.729 30.0966 225.499C30.5625 225.268 31.0994 225.153 31.7074 225.153C32.3324 225.153 32.8764 225.264 33.3395 225.486C33.8054 225.705 34.1676 226.009 34.4261 226.398C34.6847 226.787 34.8139 227.233 34.8139 227.736C34.8139 228.065 34.7486 228.391 34.6179 228.712C34.4901 229.033 34.2614 229.389 33.9318 229.781C33.6023 230.17 33.1378 230.638 32.5384 231.183L31.2642 232.432V232.491H34.929V234H28.7074ZM36.3171 234V225.273H42.0955V226.794H38.1623V228.874H41.712V230.395H38.1623V234H36.3171ZM43.7511 234H41.7738L44.7866 225.273H47.1644L50.1729 234H48.1957L46.0096 227.267H45.9414L43.7511 234ZM43.6275 230.57H48.2979V232.01H43.6275V230.57ZM54.3672 230.501C54.3672 229.445 54.5078 228.472 54.7891 227.582C55.0732 226.693 55.5064 225.869 56.0888 225.111H57.8232C57.6016 225.392 57.3956 225.736 57.2053 226.142C57.0149 226.545 56.8487 226.989 56.7067 227.472C56.5646 227.955 56.4538 228.455 56.3743 228.972C56.2947 229.486 56.255 229.996 56.255 230.501C56.255 231.175 56.3232 231.855 56.4595 232.543C56.5987 233.227 56.7862 233.864 57.022 234.452C57.2607 235.04 57.5277 235.521 57.8232 235.896H56.0888C55.5064 235.138 55.0732 234.314 54.7891 233.425C54.5078 232.536 54.3672 231.561 54.3672 230.501ZM58.8768 236.455V227.455H60.6665V228.554H60.7475C60.8271 228.378 60.9421 228.199 61.0927 228.017C61.2461 227.832 61.445 227.679 61.6893 227.557C61.9364 227.432 62.2433 227.369 62.6097 227.369C63.087 227.369 63.5273 227.494 63.9308 227.744C64.3342 227.991 64.6566 228.365 64.8981 228.865C65.1396 229.362 65.2603 229.986 65.2603 230.736C65.2603 231.466 65.1424 232.082 64.9066 232.585C64.6737 233.085 64.3555 233.464 63.9521 233.723C63.5515 233.979 63.1026 234.107 62.6055 234.107C62.2532 234.107 61.9535 234.048 61.7063 233.932C61.462 233.815 61.2617 233.669 61.1055 233.493C60.9492 233.314 60.8299 233.134 60.7475 232.952H60.6921V236.455H58.8768ZM60.6538 230.727C60.6538 231.116 60.7077 231.456 60.8157 231.746C60.9237 232.036 61.0799 232.261 61.2844 232.423C61.489 232.582 61.7376 232.662 62.0302 232.662C62.3256 232.662 62.5756 232.581 62.7802 232.419C62.9847 232.254 63.1396 232.027 63.2447 231.737C63.3526 231.445 63.4066 231.108 63.4066 230.727C63.4066 230.349 63.354 230.017 63.2489 229.73C63.1438 229.443 62.989 229.219 62.7844 229.057C62.5799 228.895 62.3285 228.814 62.0302 228.814C61.7347 228.814 61.4847 228.892 61.2802 229.048C61.0785 229.205 60.9237 229.426 60.8157 229.713C60.7077 230 60.6538 230.338 60.6538 230.727ZM66.4705 234V227.455H68.2305V228.597H68.2987C68.418 228.19 68.6183 227.884 68.8995 227.676C69.1808 227.466 69.5046 227.361 69.8711 227.361C69.962 227.361 70.06 227.366 70.1651 227.378C70.2702 227.389 70.3626 227.405 70.4421 227.425V229.036C70.3569 229.01 70.239 228.987 70.0884 228.967C69.9379 228.947 69.8001 228.938 69.6751 228.938C69.408 228.938 69.1694 228.996 68.9592 229.112C68.7518 229.226 68.587 229.385 68.4648 229.589C68.3455 229.794 68.2859 230.03 68.2859 230.297V234H66.4705ZM74.0334 234.128C73.3714 234.128 72.799 233.987 72.3161 233.706C71.8359 233.422 71.4652 233.027 71.2038 232.521C70.9425 232.013 70.8118 231.423 70.8118 230.753C70.8118 230.077 70.9425 229.486 71.2038 228.98C71.4652 228.472 71.8359 228.077 72.3161 227.795C72.799 227.511 73.3714 227.369 74.0334 227.369C74.6953 227.369 75.2663 227.511 75.7464 227.795C76.2294 228.077 76.6016 228.472 76.8629 228.98C77.1243 229.486 77.255 230.077 77.255 230.753C77.255 231.423 77.1243 232.013 76.8629 232.521C76.6016 233.027 76.2294 233.422 75.7464 233.706C75.2663 233.987 74.6953 234.128 74.0334 234.128ZM74.0419 232.722C74.343 232.722 74.5945 232.636 74.7962 232.466C74.9979 232.293 75.1499 232.057 75.2521 231.759C75.3572 231.46 75.4098 231.121 75.4098 230.74C75.4098 230.359 75.3572 230.02 75.2521 229.722C75.1499 229.423 74.9979 229.187 74.7962 229.014C74.5945 228.841 74.343 228.754 74.0419 228.754C73.7379 228.754 73.4822 228.841 73.2749 229.014C73.0703 229.187 72.9155 229.423 72.8104 229.722C72.7081 230.02 72.657 230.359 72.657 230.74C72.657 231.121 72.7081 231.46 72.8104 231.759C72.9155 232.057 73.0703 232.293 73.2749 232.466C73.4822 232.636 73.7379 232.722 74.0419 232.722ZM73.3814 226.611L74.2848 224.672H75.9638L74.6641 226.611H73.3814ZM79.718 227.455L80.9197 229.743L82.1513 227.455H84.0135L82.1172 230.727L84.0646 234H82.2109L80.9197 231.737L79.6499 234H77.7749L79.718 230.727L77.843 227.455H79.718ZM85.0916 234V227.455H86.907V234H85.0916ZM86.0036 226.611C85.7337 226.611 85.5021 226.521 85.3089 226.342C85.1186 226.161 85.0234 225.943 85.0234 225.69C85.0234 225.44 85.1186 225.226 85.3089 225.047C85.5021 224.865 85.7337 224.774 86.0036 224.774C86.2734 224.774 86.5036 224.865 86.6939 225.047C86.8871 225.226 86.9837 225.44 86.9837 225.69C86.9837 225.943 86.8871 226.161 86.6939 226.342C86.5036 226.521 86.2734 226.611 86.0036 226.611ZM88.3612 234V227.455H90.0913V228.609H90.168C90.3043 228.226 90.5316 227.923 90.8498 227.702C91.168 227.48 91.5487 227.369 91.9918 227.369C92.4407 227.369 92.8228 227.482 93.1381 227.706C93.4535 227.928 93.6637 228.229 93.7688 228.609H93.837C93.9705 228.234 94.212 227.935 94.5614 227.71C94.9137 227.483 95.3299 227.369 95.81 227.369C96.4208 227.369 96.9165 227.564 97.2972 227.953C97.6808 228.339 97.8725 228.888 97.8725 229.598V234H96.0614V229.956C96.0614 229.592 95.9648 229.32 95.7717 229.138C95.5785 228.956 95.337 228.865 95.0472 228.865C94.7177 228.865 94.4606 228.97 94.2759 229.18C94.0913 229.388 93.9989 229.662 93.9989 230.003V234H92.239V229.918C92.239 229.597 92.1467 229.341 91.962 229.151C91.7802 228.96 91.5401 228.865 91.2418 228.865C91.0401 228.865 90.8583 228.916 90.6964 229.018C90.5373 229.118 90.4109 229.259 90.3171 229.44C90.2234 229.619 90.1765 229.83 90.1765 230.071V234H88.3612ZM101.173 234.124C100.755 234.124 100.383 234.051 100.056 233.906C99.7298 233.759 99.4712 233.541 99.2809 233.254C99.0934 232.964 98.9996 232.604 98.9996 232.172C98.9996 231.808 99.0664 231.503 99.1999 231.256C99.3335 231.009 99.5153 230.81 99.7454 230.659C99.9755 230.509 100.237 230.395 100.529 230.318C100.825 230.241 101.135 230.188 101.458 230.156C101.839 230.116 102.146 230.08 102.379 230.045C102.612 230.009 102.781 229.955 102.886 229.884C102.991 229.812 103.044 229.707 103.044 229.568V229.543C103.044 229.273 102.958 229.064 102.788 228.916C102.62 228.768 102.382 228.695 102.072 228.695C101.745 228.695 101.485 228.767 101.292 228.912C101.099 229.054 100.971 229.233 100.909 229.449L99.2298 229.312C99.315 228.915 99.4826 228.571 99.7326 228.281C99.9826 227.989 100.305 227.764 100.7 227.608C101.098 227.449 101.558 227.369 102.081 227.369C102.444 227.369 102.792 227.412 103.125 227.497C103.46 227.582 103.757 227.714 104.015 227.893C104.277 228.072 104.483 228.303 104.633 228.584C104.784 228.862 104.859 229.196 104.859 229.585V234H103.137V233.092H103.086C102.981 233.297 102.841 233.477 102.664 233.634C102.488 233.787 102.277 233.908 102.029 233.996C101.782 234.081 101.497 234.124 101.173 234.124ZM101.693 232.871C101.96 232.871 102.196 232.818 102.4 232.713C102.605 232.605 102.765 232.46 102.882 232.278C102.998 232.097 103.056 231.891 103.056 231.661V230.966C103 231.003 102.922 231.037 102.822 231.068C102.725 231.097 102.616 231.124 102.494 231.149C102.372 231.172 102.25 231.193 102.127 231.213C102.005 231.23 101.895 231.246 101.795 231.26C101.582 231.291 101.396 231.341 101.237 231.409C101.078 231.477 100.954 231.57 100.866 231.686C100.778 231.8 100.734 231.942 100.734 232.112C100.734 232.359 100.824 232.548 101.002 232.679C101.184 232.807 101.414 232.871 101.693 232.871ZM106.267 234V227.455H107.998V228.609H108.074C108.211 228.226 108.438 227.923 108.756 227.702C109.074 227.48 109.455 227.369 109.898 227.369C110.347 227.369 110.729 227.482 111.044 227.706C111.36 227.928 111.57 228.229 111.675 228.609H111.743C111.877 228.234 112.118 227.935 112.468 227.71C112.82 227.483 113.236 227.369 113.716 227.369C114.327 227.369 114.823 227.564 115.203 227.953C115.587 228.339 115.779 228.888 115.779 229.598V234H113.968V229.956C113.968 229.592 113.871 229.32 113.678 229.138C113.485 228.956 113.243 228.865 112.953 228.865C112.624 228.865 112.367 228.97 112.182 229.18C111.998 229.388 111.905 229.662 111.905 230.003V234H110.145V229.918C110.145 229.597 110.053 229.341 109.868 229.151C109.686 228.96 109.446 228.865 109.148 228.865C108.946 228.865 108.765 228.916 108.603 229.018C108.444 229.118 108.317 229.259 108.223 229.44C108.13 229.619 108.083 229.83 108.083 230.071V234H106.267ZM120.196 234.128C119.522 234.128 118.943 233.991 118.457 233.719C117.974 233.443 117.602 233.054 117.341 232.551C117.079 232.045 116.949 231.447 116.949 230.757C116.949 230.084 117.079 229.493 117.341 228.984C117.602 228.476 117.97 228.08 118.444 227.795C118.922 227.511 119.481 227.369 120.123 227.369C120.555 227.369 120.957 227.439 121.329 227.578C121.704 227.714 122.031 227.92 122.309 228.196C122.591 228.472 122.809 228.818 122.966 229.236C123.122 229.651 123.2 230.136 123.2 230.693V231.192H117.673V230.067H121.491C121.491 229.805 121.434 229.574 121.321 229.372C121.207 229.17 121.049 229.013 120.848 228.899C120.649 228.783 120.417 228.724 120.153 228.724C119.877 228.724 119.633 228.788 119.42 228.916C119.21 229.041 119.045 229.21 118.926 229.423C118.806 229.634 118.745 229.868 118.743 230.126V231.196C118.743 231.52 118.802 231.8 118.922 232.036C119.044 232.271 119.216 232.453 119.437 232.581C119.659 232.709 119.922 232.773 120.225 232.773C120.427 232.773 120.612 232.744 120.779 232.688C120.947 232.631 121.091 232.545 121.21 232.432C121.329 232.318 121.42 232.179 121.483 232.014L123.162 232.125C123.076 232.528 122.902 232.881 122.637 233.182C122.376 233.48 122.038 233.713 121.623 233.881C121.211 234.045 120.735 234.128 120.196 234.128ZM126.2 230.216V234H124.385V227.455H126.115V228.609H126.191C126.336 228.229 126.579 227.928 126.92 227.706C127.261 227.482 127.674 227.369 128.16 227.369C128.615 227.369 129.011 227.469 129.349 227.668C129.687 227.866 129.95 228.151 130.137 228.52C130.325 228.886 130.419 229.324 130.419 229.832V234H128.603V230.156C128.606 229.756 128.504 229.443 128.297 229.219C128.089 228.991 127.804 228.878 127.44 228.878C127.196 228.878 126.98 228.93 126.792 229.036C126.608 229.141 126.463 229.294 126.358 229.496C126.255 229.695 126.203 229.935 126.2 230.216ZM135.331 227.455V228.818H131.389V227.455H135.331ZM132.284 225.886H134.099V231.989C134.099 232.156 134.125 232.287 134.176 232.381C134.227 232.472 134.298 232.536 134.389 232.572C134.483 232.609 134.591 232.628 134.713 232.628C134.798 232.628 134.884 232.621 134.969 232.607C135.054 232.589 135.119 232.577 135.165 232.568L135.45 233.919C135.359 233.947 135.232 233.98 135.067 234.017C134.902 234.057 134.702 234.081 134.466 234.089C134.028 234.107 133.645 234.048 133.315 233.915C132.989 233.781 132.734 233.574 132.553 233.293C132.371 233.011 132.281 232.656 132.284 232.227V225.886ZM139.426 234.128C138.753 234.128 138.173 233.991 137.688 233.719C137.205 233.443 136.832 233.054 136.571 232.551C136.31 232.045 136.179 231.447 136.179 230.757C136.179 230.084 136.31 229.493 136.571 228.984C136.832 228.476 137.2 228.08 137.675 227.795C138.152 227.511 138.712 227.369 139.354 227.369C139.786 227.369 140.188 227.439 140.56 227.578C140.935 227.714 141.261 227.92 141.54 228.196C141.821 228.472 142.04 228.818 142.196 229.236C142.352 229.651 142.43 230.136 142.43 230.693V231.192H136.903V230.067H140.722C140.722 229.805 140.665 229.574 140.551 229.372C140.438 229.17 140.28 229.013 140.078 228.899C139.879 228.783 139.648 228.724 139.384 228.724C139.108 228.724 138.864 228.788 138.651 228.916C138.44 229.041 138.276 229.21 138.156 229.423C138.037 229.634 137.976 229.868 137.973 230.126V231.196C137.973 231.52 138.033 231.8 138.152 232.036C138.274 232.271 138.446 232.453 138.668 232.581C138.889 232.709 139.152 232.773 139.456 232.773C139.658 232.773 139.842 232.744 140.01 232.688C140.178 232.631 140.321 232.545 140.44 232.432C140.56 232.318 140.651 232.179 140.713 232.014L142.392 232.125C142.307 232.528 142.132 232.881 141.868 233.182C141.607 233.48 141.268 233.713 140.854 233.881C140.442 234.045 139.966 234.128 139.426 234.128ZM146.675 230.501C146.675 231.561 146.533 232.536 146.249 233.425C145.967 234.314 145.536 235.138 144.953 235.896H143.219C143.44 235.615 143.646 235.271 143.837 234.865C144.027 234.459 144.193 234.016 144.335 233.536C144.477 233.053 144.588 232.553 144.668 232.036C144.747 231.518 144.787 231.007 144.787 230.501C144.787 229.828 144.717 229.149 144.578 228.464C144.442 227.777 144.254 227.141 144.016 226.555C143.78 225.967 143.514 225.486 143.219 225.111H144.953C145.536 225.869 145.967 226.693 146.249 227.582C146.533 228.472 146.675 229.445 146.675 230.501Z" fill="#212121"/>
<path d="M360 736H0V800H360V736Z" fill="white" stroke="#D0D0D0"/>
<path d="M36 766C41.5228 766 46 761.523 46 756C46 750.477 41.5228 746 36 746C30.4772 746 26 750.477 26 756C26 761.523 30.4772 766 36 766Z" fill="#E0E0E0" stroke="#BDBDBD"/>
<path d="M25.3639 774.727V782H24.4832V774.727H25.3639ZM27.8541 778.719V782H27.0161V776.545H27.8257V777.398H27.8968C28.0246 777.121 28.2187 776.898 28.4791 776.73C28.7396 776.56 29.0757 776.474 29.4877 776.474C29.857 776.474 30.1801 776.55 30.4571 776.702C30.7341 776.851 30.9495 777.078 31.1034 777.384C31.2573 777.687 31.3343 778.07 31.3343 778.534V782H30.4962V778.591C30.4962 778.162 30.3849 777.829 30.1624 777.589C29.9398 777.348 29.6344 777.227 29.2462 777.227C28.9787 777.227 28.7396 777.285 28.5289 777.401C28.3205 777.517 28.156 777.687 28.0352 777.909C27.9145 778.132 27.8541 778.402 27.8541 778.719ZM32.8657 782V776.545H33.7037V782H32.8657ZM33.2918 775.636C33.1285 775.636 32.9876 775.581 32.8692 775.469C32.7532 775.358 32.6952 775.224 32.6952 775.068C32.6952 774.912 32.7532 774.778 32.8692 774.667C32.9876 774.556 33.1285 774.5 33.2918 774.5C33.4552 774.5 33.5948 774.556 33.7108 774.667C33.8292 774.778 33.8884 774.912 33.8884 775.068C33.8884 775.224 33.8292 775.358 33.7108 775.469C33.5948 775.581 33.4552 775.636 33.2918 775.636ZM37.4546 782.114C36.9433 782.114 36.5029 781.993 36.1336 781.751C35.7643 781.51 35.4802 781.177 35.2813 780.754C35.0825 780.33 34.983 779.846 34.983 779.301C34.983 778.747 35.0848 778.258 35.2884 777.835C35.4944 777.408 35.7809 777.076 36.1478 776.837C36.5171 776.595 36.948 776.474 37.4404 776.474C37.824 776.474 38.1696 776.545 38.4774 776.688C38.7851 776.83 39.0373 777.028 39.2338 777.284C39.4302 777.54 39.5522 777.838 39.5995 778.179H38.7615C38.6975 777.93 38.5555 777.71 38.3353 777.518C38.1175 777.324 37.824 777.227 37.4546 777.227C37.1279 777.227 36.8415 777.312 36.5953 777.483C36.3514 777.651 36.1608 777.889 36.0235 778.197C35.8886 778.502 35.8211 778.861 35.8211 779.273C35.8211 779.694 35.8874 780.061 36.02 780.374C36.1549 780.686 36.3443 780.929 36.5882 781.102C36.8344 781.274 37.1232 781.361 37.4546 781.361C37.6724 781.361 37.8701 781.323 38.0477 781.247C38.2252 781.171 38.3756 781.062 38.4987 780.92C38.6218 780.778 38.7094 780.608 38.7615 780.409H39.5995C39.5522 780.731 39.435 781.021 39.248 781.279C39.0633 781.535 38.8183 781.738 38.5129 781.89C38.2098 782.039 37.8571 782.114 37.4546 782.114ZM40.8247 782V776.545H41.6627V782H40.8247ZM41.2508 775.636C41.0874 775.636 40.9466 775.581 40.8282 775.469C40.7122 775.358 40.6542 775.224 40.6542 775.068C40.6542 774.912 40.7122 774.778 40.8282 774.667C40.9466 774.556 41.0874 774.5 41.2508 774.5C41.4142 774.5 41.5538 774.556 41.6698 774.667C41.7882 774.778 41.8474 774.912 41.8474 775.068C41.8474 775.224 41.7882 775.358 41.6698 775.469C41.5538 775.581 41.4142 775.636 41.2508 775.636ZM45.4136 782.114C44.9212 782.114 44.4891 781.996 44.1175 781.762C43.7481 781.528 43.4593 781.2 43.251 780.778C43.045 780.357 42.942 779.865 42.942 779.301C42.942 778.733 43.045 778.237 43.251 777.813C43.4593 777.389 43.7481 777.06 44.1175 776.826C44.4891 776.592 44.9212 776.474 45.4136 776.474C45.906 776.474 46.3369 776.592 46.7062 776.826C47.0779 777.06 47.3667 777.389 47.5727 777.813C47.781 778.237 47.8852 778.733 47.8852 779.301C47.8852 779.865 47.781 780.357 47.5727 780.778C47.3667 781.2 47.0779 781.528 46.7062 781.762C46.3369 781.996 45.906 782.114 45.4136 782.114ZM45.4136 781.361C45.7877 781.361 46.0954 781.265 46.3369 781.073C46.5784 780.881 46.7571 780.629 46.8731 780.317C46.9891 780.004 47.0471 779.666 47.0471 779.301C47.0471 778.937 46.9891 778.597 46.8731 778.282C46.7571 777.967 46.5784 777.713 46.3369 777.518C46.0954 777.324 45.7877 777.227 45.4136 777.227C45.0396 777.227 44.7318 777.324 44.4903 777.518C44.2488 777.713 44.0701 777.967 43.9541 778.282C43.8381 778.597 43.7801 778.937 43.7801 779.301C43.7801 779.666 43.8381 780.004 43.9541 780.317C44.0701 780.629 44.2488 780.881 44.4903 781.073C44.7318 781.265 45.0396 781.361 45.4136 781.361Z" fill="#666666"/>
<path d="M108 766C113.523 766 118 761.523 118 756C118 750.477 113.523 746 108 746C102.477 746 98 750.477 98 756C98 761.523 102.477 766 108 766Z" fill="#E0E0E0" stroke="#BDBDBD"/>
<path d="M95.7508 774.727H96.8019L99.2735 780.764H99.3588L101.83 774.727H102.881V782H102.058V776.474H101.987L99.7139 782H98.9184L96.6457 776.474H96.5747V782H95.7508V774.727ZM106.139 782.128C105.793 782.128 105.479 782.063 105.198 781.933C104.916 781.8 104.692 781.609 104.527 781.361C104.361 781.11 104.278 780.807 104.278 780.452C104.278 780.139 104.34 779.886 104.463 779.692C104.586 779.495 104.75 779.341 104.956 779.23C105.162 779.119 105.389 779.036 105.638 778.982C105.889 778.925 106.141 778.88 106.394 778.847C106.726 778.804 106.995 778.772 107.201 778.751C107.409 778.727 107.56 778.688 107.655 778.634C107.752 778.579 107.801 778.484 107.801 778.349V778.321C107.801 777.971 107.705 777.698 107.513 777.504C107.324 777.31 107.036 777.213 106.65 777.213C106.25 777.213 105.936 777.301 105.709 777.476C105.482 777.651 105.322 777.838 105.23 778.037L104.434 777.753C104.576 777.421 104.766 777.163 105.002 776.979C105.242 776.792 105.502 776.661 105.784 776.588C106.068 776.512 106.347 776.474 106.622 776.474C106.797 776.474 106.998 776.496 107.225 776.538C107.455 776.579 107.676 776.663 107.889 776.79C108.105 776.918 108.284 777.111 108.426 777.369C108.568 777.627 108.639 777.973 108.639 778.406V782H107.801V781.261H107.758C107.701 781.38 107.607 781.506 107.474 781.641C107.341 781.776 107.165 781.891 106.945 781.986C106.725 782.08 106.456 782.128 106.139 782.128ZM106.267 781.375C106.598 781.375 106.877 781.31 107.105 781.18C107.334 781.049 107.507 780.881 107.623 780.675C107.742 780.469 107.801 780.253 107.801 780.026V779.259C107.765 779.301 107.687 779.34 107.566 779.376C107.448 779.409 107.311 779.438 107.154 779.464C107.001 779.488 106.85 779.509 106.703 779.528C106.559 779.545 106.442 779.559 106.352 779.571C106.134 779.599 105.93 779.646 105.741 779.71C105.554 779.771 105.402 779.865 105.286 779.99C105.173 780.113 105.116 780.281 105.116 780.494C105.116 780.786 105.224 781.006 105.439 781.155C105.657 781.302 105.933 781.375 106.267 781.375ZM110.168 784.045V776.545H110.978V777.412H111.078C111.139 777.317 111.224 777.196 111.333 777.05C111.444 776.901 111.603 776.768 111.809 776.652C112.017 776.534 112.299 776.474 112.654 776.474C113.113 776.474 113.518 776.589 113.869 776.819C114.219 777.049 114.493 777.374 114.689 777.795C114.886 778.217 114.984 778.714 114.984 779.287C114.984 779.865 114.886 780.365 114.689 780.789C114.493 781.21 114.22 781.537 113.872 781.769C113.524 781.999 113.123 782.114 112.668 782.114C112.318 782.114 112.037 782.056 111.827 781.94C111.616 781.821 111.454 781.687 111.34 781.538C111.227 781.387 111.139 781.261 111.078 781.162H111.006V784.045H110.168ZM110.992 779.273C110.992 779.685 111.053 780.048 111.173 780.363C111.294 780.675 111.47 780.92 111.703 781.098C111.935 781.273 112.219 781.361 112.555 781.361C112.905 781.361 113.198 781.268 113.432 781.084C113.669 780.897 113.846 780.646 113.965 780.331C114.085 780.014 114.146 779.661 114.146 779.273C114.146 778.889 114.086 778.544 113.968 778.236C113.852 777.926 113.676 777.681 113.439 777.501C113.205 777.318 112.91 777.227 112.555 777.227C112.214 777.227 111.927 777.314 111.695 777.487C111.463 777.657 111.288 777.896 111.17 778.204C111.051 778.509 110.992 778.866 110.992 779.273ZM117.867 782.128C117.522 782.128 117.208 782.063 116.926 781.933C116.645 781.8 116.421 781.609 116.255 781.361C116.089 781.11 116.006 780.807 116.006 780.452C116.006 780.139 116.068 779.886 116.191 779.692C116.314 779.495 116.479 779.341 116.685 779.23C116.891 779.119 117.118 779.036 117.367 778.982C117.618 778.925 117.87 778.88 118.123 778.847C118.454 778.804 118.723 778.772 118.929 778.751C119.137 778.727 119.289 778.688 119.384 778.634C119.481 778.579 119.529 778.484 119.529 778.349V778.321C119.529 777.971 119.433 777.698 119.242 777.504C119.052 777.31 118.765 777.213 118.379 777.213C117.979 777.213 117.665 777.301 117.438 777.476C117.21 777.651 117.051 777.838 116.958 778.037L116.163 777.753C116.305 777.421 116.494 777.163 116.731 776.979C116.97 776.792 117.23 776.661 117.512 776.588C117.796 776.512 118.076 776.474 118.35 776.474C118.525 776.474 118.727 776.496 118.954 776.538C119.184 776.579 119.405 776.663 119.618 776.79C119.833 776.918 120.012 777.111 120.154 777.369C120.296 777.627 120.367 777.973 120.367 778.406V782H119.529V781.261H119.487C119.43 781.38 119.335 781.506 119.203 781.641C119.07 781.776 118.894 781.891 118.673 781.986C118.453 782.08 118.185 782.128 117.867 782.128ZM117.995 781.375C118.327 781.375 118.606 781.31 118.833 781.18C119.063 781.049 119.236 780.881 119.352 780.675C119.47 780.469 119.529 780.253 119.529 780.026V779.259C119.494 779.301 119.416 779.34 119.295 779.376C119.176 779.409 119.039 779.438 118.883 779.464C118.729 779.488 118.579 779.509 118.432 779.528C118.287 779.545 118.17 779.559 118.08 779.571C117.863 779.599 117.659 779.646 117.47 779.71C117.283 779.771 117.131 779.865 117.015 779.99C116.901 780.113 116.845 780.281 116.845 780.494C116.845 780.786 116.952 781.006 117.168 781.155C117.386 781.302 117.661 781.375 117.995 781.375Z" fill="#666666"/>
<path d="M180 766C185.523 766 190 761.523 190 756C190 750.477 185.523 746 180 746C174.477 746 170 750.477 170 756C170 761.523 174.477 766 180 766Z" fill="#E0E0E0" stroke="#BDBDBD"/>
<path d="M174.663 777H173.782C173.73 776.747 173.639 776.524 173.509 776.332C173.381 776.141 173.224 775.98 173.04 775.849C172.857 775.717 172.655 775.617 172.433 775.551C172.21 775.485 171.978 775.452 171.737 775.452C171.296 775.452 170.897 775.563 170.54 775.786C170.185 776.008 169.902 776.336 169.691 776.769C169.483 777.202 169.379 777.734 169.379 778.364C169.379 778.993 169.483 779.525 169.691 779.958C169.902 780.391 170.185 780.719 170.54 780.942C170.897 781.164 171.296 781.276 171.737 781.276C171.978 781.276 172.21 781.242 172.433 781.176C172.655 781.11 172.857 781.012 173.04 780.881C173.224 780.749 173.381 780.587 173.509 780.395C173.639 780.201 173.73 779.978 173.782 779.727H174.663C174.596 780.099 174.476 780.432 174.3 780.725C174.125 781.019 173.907 781.268 173.647 781.474C173.387 781.678 173.094 781.833 172.77 781.94C172.448 782.046 172.103 782.099 171.737 782.099C171.116 782.099 170.565 781.948 170.082 781.645C169.599 781.342 169.219 780.911 168.942 780.352C168.665 779.794 168.526 779.131 168.526 778.364C168.526 777.597 168.665 776.934 168.942 776.375C169.219 775.816 169.599 775.385 170.082 775.082C170.565 774.779 171.116 774.628 171.737 774.628C172.103 774.628 172.448 774.681 172.77 774.788C173.094 774.894 173.387 775.05 173.647 775.256C173.907 775.46 174.125 775.709 174.3 776.002C174.476 776.293 174.596 776.626 174.663 777ZM175.972 782V776.545H176.81V782H175.972ZM176.398 775.636C176.235 775.636 176.094 775.581 175.976 775.469C175.86 775.358 175.802 775.224 175.802 775.068C175.802 774.912 175.86 774.778 175.976 774.667C176.094 774.556 176.235 774.5 176.398 774.5C176.562 774.5 176.701 774.556 176.817 774.667C176.936 774.778 176.995 774.912 176.995 775.068C176.995 775.224 176.936 775.358 176.817 775.469C176.701 775.581 176.562 775.636 176.398 775.636ZM180.717 776.545V777.256H177.891V776.545H180.717ZM178.714 775.239H179.553V780.438C179.553 780.674 179.587 780.852 179.656 780.97C179.727 781.086 179.817 781.164 179.925 781.205C180.037 781.242 180.154 781.261 180.277 781.261C180.369 781.261 180.445 781.257 180.504 781.247C180.563 781.235 180.611 781.226 180.646 781.219L180.817 781.972C180.76 781.993 180.681 782.014 180.579 782.036C180.477 782.059 180.348 782.071 180.192 782.071C179.955 782.071 179.723 782.02 179.496 781.918C179.271 781.817 179.084 781.661 178.935 781.453C178.788 781.245 178.714 780.982 178.714 780.665V775.239ZM183.583 782.128C183.237 782.128 182.924 782.063 182.642 781.933C182.36 781.8 182.137 781.609 181.971 781.361C181.805 781.11 181.722 780.807 181.722 780.452C181.722 780.139 181.784 779.886 181.907 779.692C182.03 779.495 182.195 779.341 182.401 779.23C182.607 779.119 182.834 779.036 183.082 778.982C183.333 778.925 183.585 778.88 183.839 778.847C184.17 778.804 184.439 778.772 184.645 778.751C184.853 778.727 185.005 778.688 185.099 778.634C185.196 778.579 185.245 778.484 185.245 778.349V778.321C185.245 777.971 185.149 777.698 184.957 777.504C184.768 777.31 184.48 777.213 184.094 777.213C183.694 777.213 183.381 777.301 183.153 777.476C182.926 777.651 182.766 777.838 182.674 778.037L181.879 777.753C182.021 777.421 182.21 777.163 182.447 776.979C182.686 776.792 182.946 776.661 183.228 776.588C183.512 776.512 183.791 776.474 184.066 776.474C184.241 776.474 184.442 776.496 184.67 776.538C184.899 776.579 185.121 776.663 185.334 776.79C185.549 776.918 185.728 777.111 185.87 777.369C186.012 777.627 186.083 777.973 186.083 778.406V782H185.245V781.261H185.202C185.146 781.38 185.051 781.506 184.918 781.641C184.786 781.776 184.609 781.891 184.389 781.986C184.169 782.08 183.9 782.128 183.583 782.128ZM183.711 781.375C184.042 781.375 184.322 781.31 184.549 781.18C184.779 781.049 184.951 780.881 185.067 780.675C185.186 780.469 185.245 780.253 185.245 780.026V779.259C185.21 779.301 185.131 779.34 185.011 779.376C184.892 779.409 184.755 779.438 184.599 779.464C184.445 779.488 184.295 779.509 184.148 779.528C184.003 779.545 183.886 779.559 183.796 779.571C183.578 779.599 183.375 779.646 183.185 779.71C182.998 779.771 182.847 779.865 182.731 779.99C182.617 780.113 182.56 780.281 182.56 780.494C182.56 780.786 182.668 781.006 182.884 781.155C183.101 781.302 183.377 781.375 183.711 781.375ZM191.476 777.767L190.724 777.98C190.676 777.855 190.606 777.733 190.514 777.614C190.424 777.494 190.301 777.394 190.145 777.316C189.988 777.238 189.788 777.199 189.545 777.199C189.211 777.199 188.933 777.276 188.71 777.43C188.49 777.581 188.38 777.774 188.38 778.009C188.38 778.217 188.456 778.381 188.607 778.502C188.759 778.623 188.995 778.723 189.317 778.804L190.127 779.003C190.615 779.121 190.978 779.302 191.217 779.546C191.456 779.788 191.576 780.099 191.576 780.48C191.576 780.793 191.486 781.072 191.306 781.318C191.128 781.564 190.88 781.759 190.56 781.901C190.241 782.043 189.869 782.114 189.445 782.114C188.889 782.114 188.428 781.993 188.064 781.751C187.699 781.51 187.468 781.157 187.371 780.693L188.167 780.494C188.242 780.788 188.386 781.008 188.596 781.155C188.809 781.302 189.088 781.375 189.431 781.375C189.822 781.375 190.132 781.292 190.361 781.126C190.593 780.958 190.709 780.757 190.709 780.523C190.709 780.333 190.643 780.175 190.51 780.047C190.378 779.917 190.174 779.82 189.9 779.756L188.991 779.543C188.491 779.424 188.124 779.241 187.89 778.992C187.658 778.741 187.542 778.428 187.542 778.051C187.542 777.743 187.628 777.471 187.801 777.234C187.976 776.998 188.214 776.812 188.515 776.677C188.818 776.542 189.161 776.474 189.545 776.474C190.084 776.474 190.508 776.593 190.816 776.83C191.126 777.066 191.346 777.379 191.476 777.767Z" fill="#666666"/>
<path d="M252 766C257.523 766 262 761.523 262 756C262 750.477 257.523 746 252 746C246.477 746 242 750.477 242 756C242 761.523 246.477 766 252 766Z" fill="#E0E0E0" stroke="#BDBDBD"/>
<path d="M234.665 774.727V782H233.784V774.727H234.665ZM236.317 782V776.545H237.127V777.398H237.198C237.311 777.107 237.495 776.88 237.748 776.719C238.001 776.556 238.305 776.474 238.661 776.474C239.02 776.474 239.32 776.556 239.559 776.719C239.801 776.88 239.989 777.107 240.124 777.398H240.18C240.32 777.116 240.53 776.892 240.809 776.727C241.088 776.558 241.423 776.474 241.814 776.474C242.302 776.474 242.701 776.627 243.011 776.933C243.321 777.236 243.476 777.708 243.476 778.349V782H242.638V778.349C242.638 777.947 242.528 777.659 242.308 777.487C242.087 777.314 241.828 777.227 241.53 777.227C241.146 777.227 240.849 777.343 240.639 777.575C240.428 777.805 240.323 778.096 240.323 778.449V782H239.47V778.264C239.47 777.954 239.37 777.704 239.168 777.515C238.967 777.323 238.708 777.227 238.391 777.227C238.173 777.227 237.969 777.285 237.78 777.401C237.593 777.517 237.441 777.678 237.325 777.884C237.212 778.088 237.155 778.323 237.155 778.591V782H236.317ZM245.008 784.045V776.545H245.818V777.412H245.917C245.979 777.317 246.064 777.196 246.173 777.05C246.284 776.901 246.443 776.768 246.649 776.652C246.857 776.534 247.139 776.474 247.494 776.474C247.953 776.474 248.358 776.589 248.709 776.819C249.059 777.049 249.332 777.374 249.529 777.795C249.725 778.217 249.824 778.714 249.824 779.287C249.824 779.865 249.725 780.365 249.529 780.789C249.332 781.21 249.06 781.537 248.712 781.769C248.364 781.999 247.963 782.114 247.508 782.114C247.158 782.114 246.877 782.056 246.667 781.94C246.456 781.821 246.294 781.687 246.18 781.538C246.066 781.387 245.979 781.261 245.917 781.162H245.846V784.045H245.008ZM245.832 779.273C245.832 779.685 245.892 780.048 246.013 780.363C246.134 780.675 246.31 780.92 246.542 781.098C246.774 781.273 247.058 781.361 247.395 781.361C247.745 781.361 248.037 781.268 248.272 781.084C248.508 780.897 248.686 780.646 248.804 780.331C248.925 780.014 248.986 779.661 248.986 779.273C248.986 778.889 248.926 778.544 248.808 778.236C248.692 777.926 248.516 777.681 248.279 777.501C248.044 777.318 247.75 777.227 247.395 777.227C247.054 777.227 246.767 777.314 246.535 777.487C246.303 777.657 246.128 777.896 246.01 778.204C245.891 778.509 245.832 778.866 245.832 779.273ZM252.707 782.128C252.361 782.128 252.048 782.063 251.766 781.933C251.484 781.8 251.261 781.609 251.095 781.361C250.929 781.11 250.846 780.807 250.846 780.452C250.846 780.139 250.908 779.886 251.031 779.692C251.154 779.495 251.319 779.341 251.525 779.23C251.731 779.119 251.958 779.036 252.206 778.982C252.457 778.925 252.709 778.88 252.963 778.847C253.294 778.804 253.563 778.772 253.769 778.751C253.977 778.727 254.129 778.688 254.223 778.634C254.321 778.579 254.369 778.484 254.369 778.349V778.321C254.369 777.971 254.273 777.698 254.081 777.504C253.892 777.31 253.604 777.213 253.218 777.213C252.818 777.213 252.505 777.301 252.277 777.476C252.05 777.651 251.89 777.838 251.798 778.037L251.003 777.753C251.145 777.421 251.334 777.163 251.571 776.979C251.81 776.792 252.07 776.661 252.352 776.588C252.636 776.512 252.915 776.474 253.19 776.474C253.365 776.474 253.566 776.496 253.794 776.538C254.023 776.579 254.245 776.663 254.458 776.79C254.673 776.918 254.852 777.111 254.994 777.369C255.136 777.627 255.207 777.973 255.207 778.406V782H254.369V781.261H254.326C254.27 781.38 254.175 781.506 254.042 781.641C253.91 781.776 253.733 781.891 253.513 781.986C253.293 782.08 253.024 782.128 252.707 782.128ZM252.835 781.375C253.166 781.375 253.446 781.31 253.673 781.18C253.903 781.049 254.075 780.881 254.191 780.675C254.31 780.469 254.369 780.253 254.369 780.026V779.259C254.334 779.301 254.255 779.34 254.135 779.376C254.016 779.409 253.879 779.438 253.723 779.464C253.569 779.488 253.419 779.509 253.272 779.528C253.127 779.545 253.01 779.559 252.92 779.571C252.702 779.599 252.499 779.646 252.309 779.71C252.122 779.771 251.971 779.865 251.855 779.99C251.741 780.113 251.684 780.281 251.684 780.494C251.684 780.786 251.792 781.006 252.008 781.155C252.225 781.302 252.501 781.375 252.835 781.375ZM258.953 782.114C258.441 782.114 258.001 781.993 257.632 781.751C257.262 781.51 256.978 781.177 256.779 780.754C256.581 780.33 256.481 779.846 256.481 779.301C256.481 778.747 256.583 778.258 256.786 777.835C256.992 777.408 257.279 777.076 257.646 776.837C258.015 776.595 258.446 776.474 258.938 776.474C259.322 776.474 259.668 776.545 259.975 776.688C260.283 776.83 260.535 777.028 260.732 777.284C260.928 777.54 261.05 777.838 261.098 778.179H260.259C260.196 777.93 260.054 777.71 259.833 777.518C259.616 777.324 259.322 777.227 258.953 777.227C258.626 777.227 258.34 777.312 258.093 777.483C257.849 777.651 257.659 777.889 257.522 778.197C257.387 778.502 257.319 778.861 257.319 779.273C257.319 779.694 257.385 780.061 257.518 780.374C257.653 780.686 257.842 780.929 258.086 781.102C258.332 781.274 258.621 781.361 258.953 781.361C259.17 781.361 259.368 781.323 259.546 781.247C259.723 781.171 259.874 781.062 259.997 780.92C260.12 780.778 260.207 780.608 260.259 780.409H261.098C261.05 780.731 260.933 781.021 260.746 781.279C260.561 781.535 260.316 781.738 260.011 781.89C259.708 782.039 259.355 782.114 258.953 782.114ZM264.695 776.545V777.256H261.868V776.545H264.695ZM262.692 775.239H263.53V780.438C263.53 780.674 263.564 780.852 263.633 780.97C263.704 781.086 263.794 781.164 263.903 781.205C264.014 781.242 264.131 781.261 264.255 781.261C264.347 781.261 264.423 781.257 264.482 781.247C264.541 781.235 264.588 781.226 264.624 781.219L264.794 781.972C264.737 781.993 264.658 782.014 264.556 782.036C264.455 782.059 264.326 782.071 264.169 782.071C263.933 782.071 263.701 782.02 263.473 781.918C263.248 781.817 263.061 781.661 262.912 781.453C262.765 781.245 262.692 780.982 262.692 780.665V775.239ZM268.113 782.114C267.62 782.114 267.188 781.996 266.817 781.762C266.447 781.528 266.159 781.2 265.95 780.778C265.744 780.357 265.641 779.865 265.641 779.301C265.641 778.733 265.744 778.237 265.95 777.813C266.159 777.389 266.447 777.06 266.817 776.826C267.188 776.592 267.62 776.474 268.113 776.474C268.605 776.474 269.036 776.592 269.405 776.826C269.777 777.06 270.066 777.389 270.272 777.813C270.48 778.237 270.584 778.733 270.584 779.301C270.584 779.865 270.48 780.357 270.272 780.778C270.066 781.2 269.777 781.528 269.405 781.762C269.036 781.996 268.605 782.114 268.113 782.114ZM268.113 781.361C268.487 781.361 268.795 781.265 269.036 781.073C269.278 780.881 269.456 780.629 269.572 780.317C269.688 780.004 269.746 779.666 269.746 779.301C269.746 778.937 269.688 778.597 269.572 778.282C269.456 777.967 269.278 777.713 269.036 777.518C268.795 777.324 268.487 777.227 268.113 777.227C267.739 777.227 267.431 777.324 267.19 777.518C266.948 777.713 266.769 777.967 266.653 778.282C266.537 778.597 266.479 778.937 266.479 779.301C266.479 779.666 266.537 780.004 266.653 780.317C266.769 780.629 266.948 780.881 267.19 781.073C267.431 781.265 267.739 781.361 268.113 781.361Z" fill="#666666"/>
<path d="M324 766C329.523 766 334 761.523 334 756C334 750.477 329.523 746 324 746C318.477 746 314 750.477 314 756C314 761.523 318.477 766 324 766Z" fill="#E0E0E0" stroke="#BDBDBD"/>
<path d="M312.62 782V774.727H315.077C315.648 774.727 316.114 774.83 316.476 775.036C316.841 775.24 317.111 775.516 317.286 775.864C317.461 776.212 317.549 776.6 317.549 777.028C317.549 777.457 317.461 777.846 317.286 778.197C317.113 778.547 316.846 778.826 316.484 779.035C316.121 779.241 315.657 779.344 315.092 779.344H313.33V778.562H315.063C315.454 778.562 315.767 778.495 316.004 778.36C316.241 778.225 316.413 778.043 316.519 777.813C316.628 777.581 316.682 777.32 316.682 777.028C316.682 776.737 316.628 776.477 316.519 776.247C316.413 776.018 316.24 775.838 316.001 775.707C315.762 775.575 315.444 775.509 315.049 775.509H313.501V782H312.62ZM321.082 782.114C320.557 782.114 320.103 781.998 319.722 781.766C319.343 781.531 319.051 781.205 318.845 780.786C318.641 780.364 318.54 779.874 318.54 779.315C318.54 778.757 318.641 778.264 318.845 777.838C319.051 777.41 319.338 777.076 319.704 776.837C320.074 776.595 320.505 776.474 320.997 776.474C321.281 776.474 321.562 776.522 321.839 776.616C322.116 776.711 322.368 776.865 322.595 777.078C322.822 777.289 323.003 777.568 323.138 777.916C323.273 778.264 323.341 778.693 323.341 779.202V779.557H319.136V778.832H322.489C322.489 778.525 322.427 778.25 322.304 778.009C322.183 777.767 322.01 777.576 321.785 777.437C321.563 777.297 321.3 777.227 320.997 777.227C320.663 777.227 320.374 777.31 320.131 777.476C319.889 777.639 319.703 777.852 319.573 778.115C319.443 778.378 319.378 778.66 319.378 778.96V779.443C319.378 779.855 319.449 780.204 319.591 780.491C319.735 780.775 319.935 780.991 320.191 781.141C320.447 781.287 320.744 781.361 321.082 781.361C321.302 781.361 321.501 781.33 321.679 781.268C321.859 781.205 322.014 781.11 322.144 780.984C322.274 780.857 322.375 780.698 322.446 780.509L323.256 780.736C323.17 781.01 323.027 781.252 322.826 781.46C322.625 781.666 322.376 781.827 322.08 781.943C321.784 782.057 321.452 782.114 321.082 782.114ZM324.616 782V776.545H325.425V777.369H325.482C325.582 777.099 325.762 776.88 326.022 776.712C326.282 776.544 326.576 776.46 326.903 776.46C326.964 776.46 327.041 776.461 327.133 776.464C327.226 776.466 327.296 776.47 327.343 776.474V777.327C327.315 777.32 327.249 777.309 327.148 777.295C327.048 777.278 326.943 777.27 326.832 777.27C326.566 777.27 326.33 777.326 326.121 777.437C325.915 777.546 325.752 777.697 325.631 777.891C325.513 778.083 325.454 778.302 325.454 778.548V782H324.616ZM331.107 776.545V777.256H328.167V776.545H331.107ZM329.047 782V775.793C329.047 775.48 329.121 775.22 329.268 775.011C329.414 774.803 329.605 774.647 329.839 774.543C330.074 774.438 330.321 774.386 330.582 774.386C330.788 774.386 330.956 774.403 331.086 774.436C331.216 774.469 331.313 774.5 331.377 774.528L331.136 775.253C331.093 775.239 331.034 775.221 330.958 775.2C330.885 775.178 330.788 775.168 330.667 775.168C330.39 775.168 330.19 775.237 330.067 775.377C329.946 775.517 329.886 775.722 329.886 775.991V782H329.047ZM332.282 782V776.545H333.12V782H332.282ZM332.708 775.636C332.544 775.636 332.404 775.581 332.285 775.469C332.169 775.358 332.111 775.224 332.111 775.068C332.111 774.912 332.169 774.778 332.285 774.667C332.404 774.556 332.544 774.5 332.708 774.5C332.871 774.5 333.011 774.556 333.127 774.667C333.245 774.778 333.304 774.912 333.304 775.068C333.304 775.224 333.245 775.358 333.127 775.469C333.011 775.581 332.871 775.636 332.708 775.636ZM335.493 774.727V782H334.655V774.727H335.493Z" fill="#D32F2F"/>
</g>
<defs>
<clipPath id="clip0_63_1462">
<rect width="360" height="800" fill="white"/>
</clipPath>
</defs>
</svg>
