<svg width="360" height="800" viewBox="0 0 360 800" fill="none" xmlns="http://www.w3.org/2000/svg">
<g clip-path="url(#clip0_63_1484)">
<rect width="360" height="800" fill="white"/>
<path d="M360 0H0V56H360V0Z" fill="#FAFAFA" stroke="#D0D0D0"/>
<path d="M24 36C28.4183 36 32 32.4183 32 28C32 23.5817 28.4183 20 24 20C19.5817 20 16 23.5817 16 28C16 32.4183 19.5817 36 24 36Z" fill="#E0E0E0" stroke="#BDBDBD"/>
<path d="M67.2784 25.4375H64.7898C64.7443 25.1155 64.6515 24.8295 64.5114 24.5795C64.3712 24.3258 64.1913 24.1098 63.9716 23.9318C63.7519 23.7538 63.4981 23.6174 63.2102 23.5227C62.9261 23.428 62.6174 23.3807 62.2841 23.3807C61.6818 23.3807 61.1572 23.5303 60.7102 23.8295C60.2633 24.125 59.9167 24.5568 59.6705 25.125C59.4242 25.6894 59.3011 26.375 59.3011 27.1818C59.3011 28.0114 59.4242 28.7083 59.6705 29.2727C59.9205 29.8371 60.2689 30.2633 60.7159 30.5511C61.1629 30.839 61.6799 30.983 62.267 30.983C62.5966 30.983 62.9015 30.9394 63.1818 30.8523C63.4659 30.7652 63.7178 30.6383 63.9375 30.4716C64.1572 30.3011 64.339 30.0947 64.483 29.8523C64.6307 29.6098 64.733 29.3333 64.7898 29.0227L67.2784 29.0341C67.214 29.5682 67.053 30.0833 66.7955 30.5795C66.5417 31.072 66.1989 31.5133 65.767 31.9034C65.339 32.2898 64.8277 32.5966 64.233 32.8239C63.642 33.0473 62.9735 33.1591 62.2273 33.1591C61.1894 33.1591 60.2614 32.9242 59.4432 32.4545C58.6288 31.9848 57.9848 31.3049 57.5114 30.4148C57.0417 29.5246 56.8068 28.447 56.8068 27.1818C56.8068 25.9129 57.0455 24.8333 57.5227 23.9432C58 23.053 58.6477 22.375 59.4659 21.9091C60.2841 21.4394 61.2045 21.2045 62.2273 21.2045C62.9015 21.2045 63.5265 21.2992 64.1023 21.4886C64.6818 21.678 65.1951 21.9545 65.642 22.3182C66.089 22.678 66.4527 23.1193 66.733 23.642C67.017 24.1648 67.1989 24.7633 67.2784 25.4375ZM72.9744 33.1705C72.0767 33.1705 71.304 32.9886 70.6562 32.625C70.0123 32.2576 69.5161 31.7386 69.1676 31.0682C68.8191 30.3939 68.6449 29.5966 68.6449 28.6761C68.6449 27.7784 68.8191 26.9905 69.1676 26.3125C69.5161 25.6345 70.0066 25.1061 70.6392 24.7273C71.2756 24.3485 72.0218 24.1591 72.8778 24.1591C73.4536 24.1591 73.9896 24.2519 74.4858 24.4375C74.9858 24.6193 75.4214 24.8939 75.7926 25.2614C76.1676 25.6288 76.4593 26.0909 76.6676 26.6477C76.8759 27.2008 76.9801 27.8485 76.9801 28.5909V29.2557H69.6108V27.7557H74.7017C74.7017 27.4072 74.6259 27.0985 74.4744 26.8295C74.3229 26.5606 74.1127 26.3504 73.8438 26.1989C73.5786 26.0436 73.2699 25.9659 72.9176 25.9659C72.5502 25.9659 72.2244 26.0511 71.9403 26.2216C71.66 26.3883 71.4403 26.6136 71.2812 26.8977C71.1222 27.178 71.0407 27.4905 71.0369 27.8352V29.2614C71.0369 29.6932 71.1165 30.0663 71.2756 30.3807C71.4384 30.6951 71.6676 30.9375 71.9631 31.108C72.2585 31.2784 72.6089 31.3636 73.0142 31.3636C73.2831 31.3636 73.5294 31.3258 73.7528 31.25C73.9763 31.1742 74.1676 31.0606 74.3267 30.9091C74.4858 30.7576 74.607 30.572 74.6903 30.3523L76.929 30.5C76.8153 31.0379 76.5824 31.5076 76.2301 31.9091C75.8816 32.3068 75.4309 32.6174 74.8778 32.8409C74.3286 33.0606 73.6941 33.1705 72.9744 33.1705ZM80.9801 27.9545V33H78.5597V24.2727H80.8665V25.8125H80.9688C81.1619 25.3049 81.4858 24.9034 81.9403 24.608C82.3949 24.3087 82.946 24.1591 83.5938 24.1591C84.1998 24.1591 84.7282 24.2917 85.179 24.5568C85.6297 24.822 85.9801 25.2008 86.2301 25.6932C86.4801 26.1818 86.6051 26.7652 86.6051 27.4432V33H84.1847V27.875C84.1884 27.3409 84.0521 26.9242 83.7756 26.625C83.4991 26.322 83.1184 26.1705 82.6335 26.1705C82.3078 26.1705 82.0199 26.2405 81.7699 26.3807C81.5237 26.5208 81.3305 26.7254 81.1903 26.9943C81.054 27.2595 80.9839 27.5795 80.9801 27.9545ZM93.1548 24.2727V26.0909H87.8991V24.2727H93.1548ZM89.0923 22.1818H91.5128V30.3182C91.5128 30.5417 91.5469 30.7159 91.6151 30.8409C91.6832 30.9621 91.7779 31.0473 91.8991 31.0966C92.0241 31.1458 92.1681 31.1705 92.331 31.1705C92.4446 31.1705 92.5582 31.161 92.6719 31.142C92.7855 31.1193 92.8726 31.1023 92.9332 31.0909L93.3139 32.892C93.1927 32.9299 93.0223 32.9735 92.8026 33.0227C92.5829 33.0758 92.3158 33.108 92.0014 33.1193C91.4181 33.142 90.9067 33.0644 90.4673 32.8864C90.0317 32.7083 89.6927 32.4318 89.4503 32.0568C89.2079 31.6818 89.0885 31.2083 89.0923 30.6364V22.1818ZM94.7315 33V24.2727H97.0781V25.7955H97.169C97.3281 25.2538 97.5952 24.8447 97.9702 24.5682C98.3452 24.2879 98.777 24.1477 99.2656 24.1477C99.3868 24.1477 99.5175 24.1553 99.6577 24.1705C99.7978 24.1856 99.9209 24.2064 100.027 24.233V26.3807C99.9134 26.3466 99.7562 26.3163 99.5554 26.2898C99.3546 26.2633 99.1709 26.25 99.0043 26.25C98.6482 26.25 98.33 26.3277 98.0497 26.483C97.7732 26.6345 97.5535 26.8466 97.3906 27.1193C97.2315 27.392 97.152 27.7064 97.152 28.0625V33H94.7315ZM104.815 33.1705C103.933 33.1705 103.17 32.983 102.526 32.608C101.885 32.2292 101.391 31.7027 101.043 31.0284C100.694 30.3504 100.52 29.5644 100.52 28.6705C100.52 27.7689 100.694 26.9811 101.043 26.3068C101.391 25.6288 101.885 25.1023 102.526 24.7273C103.17 24.3485 103.933 24.1591 104.815 24.1591C105.698 24.1591 106.459 24.3485 107.099 24.7273C107.743 25.1023 108.24 25.6288 108.588 26.3068C108.937 26.9811 109.111 27.7689 109.111 28.6705C109.111 29.5644 108.937 30.3504 108.588 31.0284C108.24 31.7027 107.743 32.2292 107.099 32.608C106.459 32.983 105.698 33.1705 104.815 33.1705ZM104.827 31.2955C105.228 31.2955 105.563 31.1818 105.832 30.9545C106.101 30.7235 106.304 30.4091 106.44 30.0114C106.58 29.6136 106.651 29.161 106.651 28.6534C106.651 28.1458 106.58 27.6932 106.44 27.2955C106.304 26.8977 106.101 26.5833 105.832 26.3523C105.563 26.1212 105.228 26.0057 104.827 26.0057C104.421 26.0057 104.08 26.1212 103.804 26.3523C103.531 26.5833 103.325 26.8977 103.185 27.2955C103.048 27.6932 102.98 28.1458 102.98 28.6534C102.98 29.161 103.048 29.6136 103.185 30.0114C103.325 30.4091 103.531 30.7235 103.804 30.9545C104.08 31.1818 104.421 31.2955 104.827 31.2955ZM117.604 33.142C116.941 33.142 116.34 32.9716 115.803 32.6307C115.268 32.286 114.844 31.7803 114.53 31.1136C114.219 30.4432 114.064 29.6212 114.064 28.6477C114.064 27.6477 114.225 26.8163 114.547 26.1534C114.869 25.4867 115.297 24.9886 115.831 24.6591C116.369 24.3258 116.958 24.1591 117.598 24.1591C118.087 24.1591 118.494 24.2424 118.82 24.4091C119.149 24.572 119.414 24.7765 119.615 25.0227C119.82 25.2652 119.975 25.5038 120.081 25.7386H120.155V21.3636H122.57V33H120.183V31.6023H120.081C119.967 31.8447 119.806 32.0852 119.598 32.3239C119.393 32.5587 119.126 32.7538 118.797 32.9091C118.471 33.0644 118.073 33.142 117.604 33.142ZM118.371 31.2159C118.761 31.2159 119.09 31.1098 119.359 30.8977C119.632 30.6818 119.84 30.3807 119.984 29.9943C120.132 29.608 120.206 29.1553 120.206 28.6364C120.206 28.1174 120.134 27.6667 119.99 27.2841C119.846 26.9015 119.638 26.6061 119.365 26.3977C119.092 26.1894 118.761 26.0852 118.371 26.0852C117.973 26.0852 117.638 26.1932 117.365 26.4091C117.092 26.625 116.886 26.9242 116.746 27.3068C116.606 27.6894 116.536 28.1326 116.536 28.6364C116.536 29.1439 116.606 29.5928 116.746 29.983C116.89 30.3693 117.096 30.6723 117.365 30.892C117.638 31.108 117.973 31.2159 118.371 31.2159ZM128.537 33.1705C127.639 33.1705 126.866 32.9886 126.219 32.625C125.575 32.2576 125.079 31.7386 124.73 31.0682C124.382 30.3939 124.207 29.5966 124.207 28.6761C124.207 27.7784 124.382 26.9905 124.73 26.3125C125.079 25.6345 125.569 25.1061 126.202 24.7273C126.838 24.3485 127.584 24.1591 128.44 24.1591C129.016 24.1591 129.552 24.2519 130.048 24.4375C130.548 24.6193 130.984 24.8939 131.355 25.2614C131.73 25.6288 132.022 26.0909 132.23 26.6477C132.438 27.2008 132.543 27.8485 132.543 28.5909V29.2557H125.173V27.7557H130.264C130.264 27.4072 130.188 27.0985 130.037 26.8295C129.885 26.5606 129.675 26.3504 129.406 26.1989C129.141 26.0436 128.832 25.9659 128.48 25.9659C128.113 25.9659 127.787 26.0511 127.503 26.2216C127.223 26.3883 127.003 26.6136 126.844 26.8977C126.685 27.178 126.603 27.4905 126.599 27.8352V29.2614C126.599 29.6932 126.679 30.0663 126.838 30.3807C127.001 30.6951 127.23 30.9375 127.526 31.108C127.821 31.2784 128.171 31.3636 128.577 31.3636C128.846 31.3636 129.092 31.3258 129.315 31.25C129.539 31.1742 129.73 31.0606 129.889 30.9091C130.048 30.7576 130.17 30.572 130.253 30.3523L132.491 30.5C132.378 31.0379 132.145 31.5076 131.793 31.9091C131.444 32.3068 130.993 32.6174 130.44 32.8409C129.891 33.0606 129.257 33.1705 128.537 33.1705ZM140.314 33.1648C139.757 33.1648 139.261 33.0682 138.825 32.875C138.39 32.678 138.045 32.3883 137.791 32.0057C137.541 31.6193 137.416 31.1383 137.416 30.5625C137.416 30.0777 137.505 29.6705 137.683 29.3409C137.861 29.0114 138.104 28.7462 138.411 28.5455C138.717 28.3447 139.066 28.1932 139.456 28.0909C139.85 27.9886 140.263 27.9167 140.695 27.875C141.202 27.822 141.611 27.7727 141.922 27.7273C142.232 27.678 142.458 27.6061 142.598 27.5114C142.738 27.4167 142.808 27.2765 142.808 27.0909V27.0568C142.808 26.697 142.695 26.4186 142.467 26.2216C142.244 26.0246 141.926 25.9261 141.513 25.9261C141.077 25.9261 140.731 26.0227 140.473 26.2159C140.215 26.4053 140.045 26.6439 139.962 26.9318L137.723 26.75C137.837 26.2197 138.06 25.7614 138.393 25.375C138.727 24.9848 139.157 24.6856 139.683 24.4773C140.214 24.2652 140.827 24.1591 141.524 24.1591C142.009 24.1591 142.473 24.2159 142.916 24.3295C143.363 24.4432 143.759 24.6193 144.104 24.858C144.452 25.0966 144.727 25.4034 144.928 25.7784C145.128 26.1496 145.229 26.5947 145.229 27.1136V33H142.933V31.7898H142.865C142.725 32.0625 142.537 32.303 142.303 32.5114C142.068 32.7159 141.786 32.8769 141.456 32.9943C141.126 33.108 140.746 33.1648 140.314 33.1648ZM141.007 31.4943C141.363 31.4943 141.678 31.4242 141.95 31.2841C142.223 31.1402 142.437 30.947 142.592 30.7045C142.748 30.4621 142.825 30.1875 142.825 29.8807V28.9545C142.75 29.0038 142.645 29.0492 142.513 29.0909C142.384 29.1288 142.238 29.1648 142.075 29.1989C141.912 29.2292 141.75 29.2576 141.587 29.2841C141.424 29.3068 141.276 29.3277 141.143 29.3466C140.859 29.3883 140.611 29.4545 140.399 29.5455C140.187 29.6364 140.022 29.7595 139.905 29.9148C139.787 30.0663 139.729 30.2557 139.729 30.483C139.729 30.8125 139.848 31.0644 140.087 31.2386C140.329 31.4091 140.636 31.4943 141.007 31.4943ZM148.288 36.2727C147.982 36.2727 147.694 36.2481 147.425 36.1989C147.16 36.1534 146.94 36.0947 146.766 36.0227L147.311 34.2159C147.595 34.303 147.851 34.3504 148.078 34.358C148.309 34.3655 148.508 34.3125 148.675 34.1989C148.845 34.0852 148.983 33.892 149.089 33.6193L149.232 33.25L146.101 24.2727H148.646L150.453 30.6818H150.544L152.368 24.2727H154.93L151.538 33.9432C151.375 34.4129 151.154 34.822 150.874 35.1705C150.597 35.5227 150.247 35.7936 149.822 35.983C149.398 36.1761 148.887 36.2727 148.288 36.2727ZM161.766 29.2841V24.2727H164.186V33H161.862V31.4148H161.771C161.574 31.9261 161.247 32.3371 160.788 32.6477C160.334 32.9583 159.779 33.1136 159.124 33.1136C158.54 33.1136 158.027 32.9811 157.584 32.7159C157.141 32.4508 156.794 32.0739 156.544 31.5852C156.298 31.0966 156.173 30.5114 156.169 29.8295V24.2727H158.589V29.3977C158.593 29.9129 158.732 30.3201 159.004 30.6193C159.277 30.9186 159.643 31.0682 160.101 31.0682C160.393 31.0682 160.665 31.0019 160.919 30.8693C161.173 30.733 161.377 30.5322 161.533 30.267C161.692 30.0019 161.769 29.6742 161.766 29.2841ZM169.338 33.142C168.675 33.142 168.075 32.9716 167.537 32.6307C167.003 32.286 166.579 31.7803 166.264 31.1136C165.954 30.4432 165.798 29.6212 165.798 28.6477C165.798 27.6477 165.959 26.8163 166.281 26.1534C166.603 25.4867 167.031 24.9886 167.565 24.6591C168.103 24.3258 168.692 24.1591 169.332 24.1591C169.821 24.1591 170.228 24.2424 170.554 24.4091C170.884 24.572 171.149 24.7765 171.349 25.0227C171.554 25.2652 171.709 25.5038 171.815 25.7386H171.889V21.3636H174.304V33H171.918V31.6023H171.815C171.702 31.8447 171.541 32.0852 171.332 32.3239C171.128 32.5587 170.861 32.7538 170.531 32.9091C170.205 33.0644 169.808 33.142 169.338 33.142ZM170.105 31.2159C170.495 31.2159 170.825 31.1098 171.094 30.8977C171.366 30.6818 171.575 30.3807 171.719 29.9943C171.866 29.608 171.94 29.1553 171.94 28.6364C171.94 28.1174 171.868 27.6667 171.724 27.2841C171.58 26.9015 171.372 26.6061 171.099 26.3977C170.827 26.1894 170.495 26.0852 170.105 26.0852C169.707 26.0852 169.372 26.1932 169.099 26.4091C168.827 26.625 168.62 26.9242 168.48 27.3068C168.34 27.6894 168.27 28.1326 168.27 28.6364C168.27 29.1439 168.34 29.5928 168.48 29.983C168.624 30.3693 168.83 30.6723 169.099 30.892C169.372 31.108 169.707 31.2159 170.105 31.2159ZM178.783 33.1648C178.226 33.1648 177.73 33.0682 177.294 32.875C176.858 32.678 176.514 32.3883 176.26 32.0057C176.01 31.6193 175.885 31.1383 175.885 30.5625C175.885 30.0777 175.974 29.6705 176.152 29.3409C176.33 29.0114 176.572 28.7462 176.879 28.5455C177.186 28.3447 177.535 28.1932 177.925 28.0909C178.319 27.9886 178.732 27.9167 179.163 27.875C179.671 27.822 180.08 27.7727 180.391 27.7273C180.701 27.678 180.927 27.6061 181.067 27.5114C181.207 27.4167 181.277 27.2765 181.277 27.0909V27.0568C181.277 26.697 181.163 26.4186 180.936 26.2216C180.713 26.0246 180.394 25.9261 179.982 25.9261C179.546 25.9261 179.199 26.0227 178.942 26.2159C178.684 26.4053 178.514 26.6439 178.43 26.9318L176.192 26.75C176.305 26.2197 176.529 25.7614 176.862 25.375C177.196 24.9848 177.625 24.6856 178.152 24.4773C178.682 24.2652 179.296 24.1591 179.993 24.1591C180.478 24.1591 180.942 24.2159 181.385 24.3295C181.832 24.4432 182.228 24.6193 182.572 24.858C182.921 25.0966 183.196 25.4034 183.396 25.7784C183.597 26.1496 183.697 26.5947 183.697 27.1136V33H181.402V31.7898H181.334C181.194 32.0625 181.006 32.303 180.771 32.5114C180.536 32.7159 180.254 32.8769 179.925 32.9943C179.595 33.108 179.214 33.1648 178.783 33.1648ZM179.476 31.4943C179.832 31.4943 180.146 31.4242 180.419 31.2841C180.692 31.1402 180.906 30.947 181.061 30.7045C181.216 30.4621 181.294 30.1875 181.294 29.8807V28.9545C181.218 29.0038 181.114 29.0492 180.982 29.0909C180.853 29.1288 180.707 29.1648 180.544 29.1989C180.381 29.2292 180.218 29.2576 180.055 29.2841C179.893 29.3068 179.745 29.3277 179.612 29.3466C179.328 29.3883 179.08 29.4545 178.868 29.5455C178.656 29.6364 178.491 29.7595 178.374 29.9148C178.256 30.0663 178.197 30.2557 178.197 30.483C178.197 30.8125 178.317 31.0644 178.555 31.2386C178.798 31.4091 179.105 31.4943 179.476 31.4943Z" fill="#333333"/>
<path d="M332 36C336.418 36 340 32.4183 340 28C340 23.5817 336.418 20 332 20C327.582 20 324 23.5817 324 28C324 32.4183 327.582 36 332 36Z" fill="#E0E0E0" stroke="#BDBDBD"/>
<path d="M332 72H28C21.3726 72 16 77.3726 16 84V116C16 122.627 21.3726 128 28 128H332C338.627 128 344 122.627 344 116V84C344 77.3726 338.627 72 332 72Z" fill="white" stroke="#D0D0D0"/>
<path d="M32.4659 102.161V102.305C32.4659 102.8 32.4219 103.196 32.3338 103.494C32.2457 103.79 32.1179 104.028 31.9503 104.21C31.7855 104.389 31.5838 104.554 31.3452 104.705C31.1719 104.815 31.0142 104.933 30.8722 105.058C30.733 105.18 30.6222 105.315 30.5398 105.463C30.4574 105.611 30.4162 105.778 30.4162 105.966C30.4162 106.162 30.4631 106.332 30.5568 106.477C30.6506 106.625 30.7756 106.739 30.9318 106.818C31.0909 106.901 31.2656 106.942 31.456 106.942C31.6406 106.942 31.8153 106.901 31.9801 106.818C32.1449 106.739 32.2798 106.619 32.3849 106.46C32.4901 106.301 32.5469 106.105 32.5554 105.872H34.294C34.2827 106.44 34.1463 106.911 33.8849 107.283C33.6264 107.655 33.2841 107.932 32.858 108.114C32.4347 108.298 31.9645 108.391 31.4474 108.391C30.8849 108.391 30.3849 108.297 29.9474 108.109C29.5128 107.925 29.1719 107.656 28.9247 107.304C28.6776 106.952 28.554 106.526 28.554 106.026C28.554 105.693 28.608 105.399 28.7159 105.143C28.8267 104.885 28.9801 104.658 29.1761 104.462C29.375 104.263 29.6065 104.085 29.8707 103.929C30.0952 103.793 30.2784 103.653 30.4205 103.511C30.5653 103.366 30.6719 103.199 30.7401 103.009C30.8111 102.815 30.848 102.581 30.8509 102.305V102.161H32.4659ZM31.6222 99.4332C31.9063 99.4332 32.1491 99.5327 32.3509 99.7315C32.5526 99.9304 32.6506 100.172 32.6449 100.456C32.6506 100.734 32.5526 100.973 32.3509 101.172C32.1491 101.371 31.9063 101.47 31.6222 101.47C31.3523 101.47 31.1151 101.371 30.9105 101.172C30.7088 100.973 30.6051 100.734 30.5994 100.456C30.6023 100.266 30.6506 100.094 30.7443 99.9403C30.8409 99.7869 30.9659 99.6648 31.1193 99.5739C31.2756 99.4801 31.4432 99.4332 31.6222 99.4332ZM35.5085 106V97.2727H38.9517C39.6136 97.2727 40.1776 97.3991 40.6435 97.652C41.1094 97.902 41.4645 98.25 41.7088 98.696C41.956 99.1392 42.0795 99.6506 42.0795 100.23C42.0795 100.81 41.9545 101.321 41.7045 101.764C41.4545 102.207 41.0923 102.553 40.6179 102.8C40.1463 103.047 39.5753 103.17 38.9048 103.17H36.7102V101.692H38.6065C38.9616 101.692 39.2543 101.631 39.4844 101.509C39.7173 101.384 39.8906 101.212 40.0043 100.993C40.1207 100.771 40.179 100.517 40.179 100.23C40.179 99.9403 40.1207 99.6875 40.0043 99.4716C39.8906 99.2528 39.7173 99.0838 39.4844 98.9645C39.2514 98.8423 38.956 98.7812 38.598 98.7812H37.3537V106H35.5085ZM47.4414 103.213V99.4545H49.2567V106H47.5138V104.811H47.4457C47.2979 105.195 47.0522 105.503 46.7085 105.736C46.3675 105.969 45.9513 106.085 45.4599 106.085C45.0224 106.085 44.6374 105.986 44.305 105.787C43.9727 105.588 43.7127 105.305 43.5252 104.939C43.3406 104.572 43.2468 104.134 43.244 103.622V99.4545H45.0593V103.298C45.0621 103.685 45.1658 103.99 45.3704 104.214C45.5749 104.439 45.8491 104.551 46.1928 104.551C46.4116 104.551 46.6161 104.501 46.8065 104.402C46.9968 104.3 47.1502 104.149 47.2667 103.95C47.386 103.751 47.4442 103.506 47.4414 103.213ZM53.6918 106.128C53.0185 106.128 52.4389 105.991 51.9531 105.719C51.4702 105.443 51.098 105.054 50.8366 104.551C50.5753 104.045 50.4446 103.447 50.4446 102.757C50.4446 102.084 50.5753 101.493 50.8366 100.984C51.098 100.476 51.4659 100.08 51.9403 99.7955C52.4176 99.5114 52.9773 99.3693 53.6193 99.3693C54.0511 99.3693 54.4531 99.4389 54.8253 99.5781C55.2003 99.7145 55.527 99.9205 55.8054 100.196C56.0866 100.472 56.3054 100.818 56.4616 101.236C56.6179 101.651 56.696 102.136 56.696 102.693V103.192H51.169V102.067H54.9872C54.9872 101.805 54.9304 101.574 54.8168 101.372C54.7031 101.17 54.5455 101.013 54.3438 100.899C54.1449 100.783 53.9134 100.724 53.6491 100.724C53.3736 100.724 53.1293 100.788 52.9162 100.916C52.706 101.041 52.5412 101.21 52.4219 101.423C52.3026 101.634 52.2415 101.868 52.2386 102.126V103.196C52.2386 103.52 52.2983 103.8 52.4176 104.036C52.5398 104.271 52.7116 104.453 52.9332 104.581C53.1548 104.709 53.4176 104.773 53.7216 104.773C53.9233 104.773 54.108 104.744 54.2756 104.688C54.4432 104.631 54.5866 104.545 54.706 104.432C54.8253 104.318 54.9162 104.179 54.9787 104.014L56.6577 104.125C56.5724 104.528 56.3977 104.881 56.1335 105.182C55.8722 105.48 55.5341 105.713 55.1193 105.881C54.7074 106.045 54.2315 106.128 53.6918 106.128ZM60.2926 106.107C59.7955 106.107 59.3452 105.979 58.9418 105.723C58.5412 105.464 58.223 105.085 57.9872 104.585C57.7543 104.082 57.6378 103.466 57.6378 102.736C57.6378 101.986 57.7585 101.362 58 100.865C58.2415 100.365 58.5625 99.9915 58.9631 99.7443C59.3665 99.4943 59.8082 99.3693 60.2884 99.3693C60.6548 99.3693 60.9602 99.4318 61.2045 99.5568C61.4517 99.679 61.6506 99.8324 61.8011 100.017C61.9545 100.199 62.071 100.378 62.1506 100.554H62.206V97.2727H64.017V106H62.2273V104.952H62.1506C62.0653 105.134 61.9446 105.314 61.7884 105.493C61.6349 105.669 61.4347 105.815 61.1875 105.932C60.9432 106.048 60.6449 106.107 60.2926 106.107ZM60.8679 104.662C61.1605 104.662 61.4077 104.582 61.6094 104.423C61.8139 104.261 61.9702 104.036 62.0781 103.746C62.1889 103.456 62.2443 103.116 62.2443 102.727C62.2443 102.338 62.1903 102 62.0824 101.713C61.9744 101.426 61.8182 101.205 61.6136 101.048C61.4091 100.892 61.1605 100.814 60.8679 100.814C60.5696 100.814 60.3182 100.895 60.1136 101.057C59.9091 101.219 59.7543 101.443 59.6491 101.73C59.544 102.017 59.4915 102.349 59.4915 102.727C59.4915 103.108 59.544 103.445 59.6491 103.737C59.7571 104.027 59.9119 104.254 60.1136 104.419C60.3182 104.581 60.5696 104.662 60.8679 104.662ZM68.467 106.128C67.805 106.128 67.2326 105.987 66.7496 105.706C66.2695 105.422 65.8988 105.027 65.6374 104.521C65.3761 104.013 65.2454 103.423 65.2454 102.753C65.2454 102.077 65.3761 101.486 65.6374 100.98C65.8988 100.472 66.2695 100.077 66.7496 99.7955C67.2326 99.5114 67.805 99.3693 68.467 99.3693C69.1289 99.3693 69.6999 99.5114 70.18 99.7955C70.663 100.077 71.0352 100.472 71.2965 100.98C71.5579 101.486 71.6886 102.077 71.6886 102.753C71.6886 103.423 71.5579 104.013 71.2965 104.521C71.0352 105.027 70.663 105.422 70.18 105.706C69.6999 105.987 69.1289 106.128 68.467 106.128ZM68.4755 104.722C68.7766 104.722 69.0281 104.636 69.2298 104.466C69.4315 104.293 69.5835 104.057 69.6857 103.759C69.7908 103.46 69.8434 103.121 69.8434 102.74C69.8434 102.359 69.7908 102.02 69.6857 101.722C69.5835 101.423 69.4315 101.187 69.2298 101.014C69.0281 100.841 68.7766 100.754 68.4755 100.754C68.1715 100.754 67.9158 100.841 67.7085 101.014C67.5039 101.187 67.3491 101.423 67.244 101.722C67.1417 102.02 67.0906 102.359 67.0906 102.74C67.0906 103.121 67.1417 103.46 67.244 103.759C67.3491 104.057 67.5039 104.293 67.7085 104.466C67.9158 104.636 68.1715 104.722 68.4755 104.722ZM78.0582 106.107C77.5611 106.107 77.1108 105.979 76.7074 105.723C76.3068 105.464 75.9886 105.085 75.7528 104.585C75.5199 104.082 75.4034 103.466 75.4034 102.736C75.4034 101.986 75.5241 101.362 75.7656 100.865C76.0071 100.365 76.3281 99.9915 76.7287 99.7443C77.1321 99.4943 77.5739 99.3693 78.054 99.3693C78.4205 99.3693 78.7259 99.4318 78.9702 99.5568C79.2173 99.679 79.4162 99.8324 79.5668 100.017C79.7202 100.199 79.8366 100.378 79.9162 100.554H79.9716V97.2727H81.7827V106H79.9929V104.952H79.9162C79.831 105.134 79.7102 105.314 79.554 105.493C79.4006 105.669 79.2003 105.815 78.9531 105.932C78.7088 106.048 78.4105 106.107 78.0582 106.107ZM78.6335 104.662C78.9261 104.662 79.1733 104.582 79.375 104.423C79.5795 104.261 79.7358 104.036 79.8438 103.746C79.9545 103.456 80.0099 103.116 80.0099 102.727C80.0099 102.338 79.956 102 79.848 101.713C79.7401 101.426 79.5838 101.205 79.3793 101.048C79.1747 100.892 78.9261 100.814 78.6335 100.814C78.3352 100.814 78.0838 100.895 77.8793 101.057C77.6747 101.219 77.5199 101.443 77.4148 101.73C77.3097 102.017 77.2571 102.349 77.2571 102.727C77.2571 103.108 77.3097 103.445 77.4148 103.737C77.5227 104.027 77.6776 104.254 77.8793 104.419C78.0838 104.581 78.3352 104.662 78.6335 104.662ZM86.2326 106.128C85.5707 106.128 84.9982 105.987 84.5153 105.706C84.0352 105.422 83.6644 105.027 83.4031 104.521C83.1417 104.013 83.011 103.423 83.011 102.753C83.011 102.077 83.1417 101.486 83.4031 100.98C83.6644 100.472 84.0352 100.077 84.5153 99.7955C84.9982 99.5114 85.5707 99.3693 86.2326 99.3693C86.8945 99.3693 87.4656 99.5114 87.9457 99.7955C88.4286 100.077 88.8008 100.472 89.0621 100.98C89.3235 101.486 89.4542 102.077 89.4542 102.753C89.4542 103.423 89.3235 104.013 89.0621 104.521C88.8008 105.027 88.4286 105.422 87.9457 105.706C87.4656 105.987 86.8945 106.128 86.2326 106.128ZM86.2411 104.722C86.5423 104.722 86.7937 104.636 86.9954 104.466C87.1971 104.293 87.3491 104.057 87.4513 103.759C87.5565 103.46 87.609 103.121 87.609 102.74C87.609 102.359 87.5565 102.02 87.4513 101.722C87.3491 101.423 87.1971 101.187 86.9954 101.014C86.7937 100.841 86.5423 100.754 86.2411 100.754C85.9371 100.754 85.6815 100.841 85.4741 101.014C85.2695 101.187 85.1147 101.423 85.0096 101.722C84.9073 102.02 84.8562 102.359 84.8562 102.74C84.8562 103.121 84.9073 103.46 85.0096 103.759C85.1147 104.057 85.2695 104.293 85.4741 104.466C85.6815 104.636 85.9371 104.722 86.2411 104.722ZM92.4499 102.216V106H90.6346V99.4545H92.3647V100.609H92.4414C92.5863 100.229 92.8292 99.9276 93.1701 99.706C93.511 99.4815 93.9244 99.3693 94.4102 99.3693C94.8647 99.3693 95.261 99.4688 95.5991 99.6676C95.9371 99.8665 96.1999 100.151 96.3874 100.52C96.5749 100.886 96.6687 101.324 96.6687 101.832V106H94.8533V102.156C94.8562 101.756 94.7539 101.443 94.5465 101.219C94.3391 100.991 94.0536 100.878 93.69 100.878C93.4457 100.878 93.2298 100.93 93.0423 101.036C92.8576 101.141 92.7127 101.294 92.6076 101.496C92.5053 101.695 92.4528 101.935 92.4499 102.216ZM99.9659 106.124C99.5483 106.124 99.1761 106.051 98.8494 105.906C98.5227 105.759 98.2642 105.541 98.0739 105.254C97.8864 104.964 97.7926 104.604 97.7926 104.172C97.7926 103.808 97.8594 103.503 97.9929 103.256C98.1264 103.009 98.3082 102.81 98.5384 102.659C98.7685 102.509 99.0298 102.395 99.3224 102.318C99.6179 102.241 99.9276 102.188 100.251 102.156C100.632 102.116 100.939 102.08 101.172 102.045C101.405 102.009 101.574 101.955 101.679 101.884C101.784 101.812 101.837 101.707 101.837 101.568V101.543C101.837 101.273 101.751 101.064 101.581 100.916C101.413 100.768 101.175 100.695 100.865 100.695C100.538 100.695 100.278 100.767 100.085 100.912C99.892 101.054 99.7642 101.233 99.7017 101.449L98.0227 101.312C98.108 100.915 98.2756 100.571 98.5256 100.281C98.7756 99.9886 99.098 99.7642 99.4929 99.608C99.8906 99.4489 100.351 99.3693 100.874 99.3693C101.237 99.3693 101.585 99.4119 101.918 99.4972C102.253 99.5824 102.55 99.7145 102.808 99.8935C103.07 100.072 103.276 100.303 103.426 100.584C103.577 100.862 103.652 101.196 103.652 101.585V106H101.93V105.092H101.879C101.774 105.297 101.634 105.477 101.457 105.634C101.281 105.787 101.07 105.908 100.822 105.996C100.575 106.081 100.29 106.124 99.9659 106.124ZM100.486 104.871C100.753 104.871 100.989 104.818 101.193 104.713C101.398 104.605 101.558 104.46 101.675 104.278C101.791 104.097 101.849 103.891 101.849 103.661V102.966C101.793 103.003 101.714 103.037 101.615 103.068C101.518 103.097 101.409 103.124 101.287 103.149C101.165 103.172 101.043 103.193 100.92 103.213C100.798 103.23 100.688 103.246 100.588 103.26C100.375 103.291 100.189 103.341 100.03 103.409C99.8707 103.477 99.7472 103.57 99.6591 103.686C99.571 103.8 99.527 103.942 99.527 104.112C99.527 104.359 99.6165 104.548 99.7955 104.679C99.9773 104.807 100.207 104.871 100.486 104.871ZM105.06 106V99.4545H106.82V100.597H106.888C107.008 100.19 107.208 99.8835 107.489 99.6761C107.771 99.4659 108.094 99.3608 108.461 99.3608C108.552 99.3608 108.65 99.3665 108.755 99.3778C108.86 99.3892 108.952 99.4048 109.032 99.4247V101.036C108.947 101.01 108.829 100.987 108.678 100.967C108.528 100.947 108.39 100.938 108.265 100.938C107.998 100.938 107.759 100.996 107.549 101.112C107.342 101.226 107.177 101.385 107.055 101.589C106.935 101.794 106.876 102.03 106.876 102.297V106H105.06ZM118.194 101.321L116.532 101.423C116.504 101.281 116.442 101.153 116.349 101.04C116.255 100.923 116.131 100.831 115.978 100.763C115.827 100.692 115.647 100.656 115.437 100.656C115.156 100.656 114.918 100.716 114.725 100.835C114.532 100.952 114.435 101.108 114.435 101.304C114.435 101.46 114.498 101.592 114.623 101.7C114.748 101.808 114.962 101.895 115.266 101.96L116.451 102.199C117.087 102.33 117.562 102.54 117.874 102.83C118.187 103.119 118.343 103.5 118.343 103.972C118.343 104.401 118.217 104.777 117.964 105.101C117.714 105.425 117.37 105.678 116.933 105.859C116.498 106.038 115.996 106.128 115.428 106.128C114.562 106.128 113.871 105.947 113.357 105.587C112.846 105.223 112.546 104.729 112.458 104.104L114.244 104.01C114.298 104.274 114.428 104.476 114.636 104.615C114.843 104.751 115.109 104.82 115.433 104.82C115.751 104.82 116.006 104.759 116.2 104.636C116.396 104.511 116.495 104.351 116.498 104.155C116.495 103.99 116.425 103.855 116.289 103.75C116.153 103.642 115.942 103.56 115.658 103.503L114.525 103.277C113.886 103.149 113.41 102.928 113.097 102.612C112.788 102.297 112.633 101.895 112.633 101.406C112.633 100.986 112.746 100.624 112.974 100.32C113.204 100.016 113.526 99.7812 113.941 99.6165C114.359 99.4517 114.847 99.3693 115.407 99.3693C116.234 99.3693 116.884 99.544 117.359 99.8935C117.836 100.243 118.114 100.719 118.194 101.321ZM119.486 106V99.4545H121.301V106H119.486ZM120.398 98.6108C120.128 98.6108 119.897 98.5213 119.703 98.3423C119.513 98.1605 119.418 97.9432 119.418 97.6903C119.418 97.4403 119.513 97.2259 119.703 97.0469C119.897 96.8651 120.128 96.7741 120.398 96.7741C120.668 96.7741 120.898 96.8651 121.088 97.0469C121.282 97.2259 121.378 97.4403 121.378 97.6903C121.378 97.9432 121.282 98.1605 121.088 98.3423C120.898 98.5213 120.668 98.6108 120.398 98.6108ZM123.859 106.111C123.578 106.111 123.337 106.011 123.135 105.812C122.936 105.611 122.837 105.369 122.837 105.088C122.837 104.81 122.936 104.571 123.135 104.372C123.337 104.173 123.578 104.074 123.859 104.074C124.132 104.074 124.371 104.173 124.575 104.372C124.78 104.571 124.882 104.81 124.882 105.088C124.882 105.276 124.834 105.447 124.737 105.604C124.643 105.757 124.52 105.881 124.366 105.974C124.213 106.065 124.044 106.111 123.859 106.111ZM126.864 106.111C126.582 106.111 126.341 106.011 126.139 105.812C125.94 105.611 125.841 105.369 125.841 105.088C125.841 104.81 125.94 104.571 126.139 104.372C126.341 104.173 126.582 104.074 126.864 104.074C127.136 104.074 127.375 104.173 127.58 104.372C127.784 104.571 127.886 104.81 127.886 105.088C127.886 105.276 127.838 105.447 127.741 105.604C127.648 105.757 127.524 105.881 127.371 105.974C127.217 106.065 127.048 106.111 126.864 106.111ZM129.872 106.111C129.591 106.111 129.349 106.011 129.148 105.812C128.949 105.611 128.849 105.369 128.849 105.088C128.849 104.81 128.949 104.571 129.148 104.372C129.349 104.173 129.591 104.074 129.872 104.074C130.145 104.074 130.384 104.173 130.588 104.372C130.793 104.571 130.895 104.81 130.895 105.088C130.895 105.276 130.847 105.447 130.75 105.604C130.656 105.757 130.533 105.881 130.379 105.974C130.226 106.065 130.057 106.111 129.872 106.111ZM132.636 103.384V103.239C132.638 102.741 132.683 102.345 132.768 102.05C132.856 101.754 132.984 101.516 133.151 101.334C133.319 101.152 133.521 100.987 133.756 100.839C133.933 100.726 134.09 100.608 134.229 100.486C134.369 100.364 134.479 100.229 134.562 100.081C134.644 99.9304 134.685 99.7628 134.685 99.5781C134.685 99.3821 134.638 99.2102 134.545 99.0625C134.451 98.9148 134.325 98.8011 134.165 98.7216C134.009 98.642 133.836 98.6023 133.646 98.6023C133.461 98.6023 133.286 98.6435 133.121 98.7259C132.957 98.8054 132.822 98.9247 132.717 99.0838C132.612 99.2401 132.555 99.4347 132.546 99.6676H130.808C130.822 99.0994 130.958 98.6307 131.217 98.2614C131.475 97.8892 131.817 97.6122 132.244 97.4304C132.67 97.2457 133.14 97.1534 133.654 97.1534C134.219 97.1534 134.719 97.2472 135.154 97.4347C135.589 97.6193 135.93 97.8878 136.177 98.2401C136.424 98.5923 136.548 99.017 136.548 99.5142C136.548 99.8466 136.492 100.142 136.381 100.401C136.273 100.656 136.121 100.884 135.925 101.082C135.729 101.278 135.498 101.456 135.231 101.615C135.006 101.749 134.822 101.888 134.677 102.033C134.535 102.178 134.428 102.345 134.357 102.536C134.289 102.726 134.254 102.96 134.251 103.239V103.384H132.636ZM133.479 106.111C133.195 106.111 132.952 106.011 132.751 105.812C132.552 105.611 132.454 105.369 132.457 105.088C132.454 104.81 132.552 104.571 132.751 104.372C132.952 104.173 133.195 104.074 133.479 104.074C133.749 104.074 133.987 104.173 134.191 104.372C134.396 104.571 134.499 104.81 134.502 105.088C134.499 105.276 134.45 105.447 134.353 105.604C134.259 105.757 134.136 105.881 133.982 105.974C133.829 106.065 133.661 106.111 133.479 106.111Z" fill="#212121"/>
<path d="M332 136H28C21.3726 136 16 141.373 16 148V180C16 186.627 21.3726 192 28 192H332C338.627 192 344 186.627 344 180V148C344 141.373 338.627 136 332 136Z" fill="white" stroke="#D0D0D0"/>
<path d="M28.7585 170V161.273H32.2017C32.8608 161.273 33.4233 161.391 33.8892 161.626C34.358 161.859 34.7145 162.19 34.9588 162.619C35.206 163.045 35.3295 163.547 35.3295 164.124C35.3295 164.703 35.2045 165.202 34.9545 165.619C34.7045 166.034 34.3423 166.352 33.8679 166.574C33.3963 166.795 32.8253 166.906 32.1548 166.906H29.8494V165.423H31.8565C32.2088 165.423 32.5014 165.375 32.7344 165.278C32.9673 165.182 33.1406 165.037 33.2543 164.844C33.3707 164.651 33.429 164.411 33.429 164.124C33.429 163.834 33.3707 163.589 33.2543 163.391C33.1406 163.192 32.9659 163.041 32.7301 162.939C32.4972 162.834 32.2031 162.781 31.848 162.781H30.6037V170H28.7585ZM33.4716 166.028L35.6406 170H33.6037L31.4815 166.028H33.4716ZM39.4769 170.128C38.8036 170.128 38.2241 169.991 37.7383 169.719C37.2553 169.443 36.8832 169.054 36.6218 168.551C36.3604 168.045 36.2298 167.447 36.2298 166.757C36.2298 166.084 36.3604 165.493 36.6218 164.984C36.8832 164.476 37.2511 164.08 37.7255 163.795C38.2028 163.511 38.7624 163.369 39.4045 163.369C39.8363 163.369 40.2383 163.439 40.6104 163.578C40.9854 163.714 41.3121 163.92 41.5906 164.196C41.8718 164.472 42.0906 164.818 42.2468 165.236C42.4031 165.651 42.4812 166.136 42.4812 166.693V167.192H36.9542V166.067H40.7724C40.7724 165.805 40.7156 165.574 40.6019 165.372C40.4883 165.17 40.3306 165.013 40.1289 164.899C39.93 164.783 39.6985 164.724 39.4343 164.724C39.1587 164.724 38.9144 164.788 38.7013 164.916C38.4911 165.041 38.3263 165.21 38.207 165.423C38.0877 165.634 38.0266 165.868 38.0238 166.126V167.196C38.0238 167.52 38.0835 167.8 38.2028 168.036C38.3249 168.271 38.4968 168.453 38.7184 168.581C38.94 168.709 39.2028 168.773 39.5067 168.773C39.7085 168.773 39.8931 168.744 40.0607 168.688C40.2283 168.631 40.3718 168.545 40.4911 168.432C40.6104 168.318 40.7013 168.179 40.7638 168.014L42.4428 168.125C42.3576 168.528 42.1829 168.881 41.9187 169.182C41.6573 169.48 41.3192 169.713 40.9045 169.881C40.4925 170.045 40.0167 170.128 39.4769 170.128ZM47.9911 172.455V168.952H47.9357C47.8505 169.134 47.7298 169.314 47.5735 169.493C47.4201 169.669 47.2198 169.815 46.9727 169.932C46.7283 170.048 46.43 170.107 46.0778 170.107C45.5806 170.107 45.1303 169.979 44.7269 169.723C44.3263 169.464 44.0082 169.085 43.7724 168.585C43.5394 168.082 43.4229 167.466 43.4229 166.736C43.4229 165.986 43.5437 165.362 43.7852 164.865C44.0266 164.365 44.3477 163.991 44.7482 163.744C45.1516 163.494 45.5934 163.369 46.0735 163.369C46.44 163.369 46.7454 163.432 46.9897 163.557C47.2369 163.679 47.4357 163.832 47.5863 164.017C47.7397 164.199 47.8562 164.378 47.9357 164.554H48.0124V163.455H49.8022V172.455H47.9911ZM46.6531 168.662C46.9457 168.662 47.1928 168.582 47.3945 168.423C47.5991 168.261 47.7553 168.036 47.8633 167.746C47.9741 167.456 48.0295 167.116 48.0295 166.727C48.0295 166.338 47.9755 166 47.8675 165.713C47.7596 165.426 47.6033 165.205 47.3988 165.048C47.1942 164.892 46.9457 164.814 46.6531 164.814C46.3548 164.814 46.1033 164.895 45.8988 165.057C45.6942 165.219 45.5394 165.443 45.4343 165.73C45.3292 166.017 45.2766 166.349 45.2766 166.727C45.2766 167.108 45.3292 167.445 45.4343 167.737C45.5423 168.027 45.6971 168.254 45.8988 168.419C46.1033 168.581 46.3548 168.662 46.6531 168.662ZM55.457 167.213V163.455H57.2724V170H55.5295V168.811H55.4613C55.3136 169.195 55.0678 169.503 54.7241 169.736C54.3832 169.969 53.967 170.085 53.4755 170.085C53.038 170.085 52.6531 169.986 52.3207 169.787C51.9883 169.588 51.7283 169.305 51.5408 168.939C51.3562 168.572 51.2624 168.134 51.2596 167.622V163.455H53.0749V167.298C53.0778 167.685 53.1815 167.99 53.386 168.214C53.5906 168.439 53.8647 168.551 54.2085 168.551C54.4272 168.551 54.6317 168.501 54.8221 168.402C55.0124 168.3 55.1658 168.149 55.2823 167.95C55.4016 167.751 55.4599 167.506 55.457 167.213ZM58.7244 170V163.455H60.5398V170H58.7244ZM59.6364 162.611C59.3665 162.611 59.1349 162.521 58.9418 162.342C58.7514 162.161 58.6562 161.943 58.6562 161.69C58.6562 161.44 58.7514 161.226 58.9418 161.047C59.1349 160.865 59.3665 160.774 59.6364 160.774C59.9063 160.774 60.1364 160.865 60.3267 161.047C60.5199 161.226 60.6165 161.44 60.6165 161.69C60.6165 161.943 60.5199 162.161 60.3267 162.342C60.1364 162.521 59.9063 162.611 59.6364 162.611ZM67.44 165.321L65.7781 165.423C65.7496 165.281 65.6886 165.153 65.5948 165.04C65.5011 164.923 65.3775 164.831 65.2241 164.763C65.0735 164.692 64.8931 164.656 64.6829 164.656C64.4016 164.656 64.1644 164.716 63.9712 164.835C63.7781 164.952 63.6815 165.108 63.6815 165.304C63.6815 165.46 63.744 165.592 63.869 165.7C63.994 165.808 64.2085 165.895 64.5124 165.96L65.6971 166.199C66.3335 166.33 66.8079 166.54 67.1204 166.83C67.4329 167.119 67.5891 167.5 67.5891 167.972C67.5891 168.401 67.4627 168.777 67.2099 169.101C66.9599 169.425 66.6161 169.678 66.1786 169.859C65.744 170.038 65.2425 170.128 64.6744 170.128C63.8079 170.128 63.1175 169.947 62.6033 169.587C62.092 169.223 61.7923 168.729 61.7042 168.104L63.4897 168.01C63.5437 168.274 63.6744 168.476 63.8817 168.615C64.0891 168.751 64.3548 168.82 64.6786 168.82C64.9968 168.82 65.2525 168.759 65.4457 168.636C65.6417 168.511 65.7411 168.351 65.744 168.155C65.7411 167.99 65.6715 167.855 65.5352 167.75C65.3988 167.642 65.1886 167.56 64.9045 167.503L63.771 167.277C63.1317 167.149 62.6559 166.928 62.3434 166.612C62.0337 166.297 61.8789 165.895 61.8789 165.406C61.8789 164.986 61.9925 164.624 62.2198 164.32C62.4499 164.016 62.7724 163.781 63.1871 163.616C63.6048 163.452 64.0934 163.369 64.6531 163.369C65.4798 163.369 66.1303 163.544 66.6048 163.893C67.082 164.243 67.3604 164.719 67.44 165.321ZM68.7322 170V163.455H70.5476V170H68.7322ZM69.6442 162.611C69.3743 162.611 69.1428 162.521 68.9496 162.342C68.7592 162.161 68.6641 161.943 68.6641 161.69C68.6641 161.44 68.7592 161.226 68.9496 161.047C69.1428 160.865 69.3743 160.774 69.6442 160.774C69.9141 160.774 70.1442 160.865 70.3345 161.047C70.5277 161.226 70.6243 161.44 70.6243 161.69C70.6243 161.943 70.5277 162.161 70.3345 162.342C70.1442 162.521 69.9141 162.611 69.6442 162.611ZM75.4833 163.455V164.818H71.5415V163.455H75.4833ZM72.4364 161.886H74.2518V167.989C74.2518 168.156 74.2773 168.287 74.3285 168.381C74.3796 168.472 74.4506 168.536 74.5415 168.572C74.6353 168.609 74.7433 168.628 74.8654 168.628C74.9506 168.628 75.0359 168.621 75.1211 168.607C75.2063 168.589 75.2717 168.577 75.3171 168.568L75.6026 169.919C75.5117 169.947 75.3839 169.98 75.2191 170.017C75.0543 170.057 74.854 170.081 74.6183 170.089C74.1808 170.107 73.7972 170.048 73.4677 169.915C73.141 169.781 72.8867 169.574 72.7049 169.293C72.5231 169.011 72.4336 168.656 72.4364 168.227V161.886ZM79.5529 170.128C78.891 170.128 78.3185 169.987 77.8356 169.706C77.3555 169.422 76.9847 169.027 76.7234 168.521C76.462 168.013 76.3313 167.423 76.3313 166.753C76.3313 166.077 76.462 165.486 76.7234 164.98C76.9847 164.472 77.3555 164.077 77.8356 163.795C78.3185 163.511 78.891 163.369 79.5529 163.369C80.2148 163.369 80.7859 163.511 81.266 163.795C81.7489 164.077 82.1211 164.472 82.3825 164.98C82.6438 165.486 82.7745 166.077 82.7745 166.753C82.7745 167.423 82.6438 168.013 82.3825 168.521C82.1211 169.027 81.7489 169.422 81.266 169.706C80.7859 169.987 80.2148 170.128 79.5529 170.128ZM79.5614 168.722C79.8626 168.722 80.114 168.636 80.3157 168.466C80.5174 168.293 80.6694 168.057 80.7717 167.759C80.8768 167.46 80.9293 167.121 80.9293 166.74C80.9293 166.359 80.8768 166.02 80.7717 165.722C80.6694 165.423 80.5174 165.187 80.3157 165.014C80.114 164.841 79.8626 164.754 79.5614 164.754C79.2575 164.754 79.0018 164.841 78.7944 165.014C78.5898 165.187 78.435 165.423 78.3299 165.722C78.2276 166.02 78.1765 166.359 78.1765 166.74C78.1765 167.121 78.2276 167.46 78.3299 167.759C78.435 168.057 78.5898 168.293 78.7944 168.466C79.0018 168.636 79.2575 168.722 79.5614 168.722ZM89.4009 165.321L87.739 165.423C87.7106 165.281 87.6495 165.153 87.5558 165.04C87.462 164.923 87.3384 164.831 87.185 164.763C87.0344 164.692 86.854 164.656 86.6438 164.656C86.3626 164.656 86.1254 164.716 85.9322 164.835C85.739 164.952 85.6424 165.108 85.6424 165.304C85.6424 165.46 85.7049 165.592 85.8299 165.7C85.9549 165.808 86.1694 165.895 86.4734 165.96L87.658 166.199C88.2944 166.33 88.7688 166.54 89.0813 166.83C89.3938 167.119 89.5501 167.5 89.5501 167.972C89.5501 168.401 89.4237 168.777 89.1708 169.101C88.9208 169.425 88.5771 169.678 88.1396 169.859C87.7049 170.038 87.2035 170.128 86.6353 170.128C85.7688 170.128 85.0785 169.947 84.5643 169.587C84.0529 169.223 83.7532 168.729 83.6651 168.104L85.4506 168.01C85.5046 168.274 85.6353 168.476 85.8427 168.615C86.0501 168.751 86.3157 168.82 86.6396 168.82C86.9577 168.82 87.2134 168.759 87.4066 168.636C87.6026 168.511 87.7021 168.351 87.7049 168.155C87.7021 167.99 87.6325 167.855 87.4961 167.75C87.3597 167.642 87.1495 167.56 86.8654 167.503L85.7319 167.277C85.0927 167.149 84.6168 166.928 84.3043 166.612C83.9947 166.297 83.8398 165.895 83.8398 165.406C83.8398 164.986 83.9535 164.624 84.1808 164.32C84.4109 164.016 84.7333 163.781 85.1481 163.616C85.5657 163.452 86.0543 163.369 86.614 163.369C87.4407 163.369 88.0913 163.544 88.5657 163.893C89.043 164.243 89.3214 164.719 89.4009 165.321ZM93.5046 170V161.273H95.32V164.554H95.3754C95.4549 164.378 95.57 164.199 95.7205 164.017C95.8739 163.832 96.0728 163.679 96.3171 163.557C96.5643 163.432 96.8711 163.369 97.2376 163.369C97.7148 163.369 98.1552 163.494 98.5586 163.744C98.962 163.991 99.2844 164.365 99.5259 164.865C99.7674 165.362 99.8881 165.986 99.8881 166.736C99.8881 167.466 99.7702 168.082 99.5344 168.585C99.3015 169.085 98.9833 169.464 98.5799 169.723C98.1793 169.979 97.7305 170.107 97.2333 170.107C96.881 170.107 96.5813 170.048 96.3342 169.932C96.0898 169.815 95.8896 169.669 95.7333 169.493C95.5771 169.314 95.4577 169.134 95.3754 168.952H95.2944V170H93.5046ZM95.2816 166.727C95.2816 167.116 95.3356 167.456 95.4435 167.746C95.5515 168.036 95.7077 168.261 95.9123 168.423C96.1168 168.582 96.3654 168.662 96.658 168.662C96.9535 168.662 97.2035 168.581 97.408 168.419C97.6126 168.254 97.7674 168.027 97.8725 167.737C97.9805 167.445 98.0344 167.108 98.0344 166.727C98.0344 166.349 97.9819 166.017 97.8768 165.73C97.7717 165.443 97.6168 165.219 97.4123 165.057C97.2077 164.895 96.9563 164.814 96.658 164.814C96.3626 164.814 96.1126 164.892 95.908 165.048C95.7063 165.205 95.5515 165.426 95.4435 165.713C95.3356 166 95.2816 166.338 95.2816 166.727ZM102.966 170.124C102.548 170.124 102.176 170.051 101.849 169.906C101.523 169.759 101.264 169.541 101.074 169.254C100.886 168.964 100.793 168.604 100.793 168.172C100.793 167.808 100.859 167.503 100.993 167.256C101.126 167.009 101.308 166.81 101.538 166.659C101.768 166.509 102.03 166.395 102.322 166.318C102.618 166.241 102.928 166.188 103.251 166.156C103.632 166.116 103.939 166.08 104.172 166.045C104.405 166.009 104.574 165.955 104.679 165.884C104.784 165.812 104.837 165.707 104.837 165.568V165.543C104.837 165.273 104.751 165.064 104.581 164.916C104.413 164.768 104.175 164.695 103.865 164.695C103.538 164.695 103.278 164.767 103.085 164.912C102.892 165.054 102.764 165.233 102.702 165.449L101.023 165.312C101.108 164.915 101.276 164.571 101.526 164.281C101.776 163.989 102.098 163.764 102.493 163.608C102.891 163.449 103.351 163.369 103.874 163.369C104.237 163.369 104.585 163.412 104.918 163.497C105.253 163.582 105.55 163.714 105.808 163.893C106.07 164.072 106.276 164.303 106.426 164.584C106.577 164.862 106.652 165.196 106.652 165.585V170H104.93V169.092H104.879C104.774 169.297 104.634 169.477 104.457 169.634C104.281 169.787 104.07 169.908 103.822 169.996C103.575 170.081 103.29 170.124 102.966 170.124ZM103.486 168.871C103.753 168.871 103.989 168.818 104.193 168.713C104.398 168.605 104.558 168.46 104.675 168.278C104.791 168.097 104.849 167.891 104.849 167.661V166.966C104.793 167.003 104.714 167.037 104.615 167.068C104.518 167.097 104.409 167.124 104.287 167.149C104.165 167.172 104.043 167.193 103.92 167.213C103.798 167.23 103.688 167.246 103.588 167.26C103.375 167.291 103.189 167.341 103.03 167.409C102.871 167.477 102.747 167.57 102.659 167.686C102.571 167.8 102.527 167.942 102.527 168.112C102.527 168.359 102.616 168.548 102.795 168.679C102.977 168.807 103.207 168.871 103.486 168.871ZM103.29 162.611L104.193 160.672H105.872L104.572 162.611H103.29ZM113.506 165.321L111.844 165.423C111.816 165.281 111.755 165.153 111.661 165.04C111.567 164.923 111.444 164.831 111.29 164.763C111.14 164.692 110.96 164.656 110.749 164.656C110.468 164.656 110.231 164.716 110.038 164.835C109.844 164.952 109.748 165.108 109.748 165.304C109.748 165.46 109.81 165.592 109.935 165.7C110.06 165.808 110.275 165.895 110.579 165.96L111.763 166.199C112.4 166.33 112.874 166.54 113.187 166.83C113.499 167.119 113.656 167.5 113.656 167.972C113.656 168.401 113.529 168.777 113.276 169.101C113.026 169.425 112.683 169.678 112.245 169.859C111.81 170.038 111.309 170.128 110.741 170.128C109.874 170.128 109.184 169.947 108.67 169.587C108.158 169.223 107.859 168.729 107.771 168.104L109.556 168.01C109.61 168.274 109.741 168.476 109.948 168.615C110.156 168.751 110.421 168.82 110.745 168.82C111.063 168.82 111.319 168.759 111.512 168.636C111.708 168.511 111.808 168.351 111.81 168.155C111.808 167.99 111.738 167.855 111.602 167.75C111.465 167.642 111.255 167.56 110.971 167.503L109.837 167.277C109.198 167.149 108.722 166.928 108.41 166.612C108.1 166.297 107.945 165.895 107.945 165.406C107.945 164.986 108.059 164.624 108.286 164.32C108.516 164.016 108.839 163.781 109.254 163.616C109.671 163.452 110.16 163.369 110.719 163.369C111.546 163.369 112.197 163.544 112.671 163.893C113.148 164.243 113.427 164.719 113.506 165.321ZM114.799 170V163.455H116.614V170H114.799ZM115.711 162.611C115.441 162.611 115.209 162.521 115.016 162.342C114.826 162.161 114.73 161.943 114.73 161.69C114.73 161.44 114.826 161.226 115.016 161.047C115.209 160.865 115.441 160.774 115.711 160.774C115.98 160.774 116.211 160.865 116.401 161.047C116.594 161.226 116.691 161.44 116.691 161.69C116.691 161.943 116.594 162.161 116.401 162.342C116.211 162.521 115.98 162.611 115.711 162.611ZM121.026 170.128C120.355 170.128 119.778 169.986 119.295 169.702C118.815 169.415 118.446 169.017 118.188 168.509C117.932 168 117.804 167.415 117.804 166.753C117.804 166.082 117.933 165.494 118.192 164.989C118.453 164.48 118.824 164.084 119.304 163.8C119.784 163.513 120.355 163.369 121.017 163.369C121.588 163.369 122.088 163.473 122.517 163.68C122.946 163.888 123.286 164.179 123.536 164.554C123.786 164.929 123.923 165.369 123.949 165.875H122.236C122.188 165.548 122.06 165.286 121.852 165.087C121.648 164.885 121.379 164.784 121.047 164.784C120.766 164.784 120.52 164.861 120.31 165.014C120.102 165.165 119.94 165.385 119.824 165.675C119.707 165.964 119.649 166.315 119.649 166.727C119.649 167.145 119.706 167.5 119.82 167.793C119.936 168.085 120.099 168.308 120.31 168.462C120.52 168.615 120.766 168.692 121.047 168.692C121.254 168.692 121.44 168.649 121.605 168.564C121.773 168.479 121.911 168.355 122.018 168.193C122.129 168.028 122.202 167.831 122.236 167.601H123.949C123.92 168.101 123.784 168.541 123.54 168.922C123.298 169.3 122.964 169.595 122.538 169.808C122.112 170.021 121.608 170.128 121.026 170.128ZM128.069 170.128C127.407 170.128 126.834 169.987 126.351 169.706C125.871 169.422 125.5 169.027 125.239 168.521C124.978 168.013 124.847 167.423 124.847 166.753C124.847 166.077 124.978 165.486 125.239 164.98C125.5 164.472 125.871 164.077 126.351 163.795C126.834 163.511 127.407 163.369 128.069 163.369C128.73 163.369 129.301 163.511 129.782 163.795C130.265 164.077 130.637 164.472 130.898 164.98C131.159 165.486 131.29 166.077 131.29 166.753C131.29 167.423 131.159 168.013 130.898 168.521C130.637 169.027 130.265 169.422 129.782 169.706C129.301 169.987 128.73 170.128 128.069 170.128ZM128.077 168.722C128.378 168.722 128.63 168.636 128.831 168.466C129.033 168.293 129.185 168.057 129.287 167.759C129.392 167.46 129.445 167.121 129.445 166.74C129.445 166.359 129.392 166.02 129.287 165.722C129.185 165.423 129.033 165.187 128.831 165.014C128.63 164.841 128.378 164.754 128.077 164.754C127.773 164.754 127.517 164.841 127.31 165.014C127.105 165.187 126.951 165.423 126.846 165.722C126.743 166.02 126.692 166.359 126.692 166.74C126.692 167.121 126.743 167.46 126.846 167.759C126.951 168.057 127.105 168.293 127.31 168.466C127.517 168.636 127.773 168.722 128.077 168.722ZM137.917 165.321L136.255 165.423C136.226 165.281 136.165 165.153 136.071 165.04C135.978 164.923 135.854 164.831 135.701 164.763C135.55 164.692 135.37 164.656 135.159 164.656C134.878 164.656 134.641 164.716 134.448 164.835C134.255 164.952 134.158 165.108 134.158 165.304C134.158 165.46 134.221 165.592 134.346 165.7C134.471 165.808 134.685 165.895 134.989 165.96L136.174 166.199C136.81 166.33 137.284 166.54 137.597 166.83C137.909 167.119 138.066 167.5 138.066 167.972C138.066 168.401 137.939 168.777 137.686 169.101C137.436 169.425 137.093 169.678 136.655 169.859C136.221 170.038 135.719 170.128 135.151 170.128C134.284 170.128 133.594 169.947 133.08 169.587C132.569 169.223 132.269 168.729 132.181 168.104L133.966 168.01C134.02 168.274 134.151 168.476 134.358 168.615C134.566 168.751 134.831 168.82 135.155 168.82C135.473 168.82 135.729 168.759 135.922 168.636C136.118 168.511 136.218 168.351 136.221 168.155C136.218 167.99 136.148 167.855 136.012 167.75C135.875 167.642 135.665 167.56 135.381 167.503L134.248 167.277C133.608 167.149 133.132 166.928 132.82 166.612C132.51 166.297 132.355 165.895 132.355 165.406C132.355 164.986 132.469 164.624 132.696 164.32C132.926 164.016 133.249 163.781 133.664 163.616C134.081 163.452 134.57 163.369 135.13 163.369C135.956 163.369 136.607 163.544 137.081 163.893C137.559 164.243 137.837 164.719 137.917 165.321Z" fill="#212121"/>
<path d="M332 200H28C21.3726 200 16 205.373 16 212V244C16 250.627 21.3726 256 28 256H332C338.627 256 344 250.627 344 244V212C344 205.373 338.627 200 332 200Z" fill="white" stroke="#D0D0D0"/>
<path d="M28.7585 234V225.273H32.2017C32.8636 225.273 33.4276 225.399 33.8935 225.652C34.3594 225.902 34.7145 226.25 34.9588 226.696C35.206 227.139 35.3295 227.651 35.3295 228.23C35.3295 228.81 35.2045 229.321 34.9545 229.764C34.7045 230.207 34.3423 230.553 33.8679 230.8C33.3963 231.047 32.8253 231.17 32.1548 231.17H29.9602V229.692H31.8565C32.2116 229.692 32.5043 229.631 32.7344 229.509C32.9673 229.384 33.1406 229.212 33.2543 228.993C33.3707 228.771 33.429 228.517 33.429 228.23C33.429 227.94 33.3707 227.687 33.2543 227.472C33.1406 227.253 32.9673 227.084 32.7344 226.964C32.5014 226.842 32.206 226.781 31.848 226.781H30.6037V234H28.7585ZM36.494 234V227.455H38.2539V228.597H38.3221C38.4414 228.19 38.6417 227.884 38.9229 227.676C39.2042 227.466 39.5281 227.361 39.8945 227.361C39.9854 227.361 40.0835 227.366 40.1886 227.378C40.2937 227.389 40.386 227.405 40.4656 227.425V229.036C40.3803 229.01 40.2624 228.987 40.1119 228.967C39.9613 228.947 39.8235 228.938 39.6985 228.938C39.4315 228.938 39.1928 228.996 38.9826 229.112C38.7752 229.226 38.6104 229.385 38.4883 229.589C38.369 229.794 38.3093 230.03 38.3093 230.297V234H36.494ZM44.0824 234.128C43.4091 234.128 42.8295 233.991 42.3438 233.719C41.8608 233.443 41.4886 233.054 41.2273 232.551C40.9659 232.045 40.8352 231.447 40.8352 230.757C40.8352 230.084 40.9659 229.493 41.2273 228.984C41.4886 228.476 41.8565 228.08 42.331 227.795C42.8082 227.511 43.3679 227.369 44.0099 227.369C44.4418 227.369 44.8438 227.439 45.2159 227.578C45.5909 227.714 45.9176 227.92 46.196 228.196C46.4773 228.472 46.696 228.818 46.8523 229.236C47.0085 229.651 47.0866 230.136 47.0866 230.693V231.192H41.5597V230.067H45.3778C45.3778 229.805 45.321 229.574 45.2074 229.372C45.0938 229.17 44.9361 229.013 44.7344 228.899C44.5355 228.783 44.304 228.724 44.0398 228.724C43.7642 228.724 43.5199 228.788 43.3068 228.916C43.0966 229.041 42.9318 229.21 42.8125 229.423C42.6932 229.634 42.6321 229.868 42.6293 230.126V231.196C42.6293 231.52 42.6889 231.8 42.8082 232.036C42.9304 232.271 43.1023 232.453 43.3239 232.581C43.5455 232.709 43.8082 232.773 44.1122 232.773C44.3139 232.773 44.4986 232.744 44.6662 232.688C44.8338 232.631 44.9773 232.545 45.0966 232.432C45.2159 232.318 45.3068 232.179 45.3693 232.014L47.0483 232.125C46.9631 232.528 46.7884 232.881 46.5241 233.182C46.2628 233.48 45.9247 233.713 45.5099 233.881C45.098 234.045 44.6222 234.128 44.0824 234.128ZM48.2713 236.455V227.455H50.0611V228.554H50.142C50.2216 228.378 50.3366 228.199 50.4872 228.017C50.6406 227.832 50.8395 227.679 51.0838 227.557C51.331 227.432 51.6378 227.369 52.0043 227.369C52.4815 227.369 52.9219 227.494 53.3253 227.744C53.7287 227.991 54.0511 228.365 54.2926 228.865C54.5341 229.362 54.6548 229.986 54.6548 230.736C54.6548 231.466 54.5369 232.082 54.3011 232.585C54.0682 233.085 53.75 233.464 53.3466 233.723C52.946 233.979 52.4972 234.107 52 234.107C51.6477 234.107 51.348 234.048 51.1009 233.932C50.8565 233.815 50.6562 233.669 50.5 233.493C50.3438 233.314 50.2244 233.134 50.142 232.952H50.0866V236.455H48.2713ZM50.0483 230.727C50.0483 231.116 50.1023 231.456 50.2102 231.746C50.3182 232.036 50.4744 232.261 50.679 232.423C50.8835 232.582 51.1321 232.662 51.4247 232.662C51.7202 232.662 51.9702 232.581 52.1747 232.419C52.3793 232.254 52.5341 232.027 52.6392 231.737C52.7472 231.445 52.8011 231.108 52.8011 230.727C52.8011 230.349 52.7486 230.017 52.6435 229.73C52.5384 229.443 52.3835 229.219 52.179 229.057C51.9744 228.895 51.723 228.814 51.4247 228.814C51.1293 228.814 50.8793 228.892 50.6747 229.048C50.473 229.205 50.3182 229.426 50.2102 229.713C50.1023 230 50.0483 230.338 50.0483 230.727ZM57.7315 234.124C57.3139 234.124 56.9418 234.051 56.6151 233.906C56.2884 233.759 56.0298 233.541 55.8395 233.254C55.652 232.964 55.5582 232.604 55.5582 232.172C55.5582 231.808 55.625 231.503 55.7585 231.256C55.892 231.009 56.0739 230.81 56.304 230.659C56.5341 230.509 56.7955 230.395 57.0881 230.318C57.3835 230.241 57.6932 230.188 58.017 230.156C58.3977 230.116 58.7045 230.08 58.9375 230.045C59.1705 230.009 59.3395 229.955 59.4446 229.884C59.5497 229.812 59.6023 229.707 59.6023 229.568V229.543C59.6023 229.273 59.517 229.064 59.3466 228.916C59.179 228.768 58.9403 228.695 58.6307 228.695C58.304 228.695 58.044 228.767 57.8509 228.912C57.6577 229.054 57.5298 229.233 57.4673 229.449L55.7884 229.312C55.8736 228.915 56.0412 228.571 56.2912 228.281C56.5412 227.989 56.8636 227.764 57.2585 227.608C57.6563 227.449 58.1165 227.369 58.6392 227.369C59.0028 227.369 59.3509 227.412 59.6832 227.497C60.0185 227.582 60.3153 227.714 60.5739 227.893C60.8352 228.072 61.0412 228.303 61.1918 228.584C61.3423 228.862 61.4176 229.196 61.4176 229.585V234H59.696V233.092H59.6449C59.5398 233.297 59.3991 233.477 59.223 233.634C59.0469 233.787 58.8352 233.908 58.5881 233.996C58.3409 234.081 58.0554 234.124 57.7315 234.124ZM58.2514 232.871C58.5185 232.871 58.7543 232.818 58.9588 232.713C59.1634 232.605 59.3239 232.46 59.4403 232.278C59.5568 232.097 59.6151 231.891 59.6151 231.661V230.966C59.5582 231.003 59.4801 231.037 59.3807 231.068C59.2841 231.097 59.1747 231.124 59.0526 231.149C58.9304 231.172 58.8082 231.193 58.6861 231.213C58.5639 231.23 58.4531 231.246 58.3537 231.26C58.1406 231.291 57.9545 231.341 57.7955 231.409C57.6364 231.477 57.5128 231.57 57.4247 231.686C57.3366 231.8 57.2926 231.942 57.2926 232.112C57.2926 232.359 57.3821 232.548 57.5611 232.679C57.7429 232.807 57.973 232.871 58.2514 232.871ZM62.826 234V227.455H64.5859V228.597H64.6541C64.7734 228.19 64.9737 227.884 65.255 227.676C65.5362 227.466 65.8601 227.361 66.2266 227.361C66.3175 227.361 66.4155 227.366 66.5206 227.378C66.6257 227.389 66.718 227.405 66.7976 227.425V229.036C66.7124 229.01 66.5945 228.987 66.4439 228.967C66.2933 228.947 66.1555 228.938 66.0305 228.938C65.7635 228.938 65.5249 228.996 65.3146 229.112C65.1072 229.226 64.9425 229.385 64.8203 229.589C64.701 229.794 64.6413 230.03 64.6413 230.297V234H62.826ZM69.4151 234.124C68.9975 234.124 68.6254 234.051 68.2987 233.906C67.9719 233.759 67.7134 233.541 67.5231 233.254C67.3356 232.964 67.2418 232.604 67.2418 232.172C67.2418 231.808 67.3086 231.503 67.4421 231.256C67.5756 231.009 67.7575 230.81 67.9876 230.659C68.2177 230.509 68.479 230.395 68.7717 230.318C69.0671 230.241 69.3768 230.188 69.7006 230.156C70.0813 230.116 70.3881 230.08 70.6211 230.045C70.854 230.009 71.0231 229.955 71.1282 229.884C71.2333 229.812 71.2859 229.707 71.2859 229.568V229.543C71.2859 229.273 71.2006 229.064 71.0302 228.916C70.8626 228.768 70.6239 228.695 70.3143 228.695C69.9876 228.695 69.7276 228.767 69.5344 228.912C69.3413 229.054 69.2134 229.233 69.1509 229.449L67.4719 229.312C67.5572 228.915 67.7248 228.571 67.9748 228.281C68.2248 227.989 68.5472 227.764 68.9421 227.608C69.3398 227.449 69.8001 227.369 70.3228 227.369C70.6864 227.369 71.0344 227.412 71.3668 227.497C71.7021 227.582 71.9989 227.714 72.2575 227.893C72.5188 228.072 72.7248 228.303 72.8754 228.584C73.0259 228.862 73.1012 229.196 73.1012 229.585V234H71.3796V233.092H71.3285C71.2234 233.297 71.0827 233.477 70.9066 233.634C70.7305 233.787 70.5188 233.908 70.2717 233.996C70.0245 234.081 69.739 234.124 69.4151 234.124ZM69.935 232.871C70.2021 232.871 70.4379 232.818 70.6424 232.713C70.8469 232.605 71.0075 232.46 71.1239 232.278C71.2404 232.097 71.2987 231.891 71.2987 231.661V230.966C71.2418 231.003 71.1637 231.037 71.0643 231.068C70.9677 231.097 70.8583 231.124 70.7362 231.149C70.614 231.172 70.4918 231.193 70.3697 231.213C70.2475 231.23 70.1367 231.246 70.0373 231.26C69.8242 231.291 69.6381 231.341 69.479 231.409C69.32 231.477 69.1964 231.57 69.1083 231.686C69.0202 231.8 68.9762 231.942 68.9762 232.112C68.9762 232.359 69.0657 232.548 69.2447 232.679C69.4265 232.807 69.6566 232.871 69.935 232.871ZM77.467 234.128C76.7965 234.128 76.2198 233.986 75.7369 233.702C75.2567 233.415 74.8874 233.017 74.6289 232.509C74.3732 232 74.2454 231.415 74.2454 230.753C74.2454 230.082 74.3746 229.494 74.6332 228.989C74.8945 228.48 75.2653 228.084 75.7454 227.8C76.2255 227.513 76.7965 227.369 77.4585 227.369C78.0295 227.369 78.5295 227.473 78.9585 227.68C79.3874 227.888 79.7269 228.179 79.9769 228.554C80.2269 228.929 80.3647 229.369 80.3903 229.875H78.6772C78.6289 229.548 78.5011 229.286 78.2937 229.087C78.0891 228.885 77.8207 228.784 77.4883 228.784C77.207 228.784 76.9613 228.861 76.7511 229.014C76.5437 229.165 76.3817 229.385 76.2653 229.675C76.1488 229.964 76.0906 230.315 76.0906 230.727C76.0906 231.145 76.1474 231.5 76.261 231.793C76.3775 232.085 76.5408 232.308 76.7511 232.462C76.9613 232.615 77.207 232.692 77.4883 232.692C77.6957 232.692 77.8817 232.649 78.0465 232.564C78.2141 232.479 78.3519 232.355 78.4599 232.193C78.5707 232.028 78.6431 231.831 78.6772 231.601H80.3903C80.3619 232.101 80.2255 232.541 79.9812 232.922C79.7397 233.3 79.4059 233.595 78.9798 233.808C78.5536 234.021 78.0494 234.128 77.467 234.128ZM81.5526 234V227.455H83.3679V234H81.5526ZM82.4645 226.611C82.1946 226.611 81.9631 226.521 81.7699 226.342C81.5795 226.161 81.4844 225.943 81.4844 225.69C81.4844 225.44 81.5795 225.226 81.7699 225.047C81.9631 224.865 82.1946 224.774 82.4645 224.774C82.7344 224.774 82.9645 224.865 83.1548 225.047C83.348 225.226 83.4446 225.44 83.4446 225.69C83.4446 225.943 83.348 226.161 83.1548 226.342C82.9645 226.521 82.7344 226.611 82.4645 226.611ZM87.7795 234.128C87.1175 234.128 86.5451 233.987 86.0621 233.706C85.582 233.422 85.2113 233.027 84.9499 232.521C84.6886 232.013 84.5579 231.423 84.5579 230.753C84.5579 230.077 84.6886 229.486 84.9499 228.98C85.2113 228.472 85.582 228.077 86.0621 227.795C86.5451 227.511 87.1175 227.369 87.7795 227.369C88.4414 227.369 89.0124 227.511 89.4925 227.795C89.9755 228.077 90.3477 228.472 90.609 228.98C90.8704 229.486 91.0011 230.077 91.0011 230.753C91.0011 231.423 90.8704 232.013 90.609 232.521C90.3477 233.027 89.9755 233.422 89.4925 233.706C89.0124 233.987 88.4414 234.128 87.7795 234.128ZM87.788 232.722C88.0891 232.722 88.3406 232.636 88.5423 232.466C88.744 232.293 88.896 232.057 88.9982 231.759C89.1033 231.46 89.1559 231.121 89.1559 230.74C89.1559 230.359 89.1033 230.02 88.9982 229.722C88.896 229.423 88.744 229.187 88.5423 229.014C88.3406 228.841 88.0891 228.754 87.788 228.754C87.484 228.754 87.2283 228.841 87.021 229.014C86.8164 229.187 86.6616 229.423 86.5565 229.722C86.4542 230.02 86.4031 230.359 86.4031 230.74C86.4031 231.121 86.4542 231.46 86.5565 231.759C86.6616 232.057 86.8164 232.293 87.021 232.466C87.2283 232.636 87.484 232.722 87.788 232.722ZM87.1275 226.611L88.0309 224.672H89.7099L88.4102 226.611H87.1275ZM93.9968 230.216V234H92.1815V227.455H93.9116V228.609H93.9883C94.1332 228.229 94.3761 227.928 94.717 227.706C95.0579 227.482 95.4712 227.369 95.957 227.369C96.4116 227.369 96.8079 227.469 97.146 227.668C97.484 227.866 97.7468 228.151 97.9343 228.52C98.1218 228.886 98.2156 229.324 98.2156 229.832V234H96.4002V230.156C96.4031 229.756 96.3008 229.443 96.0934 229.219C95.886 228.991 95.6005 228.878 95.2369 228.878C94.9925 228.878 94.7766 228.93 94.5891 229.036C94.4045 229.141 94.2596 229.294 94.1545 229.496C94.0522 229.695 93.9996 229.935 93.9968 230.216ZM102.424 236.455V227.455H104.213V228.554H104.294C104.374 228.378 104.489 228.199 104.64 228.017C104.793 227.832 104.992 227.679 105.236 227.557C105.483 227.432 105.79 227.369 106.157 227.369C106.634 227.369 107.074 227.494 107.478 227.744C107.881 227.991 108.203 228.365 108.445 228.865C108.686 229.362 108.807 229.986 108.807 230.736C108.807 231.466 108.689 232.082 108.453 232.585C108.221 233.085 107.902 233.464 107.499 233.723C107.098 233.979 106.65 234.107 106.152 234.107C105.8 234.107 105.5 234.048 105.253 233.932C105.009 233.815 104.809 233.669 104.652 233.493C104.496 233.314 104.377 233.134 104.294 232.952H104.239V236.455H102.424ZM104.201 230.727C104.201 231.116 104.255 231.456 104.363 231.746C104.471 232.036 104.627 232.261 104.831 232.423C105.036 232.582 105.284 232.662 105.577 232.662C105.873 232.662 106.123 232.581 106.327 232.419C106.532 232.254 106.686 232.027 106.792 231.737C106.9 231.445 106.953 231.108 106.953 230.727C106.953 230.349 106.901 230.017 106.796 229.73C106.691 229.443 106.536 229.219 106.331 229.057C106.127 228.895 105.875 228.814 105.577 228.814C105.282 228.814 105.032 228.892 104.827 229.048C104.625 229.205 104.471 229.426 104.363 229.713C104.255 230 104.201 230.338 104.201 230.727ZM110.017 234V227.455H111.777V228.597H111.846C111.965 228.19 112.165 227.884 112.446 227.676C112.728 227.466 113.051 227.361 113.418 227.361C113.509 227.361 113.607 227.366 113.712 227.378C113.817 227.389 113.909 227.405 113.989 227.425V229.036C113.904 229.01 113.786 228.987 113.635 228.967C113.485 228.947 113.347 228.938 113.222 228.938C112.955 228.938 112.716 228.996 112.506 229.112C112.299 229.226 112.134 229.385 112.012 229.589C111.892 229.794 111.833 230.03 111.833 230.297V234H110.017ZM117.606 234.128C116.933 234.128 116.353 233.991 115.867 233.719C115.384 233.443 115.012 233.054 114.751 232.551C114.489 232.045 114.359 231.447 114.359 230.757C114.359 230.084 114.489 229.493 114.751 228.984C115.012 228.476 115.38 228.08 115.854 227.795C116.332 227.511 116.891 227.369 117.533 227.369C117.965 227.369 118.367 227.439 118.739 227.578C119.114 227.714 119.441 227.92 119.719 228.196C120.001 228.472 120.219 228.818 120.376 229.236C120.532 229.651 120.61 230.136 120.61 230.693V231.192H115.083V230.067H118.901C118.901 229.805 118.844 229.574 118.731 229.372C118.617 229.17 118.46 229.013 118.258 228.899C118.059 228.783 117.827 228.724 117.563 228.724C117.288 228.724 117.043 228.788 116.83 228.916C116.62 229.041 116.455 229.21 116.336 229.423C116.217 229.634 116.156 229.868 116.153 230.126V231.196C116.153 231.52 116.212 231.8 116.332 232.036C116.454 232.271 116.626 232.453 116.847 232.581C117.069 232.709 117.332 232.773 117.636 232.773C117.837 232.773 118.022 232.744 118.19 232.688C118.357 232.631 118.501 232.545 118.62 232.432C118.739 232.318 118.83 232.179 118.893 232.014L120.572 232.125C120.487 232.528 120.312 232.881 120.048 233.182C119.786 233.48 119.448 233.713 119.033 233.881C118.621 234.045 118.146 234.128 117.606 234.128ZM127.721 227.455L125.433 234H123.387L121.099 227.455H123.017L124.376 232.138H124.444L125.799 227.455H127.721ZM128.65 234V227.455H130.466V234H128.65ZM129.562 226.611C129.292 226.611 129.061 226.521 128.868 226.342C128.677 226.161 128.582 225.943 128.582 225.69C128.582 225.44 128.677 225.226 128.868 225.047C129.061 224.865 129.292 224.774 129.562 224.774C129.832 224.774 130.062 224.865 130.252 225.047C130.446 225.226 130.542 225.44 130.542 225.69C130.542 225.943 130.446 226.161 130.252 226.342C130.062 226.521 129.832 226.611 129.562 226.611ZM133.786 234.124C133.369 234.124 132.996 234.051 132.67 233.906C132.343 233.759 132.085 233.541 131.894 233.254C131.707 232.964 131.613 232.604 131.613 232.172C131.613 231.808 131.68 231.503 131.813 231.256C131.947 231.009 132.129 230.81 132.359 230.659C132.589 230.509 132.85 230.395 133.143 230.318C133.438 230.241 133.748 230.188 134.072 230.156C134.452 230.116 134.759 230.08 134.992 230.045C135.225 230.009 135.394 229.955 135.499 229.884C135.604 229.812 135.657 229.707 135.657 229.568V229.543C135.657 229.273 135.572 229.064 135.401 228.916C135.234 228.768 134.995 228.695 134.685 228.695C134.359 228.695 134.099 228.767 133.906 228.912C133.712 229.054 133.585 229.233 133.522 229.449L131.843 229.312C131.928 228.915 132.096 228.571 132.346 228.281C132.596 227.989 132.918 227.764 133.313 227.608C133.711 227.449 134.171 227.369 134.694 227.369C135.058 227.369 135.406 227.412 135.738 227.497C136.073 227.582 136.37 227.714 136.629 227.893C136.89 228.072 137.096 228.303 137.246 228.584C137.397 228.862 137.472 229.196 137.472 229.585V234H135.751V233.092H135.7C135.594 233.297 135.454 233.477 135.278 233.634C135.102 233.787 134.89 233.908 134.643 233.996C134.396 234.081 134.11 234.124 133.786 234.124ZM134.306 232.871C134.573 232.871 134.809 232.818 135.013 232.713C135.218 232.605 135.379 232.46 135.495 232.278C135.612 232.097 135.67 231.891 135.67 231.661V230.966C135.613 231.003 135.535 231.037 135.435 231.068C135.339 231.097 135.229 231.124 135.107 231.149C134.985 231.172 134.863 231.193 134.741 231.213C134.619 231.23 134.508 231.246 134.408 231.26C134.195 231.291 134.009 231.341 133.85 231.409C133.691 231.477 133.567 231.57 133.479 231.686C133.391 231.8 133.347 231.942 133.347 232.112C133.347 232.359 133.437 232.548 133.616 232.679C133.798 232.807 134.028 232.871 134.306 232.871Z" fill="#212121"/>
<path d="M332 264H28C21.3726 264 16 269.373 16 276V308C16 314.627 21.3726 320 28 320H332C338.627 320 344 314.627 344 308V276C344 269.373 338.627 264 332 264Z" fill="white" stroke="#D0D0D0"/>
<path d="M36.4588 292.328H34.5923C34.5582 292.087 34.4886 291.872 34.3835 291.685C34.2784 291.494 34.1435 291.332 33.9787 291.199C33.8139 291.065 33.6236 290.963 33.4077 290.892C33.1946 290.821 32.9631 290.786 32.7131 290.786C32.2614 290.786 31.8679 290.898 31.5327 291.122C31.1974 291.344 30.9375 291.668 30.7528 292.094C30.5682 292.517 30.4759 293.031 30.4759 293.636C30.4759 294.259 30.5682 294.781 30.7528 295.205C30.9403 295.628 31.2017 295.947 31.5369 296.163C31.8722 296.379 32.2599 296.487 32.7003 296.487C32.9474 296.487 33.1761 296.455 33.3864 296.389C33.5994 296.324 33.7884 296.229 33.9531 296.104C34.1179 295.976 34.2543 295.821 34.3622 295.639C34.473 295.457 34.5497 295.25 34.5923 295.017L36.4588 295.026C36.4105 295.426 36.2898 295.812 36.0966 296.185C35.9063 296.554 35.6491 296.885 35.3253 297.178C35.0043 297.467 34.6207 297.697 34.1747 297.868C33.7315 298.036 33.2301 298.119 32.6705 298.119C31.892 298.119 31.196 297.943 30.5824 297.591C29.9716 297.239 29.4886 296.729 29.1335 296.061C28.7812 295.393 28.6051 294.585 28.6051 293.636C28.6051 292.685 28.7841 291.875 29.142 291.207C29.5 290.54 29.9858 290.031 30.5994 289.682C31.2131 289.33 31.9034 289.153 32.6705 289.153C33.1761 289.153 33.6449 289.224 34.0767 289.366C34.5114 289.509 34.8963 289.716 35.2315 289.989C35.5668 290.259 35.8395 290.589 36.0497 290.982C36.2628 291.374 36.3991 291.822 36.4588 292.328ZM40.7053 298.128C40.0433 298.128 39.4709 297.987 38.9879 297.706C38.5078 297.422 38.1371 297.027 37.8757 296.521C37.6143 296.013 37.4837 295.423 37.4837 294.753C37.4837 294.077 37.6143 293.486 37.8757 292.98C38.1371 292.472 38.5078 292.077 38.9879 291.795C39.4709 291.511 40.0433 291.369 40.7053 291.369C41.3672 291.369 41.9382 291.511 42.4183 291.795C42.9013 292.077 43.2734 292.472 43.5348 292.98C43.7962 293.486 43.9268 294.077 43.9268 294.753C43.9268 295.423 43.7962 296.013 43.5348 296.521C43.2734 297.027 42.9013 297.422 42.4183 297.706C41.9382 297.987 41.3672 298.128 40.7053 298.128ZM40.7138 296.722C41.0149 296.722 41.2663 296.636 41.468 296.466C41.6697 296.293 41.8217 296.057 41.924 295.759C42.0291 295.46 42.0817 295.121 42.0817 294.74C42.0817 294.359 42.0291 294.02 41.924 293.722C41.8217 293.423 41.6697 293.187 41.468 293.014C41.2663 292.841 41.0149 292.754 40.7138 292.754C40.4098 292.754 40.1541 292.841 39.9467 293.014C39.7422 293.187 39.5874 293.423 39.4822 293.722C39.38 294.02 39.3288 294.359 39.3288 294.74C39.3288 295.121 39.38 295.46 39.4822 295.759C39.5874 296.057 39.7422 296.293 39.9467 296.466C40.1541 296.636 40.4098 296.722 40.7138 296.722ZM46.9226 294.216V298H45.1072V291.455H46.8374V292.609H46.9141C47.0589 292.229 47.3018 291.928 47.6428 291.706C47.9837 291.482 48.397 291.369 48.8828 291.369C49.3374 291.369 49.7337 291.469 50.0717 291.668C50.4098 291.866 50.6726 292.151 50.8601 292.52C51.0476 292.886 51.1413 293.324 51.1413 293.832V298H49.326V294.156C49.3288 293.756 49.2266 293.443 49.0192 293.219C48.8118 292.991 48.5263 292.878 48.1626 292.878C47.9183 292.878 47.7024 292.93 47.5149 293.036C47.3303 293.141 47.1854 293.294 47.0803 293.496C46.978 293.695 46.9254 293.935 46.9226 294.216ZM56.0536 291.455V292.818H52.1119V291.455H56.0536ZM53.0067 289.886H54.8221V295.989C54.8221 296.156 54.8477 296.287 54.8988 296.381C54.9499 296.472 55.021 296.536 55.1119 296.572C55.2056 296.609 55.3136 296.628 55.4357 296.628C55.521 296.628 55.6062 296.621 55.6914 296.607C55.7766 296.589 55.842 296.577 55.8874 296.568L56.1729 297.919C56.082 297.947 55.9542 297.98 55.7894 298.017C55.6246 298.057 55.4244 298.081 55.1886 298.089C54.7511 298.107 54.3675 298.048 54.038 297.915C53.7113 297.781 53.457 297.574 53.2752 297.293C53.0934 297.011 53.0039 296.656 53.0067 296.227V289.886ZM59.1026 298.124C58.685 298.124 58.3129 298.051 57.9862 297.906C57.6594 297.759 57.4009 297.541 57.2106 297.254C57.0231 296.964 56.9293 296.604 56.9293 296.172C56.9293 295.808 56.9961 295.503 57.1296 295.256C57.2631 295.009 57.445 294.81 57.6751 294.659C57.9052 294.509 58.1665 294.395 58.4592 294.318C58.7546 294.241 59.0643 294.188 59.3881 294.156C59.7688 294.116 60.0756 294.08 60.3086 294.045C60.5415 294.009 60.7106 293.955 60.8157 293.884C60.9208 293.812 60.9734 293.707 60.9734 293.568V293.543C60.9734 293.273 60.8881 293.064 60.7177 292.916C60.5501 292.768 60.3114 292.695 60.0018 292.695C59.6751 292.695 59.4151 292.767 59.2219 292.912C59.0288 293.054 58.9009 293.233 58.8384 293.449L57.1594 293.312C57.2447 292.915 57.4123 292.571 57.6623 292.281C57.9123 291.989 58.2347 291.764 58.6296 291.608C59.0273 291.449 59.4876 291.369 60.0103 291.369C60.3739 291.369 60.7219 291.412 61.0543 291.497C61.3896 291.582 61.6864 291.714 61.945 291.893C62.2063 292.072 62.4123 292.303 62.5629 292.584C62.7134 292.862 62.7887 293.196 62.7887 293.585V298H61.0671V297.092H61.016C60.9109 297.297 60.7702 297.477 60.5941 297.634C60.418 297.787 60.2063 297.908 59.9592 297.996C59.712 298.081 59.4265 298.124 59.1026 298.124ZM59.6225 296.871C59.8896 296.871 60.1254 296.818 60.3299 296.713C60.5344 296.605 60.695 296.46 60.8114 296.278C60.9279 296.097 60.9862 295.891 60.9862 295.661V294.966C60.9293 295.003 60.8512 295.037 60.7518 295.068C60.6552 295.097 60.5458 295.124 60.4237 295.149C60.3015 295.172 60.1793 295.193 60.0572 295.213C59.935 295.23 59.8242 295.246 59.7248 295.26C59.5117 295.291 59.3256 295.341 59.1665 295.409C59.0075 295.477 58.8839 295.57 58.7958 295.686C58.7077 295.8 58.6637 295.942 58.6637 296.112C58.6637 296.359 58.7532 296.548 58.9322 296.679C59.114 296.807 59.3441 296.871 59.6225 296.871ZM67.1545 298.128C66.484 298.128 65.9073 297.986 65.4244 297.702C64.9442 297.415 64.5749 297.017 64.3164 296.509C64.0607 296 63.9329 295.415 63.9329 294.753C63.9329 294.082 64.0621 293.494 64.3207 292.989C64.582 292.48 64.9528 292.084 65.4329 291.8C65.913 291.513 66.484 291.369 67.146 291.369C67.717 291.369 68.217 291.473 68.646 291.68C69.0749 291.888 69.4144 292.179 69.6644 292.554C69.9144 292.929 70.0522 293.369 70.0778 293.875H68.3647C68.3164 293.548 68.1886 293.286 67.9812 293.087C67.7766 292.885 67.5082 292.784 67.1758 292.784C66.8945 292.784 66.6488 292.861 66.4386 293.014C66.2312 293.165 66.0692 293.385 65.9528 293.675C65.8363 293.964 65.7781 294.315 65.7781 294.727C65.7781 295.145 65.8349 295.5 65.9485 295.793C66.065 296.085 66.2283 296.308 66.4386 296.462C66.6488 296.615 66.8945 296.692 67.1758 296.692C67.3832 296.692 67.5692 296.649 67.734 296.564C67.9016 296.479 68.0394 296.355 68.1474 296.193C68.2582 296.028 68.3306 295.831 68.3647 295.601H70.0778C70.0494 296.101 69.913 296.541 69.6687 296.922C69.4272 297.3 69.0934 297.595 68.6673 297.808C68.2411 298.021 67.7369 298.128 67.1545 298.128ZM74.7216 291.455V292.818H70.7798V291.455H74.7216ZM71.6747 289.886H73.4901V295.989C73.4901 296.156 73.5156 296.287 73.5668 296.381C73.6179 296.472 73.6889 296.536 73.7798 296.572C73.8736 296.609 73.9815 296.628 74.1037 296.628C74.1889 296.628 74.2741 296.621 74.3594 296.607C74.4446 296.589 74.5099 296.577 74.5554 296.568L74.8409 297.919C74.75 297.947 74.6222 297.98 74.4574 298.017C74.2926 298.057 74.0923 298.081 73.8565 298.089C73.419 298.107 73.0355 298.048 72.706 297.915C72.3793 297.781 72.125 297.574 71.9432 297.293C71.7614 297.011 71.6719 296.656 71.6747 296.227V289.886ZM78.7912 298.128C78.1293 298.128 77.5568 297.987 77.0739 297.706C76.5938 297.422 76.223 297.027 75.9616 296.521C75.7003 296.013 75.5696 295.423 75.5696 294.753C75.5696 294.077 75.7003 293.486 75.9616 292.98C76.223 292.472 76.5938 292.077 77.0739 291.795C77.5568 291.511 78.1293 291.369 78.7912 291.369C79.4531 291.369 80.0241 291.511 80.5043 291.795C80.9872 292.077 81.3594 292.472 81.6207 292.98C81.8821 293.486 82.0128 294.077 82.0128 294.753C82.0128 295.423 81.8821 296.013 81.6207 296.521C81.3594 297.027 80.9872 297.422 80.5043 297.706C80.0241 297.987 79.4531 298.128 78.7912 298.128ZM78.7997 296.722C79.1009 296.722 79.3523 296.636 79.554 296.466C79.7557 296.293 79.9077 296.057 80.0099 295.759C80.1151 295.46 80.1676 295.121 80.1676 294.74C80.1676 294.359 80.1151 294.02 80.0099 293.722C79.9077 293.423 79.7557 293.187 79.554 293.014C79.3523 292.841 79.1009 292.754 78.7997 292.754C78.4957 292.754 78.2401 292.841 78.0327 293.014C77.8281 293.187 77.6733 293.423 77.5682 293.722C77.4659 294.02 77.4148 294.359 77.4148 294.74C77.4148 295.121 77.4659 295.46 77.5682 295.759C77.6733 296.057 77.8281 296.293 78.0327 296.466C78.2401 296.636 78.4957 296.722 78.7997 296.722Z" fill="#212121"/>
<path d="M360 736H0V800H360V736Z" fill="white" stroke="#D0D0D0"/>
<path d="M36 766C41.5228 766 46 761.523 46 756C46 750.477 41.5228 746 36 746C30.4772 746 26 750.477 26 756C26 761.523 30.4772 766 36 766Z" fill="#E0E0E0" stroke="#BDBDBD"/>
<path d="M25.3639 774.727V782H24.4832V774.727H25.3639ZM27.8541 778.719V782H27.0161V776.545H27.8257V777.398H27.8968C28.0246 777.121 28.2187 776.898 28.4791 776.73C28.7396 776.56 29.0757 776.474 29.4877 776.474C29.857 776.474 30.1801 776.55 30.4571 776.702C30.7341 776.851 30.9495 777.078 31.1034 777.384C31.2573 777.687 31.3343 778.07 31.3343 778.534V782H30.4962V778.591C30.4962 778.162 30.3849 777.829 30.1624 777.589C29.9398 777.348 29.6344 777.227 29.2462 777.227C28.9787 777.227 28.7396 777.285 28.5289 777.401C28.3205 777.517 28.156 777.687 28.0352 777.909C27.9145 778.132 27.8541 778.402 27.8541 778.719ZM32.8657 782V776.545H33.7037V782H32.8657ZM33.2918 775.636C33.1285 775.636 32.9876 775.581 32.8692 775.469C32.7532 775.358 32.6952 775.224 32.6952 775.068C32.6952 774.912 32.7532 774.778 32.8692 774.667C32.9876 774.556 33.1285 774.5 33.2918 774.5C33.4552 774.5 33.5948 774.556 33.7108 774.667C33.8292 774.778 33.8884 774.912 33.8884 775.068C33.8884 775.224 33.8292 775.358 33.7108 775.469C33.5948 775.581 33.4552 775.636 33.2918 775.636ZM37.4546 782.114C36.9433 782.114 36.5029 781.993 36.1336 781.751C35.7643 781.51 35.4802 781.177 35.2813 780.754C35.0825 780.33 34.983 779.846 34.983 779.301C34.983 778.747 35.0848 778.258 35.2884 777.835C35.4944 777.408 35.7809 777.076 36.1478 776.837C36.5171 776.595 36.948 776.474 37.4404 776.474C37.824 776.474 38.1696 776.545 38.4774 776.688C38.7851 776.83 39.0373 777.028 39.2338 777.284C39.4302 777.54 39.5522 777.838 39.5995 778.179H38.7615C38.6975 777.93 38.5555 777.71 38.3353 777.518C38.1175 777.324 37.824 777.227 37.4546 777.227C37.1279 777.227 36.8415 777.312 36.5953 777.483C36.3514 777.651 36.1608 777.889 36.0235 778.197C35.8886 778.502 35.8211 778.861 35.8211 779.273C35.8211 779.694 35.8874 780.061 36.02 780.374C36.1549 780.686 36.3443 780.929 36.5882 781.102C36.8344 781.274 37.1232 781.361 37.4546 781.361C37.6724 781.361 37.8701 781.323 38.0477 781.247C38.2252 781.171 38.3756 781.062 38.4987 780.92C38.6218 780.778 38.7094 780.608 38.7615 780.409H39.5995C39.5522 780.731 39.435 781.021 39.248 781.279C39.0633 781.535 38.8183 781.738 38.5129 781.89C38.2098 782.039 37.8571 782.114 37.4546 782.114ZM40.8247 782V776.545H41.6627V782H40.8247ZM41.2508 775.636C41.0874 775.636 40.9466 775.581 40.8282 775.469C40.7122 775.358 40.6542 775.224 40.6542 775.068C40.6542 774.912 40.7122 774.778 40.8282 774.667C40.9466 774.556 41.0874 774.5 41.2508 774.5C41.4142 774.5 41.5538 774.556 41.6698 774.667C41.7882 774.778 41.8474 774.912 41.8474 775.068C41.8474 775.224 41.7882 775.358 41.6698 775.469C41.5538 775.581 41.4142 775.636 41.2508 775.636ZM45.4136 782.114C44.9212 782.114 44.4891 781.996 44.1175 781.762C43.7481 781.528 43.4593 781.2 43.251 780.778C43.045 780.357 42.942 779.865 42.942 779.301C42.942 778.733 43.045 778.237 43.251 777.813C43.4593 777.389 43.7481 777.06 44.1175 776.826C44.4891 776.592 44.9212 776.474 45.4136 776.474C45.906 776.474 46.3369 776.592 46.7062 776.826C47.0779 777.06 47.3667 777.389 47.5727 777.813C47.781 778.237 47.8852 778.733 47.8852 779.301C47.8852 779.865 47.781 780.357 47.5727 780.778C47.3667 781.2 47.0779 781.528 46.7062 781.762C46.3369 781.996 45.906 782.114 45.4136 782.114ZM45.4136 781.361C45.7877 781.361 46.0954 781.265 46.3369 781.073C46.5784 780.881 46.7571 780.629 46.8731 780.317C46.9891 780.004 47.0471 779.666 47.0471 779.301C47.0471 778.937 46.9891 778.597 46.8731 778.282C46.7571 777.967 46.5784 777.713 46.3369 777.518C46.0954 777.324 45.7877 777.227 45.4136 777.227C45.0396 777.227 44.7318 777.324 44.4903 777.518C44.2488 777.713 44.0701 777.967 43.9541 778.282C43.8381 778.597 43.7801 778.937 43.7801 779.301C43.7801 779.666 43.8381 780.004 43.9541 780.317C44.0701 780.629 44.2488 780.881 44.4903 781.073C44.7318 781.265 45.0396 781.361 45.4136 781.361Z" fill="#666666"/>
<path d="M108 766C113.523 766 118 761.523 118 756C118 750.477 113.523 746 108 746C102.477 746 98 750.477 98 756C98 761.523 102.477 766 108 766Z" fill="#E0E0E0" stroke="#BDBDBD"/>
<path d="M95.7508 774.727H96.8019L99.2735 780.764H99.3588L101.83 774.727H102.881V782H102.058V776.474H101.987L99.7139 782H98.9184L96.6457 776.474H96.5747V782H95.7508V774.727ZM106.139 782.128C105.793 782.128 105.479 782.063 105.198 781.933C104.916 781.8 104.692 781.609 104.527 781.361C104.361 781.11 104.278 780.807 104.278 780.452C104.278 780.139 104.34 779.886 104.463 779.692C104.586 779.495 104.75 779.341 104.956 779.23C105.162 779.119 105.389 779.036 105.638 778.982C105.889 778.925 106.141 778.88 106.394 778.847C106.726 778.804 106.995 778.772 107.201 778.751C107.409 778.727 107.56 778.688 107.655 778.634C107.752 778.579 107.801 778.484 107.801 778.349V778.321C107.801 777.971 107.705 777.698 107.513 777.504C107.324 777.31 107.036 777.213 106.65 777.213C106.25 777.213 105.936 777.301 105.709 777.476C105.482 777.651 105.322 777.838 105.23 778.037L104.434 777.753C104.576 777.421 104.766 777.163 105.002 776.979C105.242 776.792 105.502 776.661 105.784 776.588C106.068 776.512 106.347 776.474 106.622 776.474C106.797 776.474 106.998 776.496 107.225 776.538C107.455 776.579 107.676 776.663 107.889 776.79C108.105 776.918 108.284 777.111 108.426 777.369C108.568 777.627 108.639 777.973 108.639 778.406V782H107.801V781.261H107.758C107.701 781.38 107.607 781.506 107.474 781.641C107.341 781.776 107.165 781.891 106.945 781.986C106.725 782.08 106.456 782.128 106.139 782.128ZM106.267 781.375C106.598 781.375 106.877 781.31 107.105 781.18C107.334 781.049 107.507 780.881 107.623 780.675C107.742 780.469 107.801 780.253 107.801 780.026V779.259C107.765 779.301 107.687 779.34 107.566 779.376C107.448 779.409 107.311 779.438 107.154 779.464C107.001 779.488 106.85 779.509 106.703 779.528C106.559 779.545 106.442 779.559 106.352 779.571C106.134 779.599 105.93 779.646 105.741 779.71C105.554 779.771 105.402 779.865 105.286 779.99C105.173 780.113 105.116 780.281 105.116 780.494C105.116 780.786 105.224 781.006 105.439 781.155C105.657 781.302 105.933 781.375 106.267 781.375ZM110.168 784.045V776.545H110.978V777.412H111.078C111.139 777.317 111.224 777.196 111.333 777.05C111.444 776.901 111.603 776.768 111.809 776.652C112.017 776.534 112.299 776.474 112.654 776.474C113.113 776.474 113.518 776.589 113.869 776.819C114.219 777.049 114.493 777.374 114.689 777.795C114.886 778.217 114.984 778.714 114.984 779.287C114.984 779.865 114.886 780.365 114.689 780.789C114.493 781.21 114.22 781.537 113.872 781.769C113.524 781.999 113.123 782.114 112.668 782.114C112.318 782.114 112.037 782.056 111.827 781.94C111.616 781.821 111.454 781.687 111.34 781.538C111.227 781.387 111.139 781.261 111.078 781.162H111.006V784.045H110.168ZM110.992 779.273C110.992 779.685 111.053 780.048 111.173 780.363C111.294 780.675 111.47 780.92 111.703 781.098C111.935 781.273 112.219 781.361 112.555 781.361C112.905 781.361 113.198 781.268 113.432 781.084C113.669 780.897 113.846 780.646 113.965 780.331C114.085 780.014 114.146 779.661 114.146 779.273C114.146 778.889 114.086 778.544 113.968 778.236C113.852 777.926 113.676 777.681 113.439 777.501C113.205 777.318 112.91 777.227 112.555 777.227C112.214 777.227 111.927 777.314 111.695 777.487C111.463 777.657 111.288 777.896 111.17 778.204C111.051 778.509 110.992 778.866 110.992 779.273ZM117.867 782.128C117.522 782.128 117.208 782.063 116.926 781.933C116.645 781.8 116.421 781.609 116.255 781.361C116.089 781.11 116.006 780.807 116.006 780.452C116.006 780.139 116.068 779.886 116.191 779.692C116.314 779.495 116.479 779.341 116.685 779.23C116.891 779.119 117.118 779.036 117.367 778.982C117.618 778.925 117.87 778.88 118.123 778.847C118.454 778.804 118.723 778.772 118.929 778.751C119.137 778.727 119.289 778.688 119.384 778.634C119.481 778.579 119.529 778.484 119.529 778.349V778.321C119.529 777.971 119.433 777.698 119.242 777.504C119.052 777.31 118.765 777.213 118.379 777.213C117.979 777.213 117.665 777.301 117.438 777.476C117.21 777.651 117.051 777.838 116.958 778.037L116.163 777.753C116.305 777.421 116.494 777.163 116.731 776.979C116.97 776.792 117.23 776.661 117.512 776.588C117.796 776.512 118.076 776.474 118.35 776.474C118.525 776.474 118.727 776.496 118.954 776.538C119.184 776.579 119.405 776.663 119.618 776.79C119.833 776.918 120.012 777.111 120.154 777.369C120.296 777.627 120.367 777.973 120.367 778.406V782H119.529V781.261H119.487C119.43 781.38 119.335 781.506 119.203 781.641C119.07 781.776 118.894 781.891 118.673 781.986C118.453 782.08 118.185 782.128 117.867 782.128ZM117.995 781.375C118.327 781.375 118.606 781.31 118.833 781.18C119.063 781.049 119.236 780.881 119.352 780.675C119.47 780.469 119.529 780.253 119.529 780.026V779.259C119.494 779.301 119.416 779.34 119.295 779.376C119.176 779.409 119.039 779.438 118.883 779.464C118.729 779.488 118.579 779.509 118.432 779.528C118.287 779.545 118.17 779.559 118.08 779.571C117.863 779.599 117.659 779.646 117.47 779.71C117.283 779.771 117.131 779.865 117.015 779.99C116.901 780.113 116.845 780.281 116.845 780.494C116.845 780.786 116.952 781.006 117.168 781.155C117.386 781.302 117.661 781.375 117.995 781.375Z" fill="#666666"/>
<path d="M180 766C185.523 766 190 761.523 190 756C190 750.477 185.523 746 180 746C174.477 746 170 750.477 170 756C170 761.523 174.477 766 180 766Z" fill="#E0E0E0" stroke="#BDBDBD"/>
<path d="M174.663 777H173.782C173.73 776.747 173.639 776.524 173.509 776.332C173.381 776.141 173.224 775.98 173.04 775.849C172.857 775.717 172.655 775.617 172.433 775.551C172.21 775.485 171.978 775.452 171.737 775.452C171.296 775.452 170.897 775.563 170.54 775.786C170.185 776.008 169.902 776.336 169.691 776.769C169.483 777.202 169.379 777.734 169.379 778.364C169.379 778.993 169.483 779.525 169.691 779.958C169.902 780.391 170.185 780.719 170.54 780.942C170.897 781.164 171.296 781.276 171.737 781.276C171.978 781.276 172.21 781.242 172.433 781.176C172.655 781.11 172.857 781.012 173.04 780.881C173.224 780.749 173.381 780.587 173.509 780.395C173.639 780.201 173.73 779.978 173.782 779.727H174.663C174.596 780.099 174.476 780.432 174.3 780.725C174.125 781.019 173.907 781.268 173.647 781.474C173.387 781.678 173.094 781.833 172.77 781.94C172.448 782.046 172.103 782.099 171.737 782.099C171.116 782.099 170.565 781.948 170.082 781.645C169.599 781.342 169.219 780.911 168.942 780.352C168.665 779.794 168.526 779.131 168.526 778.364C168.526 777.597 168.665 776.934 168.942 776.375C169.219 775.816 169.599 775.385 170.082 775.082C170.565 774.779 171.116 774.628 171.737 774.628C172.103 774.628 172.448 774.681 172.77 774.788C173.094 774.894 173.387 775.05 173.647 775.256C173.907 775.46 174.125 775.709 174.3 776.002C174.476 776.293 174.596 776.626 174.663 777ZM175.972 782V776.545H176.81V782H175.972ZM176.398 775.636C176.235 775.636 176.094 775.581 175.976 775.469C175.86 775.358 175.802 775.224 175.802 775.068C175.802 774.912 175.86 774.778 175.976 774.667C176.094 774.556 176.235 774.5 176.398 774.5C176.562 774.5 176.701 774.556 176.817 774.667C176.936 774.778 176.995 774.912 176.995 775.068C176.995 775.224 176.936 775.358 176.817 775.469C176.701 775.581 176.562 775.636 176.398 775.636ZM180.717 776.545V777.256H177.891V776.545H180.717ZM178.714 775.239H179.553V780.438C179.553 780.674 179.587 780.852 179.656 780.97C179.727 781.086 179.817 781.164 179.925 781.205C180.037 781.242 180.154 781.261 180.277 781.261C180.369 781.261 180.445 781.257 180.504 781.247C180.563 781.235 180.611 781.226 180.646 781.219L180.817 781.972C180.76 781.993 180.681 782.014 180.579 782.036C180.477 782.059 180.348 782.071 180.192 782.071C179.955 782.071 179.723 782.02 179.496 781.918C179.271 781.817 179.084 781.661 178.935 781.453C178.788 781.245 178.714 780.982 178.714 780.665V775.239ZM183.583 782.128C183.237 782.128 182.924 782.063 182.642 781.933C182.36 781.8 182.137 781.609 181.971 781.361C181.805 781.11 181.722 780.807 181.722 780.452C181.722 780.139 181.784 779.886 181.907 779.692C182.03 779.495 182.195 779.341 182.401 779.23C182.607 779.119 182.834 779.036 183.082 778.982C183.333 778.925 183.585 778.88 183.839 778.847C184.17 778.804 184.439 778.772 184.645 778.751C184.853 778.727 185.005 778.688 185.099 778.634C185.196 778.579 185.245 778.484 185.245 778.349V778.321C185.245 777.971 185.149 777.698 184.957 777.504C184.768 777.31 184.48 777.213 184.094 777.213C183.694 777.213 183.381 777.301 183.153 777.476C182.926 777.651 182.766 777.838 182.674 778.037L181.879 777.753C182.021 777.421 182.21 777.163 182.447 776.979C182.686 776.792 182.946 776.661 183.228 776.588C183.512 776.512 183.791 776.474 184.066 776.474C184.241 776.474 184.442 776.496 184.67 776.538C184.899 776.579 185.121 776.663 185.334 776.79C185.549 776.918 185.728 777.111 185.87 777.369C186.012 777.627 186.083 777.973 186.083 778.406V782H185.245V781.261H185.202C185.146 781.38 185.051 781.506 184.918 781.641C184.786 781.776 184.609 781.891 184.389 781.986C184.169 782.08 183.9 782.128 183.583 782.128ZM183.711 781.375C184.042 781.375 184.322 781.31 184.549 781.18C184.779 781.049 184.951 780.881 185.067 780.675C185.186 780.469 185.245 780.253 185.245 780.026V779.259C185.21 779.301 185.131 779.34 185.011 779.376C184.892 779.409 184.755 779.438 184.599 779.464C184.445 779.488 184.295 779.509 184.148 779.528C184.003 779.545 183.886 779.559 183.796 779.571C183.578 779.599 183.375 779.646 183.185 779.71C182.998 779.771 182.847 779.865 182.731 779.99C182.617 780.113 182.56 780.281 182.56 780.494C182.56 780.786 182.668 781.006 182.884 781.155C183.101 781.302 183.377 781.375 183.711 781.375ZM191.476 777.767L190.724 777.98C190.676 777.855 190.606 777.733 190.514 777.614C190.424 777.494 190.301 777.394 190.145 777.316C189.988 777.238 189.788 777.199 189.545 777.199C189.211 777.199 188.933 777.276 188.71 777.43C188.49 777.581 188.38 777.774 188.38 778.009C188.38 778.217 188.456 778.381 188.607 778.502C188.759 778.623 188.995 778.723 189.317 778.804L190.127 779.003C190.615 779.121 190.978 779.302 191.217 779.546C191.456 779.788 191.576 780.099 191.576 780.48C191.576 780.793 191.486 781.072 191.306 781.318C191.128 781.564 190.88 781.759 190.56 781.901C190.241 782.043 189.869 782.114 189.445 782.114C188.889 782.114 188.428 781.993 188.064 781.751C187.699 781.51 187.468 781.157 187.371 780.693L188.167 780.494C188.242 780.788 188.386 781.008 188.596 781.155C188.809 781.302 189.088 781.375 189.431 781.375C189.822 781.375 190.132 781.292 190.361 781.126C190.593 780.958 190.709 780.757 190.709 780.523C190.709 780.333 190.643 780.175 190.51 780.047C190.378 779.917 190.174 779.82 189.9 779.756L188.991 779.543C188.491 779.424 188.124 779.241 187.89 778.992C187.658 778.741 187.542 778.428 187.542 778.051C187.542 777.743 187.628 777.471 187.801 777.234C187.976 776.998 188.214 776.812 188.515 776.677C188.818 776.542 189.161 776.474 189.545 776.474C190.084 776.474 190.508 776.593 190.816 776.83C191.126 777.066 191.346 777.379 191.476 777.767Z" fill="#666666"/>
<path d="M252 766C257.523 766 262 761.523 262 756C262 750.477 257.523 746 252 746C246.477 746 242 750.477 242 756C242 761.523 246.477 766 252 766Z" fill="#E0E0E0" stroke="#BDBDBD"/>
<path d="M234.665 774.727V782H233.784V774.727H234.665ZM236.317 782V776.545H237.127V777.398H237.198C237.311 777.107 237.495 776.88 237.748 776.719C238.001 776.556 238.305 776.474 238.661 776.474C239.02 776.474 239.32 776.556 239.559 776.719C239.801 776.88 239.989 777.107 240.124 777.398H240.18C240.32 777.116 240.53 776.892 240.809 776.727C241.088 776.558 241.423 776.474 241.814 776.474C242.302 776.474 242.701 776.627 243.011 776.933C243.321 777.236 243.476 777.708 243.476 778.349V782H242.638V778.349C242.638 777.947 242.528 777.659 242.308 777.487C242.087 777.314 241.828 777.227 241.53 777.227C241.146 777.227 240.849 777.343 240.639 777.575C240.428 777.805 240.323 778.096 240.323 778.449V782H239.47V778.264C239.47 777.954 239.37 777.704 239.168 777.515C238.967 777.323 238.708 777.227 238.391 777.227C238.173 777.227 237.969 777.285 237.78 777.401C237.593 777.517 237.441 777.678 237.325 777.884C237.212 778.088 237.155 778.323 237.155 778.591V782H236.317ZM245.008 784.045V776.545H245.818V777.412H245.917C245.979 777.317 246.064 777.196 246.173 777.05C246.284 776.901 246.443 776.768 246.649 776.652C246.857 776.534 247.139 776.474 247.494 776.474C247.953 776.474 248.358 776.589 248.709 776.819C249.059 777.049 249.332 777.374 249.529 777.795C249.725 778.217 249.824 778.714 249.824 779.287C249.824 779.865 249.725 780.365 249.529 780.789C249.332 781.21 249.06 781.537 248.712 781.769C248.364 781.999 247.963 782.114 247.508 782.114C247.158 782.114 246.877 782.056 246.667 781.94C246.456 781.821 246.294 781.687 246.18 781.538C246.066 781.387 245.979 781.261 245.917 781.162H245.846V784.045H245.008ZM245.832 779.273C245.832 779.685 245.892 780.048 246.013 780.363C246.134 780.675 246.31 780.92 246.542 781.098C246.774 781.273 247.058 781.361 247.395 781.361C247.745 781.361 248.037 781.268 248.272 781.084C248.508 780.897 248.686 780.646 248.804 780.331C248.925 780.014 248.986 779.661 248.986 779.273C248.986 778.889 248.926 778.544 248.808 778.236C248.692 777.926 248.516 777.681 248.279 777.501C248.044 777.318 247.75 777.227 247.395 777.227C247.054 777.227 246.767 777.314 246.535 777.487C246.303 777.657 246.128 777.896 246.01 778.204C245.891 778.509 245.832 778.866 245.832 779.273ZM252.707 782.128C252.361 782.128 252.048 782.063 251.766 781.933C251.484 781.8 251.261 781.609 251.095 781.361C250.929 781.11 250.846 780.807 250.846 780.452C250.846 780.139 250.908 779.886 251.031 779.692C251.154 779.495 251.319 779.341 251.525 779.23C251.731 779.119 251.958 779.036 252.206 778.982C252.457 778.925 252.709 778.88 252.963 778.847C253.294 778.804 253.563 778.772 253.769 778.751C253.977 778.727 254.129 778.688 254.223 778.634C254.321 778.579 254.369 778.484 254.369 778.349V778.321C254.369 777.971 254.273 777.698 254.081 777.504C253.892 777.31 253.604 777.213 253.218 777.213C252.818 777.213 252.505 777.301 252.277 777.476C252.05 777.651 251.89 777.838 251.798 778.037L251.003 777.753C251.145 777.421 251.334 777.163 251.571 776.979C251.81 776.792 252.07 776.661 252.352 776.588C252.636 776.512 252.915 776.474 253.19 776.474C253.365 776.474 253.566 776.496 253.794 776.538C254.023 776.579 254.245 776.663 254.458 776.79C254.673 776.918 254.852 777.111 254.994 777.369C255.136 777.627 255.207 777.973 255.207 778.406V782H254.369V781.261H254.326C254.27 781.38 254.175 781.506 254.042 781.641C253.91 781.776 253.733 781.891 253.513 781.986C253.293 782.08 253.024 782.128 252.707 782.128ZM252.835 781.375C253.166 781.375 253.446 781.31 253.673 781.18C253.903 781.049 254.075 780.881 254.191 780.675C254.31 780.469 254.369 780.253 254.369 780.026V779.259C254.334 779.301 254.255 779.34 254.135 779.376C254.016 779.409 253.879 779.438 253.723 779.464C253.569 779.488 253.419 779.509 253.272 779.528C253.127 779.545 253.01 779.559 252.92 779.571C252.702 779.599 252.499 779.646 252.309 779.71C252.122 779.771 251.971 779.865 251.855 779.99C251.741 780.113 251.684 780.281 251.684 780.494C251.684 780.786 251.792 781.006 252.008 781.155C252.225 781.302 252.501 781.375 252.835 781.375ZM258.953 782.114C258.441 782.114 258.001 781.993 257.632 781.751C257.262 781.51 256.978 781.177 256.779 780.754C256.581 780.33 256.481 779.846 256.481 779.301C256.481 778.747 256.583 778.258 256.786 777.835C256.992 777.408 257.279 777.076 257.646 776.837C258.015 776.595 258.446 776.474 258.938 776.474C259.322 776.474 259.668 776.545 259.975 776.688C260.283 776.83 260.535 777.028 260.732 777.284C260.928 777.54 261.05 777.838 261.098 778.179H260.259C260.196 777.93 260.054 777.71 259.833 777.518C259.616 777.324 259.322 777.227 258.953 777.227C258.626 777.227 258.34 777.312 258.093 777.483C257.849 777.651 257.659 777.889 257.522 778.197C257.387 778.502 257.319 778.861 257.319 779.273C257.319 779.694 257.385 780.061 257.518 780.374C257.653 780.686 257.842 780.929 258.086 781.102C258.332 781.274 258.621 781.361 258.953 781.361C259.17 781.361 259.368 781.323 259.546 781.247C259.723 781.171 259.874 781.062 259.997 780.92C260.12 780.778 260.207 780.608 260.259 780.409H261.098C261.05 780.731 260.933 781.021 260.746 781.279C260.561 781.535 260.316 781.738 260.011 781.89C259.708 782.039 259.355 782.114 258.953 782.114ZM264.695 776.545V777.256H261.868V776.545H264.695ZM262.692 775.239H263.53V780.438C263.53 780.674 263.564 780.852 263.633 780.97C263.704 781.086 263.794 781.164 263.903 781.205C264.014 781.242 264.131 781.261 264.255 781.261C264.347 781.261 264.423 781.257 264.482 781.247C264.541 781.235 264.588 781.226 264.624 781.219L264.794 781.972C264.737 781.993 264.658 782.014 264.556 782.036C264.455 782.059 264.326 782.071 264.169 782.071C263.933 782.071 263.701 782.02 263.473 781.918C263.248 781.817 263.061 781.661 262.912 781.453C262.765 781.245 262.692 780.982 262.692 780.665V775.239ZM268.113 782.114C267.62 782.114 267.188 781.996 266.817 781.762C266.447 781.528 266.159 781.2 265.95 780.778C265.744 780.357 265.641 779.865 265.641 779.301C265.641 778.733 265.744 778.237 265.95 777.813C266.159 777.389 266.447 777.06 266.817 776.826C267.188 776.592 267.62 776.474 268.113 776.474C268.605 776.474 269.036 776.592 269.405 776.826C269.777 777.06 270.066 777.389 270.272 777.813C270.48 778.237 270.584 778.733 270.584 779.301C270.584 779.865 270.48 780.357 270.272 780.778C270.066 781.2 269.777 781.528 269.405 781.762C269.036 781.996 268.605 782.114 268.113 782.114ZM268.113 781.361C268.487 781.361 268.795 781.265 269.036 781.073C269.278 780.881 269.456 780.629 269.572 780.317C269.688 780.004 269.746 779.666 269.746 779.301C269.746 778.937 269.688 778.597 269.572 778.282C269.456 777.967 269.278 777.713 269.036 777.518C268.795 777.324 268.487 777.227 268.113 777.227C267.739 777.227 267.431 777.324 267.19 777.518C266.948 777.713 266.769 777.967 266.653 778.282C266.537 778.597 266.479 778.937 266.479 779.301C266.479 779.666 266.537 780.004 266.653 780.317C266.769 780.629 266.948 780.881 267.19 781.073C267.431 781.265 267.739 781.361 268.113 781.361Z" fill="#666666"/>
<path d="M324 766C329.523 766 334 761.523 334 756C334 750.477 329.523 746 324 746C318.477 746 314 750.477 314 756C314 761.523 318.477 766 324 766Z" fill="#E0E0E0" stroke="#BDBDBD"/>
<path d="M312.62 782V774.727H315.077C315.648 774.727 316.114 774.83 316.476 775.036C316.841 775.24 317.111 775.516 317.286 775.864C317.461 776.212 317.549 776.6 317.549 777.028C317.549 777.457 317.461 777.846 317.286 778.197C317.113 778.547 316.846 778.826 316.484 779.035C316.121 779.241 315.657 779.344 315.092 779.344H313.33V778.562H315.063C315.454 778.562 315.767 778.495 316.004 778.36C316.241 778.225 316.413 778.043 316.519 777.813C316.628 777.581 316.682 777.32 316.682 777.028C316.682 776.737 316.628 776.477 316.519 776.247C316.413 776.018 316.24 775.838 316.001 775.707C315.762 775.575 315.444 775.509 315.049 775.509H313.501V782H312.62ZM321.082 782.114C320.557 782.114 320.103 781.998 319.722 781.766C319.343 781.531 319.051 781.205 318.845 780.786C318.641 780.364 318.54 779.874 318.54 779.315C318.54 778.757 318.641 778.264 318.845 777.838C319.051 777.41 319.338 777.076 319.704 776.837C320.074 776.595 320.505 776.474 320.997 776.474C321.281 776.474 321.562 776.522 321.839 776.616C322.116 776.711 322.368 776.865 322.595 777.078C322.822 777.289 323.003 777.568 323.138 777.916C323.273 778.264 323.341 778.693 323.341 779.202V779.557H319.136V778.832H322.489C322.489 778.525 322.427 778.25 322.304 778.009C322.183 777.767 322.01 777.576 321.785 777.437C321.563 777.297 321.3 777.227 320.997 777.227C320.663 777.227 320.374 777.31 320.131 777.476C319.889 777.639 319.703 777.852 319.573 778.115C319.443 778.378 319.378 778.66 319.378 778.96V779.443C319.378 779.855 319.449 780.204 319.591 780.491C319.735 780.775 319.935 780.991 320.191 781.141C320.447 781.287 320.744 781.361 321.082 781.361C321.302 781.361 321.501 781.33 321.679 781.268C321.859 781.205 322.014 781.11 322.144 780.984C322.274 780.857 322.375 780.698 322.446 780.509L323.256 780.736C323.17 781.01 323.027 781.252 322.826 781.46C322.625 781.666 322.376 781.827 322.08 781.943C321.784 782.057 321.452 782.114 321.082 782.114ZM324.616 782V776.545H325.425V777.369H325.482C325.582 777.099 325.762 776.88 326.022 776.712C326.282 776.544 326.576 776.46 326.903 776.46C326.964 776.46 327.041 776.461 327.133 776.464C327.226 776.466 327.296 776.47 327.343 776.474V777.327C327.315 777.32 327.249 777.309 327.148 777.295C327.048 777.278 326.943 777.27 326.832 777.27C326.566 777.27 326.33 777.326 326.121 777.437C325.915 777.546 325.752 777.697 325.631 777.891C325.513 778.083 325.454 778.302 325.454 778.548V782H324.616ZM331.107 776.545V777.256H328.167V776.545H331.107ZM329.047 782V775.793C329.047 775.48 329.121 775.22 329.268 775.011C329.414 774.803 329.605 774.647 329.839 774.543C330.074 774.438 330.321 774.386 330.582 774.386C330.788 774.386 330.956 774.403 331.086 774.436C331.216 774.469 331.313 774.5 331.377 774.528L331.136 775.253C331.093 775.239 331.034 775.221 330.958 775.2C330.885 775.178 330.788 775.168 330.667 775.168C330.39 775.168 330.19 775.237 330.067 775.377C329.946 775.517 329.886 775.722 329.886 775.991V782H329.047ZM332.282 782V776.545H333.12V782H332.282ZM332.708 775.636C332.544 775.636 332.404 775.581 332.285 775.469C332.169 775.358 332.111 775.224 332.111 775.068C332.111 774.912 332.169 774.778 332.285 774.667C332.404 774.556 332.544 774.5 332.708 774.5C332.871 774.5 333.011 774.556 333.127 774.667C333.245 774.778 333.304 774.912 333.304 775.068C333.304 775.224 333.245 775.358 333.127 775.469C333.011 775.581 332.871 775.636 332.708 775.636ZM335.493 774.727V782H334.655V774.727H335.493Z" fill="#D32F2F"/>
</g>
<defs>
<clipPath id="clip0_63_1484">
<rect width="360" height="800" fill="white"/>
</clipPath>
</defs>
</svg>
