<svg width="360" height="800" viewBox="0 0 360 800" fill="none" xmlns="http://www.w3.org/2000/svg">
<g clip-path="url(#clip0_63_1508)">
<rect width="360" height="800" fill="white"/>
<path d="M360 0H0V56H360V0Z" fill="#FAFAFA" stroke="#D0D0D0"/>
<path d="M24 36C28.4183 36 32 32.4183 32 28C32 23.5817 28.4183 20 24 20C19.5817 20 16 23.5817 16 28C16 32.4183 19.5817 36 24 36Z" fill="#E0E0E0" stroke="#BDBDBD"/>
<path d="M67.2784 25.4375H64.7898C64.7443 25.1155 64.6515 24.8295 64.5114 24.5795C64.3712 24.3258 64.1913 24.1098 63.9716 23.9318C63.7519 23.7538 63.4981 23.6174 63.2102 23.5227C62.9261 23.428 62.6174 23.3807 62.2841 23.3807C61.6818 23.3807 61.1572 23.5303 60.7102 23.8295C60.2633 24.125 59.9167 24.5568 59.6705 25.125C59.4242 25.6894 59.3011 26.375 59.3011 27.1818C59.3011 28.0114 59.4242 28.7083 59.6705 29.2727C59.9205 29.8371 60.2689 30.2633 60.7159 30.5511C61.1629 30.839 61.6799 30.983 62.267 30.983C62.5966 30.983 62.9015 30.9394 63.1818 30.8523C63.4659 30.7652 63.7178 30.6383 63.9375 30.4716C64.1572 30.3011 64.339 30.0947 64.483 29.8523C64.6307 29.6098 64.733 29.3333 64.7898 29.0227L67.2784 29.0341C67.214 29.5682 67.053 30.0833 66.7955 30.5795C66.5417 31.072 66.1989 31.5133 65.767 31.9034C65.339 32.2898 64.8277 32.5966 64.233 32.8239C63.642 33.0473 62.9735 33.1591 62.2273 33.1591C61.1894 33.1591 60.2614 32.9242 59.4432 32.4545C58.6288 31.9848 57.9848 31.3049 57.5114 30.4148C57.0417 29.5246 56.8068 28.447 56.8068 27.1818C56.8068 25.9129 57.0455 24.8333 57.5227 23.9432C58 23.053 58.6477 22.375 59.4659 21.9091C60.2841 21.4394 61.2045 21.2045 62.2273 21.2045C62.9015 21.2045 63.5265 21.2992 64.1023 21.4886C64.6818 21.678 65.1951 21.9545 65.642 22.3182C66.089 22.678 66.4527 23.1193 66.733 23.642C67.017 24.1648 67.1989 24.7633 67.2784 25.4375ZM71.4176 27.9545V33H68.9972V21.3636H71.3494V25.8125H71.4517C71.6487 25.2973 71.9669 24.8939 72.4062 24.6023C72.8456 24.3068 73.3968 24.1591 74.0597 24.1591C74.6657 24.1591 75.1941 24.2917 75.6449 24.5568C76.0994 24.8182 76.4517 25.1951 76.7017 25.6875C76.9555 26.1761 77.0805 26.7614 77.0767 27.4432V33H74.6562V27.875C74.66 27.3371 74.5237 26.9186 74.2472 26.6193C73.9744 26.3201 73.5919 26.1705 73.0994 26.1705C72.7699 26.1705 72.4782 26.2405 72.2244 26.3807C71.9744 26.5208 71.7775 26.7254 71.6335 26.9943C71.4934 27.2595 71.4214 27.5795 71.4176 27.9545ZM82.9588 33.1705C82.0611 33.1705 81.2884 32.9886 80.6406 32.625C79.9967 32.2576 79.5005 31.7386 79.152 31.0682C78.8035 30.3939 78.6293 29.5966 78.6293 28.6761C78.6293 27.7784 78.8035 26.9905 79.152 26.3125C79.5005 25.6345 79.991 25.1061 80.6236 24.7273C81.2599 24.3485 82.0062 24.1591 82.8622 24.1591C83.438 24.1591 83.974 24.2519 84.4702 24.4375C84.9702 24.6193 85.4058 24.8939 85.777 25.2614C86.152 25.6288 86.4437 26.0909 86.652 26.6477C86.8603 27.2008 86.9645 27.8485 86.9645 28.5909V29.2557H79.5952V27.7557H84.6861C84.6861 27.4072 84.6103 27.0985 84.4588 26.8295C84.3073 26.5606 84.0971 26.3504 83.8281 26.1989C83.563 26.0436 83.2543 25.9659 82.902 25.9659C82.5346 25.9659 82.2088 26.0511 81.9247 26.2216C81.6444 26.3883 81.4247 26.6136 81.2656 26.8977C81.1065 27.178 81.0251 27.4905 81.0213 27.8352V29.2614C81.0213 29.6932 81.1009 30.0663 81.2599 30.3807C81.4228 30.6951 81.652 30.9375 81.9474 31.108C82.2429 31.2784 82.5933 31.3636 82.9986 31.3636C83.2675 31.3636 83.5137 31.3258 83.7372 31.25C83.9607 31.1742 84.152 31.0606 84.3111 30.9091C84.4702 30.7576 84.5914 30.572 84.6747 30.3523L86.9134 30.5C86.7997 31.0379 86.5668 31.5076 86.2145 31.9091C85.866 32.3068 85.4152 32.6174 84.8622 32.8409C84.313 33.0606 83.6785 33.1705 82.9588 33.1705ZM92.4872 33.1705C91.5933 33.1705 90.8243 32.9811 90.1804 32.6023C89.5402 32.2197 89.0478 31.6894 88.7031 31.0114C88.3622 30.3333 88.1918 29.553 88.1918 28.6705C88.1918 27.7765 88.3641 26.9924 88.7088 26.3182C89.0573 25.6402 89.5516 25.1117 90.1918 24.733C90.8319 24.3504 91.5933 24.1591 92.4759 24.1591C93.2372 24.1591 93.9039 24.2973 94.4759 24.5739C95.0478 24.8504 95.5005 25.2386 95.8338 25.7386C96.1671 26.2386 96.3509 26.8258 96.3849 27.5H94.1009C94.0365 27.0644 93.866 26.714 93.5895 26.4489C93.3168 26.1799 92.9588 26.0455 92.5156 26.0455C92.1406 26.0455 91.813 26.1477 91.5327 26.3523C91.2562 26.553 91.0402 26.8466 90.8849 27.233C90.7296 27.6193 90.652 28.0871 90.652 28.6364C90.652 29.1932 90.7277 29.6667 90.8793 30.0568C91.0346 30.447 91.2524 30.7443 91.5327 30.9489C91.813 31.1534 92.1406 31.2557 92.5156 31.2557C92.7921 31.2557 93.0402 31.1989 93.2599 31.0852C93.4834 30.9716 93.6671 30.8068 93.8111 30.5909C93.9588 30.3712 94.0554 30.108 94.1009 29.8011H96.3849C96.3471 30.4678 96.1652 31.0549 95.8395 31.5625C95.5175 32.0663 95.0724 32.4602 94.5043 32.7443C93.9361 33.0284 93.2637 33.1705 92.4872 33.1705ZM100.128 30.4886L100.134 27.5852H100.486L103.281 24.2727H106.06L102.304 28.6591H101.73L100.128 30.4886ZM97.9347 33V21.3636H100.355V33H97.9347ZM103.389 33L100.821 29.1989L102.435 27.4886L106.224 33H103.389ZM112.388 27.2614V29.1818H107.081V27.2614H112.388ZM114.45 33V24.2727H116.871V33H114.45ZM115.666 23.1477C115.306 23.1477 114.998 23.0284 114.74 22.7898C114.486 22.5473 114.359 22.2576 114.359 21.9205C114.359 21.5871 114.486 21.3011 114.74 21.0625C114.998 20.8201 115.306 20.6989 115.666 20.6989C116.026 20.6989 116.333 20.8201 116.587 21.0625C116.844 21.3011 116.973 21.5871 116.973 21.9205C116.973 22.2576 116.844 22.5473 116.587 22.7898C116.333 23.0284 116.026 23.1477 115.666 23.1477ZM121.23 27.9545V33H118.81V24.2727H121.116V25.8125H121.219C121.412 25.3049 121.736 24.9034 122.19 24.608C122.645 24.3087 123.196 24.1591 123.844 24.1591C124.45 24.1591 124.978 24.2917 125.429 24.5568C125.88 24.822 126.23 25.2008 126.48 25.6932C126.73 26.1818 126.855 26.7652 126.855 27.4432V33H124.435V27.875C124.438 27.3409 124.302 26.9242 124.026 26.625C123.749 26.322 123.368 26.1705 122.884 26.1705C122.558 26.1705 122.27 26.2405 122.02 26.3807C121.774 26.5208 121.58 26.7254 121.44 26.9943C121.304 27.2595 121.234 27.5795 121.23 27.9545ZM136.903 28.9545H138.994L140.045 30.3068L141.08 31.5114L143.028 33.9545H140.733L139.392 32.3068L138.705 31.3295L136.903 28.9545ZM143.205 27.1818C143.205 28.4508 142.964 29.5303 142.483 30.4205C142.006 31.3106 141.354 31.9905 140.528 32.4602C139.706 32.9261 138.782 33.1591 137.756 33.1591C136.722 33.1591 135.794 32.9242 134.972 32.4545C134.15 31.9848 133.5 31.3049 133.023 30.4148C132.545 29.5246 132.307 28.447 132.307 27.1818C132.307 25.9129 132.545 24.8333 133.023 23.9432C133.5 23.053 134.15 22.375 134.972 21.9091C135.794 21.4394 136.722 21.2045 137.756 21.2045C138.782 21.2045 139.706 21.4394 140.528 21.9091C141.354 22.375 142.006 23.053 142.483 23.9432C142.964 24.8333 143.205 25.9129 143.205 27.1818ZM140.71 27.1818C140.71 26.3598 140.587 25.6667 140.341 25.1023C140.098 24.5379 139.756 24.1098 139.312 23.8182C138.869 23.5265 138.35 23.3807 137.756 23.3807C137.161 23.3807 136.642 23.5265 136.199 23.8182C135.756 24.1098 135.411 24.5379 135.165 25.1023C134.922 25.6667 134.801 26.3598 134.801 27.1818C134.801 28.0038 134.922 28.697 135.165 29.2614C135.411 29.8258 135.756 30.2538 136.199 30.5455C136.642 30.8371 137.161 30.983 137.756 30.983C138.35 30.983 138.869 30.8371 139.312 30.5455C139.756 30.2538 140.098 29.8258 140.341 29.2614C140.587 28.697 140.71 28.0038 140.71 27.1818ZM145.027 33V21.3636H149.618C150.497 21.3636 151.247 21.5208 151.868 21.8352C152.493 22.1458 152.968 22.5871 153.294 23.1591C153.624 23.7273 153.788 24.3958 153.788 25.1648C153.788 25.9375 153.622 26.6023 153.288 27.1591C152.955 27.7121 152.472 28.1364 151.839 28.4318C151.211 28.7273 150.449 28.875 149.555 28.875H146.482V26.8977H149.158C149.627 26.8977 150.018 26.8333 150.328 26.7045C150.639 26.5758 150.87 26.3826 151.021 26.125C151.177 25.8674 151.254 25.5473 151.254 25.1648C151.254 24.7784 151.177 24.4527 151.021 24.1875C150.87 23.9223 150.637 23.7216 150.322 23.5852C150.012 23.4451 149.62 23.375 149.146 23.375H147.487V33H145.027ZM151.311 27.7045L154.203 33H151.487L148.658 27.7045H151.311Z" fill="#333333"/>
<path d="M332 36C336.418 36 340 32.4183 340 28C340 23.5817 336.418 20 332 20C327.582 20 324 23.5817 324 28C324 32.4183 327.582 36 332 36Z" fill="#E0E0E0" stroke="#BDBDBD"/>
<path d="M264 140H96C87.1634 140 80 147.163 80 156V324C80 332.837 87.1634 340 96 340H264C272.837 340 280 332.837 280 324V156C280 147.163 272.837 140 264 140Z" fill="white" stroke="#D0D0D0"/>
<path d="M104.545 360V351.273H109.812V352.21H105.602V355.159H109.539V356.097H105.602V359.062H109.88V360H104.545ZM116.217 354.92L115.314 355.176C115.257 355.026 115.173 354.879 115.062 354.737C114.954 354.592 114.806 354.473 114.619 354.379C114.431 354.286 114.191 354.239 113.899 354.239C113.498 354.239 113.164 354.331 112.897 354.516C112.633 354.697 112.501 354.929 112.501 355.21C112.501 355.46 112.592 355.658 112.774 355.803C112.956 355.947 113.24 356.068 113.626 356.165L114.598 356.403C115.183 356.545 115.619 356.763 115.906 357.055C116.193 357.345 116.336 357.719 116.336 358.176C116.336 358.551 116.228 358.886 116.012 359.182C115.799 359.477 115.501 359.71 115.118 359.881C114.734 360.051 114.288 360.136 113.779 360.136C113.112 360.136 112.559 359.991 112.122 359.702C111.684 359.412 111.407 358.989 111.291 358.432L112.245 358.193C112.336 358.545 112.508 358.81 112.761 358.986C113.017 359.162 113.35 359.25 113.762 359.25C114.231 359.25 114.603 359.151 114.879 358.952C115.157 358.75 115.297 358.509 115.297 358.227C115.297 358 115.217 357.81 115.058 357.656C114.899 357.5 114.654 357.384 114.325 357.307L113.234 357.051C112.635 356.909 112.194 356.689 111.913 356.391C111.635 356.089 111.495 355.713 111.495 355.261C111.495 354.892 111.599 354.565 111.806 354.281C112.017 353.997 112.302 353.774 112.663 353.612C113.027 353.45 113.439 353.369 113.899 353.369C114.547 353.369 115.055 353.511 115.424 353.795C115.797 354.08 116.061 354.455 116.217 354.92ZM120.509 360.136C119.896 360.136 119.367 359.991 118.924 359.702C118.481 359.412 118.14 359.013 117.901 358.504C117.663 357.996 117.543 357.415 117.543 356.761C117.543 356.097 117.665 355.51 117.91 355.001C118.157 354.49 118.501 354.091 118.941 353.804C119.384 353.514 119.901 353.369 120.492 353.369C120.952 353.369 121.367 353.455 121.737 353.625C122.106 353.795 122.408 354.034 122.644 354.341C122.88 354.648 123.026 355.006 123.083 355.415H122.077C122.001 355.116 121.83 354.852 121.566 354.622C121.305 354.389 120.952 354.273 120.509 354.273C120.117 354.273 119.773 354.375 119.478 354.58C119.185 354.781 118.957 355.067 118.792 355.436C118.63 355.803 118.549 356.233 118.549 356.727C118.549 357.233 118.629 357.673 118.788 358.048C118.95 358.423 119.177 358.714 119.469 358.922C119.765 359.129 120.112 359.233 120.509 359.233C120.771 359.233 121.008 359.188 121.221 359.097C121.434 359.006 121.614 358.875 121.762 358.705C121.91 358.534 122.015 358.33 122.077 358.091H123.083C123.026 358.477 122.886 358.825 122.661 359.135C122.44 359.442 122.146 359.686 121.779 359.868C121.415 360.047 120.992 360.136 120.509 360.136ZM126.479 360.153C126.065 360.153 125.688 360.075 125.35 359.919C125.012 359.76 124.744 359.531 124.545 359.233C124.346 358.932 124.246 358.568 124.246 358.142C124.246 357.767 124.32 357.463 124.468 357.23C124.616 356.994 124.813 356.81 125.06 356.676C125.308 356.543 125.58 356.443 125.879 356.378C126.18 356.31 126.482 356.256 126.786 356.216C127.184 356.165 127.506 356.126 127.754 356.101C128.004 356.072 128.185 356.026 128.299 355.96C128.415 355.895 128.474 355.781 128.474 355.619V355.585C128.474 355.165 128.359 354.838 128.129 354.605C127.901 354.372 127.556 354.256 127.093 354.256C126.613 354.256 126.237 354.361 125.964 354.571C125.691 354.781 125.499 355.006 125.388 355.244L124.434 354.903C124.604 354.506 124.832 354.196 125.116 353.974C125.403 353.75 125.715 353.594 126.053 353.506C126.394 353.415 126.729 353.369 127.059 353.369C127.269 353.369 127.511 353.395 127.783 353.446C128.059 353.494 128.325 353.595 128.58 353.749C128.839 353.902 129.053 354.134 129.224 354.443C129.394 354.753 129.479 355.168 129.479 355.688V360H128.474V359.114H128.423C128.354 359.256 128.241 359.408 128.082 359.57C127.923 359.732 127.711 359.869 127.447 359.983C127.183 360.097 126.86 360.153 126.479 360.153ZM126.633 359.25C127.031 359.25 127.366 359.172 127.638 359.016C127.914 358.859 128.121 358.658 128.261 358.411C128.403 358.163 128.474 357.903 128.474 357.631V356.71C128.431 356.761 128.337 356.808 128.192 356.851C128.05 356.891 127.886 356.926 127.698 356.957C127.513 356.986 127.333 357.011 127.157 357.034C126.984 357.054 126.843 357.071 126.735 357.085C126.474 357.119 126.229 357.175 126.002 357.251C125.778 357.325 125.596 357.437 125.457 357.588C125.32 357.736 125.252 357.937 125.252 358.193C125.252 358.543 125.381 358.807 125.64 358.986C125.901 359.162 126.232 359.25 126.633 359.25ZM132.321 356.062V360H131.315V353.455H132.287V354.477H132.372C132.525 354.145 132.758 353.878 133.071 353.676C133.383 353.472 133.787 353.369 134.281 353.369C134.724 353.369 135.112 353.46 135.444 353.642C135.777 353.821 136.035 354.094 136.22 354.46C136.404 354.824 136.497 355.284 136.497 355.841V360H135.491V355.909C135.491 355.395 135.358 354.994 135.091 354.707C134.824 354.418 134.457 354.273 133.991 354.273C133.67 354.273 133.383 354.342 133.13 354.482C132.88 354.621 132.683 354.824 132.538 355.091C132.393 355.358 132.321 355.682 132.321 356.062ZM141.079 360.136C140.448 360.136 139.904 359.997 139.447 359.719C138.992 359.438 138.641 359.045 138.394 358.543C138.15 358.037 138.028 357.449 138.028 356.778C138.028 356.108 138.15 355.517 138.394 355.006C138.641 354.491 138.985 354.091 139.425 353.804C139.869 353.514 140.386 353.369 140.977 353.369C141.317 353.369 141.654 353.426 141.987 353.54C142.319 353.653 142.621 353.838 142.894 354.094C143.167 354.347 143.384 354.682 143.546 355.099C143.708 355.517 143.789 356.031 143.789 356.642V357.068H138.744V356.199H142.766C142.766 355.83 142.692 355.5 142.545 355.21C142.4 354.92 142.192 354.692 141.923 354.524C141.656 354.357 141.34 354.273 140.977 354.273C140.576 354.273 140.229 354.372 139.937 354.571C139.647 354.767 139.424 355.023 139.268 355.338C139.112 355.653 139.033 355.991 139.033 356.352V356.932C139.033 357.426 139.119 357.845 139.289 358.189C139.462 358.53 139.702 358.79 140.009 358.969C140.316 359.145 140.673 359.233 141.079 359.233C141.343 359.233 141.582 359.196 141.795 359.122C142.011 359.045 142.197 358.932 142.353 358.781C142.509 358.628 142.63 358.437 142.715 358.21L143.687 358.483C143.585 358.812 143.413 359.102 143.171 359.352C142.93 359.599 142.631 359.793 142.276 359.932C141.921 360.068 141.522 360.136 141.079 360.136ZM147.245 360.153C146.83 360.153 146.454 360.075 146.116 359.919C145.778 359.76 145.509 359.531 145.31 359.233C145.112 358.932 145.012 358.568 145.012 358.142C145.012 357.767 145.086 357.463 145.234 357.23C145.381 356.994 145.579 356.81 145.826 356.676C146.073 356.543 146.346 356.443 146.644 356.378C146.945 356.31 147.248 356.256 147.552 356.216C147.95 356.165 148.272 356.126 148.519 356.101C148.769 356.072 148.951 356.026 149.065 355.96C149.181 355.895 149.239 355.781 149.239 355.619V355.585C149.239 355.165 149.124 354.838 148.894 354.605C148.667 354.372 148.322 354.256 147.859 354.256C147.379 354.256 147.002 354.361 146.729 354.571C146.457 354.781 146.265 355.006 146.154 355.244L145.2 354.903C145.37 354.506 145.597 354.196 145.881 353.974C146.168 353.75 146.481 353.594 146.819 353.506C147.16 353.415 147.495 353.369 147.825 353.369C148.035 353.369 148.276 353.395 148.549 353.446C148.825 353.494 149.09 353.595 149.346 353.749C149.604 353.902 149.819 354.134 149.989 354.443C150.16 354.753 150.245 355.168 150.245 355.688V360H149.239V359.114H149.188C149.12 359.256 149.006 359.408 148.847 359.57C148.688 359.732 148.477 359.869 148.212 359.983C147.948 360.097 147.626 360.153 147.245 360.153ZM147.398 359.25C147.796 359.25 148.131 359.172 148.404 359.016C148.68 358.859 148.887 358.658 149.026 358.411C149.168 358.163 149.239 357.903 149.239 357.631V356.71C149.197 356.761 149.103 356.808 148.958 356.851C148.816 356.891 148.651 356.926 148.464 356.957C148.279 356.986 148.099 357.011 147.923 357.034C147.749 357.054 147.609 357.071 147.501 357.085C147.239 357.119 146.995 357.175 146.768 357.251C146.543 357.325 146.362 357.437 146.222 357.588C146.086 357.736 146.018 357.937 146.018 358.193C146.018 358.543 146.147 358.807 146.406 358.986C146.667 359.162 146.998 359.25 147.398 359.25ZM147.433 352.568L148.472 350.591H149.648L148.319 352.568H147.433ZM158.302 353.455V354.307H154.91V353.455H158.302ZM155.899 351.886H156.904V358.125C156.904 358.409 156.946 358.622 157.028 358.764C157.113 358.903 157.221 358.997 157.352 359.045C157.485 359.091 157.626 359.114 157.774 359.114C157.885 359.114 157.975 359.108 158.047 359.097C158.118 359.082 158.174 359.071 158.217 359.062L158.422 359.966C158.353 359.991 158.258 360.017 158.136 360.043C158.014 360.071 157.859 360.085 157.672 360.085C157.387 360.085 157.109 360.024 156.836 359.902C156.566 359.78 156.342 359.594 156.163 359.344C155.987 359.094 155.899 358.778 155.899 358.398V351.886ZM163.94 357.324V353.455H164.946V360H163.94V358.892H163.872C163.718 359.224 163.48 359.507 163.156 359.74C162.832 359.97 162.423 360.085 161.929 360.085C161.52 360.085 161.156 359.996 160.838 359.817C160.52 359.635 160.27 359.362 160.088 358.999C159.906 358.632 159.815 358.17 159.815 357.614V353.455H160.821V357.545C160.821 358.023 160.954 358.403 161.221 358.688C161.491 358.972 161.835 359.114 162.252 359.114C162.502 359.114 162.757 359.05 163.015 358.922C163.277 358.794 163.495 358.598 163.672 358.334C163.85 358.07 163.94 357.733 163.94 357.324ZM173.469 357.273H174.629L175.6 358.551L175.856 358.892L177.305 360.818H176.146L175.191 359.54L174.952 359.216L173.469 357.273ZM177.663 355.636C177.663 356.557 177.496 357.352 177.164 358.023C176.832 358.693 176.376 359.21 175.796 359.574C175.217 359.938 174.555 360.119 173.81 360.119C173.066 360.119 172.404 359.938 171.825 359.574C171.245 359.21 170.789 358.693 170.457 358.023C170.124 357.352 169.958 356.557 169.958 355.636C169.958 354.716 170.124 353.92 170.457 353.25C170.789 352.58 171.245 352.062 171.825 351.699C172.404 351.335 173.066 351.153 173.81 351.153C174.555 351.153 175.217 351.335 175.796 351.699C176.376 352.062 176.832 352.58 177.164 353.25C177.496 353.92 177.663 354.716 177.663 355.636ZM176.64 355.636C176.64 354.881 176.513 354.243 176.261 353.723C176.011 353.203 175.671 352.81 175.242 352.543C174.816 352.276 174.339 352.142 173.81 352.142C173.282 352.142 172.803 352.276 172.374 352.543C171.948 352.81 171.609 353.203 171.356 353.723C171.106 354.243 170.981 354.881 170.981 355.636C170.981 356.392 171.106 357.03 171.356 357.55C171.609 358.07 171.948 358.463 172.374 358.73C172.803 358.997 173.282 359.131 173.81 359.131C174.339 359.131 174.816 358.997 175.242 358.73C175.671 358.463 176.011 358.07 176.261 357.55C176.513 357.03 176.64 356.392 176.64 355.636ZM179.44 360V351.273H182.388C183.07 351.273 183.63 351.389 184.067 351.622C184.505 351.852 184.829 352.169 185.039 352.572C185.249 352.976 185.354 353.435 185.354 353.949C185.354 354.463 185.249 354.919 185.039 355.317C184.829 355.714 184.506 356.027 184.072 356.254C183.637 356.479 183.082 356.591 182.406 356.591H180.019V355.636H182.371C182.837 355.636 183.212 355.568 183.496 355.432C183.783 355.295 183.991 355.102 184.119 354.852C184.249 354.599 184.315 354.298 184.315 353.949C184.315 353.599 184.249 353.294 184.119 353.033C183.988 352.771 183.779 352.57 183.492 352.428C183.205 352.283 182.826 352.21 182.354 352.21H180.496V360H179.44ZM183.548 356.08L185.695 360H184.468L182.354 356.08H183.548ZM193.098 360.136C192.468 360.136 191.924 359.997 191.466 359.719C191.012 359.438 190.661 359.045 190.414 358.543C190.169 358.037 190.047 357.449 190.047 356.778C190.047 356.108 190.169 355.517 190.414 355.006C190.661 354.491 191.005 354.091 191.445 353.804C191.888 353.514 192.405 353.369 192.996 353.369C193.337 353.369 193.674 353.426 194.006 353.54C194.338 353.653 194.641 353.838 194.914 354.094C195.186 354.347 195.404 354.682 195.566 355.099C195.728 355.517 195.809 356.031 195.809 356.642V357.068H190.763V356.199H194.786C194.786 355.83 194.712 355.5 194.564 355.21C194.419 354.92 194.212 354.692 193.942 354.524C193.675 354.357 193.36 354.273 192.996 354.273C192.596 354.273 192.249 354.372 191.956 354.571C191.667 354.767 191.444 355.023 191.287 355.338C191.131 355.653 191.053 355.991 191.053 356.352V356.932C191.053 357.426 191.138 357.845 191.309 358.189C191.482 358.53 191.722 358.79 192.029 358.969C192.336 359.145 192.692 359.233 193.098 359.233C193.363 359.233 193.601 359.196 193.814 359.122C194.03 359.045 194.216 358.932 194.373 358.781C194.529 358.628 194.65 358.437 194.735 358.21L195.706 358.483C195.604 358.812 195.432 359.102 195.191 359.352C194.949 359.599 194.651 359.793 194.296 359.932C193.941 360.068 193.542 360.136 193.098 360.136ZM198.344 356.062V360H197.338V353.455H198.31V354.477H198.395C198.549 354.145 198.782 353.878 199.094 353.676C199.407 353.472 199.81 353.369 200.304 353.369C200.748 353.369 201.135 353.46 201.468 353.642C201.8 353.821 202.059 354.094 202.243 354.46C202.428 354.824 202.52 355.284 202.52 355.841V360H201.515V355.909C201.515 355.395 201.381 354.994 201.114 354.707C200.847 354.418 200.48 354.273 200.015 354.273C199.694 354.273 199.407 354.342 199.154 354.482C198.904 354.621 198.706 354.824 198.561 355.091C198.417 355.358 198.344 355.682 198.344 356.062ZM210.477 360.136C209.847 360.136 209.303 359.997 208.845 359.719C208.391 359.438 208.04 359.045 207.793 358.543C207.548 358.037 207.426 357.449 207.426 356.778C207.426 356.108 207.548 355.517 207.793 355.006C208.04 354.491 208.384 354.091 208.824 353.804C209.267 353.514 209.784 353.369 210.375 353.369C210.716 353.369 211.053 353.426 211.385 353.54C211.717 353.653 212.02 353.838 212.293 354.094C212.565 354.347 212.783 354.682 212.945 355.099C213.107 355.517 213.188 356.031 213.188 356.642V357.068H208.142V356.199H212.165C212.165 355.83 212.091 355.5 211.943 355.21C211.798 354.92 211.591 354.692 211.321 354.524C211.054 354.357 210.739 354.273 210.375 354.273C209.974 354.273 209.628 354.372 209.335 354.571C209.045 354.767 208.822 355.023 208.666 355.338C208.51 355.653 208.432 355.991 208.432 356.352V356.932C208.432 357.426 208.517 357.845 208.688 358.189C208.861 358.53 209.101 358.79 209.408 358.969C209.714 359.145 210.071 359.233 210.477 359.233C210.741 359.233 210.98 359.196 211.193 359.122C211.409 359.045 211.595 358.932 211.751 358.781C211.908 358.628 212.028 358.437 212.114 358.21L213.085 358.483C212.983 358.812 212.811 359.102 212.57 359.352C212.328 359.599 212.03 359.793 211.675 359.932C211.32 360.068 210.92 360.136 210.477 360.136ZM215.723 351.273V360H214.717V351.273H215.723ZM223.599 360.136C222.985 360.136 222.457 359.991 222.014 359.702C221.571 359.412 221.23 359.013 220.991 358.504C220.752 357.996 220.633 357.415 220.633 356.761C220.633 356.097 220.755 355.51 221 355.001C221.247 354.49 221.591 354.091 222.031 353.804C222.474 353.514 222.991 353.369 223.582 353.369C224.042 353.369 224.457 353.455 224.826 353.625C225.196 353.795 225.498 354.034 225.734 354.341C225.97 354.648 226.116 355.006 226.173 355.415H225.167C225.091 355.116 224.92 354.852 224.656 354.622C224.395 354.389 224.042 354.273 223.599 354.273C223.207 354.273 222.863 354.375 222.568 354.58C222.275 354.781 222.047 355.067 221.882 355.436C221.72 355.803 221.639 356.233 221.639 356.727C221.639 357.233 221.718 357.673 221.877 358.048C222.039 358.423 222.267 358.714 222.559 358.922C222.855 359.129 223.201 359.233 223.599 359.233C223.86 359.233 224.098 359.188 224.311 359.097C224.524 359.006 224.704 358.875 224.852 358.705C225 358.534 225.105 358.33 225.167 358.091H226.173C226.116 358.477 225.975 358.825 225.751 359.135C225.529 359.442 225.235 359.686 224.869 359.868C224.505 360.047 224.082 360.136 223.599 360.136ZM230.387 360.136C229.757 360.136 229.213 359.997 228.755 359.719C228.301 359.438 227.95 359.045 227.703 358.543C227.458 358.037 227.336 357.449 227.336 356.778C227.336 356.108 227.458 355.517 227.703 355.006C227.95 354.491 228.294 354.091 228.734 353.804C229.177 353.514 229.694 353.369 230.285 353.369C230.626 353.369 230.963 353.426 231.295 353.54C231.627 353.653 231.93 353.838 232.203 354.094C232.475 354.347 232.693 354.682 232.855 355.099C233.017 355.517 233.098 356.031 233.098 356.642V357.068H228.052V356.199H232.075C232.075 355.83 232.001 355.5 231.853 355.21C231.708 354.92 231.501 354.692 231.231 354.524C230.964 354.357 230.649 354.273 230.285 354.273C229.885 354.273 229.538 354.372 229.245 354.571C228.956 354.767 228.733 355.023 228.576 355.338C228.42 355.653 228.342 355.991 228.342 356.352V356.932C228.342 357.426 228.427 357.845 228.598 358.189C228.771 358.53 229.011 358.79 229.318 358.969C229.625 359.145 229.981 359.233 230.387 359.233C230.652 359.233 230.89 359.196 231.103 359.122C231.319 359.045 231.505 358.932 231.662 358.781C231.818 358.628 231.939 358.437 232.024 358.21L232.995 358.483C232.893 358.812 232.721 359.102 232.48 359.352C232.238 359.599 231.94 359.793 231.585 359.932C231.23 360.068 230.831 360.136 230.387 360.136ZM235.633 356.062V360H234.627V353.455H235.599V354.477H235.684C235.838 354.145 236.071 353.878 236.383 353.676C236.696 353.472 237.099 353.369 237.593 353.369C238.037 353.369 238.424 353.46 238.757 353.642C239.089 353.821 239.348 354.094 239.532 354.46C239.717 354.824 239.809 355.284 239.809 355.841V360H238.804V355.909C238.804 355.395 238.67 354.994 238.403 354.707C238.136 354.418 237.77 354.273 237.304 354.273C236.983 354.273 236.696 354.342 236.443 354.482C236.193 354.621 235.995 354.824 235.85 355.091C235.706 355.358 235.633 355.682 235.633 356.062ZM244.494 353.455V354.307H241.102V353.455H244.494ZM242.09 351.886H243.096V358.125C243.096 358.409 243.137 358.622 243.219 358.764C243.305 358.903 243.413 358.997 243.543 359.045C243.677 359.091 243.817 359.114 243.965 359.114C244.076 359.114 244.167 359.108 244.238 359.097C244.309 359.082 244.366 359.071 244.408 359.062L244.613 359.966C244.545 359.991 244.45 360.017 244.327 360.043C244.205 360.071 244.05 360.085 243.863 360.085C243.579 360.085 243.3 360.024 243.028 359.902C242.758 359.78 242.533 359.594 242.354 359.344C242.178 359.094 242.09 358.778 242.09 358.398V351.886ZM246.006 360V353.455H246.978V354.443H247.046C247.165 354.119 247.381 353.857 247.694 353.655C248.006 353.453 248.359 353.352 248.751 353.352C248.825 353.352 248.917 353.354 249.028 353.357C249.138 353.359 249.222 353.364 249.279 353.369V354.392C249.245 354.384 249.167 354.371 249.045 354.354C248.925 354.334 248.799 354.324 248.665 354.324C248.347 354.324 248.063 354.391 247.813 354.524C247.566 354.655 247.37 354.837 247.225 355.07C247.083 355.3 247.012 355.562 247.012 355.858V360H246.006ZM252.931 360.136C252.34 360.136 251.822 359.996 251.376 359.714C250.933 359.433 250.586 359.04 250.336 358.534C250.089 358.028 249.965 357.437 249.965 356.761C249.965 356.08 250.089 355.484 250.336 354.976C250.586 354.467 250.933 354.072 251.376 353.791C251.822 353.51 252.34 353.369 252.931 353.369C253.522 353.369 254.039 353.51 254.482 353.791C254.928 354.072 255.275 354.467 255.522 354.976C255.772 355.484 255.897 356.08 255.897 356.761C255.897 357.437 255.772 358.028 255.522 358.534C255.275 359.04 254.928 359.433 254.482 359.714C254.039 359.996 253.522 360.136 252.931 360.136ZM252.931 359.233C253.38 359.233 253.749 359.118 254.039 358.888C254.329 358.658 254.543 358.355 254.683 357.98C254.822 357.605 254.891 357.199 254.891 356.761C254.891 356.324 254.822 355.916 254.683 355.538C254.543 355.161 254.329 354.855 254.039 354.622C253.749 354.389 253.38 354.273 252.931 354.273C252.482 354.273 252.113 354.389 251.823 354.622C251.533 354.855 251.319 355.161 251.18 355.538C251.04 355.916 250.971 356.324 250.971 356.761C250.971 357.199 251.04 357.605 251.18 357.98C251.319 358.355 251.533 358.658 251.823 358.888C252.113 359.118 252.482 359.233 252.931 359.233Z" fill="#212121"/>
<path d="M360 736H0V800H360V736Z" fill="white" stroke="#D0D0D0"/>
<path d="M36 766C41.5228 766 46 761.523 46 756C46 750.477 41.5228 746 36 746C30.4772 746 26 750.477 26 756C26 761.523 30.4772 766 36 766Z" fill="#E0E0E0" stroke="#BDBDBD"/>
<path d="M25.3639 774.727V782H24.4832V774.727H25.3639ZM27.8541 778.719V782H27.0161V776.545H27.8257V777.398H27.8968C28.0246 777.121 28.2187 776.898 28.4791 776.73C28.7396 776.56 29.0757 776.474 29.4877 776.474C29.857 776.474 30.1801 776.55 30.4571 776.702C30.7341 776.851 30.9495 777.078 31.1034 777.384C31.2573 777.687 31.3343 778.07 31.3343 778.534V782H30.4962V778.591C30.4962 778.162 30.3849 777.829 30.1624 777.589C29.9398 777.348 29.6344 777.227 29.2462 777.227C28.9787 777.227 28.7396 777.285 28.5289 777.401C28.3205 777.517 28.156 777.687 28.0352 777.909C27.9145 778.132 27.8541 778.402 27.8541 778.719ZM32.8657 782V776.545H33.7037V782H32.8657ZM33.2918 775.636C33.1285 775.636 32.9876 775.581 32.8692 775.469C32.7532 775.358 32.6952 775.224 32.6952 775.068C32.6952 774.912 32.7532 774.778 32.8692 774.667C32.9876 774.556 33.1285 774.5 33.2918 774.5C33.4552 774.5 33.5948 774.556 33.7108 774.667C33.8292 774.778 33.8884 774.912 33.8884 775.068C33.8884 775.224 33.8292 775.358 33.7108 775.469C33.5948 775.581 33.4552 775.636 33.2918 775.636ZM37.4546 782.114C36.9433 782.114 36.5029 781.993 36.1336 781.751C35.7643 781.51 35.4802 781.177 35.2813 780.754C35.0825 780.33 34.983 779.846 34.983 779.301C34.983 778.747 35.0848 778.258 35.2884 777.835C35.4944 777.408 35.7809 777.076 36.1478 776.837C36.5171 776.595 36.948 776.474 37.4404 776.474C37.824 776.474 38.1696 776.545 38.4774 776.688C38.7851 776.83 39.0373 777.028 39.2338 777.284C39.4302 777.54 39.5522 777.838 39.5995 778.179H38.7615C38.6975 777.93 38.5555 777.71 38.3353 777.518C38.1175 777.324 37.824 777.227 37.4546 777.227C37.1279 777.227 36.8415 777.312 36.5953 777.483C36.3514 777.651 36.1608 777.889 36.0235 778.197C35.8886 778.502 35.8211 778.861 35.8211 779.273C35.8211 779.694 35.8874 780.061 36.02 780.374C36.1549 780.686 36.3443 780.929 36.5882 781.102C36.8344 781.274 37.1232 781.361 37.4546 781.361C37.6724 781.361 37.8701 781.323 38.0477 781.247C38.2252 781.171 38.3756 781.062 38.4987 780.92C38.6218 780.778 38.7094 780.608 38.7615 780.409H39.5995C39.5522 780.731 39.435 781.021 39.248 781.279C39.0633 781.535 38.8183 781.738 38.5129 781.89C38.2098 782.039 37.8571 782.114 37.4546 782.114ZM40.8247 782V776.545H41.6627V782H40.8247ZM41.2508 775.636C41.0874 775.636 40.9466 775.581 40.8282 775.469C40.7122 775.358 40.6542 775.224 40.6542 775.068C40.6542 774.912 40.7122 774.778 40.8282 774.667C40.9466 774.556 41.0874 774.5 41.2508 774.5C41.4142 774.5 41.5538 774.556 41.6698 774.667C41.7882 774.778 41.8474 774.912 41.8474 775.068C41.8474 775.224 41.7882 775.358 41.6698 775.469C41.5538 775.581 41.4142 775.636 41.2508 775.636ZM45.4136 782.114C44.9212 782.114 44.4891 781.996 44.1175 781.762C43.7481 781.528 43.4593 781.2 43.251 780.778C43.045 780.357 42.942 779.865 42.942 779.301C42.942 778.733 43.045 778.237 43.251 777.813C43.4593 777.389 43.7481 777.06 44.1175 776.826C44.4891 776.592 44.9212 776.474 45.4136 776.474C45.906 776.474 46.3369 776.592 46.7062 776.826C47.0779 777.06 47.3667 777.389 47.5727 777.813C47.781 778.237 47.8852 778.733 47.8852 779.301C47.8852 779.865 47.781 780.357 47.5727 780.778C47.3667 781.2 47.0779 781.528 46.7062 781.762C46.3369 781.996 45.906 782.114 45.4136 782.114ZM45.4136 781.361C45.7877 781.361 46.0954 781.265 46.3369 781.073C46.5784 780.881 46.7571 780.629 46.8731 780.317C46.9891 780.004 47.0471 779.666 47.0471 779.301C47.0471 778.937 46.9891 778.597 46.8731 778.282C46.7571 777.967 46.5784 777.713 46.3369 777.518C46.0954 777.324 45.7877 777.227 45.4136 777.227C45.0396 777.227 44.7318 777.324 44.4903 777.518C44.2488 777.713 44.0701 777.967 43.9541 778.282C43.8381 778.597 43.7801 778.937 43.7801 779.301C43.7801 779.666 43.8381 780.004 43.9541 780.317C44.0701 780.629 44.2488 780.881 44.4903 781.073C44.7318 781.265 45.0396 781.361 45.4136 781.361Z" fill="#666666"/>
<path d="M108 766C113.523 766 118 761.523 118 756C118 750.477 113.523 746 108 746C102.477 746 98 750.477 98 756C98 761.523 102.477 766 108 766Z" fill="#E0E0E0" stroke="#BDBDBD"/>
<path d="M95.7508 774.727H96.8019L99.2735 780.764H99.3588L101.83 774.727H102.881V782H102.058V776.474H101.987L99.7139 782H98.9184L96.6457 776.474H96.5747V782H95.7508V774.727ZM106.139 782.128C105.793 782.128 105.479 782.063 105.198 781.933C104.916 781.8 104.692 781.609 104.527 781.361C104.361 781.11 104.278 780.807 104.278 780.452C104.278 780.139 104.34 779.886 104.463 779.692C104.586 779.495 104.75 779.341 104.956 779.23C105.162 779.119 105.389 779.036 105.638 778.982C105.889 778.925 106.141 778.88 106.394 778.847C106.726 778.804 106.995 778.772 107.201 778.751C107.409 778.727 107.56 778.688 107.655 778.634C107.752 778.579 107.801 778.484 107.801 778.349V778.321C107.801 777.971 107.705 777.698 107.513 777.504C107.324 777.31 107.036 777.213 106.65 777.213C106.25 777.213 105.936 777.301 105.709 777.476C105.482 777.651 105.322 777.838 105.23 778.037L104.434 777.753C104.576 777.421 104.766 777.163 105.002 776.979C105.242 776.792 105.502 776.661 105.784 776.588C106.068 776.512 106.347 776.474 106.622 776.474C106.797 776.474 106.998 776.496 107.225 776.538C107.455 776.579 107.676 776.663 107.889 776.79C108.105 776.918 108.284 777.111 108.426 777.369C108.568 777.627 108.639 777.973 108.639 778.406V782H107.801V781.261H107.758C107.701 781.38 107.607 781.506 107.474 781.641C107.341 781.776 107.165 781.891 106.945 781.986C106.725 782.08 106.456 782.128 106.139 782.128ZM106.267 781.375C106.598 781.375 106.877 781.31 107.105 781.18C107.334 781.049 107.507 780.881 107.623 780.675C107.742 780.469 107.801 780.253 107.801 780.026V779.259C107.765 779.301 107.687 779.34 107.566 779.376C107.448 779.409 107.311 779.438 107.154 779.464C107.001 779.488 106.85 779.509 106.703 779.528C106.559 779.545 106.442 779.559 106.352 779.571C106.134 779.599 105.93 779.646 105.741 779.71C105.554 779.771 105.402 779.865 105.286 779.99C105.173 780.113 105.116 780.281 105.116 780.494C105.116 780.786 105.224 781.006 105.439 781.155C105.657 781.302 105.933 781.375 106.267 781.375ZM110.168 784.045V776.545H110.978V777.412H111.078C111.139 777.317 111.224 777.196 111.333 777.05C111.444 776.901 111.603 776.768 111.809 776.652C112.017 776.534 112.299 776.474 112.654 776.474C113.113 776.474 113.518 776.589 113.869 776.819C114.219 777.049 114.493 777.374 114.689 777.795C114.886 778.217 114.984 778.714 114.984 779.287C114.984 779.865 114.886 780.365 114.689 780.789C114.493 781.21 114.22 781.537 113.872 781.769C113.524 781.999 113.123 782.114 112.668 782.114C112.318 782.114 112.037 782.056 111.827 781.94C111.616 781.821 111.454 781.687 111.34 781.538C111.227 781.387 111.139 781.261 111.078 781.162H111.006V784.045H110.168ZM110.992 779.273C110.992 779.685 111.053 780.048 111.173 780.363C111.294 780.675 111.47 780.92 111.703 781.098C111.935 781.273 112.219 781.361 112.555 781.361C112.905 781.361 113.198 781.268 113.432 781.084C113.669 780.897 113.846 780.646 113.965 780.331C114.085 780.014 114.146 779.661 114.146 779.273C114.146 778.889 114.086 778.544 113.968 778.236C113.852 777.926 113.676 777.681 113.439 777.501C113.205 777.318 112.91 777.227 112.555 777.227C112.214 777.227 111.927 777.314 111.695 777.487C111.463 777.657 111.288 777.896 111.17 778.204C111.051 778.509 110.992 778.866 110.992 779.273ZM117.867 782.128C117.522 782.128 117.208 782.063 116.926 781.933C116.645 781.8 116.421 781.609 116.255 781.361C116.089 781.11 116.006 780.807 116.006 780.452C116.006 780.139 116.068 779.886 116.191 779.692C116.314 779.495 116.479 779.341 116.685 779.23C116.891 779.119 117.118 779.036 117.367 778.982C117.618 778.925 117.87 778.88 118.123 778.847C118.454 778.804 118.723 778.772 118.929 778.751C119.137 778.727 119.289 778.688 119.384 778.634C119.481 778.579 119.529 778.484 119.529 778.349V778.321C119.529 777.971 119.433 777.698 119.242 777.504C119.052 777.31 118.765 777.213 118.379 777.213C117.979 777.213 117.665 777.301 117.438 777.476C117.21 777.651 117.051 777.838 116.958 778.037L116.163 777.753C116.305 777.421 116.494 777.163 116.731 776.979C116.97 776.792 117.23 776.661 117.512 776.588C117.796 776.512 118.076 776.474 118.35 776.474C118.525 776.474 118.727 776.496 118.954 776.538C119.184 776.579 119.405 776.663 119.618 776.79C119.833 776.918 120.012 777.111 120.154 777.369C120.296 777.627 120.367 777.973 120.367 778.406V782H119.529V781.261H119.487C119.43 781.38 119.335 781.506 119.203 781.641C119.07 781.776 118.894 781.891 118.673 781.986C118.453 782.08 118.185 782.128 117.867 782.128ZM117.995 781.375C118.327 781.375 118.606 781.31 118.833 781.18C119.063 781.049 119.236 780.881 119.352 780.675C119.47 780.469 119.529 780.253 119.529 780.026V779.259C119.494 779.301 119.416 779.34 119.295 779.376C119.176 779.409 119.039 779.438 118.883 779.464C118.729 779.488 118.579 779.509 118.432 779.528C118.287 779.545 118.17 779.559 118.08 779.571C117.863 779.599 117.659 779.646 117.47 779.71C117.283 779.771 117.131 779.865 117.015 779.99C116.901 780.113 116.845 780.281 116.845 780.494C116.845 780.786 116.952 781.006 117.168 781.155C117.386 781.302 117.661 781.375 117.995 781.375Z" fill="#666666"/>
<path d="M180 766C185.523 766 190 761.523 190 756C190 750.477 185.523 746 180 746C174.477 746 170 750.477 170 756C170 761.523 174.477 766 180 766Z" fill="#E0E0E0" stroke="#BDBDBD"/>
<path d="M174.663 777H173.782C173.73 776.747 173.639 776.524 173.509 776.332C173.381 776.141 173.224 775.98 173.04 775.849C172.857 775.717 172.655 775.617 172.433 775.551C172.21 775.485 171.978 775.452 171.737 775.452C171.296 775.452 170.897 775.563 170.54 775.786C170.185 776.008 169.902 776.336 169.691 776.769C169.483 777.202 169.379 777.734 169.379 778.364C169.379 778.993 169.483 779.525 169.691 779.958C169.902 780.391 170.185 780.719 170.54 780.942C170.897 781.164 171.296 781.276 171.737 781.276C171.978 781.276 172.21 781.242 172.433 781.176C172.655 781.11 172.857 781.012 173.04 780.881C173.224 780.749 173.381 780.587 173.509 780.395C173.639 780.201 173.73 779.978 173.782 779.727H174.663C174.596 780.099 174.476 780.432 174.3 780.725C174.125 781.019 173.907 781.268 173.647 781.474C173.387 781.678 173.094 781.833 172.77 781.94C172.448 782.046 172.103 782.099 171.737 782.099C171.116 782.099 170.565 781.948 170.082 781.645C169.599 781.342 169.219 780.911 168.942 780.352C168.665 779.794 168.526 779.131 168.526 778.364C168.526 777.597 168.665 776.934 168.942 776.375C169.219 775.816 169.599 775.385 170.082 775.082C170.565 774.779 171.116 774.628 171.737 774.628C172.103 774.628 172.448 774.681 172.77 774.788C173.094 774.894 173.387 775.05 173.647 775.256C173.907 775.46 174.125 775.709 174.3 776.002C174.476 776.293 174.596 776.626 174.663 777ZM175.972 782V776.545H176.81V782H175.972ZM176.398 775.636C176.235 775.636 176.094 775.581 175.976 775.469C175.86 775.358 175.802 775.224 175.802 775.068C175.802 774.912 175.86 774.778 175.976 774.667C176.094 774.556 176.235 774.5 176.398 774.5C176.562 774.5 176.701 774.556 176.817 774.667C176.936 774.778 176.995 774.912 176.995 775.068C176.995 775.224 176.936 775.358 176.817 775.469C176.701 775.581 176.562 775.636 176.398 775.636ZM180.717 776.545V777.256H177.891V776.545H180.717ZM178.714 775.239H179.553V780.438C179.553 780.674 179.587 780.852 179.656 780.97C179.727 781.086 179.817 781.164 179.925 781.205C180.037 781.242 180.154 781.261 180.277 781.261C180.369 781.261 180.445 781.257 180.504 781.247C180.563 781.235 180.611 781.226 180.646 781.219L180.817 781.972C180.76 781.993 180.681 782.014 180.579 782.036C180.477 782.059 180.348 782.071 180.192 782.071C179.955 782.071 179.723 782.02 179.496 781.918C179.271 781.817 179.084 781.661 178.935 781.453C178.788 781.245 178.714 780.982 178.714 780.665V775.239ZM183.583 782.128C183.237 782.128 182.924 782.063 182.642 781.933C182.36 781.8 182.137 781.609 181.971 781.361C181.805 781.11 181.722 780.807 181.722 780.452C181.722 780.139 181.784 779.886 181.907 779.692C182.03 779.495 182.195 779.341 182.401 779.23C182.607 779.119 182.834 779.036 183.082 778.982C183.333 778.925 183.585 778.88 183.839 778.847C184.17 778.804 184.439 778.772 184.645 778.751C184.853 778.727 185.005 778.688 185.099 778.634C185.196 778.579 185.245 778.484 185.245 778.349V778.321C185.245 777.971 185.149 777.698 184.957 777.504C184.768 777.31 184.48 777.213 184.094 777.213C183.694 777.213 183.381 777.301 183.153 777.476C182.926 777.651 182.766 777.838 182.674 778.037L181.879 777.753C182.021 777.421 182.21 777.163 182.447 776.979C182.686 776.792 182.946 776.661 183.228 776.588C183.512 776.512 183.791 776.474 184.066 776.474C184.241 776.474 184.442 776.496 184.67 776.538C184.899 776.579 185.121 776.663 185.334 776.79C185.549 776.918 185.728 777.111 185.87 777.369C186.012 777.627 186.083 777.973 186.083 778.406V782H185.245V781.261H185.202C185.146 781.38 185.051 781.506 184.918 781.641C184.786 781.776 184.609 781.891 184.389 781.986C184.169 782.08 183.9 782.128 183.583 782.128ZM183.711 781.375C184.042 781.375 184.322 781.31 184.549 781.18C184.779 781.049 184.951 780.881 185.067 780.675C185.186 780.469 185.245 780.253 185.245 780.026V779.259C185.21 779.301 185.131 779.34 185.011 779.376C184.892 779.409 184.755 779.438 184.599 779.464C184.445 779.488 184.295 779.509 184.148 779.528C184.003 779.545 183.886 779.559 183.796 779.571C183.578 779.599 183.375 779.646 183.185 779.71C182.998 779.771 182.847 779.865 182.731 779.99C182.617 780.113 182.56 780.281 182.56 780.494C182.56 780.786 182.668 781.006 182.884 781.155C183.101 781.302 183.377 781.375 183.711 781.375ZM191.476 777.767L190.724 777.98C190.676 777.855 190.606 777.733 190.514 777.614C190.424 777.494 190.301 777.394 190.145 777.316C189.988 777.238 189.788 777.199 189.545 777.199C189.211 777.199 188.933 777.276 188.71 777.43C188.49 777.581 188.38 777.774 188.38 778.009C188.38 778.217 188.456 778.381 188.607 778.502C188.759 778.623 188.995 778.723 189.317 778.804L190.127 779.003C190.615 779.121 190.978 779.302 191.217 779.546C191.456 779.788 191.576 780.099 191.576 780.48C191.576 780.793 191.486 781.072 191.306 781.318C191.128 781.564 190.88 781.759 190.56 781.901C190.241 782.043 189.869 782.114 189.445 782.114C188.889 782.114 188.428 781.993 188.064 781.751C187.699 781.51 187.468 781.157 187.371 780.693L188.167 780.494C188.242 780.788 188.386 781.008 188.596 781.155C188.809 781.302 189.088 781.375 189.431 781.375C189.822 781.375 190.132 781.292 190.361 781.126C190.593 780.958 190.709 780.757 190.709 780.523C190.709 780.333 190.643 780.175 190.51 780.047C190.378 779.917 190.174 779.82 189.9 779.756L188.991 779.543C188.491 779.424 188.124 779.241 187.89 778.992C187.658 778.741 187.542 778.428 187.542 778.051C187.542 777.743 187.628 777.471 187.801 777.234C187.976 776.998 188.214 776.812 188.515 776.677C188.818 776.542 189.161 776.474 189.545 776.474C190.084 776.474 190.508 776.593 190.816 776.83C191.126 777.066 191.346 777.379 191.476 777.767Z" fill="#D32F2F"/>
<path d="M252 766C257.523 766 262 761.523 262 756C262 750.477 257.523 746 252 746C246.477 746 242 750.477 242 756C242 761.523 246.477 766 252 766Z" fill="#E0E0E0" stroke="#BDBDBD"/>
<path d="M234.665 774.727V782H233.784V774.727H234.665ZM236.317 782V776.545H237.127V777.398H237.198C237.311 777.107 237.495 776.88 237.748 776.719C238.001 776.556 238.305 776.474 238.661 776.474C239.02 776.474 239.32 776.556 239.559 776.719C239.801 776.88 239.989 777.107 240.124 777.398H240.18C240.32 777.116 240.53 776.892 240.809 776.727C241.088 776.558 241.423 776.474 241.814 776.474C242.302 776.474 242.701 776.627 243.011 776.933C243.321 777.236 243.476 777.708 243.476 778.349V782H242.638V778.349C242.638 777.947 242.528 777.659 242.308 777.487C242.087 777.314 241.828 777.227 241.53 777.227C241.146 777.227 240.849 777.343 240.639 777.575C240.428 777.805 240.323 778.096 240.323 778.449V782H239.47V778.264C239.47 777.954 239.37 777.704 239.168 777.515C238.967 777.323 238.708 777.227 238.391 777.227C238.173 777.227 237.969 777.285 237.78 777.401C237.593 777.517 237.441 777.678 237.325 777.884C237.212 778.088 237.155 778.323 237.155 778.591V782H236.317ZM245.008 784.045V776.545H245.818V777.412H245.917C245.979 777.317 246.064 777.196 246.173 777.05C246.284 776.901 246.443 776.768 246.649 776.652C246.857 776.534 247.139 776.474 247.494 776.474C247.953 776.474 248.358 776.589 248.709 776.819C249.059 777.049 249.332 777.374 249.529 777.795C249.725 778.217 249.824 778.714 249.824 779.287C249.824 779.865 249.725 780.365 249.529 780.789C249.332 781.21 249.06 781.537 248.712 781.769C248.364 781.999 247.963 782.114 247.508 782.114C247.158 782.114 246.877 782.056 246.667 781.94C246.456 781.821 246.294 781.687 246.18 781.538C246.066 781.387 245.979 781.261 245.917 781.162H245.846V784.045H245.008ZM245.832 779.273C245.832 779.685 245.892 780.048 246.013 780.363C246.134 780.675 246.31 780.92 246.542 781.098C246.774 781.273 247.058 781.361 247.395 781.361C247.745 781.361 248.037 781.268 248.272 781.084C248.508 780.897 248.686 780.646 248.804 780.331C248.925 780.014 248.986 779.661 248.986 779.273C248.986 778.889 248.926 778.544 248.808 778.236C248.692 777.926 248.516 777.681 248.279 777.501C248.044 777.318 247.75 777.227 247.395 777.227C247.054 777.227 246.767 777.314 246.535 777.487C246.303 777.657 246.128 777.896 246.01 778.204C245.891 778.509 245.832 778.866 245.832 779.273ZM252.707 782.128C252.361 782.128 252.048 782.063 251.766 781.933C251.484 781.8 251.261 781.609 251.095 781.361C250.929 781.11 250.846 780.807 250.846 780.452C250.846 780.139 250.908 779.886 251.031 779.692C251.154 779.495 251.319 779.341 251.525 779.23C251.731 779.119 251.958 779.036 252.206 778.982C252.457 778.925 252.709 778.88 252.963 778.847C253.294 778.804 253.563 778.772 253.769 778.751C253.977 778.727 254.129 778.688 254.223 778.634C254.321 778.579 254.369 778.484 254.369 778.349V778.321C254.369 777.971 254.273 777.698 254.081 777.504C253.892 777.31 253.604 777.213 253.218 777.213C252.818 777.213 252.505 777.301 252.277 777.476C252.05 777.651 251.89 777.838 251.798 778.037L251.003 777.753C251.145 777.421 251.334 777.163 251.571 776.979C251.81 776.792 252.07 776.661 252.352 776.588C252.636 776.512 252.915 776.474 253.19 776.474C253.365 776.474 253.566 776.496 253.794 776.538C254.023 776.579 254.245 776.663 254.458 776.79C254.673 776.918 254.852 777.111 254.994 777.369C255.136 777.627 255.207 777.973 255.207 778.406V782H254.369V781.261H254.326C254.27 781.38 254.175 781.506 254.042 781.641C253.91 781.776 253.733 781.891 253.513 781.986C253.293 782.08 253.024 782.128 252.707 782.128ZM252.835 781.375C253.166 781.375 253.446 781.31 253.673 781.18C253.903 781.049 254.075 780.881 254.191 780.675C254.31 780.469 254.369 780.253 254.369 780.026V779.259C254.334 779.301 254.255 779.34 254.135 779.376C254.016 779.409 253.879 779.438 253.723 779.464C253.569 779.488 253.419 779.509 253.272 779.528C253.127 779.545 253.01 779.559 252.92 779.571C252.702 779.599 252.499 779.646 252.309 779.71C252.122 779.771 251.971 779.865 251.855 779.99C251.741 780.113 251.684 780.281 251.684 780.494C251.684 780.786 251.792 781.006 252.008 781.155C252.225 781.302 252.501 781.375 252.835 781.375ZM258.953 782.114C258.441 782.114 258.001 781.993 257.632 781.751C257.262 781.51 256.978 781.177 256.779 780.754C256.581 780.33 256.481 779.846 256.481 779.301C256.481 778.747 256.583 778.258 256.786 777.835C256.992 777.408 257.279 777.076 257.646 776.837C258.015 776.595 258.446 776.474 258.938 776.474C259.322 776.474 259.668 776.545 259.975 776.688C260.283 776.83 260.535 777.028 260.732 777.284C260.928 777.54 261.05 777.838 261.098 778.179H260.259C260.196 777.93 260.054 777.71 259.833 777.518C259.616 777.324 259.322 777.227 258.953 777.227C258.626 777.227 258.34 777.312 258.093 777.483C257.849 777.651 257.659 777.889 257.522 778.197C257.387 778.502 257.319 778.861 257.319 779.273C257.319 779.694 257.385 780.061 257.518 780.374C257.653 780.686 257.842 780.929 258.086 781.102C258.332 781.274 258.621 781.361 258.953 781.361C259.17 781.361 259.368 781.323 259.546 781.247C259.723 781.171 259.874 781.062 259.997 780.92C260.12 780.778 260.207 780.608 260.259 780.409H261.098C261.05 780.731 260.933 781.021 260.746 781.279C260.561 781.535 260.316 781.738 260.011 781.89C259.708 782.039 259.355 782.114 258.953 782.114ZM264.695 776.545V777.256H261.868V776.545H264.695ZM262.692 775.239H263.53V780.438C263.53 780.674 263.564 780.852 263.633 780.97C263.704 781.086 263.794 781.164 263.903 781.205C264.014 781.242 264.131 781.261 264.255 781.261C264.347 781.261 264.423 781.257 264.482 781.247C264.541 781.235 264.588 781.226 264.624 781.219L264.794 781.972C264.737 781.993 264.658 782.014 264.556 782.036C264.455 782.059 264.326 782.071 264.169 782.071C263.933 782.071 263.701 782.02 263.473 781.918C263.248 781.817 263.061 781.661 262.912 781.453C262.765 781.245 262.692 780.982 262.692 780.665V775.239ZM268.113 782.114C267.62 782.114 267.188 781.996 266.817 781.762C266.447 781.528 266.159 781.2 265.95 780.778C265.744 780.357 265.641 779.865 265.641 779.301C265.641 778.733 265.744 778.237 265.95 777.813C266.159 777.389 266.447 777.06 266.817 776.826C267.188 776.592 267.62 776.474 268.113 776.474C268.605 776.474 269.036 776.592 269.405 776.826C269.777 777.06 270.066 777.389 270.272 777.813C270.48 778.237 270.584 778.733 270.584 779.301C270.584 779.865 270.48 780.357 270.272 780.778C270.066 781.2 269.777 781.528 269.405 781.762C269.036 781.996 268.605 782.114 268.113 782.114ZM268.113 781.361C268.487 781.361 268.795 781.265 269.036 781.073C269.278 780.881 269.456 780.629 269.572 780.317C269.688 780.004 269.746 779.666 269.746 779.301C269.746 778.937 269.688 778.597 269.572 778.282C269.456 777.967 269.278 777.713 269.036 777.518C268.795 777.324 268.487 777.227 268.113 777.227C267.739 777.227 267.431 777.324 267.19 777.518C266.948 777.713 266.769 777.967 266.653 778.282C266.537 778.597 266.479 778.937 266.479 779.301C266.479 779.666 266.537 780.004 266.653 780.317C266.769 780.629 266.948 780.881 267.19 781.073C267.431 781.265 267.739 781.361 268.113 781.361Z" fill="#666666"/>
<path d="M324 766C329.523 766 334 761.523 334 756C334 750.477 329.523 746 324 746C318.477 746 314 750.477 314 756C314 761.523 318.477 766 324 766Z" fill="#E0E0E0" stroke="#BDBDBD"/>
<path d="M312.62 782V774.727H315.077C315.648 774.727 316.114 774.83 316.476 775.036C316.841 775.24 317.111 775.516 317.286 775.864C317.461 776.212 317.549 776.6 317.549 777.028C317.549 777.457 317.461 777.846 317.286 778.197C317.113 778.547 316.846 778.826 316.484 779.035C316.121 779.241 315.657 779.344 315.092 779.344H313.33V778.562H315.063C315.454 778.562 315.767 778.495 316.004 778.36C316.241 778.225 316.413 778.043 316.519 777.813C316.628 777.581 316.682 777.32 316.682 777.028C316.682 776.737 316.628 776.477 316.519 776.247C316.413 776.018 316.24 775.838 316.001 775.707C315.762 775.575 315.444 775.509 315.049 775.509H313.501V782H312.62ZM321.082 782.114C320.557 782.114 320.103 781.998 319.722 781.766C319.343 781.531 319.051 781.205 318.845 780.786C318.641 780.364 318.54 779.874 318.54 779.315C318.54 778.757 318.641 778.264 318.845 777.838C319.051 777.41 319.338 777.076 319.704 776.837C320.074 776.595 320.505 776.474 320.997 776.474C321.281 776.474 321.562 776.522 321.839 776.616C322.116 776.711 322.368 776.865 322.595 777.078C322.822 777.289 323.003 777.568 323.138 777.916C323.273 778.264 323.341 778.693 323.341 779.202V779.557H319.136V778.832H322.489C322.489 778.525 322.427 778.25 322.304 778.009C322.183 777.767 322.01 777.576 321.785 777.437C321.563 777.297 321.3 777.227 320.997 777.227C320.663 777.227 320.374 777.31 320.131 777.476C319.889 777.639 319.703 777.852 319.573 778.115C319.443 778.378 319.378 778.66 319.378 778.96V779.443C319.378 779.855 319.449 780.204 319.591 780.491C319.735 780.775 319.935 780.991 320.191 781.141C320.447 781.287 320.744 781.361 321.082 781.361C321.302 781.361 321.501 781.33 321.679 781.268C321.859 781.205 322.014 781.11 322.144 780.984C322.274 780.857 322.375 780.698 322.446 780.509L323.256 780.736C323.17 781.01 323.027 781.252 322.826 781.46C322.625 781.666 322.376 781.827 322.08 781.943C321.784 782.057 321.452 782.114 321.082 782.114ZM324.616 782V776.545H325.425V777.369H325.482C325.582 777.099 325.762 776.88 326.022 776.712C326.282 776.544 326.576 776.46 326.903 776.46C326.964 776.46 327.041 776.461 327.133 776.464C327.226 776.466 327.296 776.47 327.343 776.474V777.327C327.315 777.32 327.249 777.309 327.148 777.295C327.048 777.278 326.943 777.27 326.832 777.27C326.566 777.27 326.33 777.326 326.121 777.437C325.915 777.546 325.752 777.697 325.631 777.891C325.513 778.083 325.454 778.302 325.454 778.548V782H324.616ZM331.107 776.545V777.256H328.167V776.545H331.107ZM329.047 782V775.793C329.047 775.48 329.121 775.22 329.268 775.011C329.414 774.803 329.605 774.647 329.839 774.543C330.074 774.438 330.321 774.386 330.582 774.386C330.788 774.386 330.956 774.403 331.086 774.436C331.216 774.469 331.313 774.5 331.377 774.528L331.136 775.253C331.093 775.239 331.034 775.221 330.958 775.2C330.885 775.178 330.788 775.168 330.667 775.168C330.39 775.168 330.19 775.237 330.067 775.377C329.946 775.517 329.886 775.722 329.886 775.991V782H329.047ZM332.282 782V776.545H333.12V782H332.282ZM332.708 775.636C332.544 775.636 332.404 775.581 332.285 775.469C332.169 775.358 332.111 775.224 332.111 775.068C332.111 774.912 332.169 774.778 332.285 774.667C332.404 774.556 332.544 774.5 332.708 774.5C332.871 774.5 333.011 774.556 333.127 774.667C333.245 774.778 333.304 774.912 333.304 775.068C333.304 775.224 333.245 775.358 333.127 775.469C333.011 775.581 332.871 775.636 332.708 775.636ZM335.493 774.727V782H334.655V774.727H335.493Z" fill="#666666"/>
</g>
<defs>
<clipPath id="clip0_63_1508">
<rect width="360" height="800" fill="white"/>
</clipPath>
</defs>
</svg>
