<svg width="360" height="800" viewBox="0 0 360 800" fill="none" xmlns="http://www.w3.org/2000/svg">
<g clip-path="url(#clip0_63_1526)">
<rect width="360" height="800" fill="white"/>
<path d="M360 0H0V56H360V0Z" fill="#FAFAFA" stroke="#D0D0D0"/>
<path d="M24 36C28.4183 36 32 32.4183 32 28C32 23.5817 28.4183 20 24 20C19.5817 20 16 23.5817 16 28C16 32.4183 19.5817 36 24 36Z" fill="#E0E0E0" stroke="#BDBDBD"/>
<path d="M67.7045 27.1818C67.7045 28.4508 67.464 29.5303 66.983 30.4205C66.5057 31.3106 65.8542 31.9905 65.0284 32.4602C64.2064 32.9261 63.2822 33.1591 62.2557 33.1591C61.2216 33.1591 60.2936 32.9242 59.4716 32.4545C58.6496 31.9848 58 31.3049 57.5227 30.4148C57.0455 29.5246 56.8068 28.447 56.8068 27.1818C56.8068 25.9129 57.0455 24.8333 57.5227 23.9432C58 23.053 58.6496 22.375 59.4716 21.9091C60.2936 21.4394 61.2216 21.2045 62.2557 21.2045C63.2822 21.2045 64.2064 21.4394 65.0284 21.9091C65.8542 22.375 66.5057 23.053 66.983 23.9432C67.464 24.8333 67.7045 25.9129 67.7045 27.1818ZM65.2102 27.1818C65.2102 26.3598 65.0871 25.6667 64.8409 25.1023C64.5985 24.5379 64.2557 24.1098 63.8125 23.8182C63.3693 23.5265 62.8504 23.3807 62.2557 23.3807C61.661 23.3807 61.142 23.5265 60.6989 23.8182C60.2557 24.1098 59.911 24.5379 59.6648 25.1023C59.4223 25.6667 59.3011 26.3598 59.3011 27.1818C59.3011 28.0038 59.4223 28.697 59.6648 29.2614C59.911 29.8258 60.2557 30.2538 60.6989 30.5455C61.142 30.8371 61.661 30.983 62.2557 30.983C62.8504 30.983 63.3693 30.8371 63.8125 30.5455C64.2557 30.2538 64.5985 29.8258 64.8409 29.2614C65.0871 28.697 65.2102 28.0038 65.2102 27.1818ZM71.902 21.3636V33H69.4815V21.3636H71.902ZM81.9773 24.2727L78.9261 33H76.1989L73.1477 24.2727H75.7045L77.517 30.517H77.608L79.4148 24.2727H81.9773ZM83.2159 33V24.2727H85.6364V33H83.2159ZM84.4318 23.1477C84.072 23.1477 83.7633 23.0284 83.5057 22.7898C83.2519 22.5473 83.125 22.2576 83.125 21.9205C83.125 21.5871 83.2519 21.3011 83.5057 21.0625C83.7633 20.8201 84.072 20.6989 84.4318 20.6989C84.7917 20.6989 85.0985 20.8201 85.3523 21.0625C85.6098 21.3011 85.7386 21.5871 85.7386 21.9205C85.7386 22.2576 85.6098 22.5473 85.3523 22.7898C85.0985 23.0284 84.7917 23.1477 84.4318 23.1477ZM90.7912 33.142C90.1283 33.142 89.5279 32.9716 88.9901 32.6307C88.456 32.286 88.0317 31.7803 87.7173 31.1136C87.4067 30.4432 87.2514 29.6212 87.2514 28.6477C87.2514 27.6477 87.4124 26.8163 87.7344 26.1534C88.0563 25.4867 88.4844 24.9886 89.0185 24.6591C89.5563 24.3258 90.1454 24.1591 90.7855 24.1591C91.2741 24.1591 91.6813 24.2424 92.0071 24.4091C92.3366 24.572 92.6018 24.7765 92.8026 25.0227C93.0071 25.2652 93.1624 25.5038 93.2685 25.7386H93.3423V21.3636H95.7571V33H93.3707V31.6023H93.2685C93.1548 31.8447 92.9938 32.0852 92.7855 32.3239C92.581 32.5587 92.3139 32.7538 91.9844 32.9091C91.6586 33.0644 91.2609 33.142 90.7912 33.142ZM91.5582 31.2159C91.9484 31.2159 92.2779 31.1098 92.5469 30.8977C92.8196 30.6818 93.0279 30.3807 93.1719 29.9943C93.3196 29.608 93.3935 29.1553 93.3935 28.6364C93.3935 28.1174 93.3215 27.6667 93.1776 27.2841C93.0336 26.9015 92.8253 26.6061 92.5526 26.3977C92.2798 26.1894 91.9484 26.0852 91.5582 26.0852C91.1605 26.0852 90.8253 26.1932 90.5526 26.4091C90.2798 26.625 90.0734 26.9242 89.9332 27.3068C89.7931 27.6894 89.723 28.1326 89.723 28.6364C89.723 29.1439 89.7931 29.5928 89.9332 29.983C90.0772 30.3693 90.2836 30.6723 90.5526 30.892C90.8253 31.108 91.1605 31.2159 91.5582 31.2159ZM101.724 33.1705C100.827 33.1705 100.054 32.9886 99.4062 32.625C98.7623 32.2576 98.2661 31.7386 97.9176 31.0682C97.5691 30.3939 97.3949 29.5966 97.3949 28.6761C97.3949 27.7784 97.5691 26.9905 97.9176 26.3125C98.2661 25.6345 98.7566 25.1061 99.3892 24.7273C100.026 24.3485 100.772 24.1591 101.628 24.1591C102.204 24.1591 102.74 24.2519 103.236 24.4375C103.736 24.6193 104.171 24.8939 104.543 25.2614C104.918 25.6288 105.209 26.0909 105.418 26.6477C105.626 27.2008 105.73 27.8485 105.73 28.5909V29.2557H98.3608V27.7557H103.452C103.452 27.4072 103.376 27.0985 103.224 26.8295C103.073 26.5606 102.863 26.3504 102.594 26.1989C102.329 26.0436 102.02 25.9659 101.668 25.9659C101.3 25.9659 100.974 26.0511 100.69 26.2216C100.41 26.3883 100.19 26.6136 100.031 26.8977C99.8722 27.178 99.7907 27.4905 99.7869 27.8352V29.2614C99.7869 29.6932 99.8665 30.0663 100.026 30.3807C100.188 30.6951 100.418 30.9375 100.713 31.108C101.009 31.2784 101.359 31.3636 101.764 31.3636C102.033 31.3636 102.279 31.3258 102.503 31.25C102.726 31.1742 102.918 31.0606 103.077 30.9091C103.236 30.7576 103.357 30.572 103.44 30.3523L105.679 30.5C105.565 31.0379 105.332 31.5076 104.98 31.9091C104.632 32.3068 104.181 32.6174 103.628 32.8409C103.079 33.0606 102.444 33.1705 101.724 33.1705ZM100.702 23.1477L101.906 20.5625H104.145L102.412 23.1477H100.702ZM111.013 33V24.2727H113.32V25.8125H113.422C113.604 25.3011 113.907 24.8977 114.331 24.6023C114.755 24.3068 115.263 24.1591 115.854 24.1591C116.452 24.1591 116.962 24.3087 117.382 24.608C117.803 24.9034 118.083 25.3049 118.223 25.8125H118.314C118.492 25.3125 118.814 24.9129 119.28 24.6136C119.75 24.3106 120.304 24.1591 120.945 24.1591C121.759 24.1591 122.42 24.4186 122.928 24.9375C123.439 25.4527 123.695 26.1837 123.695 27.1307V33H121.28V27.608C121.28 27.1231 121.151 26.7595 120.893 26.517C120.636 26.2746 120.314 26.1534 119.928 26.1534C119.488 26.1534 119.145 26.2936 118.899 26.5739C118.653 26.8504 118.53 27.2159 118.53 27.6705V33H116.183V27.5568C116.183 27.1288 116.06 26.7879 115.814 26.5341C115.571 26.2803 115.251 26.1534 114.854 26.1534C114.585 26.1534 114.342 26.2216 114.126 26.358C113.914 26.4905 113.746 26.678 113.621 26.9205C113.496 27.1591 113.433 27.4394 113.433 27.7614V33H111.013ZM125.607 33V24.2727H128.027V33H125.607ZM126.822 23.1477C126.463 23.1477 126.154 23.0284 125.896 22.7898C125.643 22.5473 125.516 22.2576 125.516 21.9205C125.516 21.5871 125.643 21.3011 125.896 21.0625C126.154 20.8201 126.463 20.6989 126.822 20.6989C127.182 20.6989 127.489 20.8201 127.743 21.0625C128 21.3011 128.129 21.5871 128.129 21.9205C128.129 22.2576 128 22.5473 127.743 22.7898C127.489 23.0284 127.182 23.1477 126.822 23.1477ZM137.612 33.1705C136.718 33.1705 135.949 32.9811 135.305 32.6023C134.665 32.2197 134.173 31.6894 133.828 31.0114C133.487 30.3333 133.317 29.553 133.317 28.6705C133.317 27.7765 133.489 26.9924 133.834 26.3182C134.182 25.6402 134.677 25.1117 135.317 24.733C135.957 24.3504 136.718 24.1591 137.601 24.1591C138.362 24.1591 139.029 24.2973 139.601 24.5739C140.173 24.8504 140.625 25.2386 140.959 25.7386C141.292 26.2386 141.476 26.8258 141.51 27.5H139.226C139.161 27.0644 138.991 26.714 138.714 26.4489C138.442 26.1799 138.084 26.0455 137.641 26.0455C137.266 26.0455 136.938 26.1477 136.658 26.3523C136.381 26.553 136.165 26.8466 136.01 27.233C135.855 27.6193 135.777 28.0871 135.777 28.6364C135.777 29.1932 135.853 29.6667 136.004 30.0568C136.16 30.447 136.377 30.7443 136.658 30.9489C136.938 31.1534 137.266 31.2557 137.641 31.2557C137.917 31.2557 138.165 31.1989 138.385 31.0852C138.608 30.9716 138.792 30.8068 138.936 30.5909C139.084 30.3712 139.18 30.108 139.226 29.8011H141.51C141.472 30.4678 141.29 31.0549 140.964 31.5625C140.643 32.0663 140.197 32.4602 139.629 32.7443C139.061 33.0284 138.389 33.1705 137.612 33.1705ZM147.003 33.1705C146.12 33.1705 145.357 32.983 144.713 32.608C144.073 32.2292 143.579 31.7027 143.23 31.0284C142.882 30.3504 142.707 29.5644 142.707 28.6705C142.707 27.7689 142.882 26.9811 143.23 26.3068C143.579 25.6288 144.073 25.1023 144.713 24.7273C145.357 24.3485 146.12 24.1591 147.003 24.1591C147.885 24.1591 148.647 24.3485 149.287 24.7273C149.931 25.1023 150.427 25.6288 150.776 26.3068C151.124 26.9811 151.298 27.7689 151.298 28.6705C151.298 29.5644 151.124 30.3504 150.776 31.0284C150.427 31.7027 149.931 32.2292 149.287 32.608C148.647 32.983 147.885 33.1705 147.003 33.1705ZM147.014 31.2955C147.416 31.2955 147.751 31.1818 148.02 30.9545C148.289 30.7235 148.491 30.4091 148.628 30.0114C148.768 29.6136 148.838 29.161 148.838 28.6534C148.838 28.1458 148.768 27.6932 148.628 27.2955C148.491 26.8977 148.289 26.5833 148.02 26.3523C147.751 26.1212 147.416 26.0057 147.014 26.0057C146.609 26.0057 146.268 26.1212 145.991 26.3523C145.719 26.5833 145.512 26.8977 145.372 27.2955C145.236 27.6932 145.168 28.1458 145.168 28.6534C145.168 29.161 145.236 29.6136 145.372 30.0114C145.512 30.4091 145.719 30.7235 145.991 30.9545C146.268 31.1818 146.609 31.2955 147.014 31.2955ZM155.293 27.9545V33H152.872V24.2727H155.179V25.8125H155.281C155.474 25.3049 155.798 24.9034 156.253 24.608C156.707 24.3087 157.259 24.1591 157.906 24.1591C158.512 24.1591 159.041 24.2917 159.491 24.5568C159.942 24.822 160.293 25.2008 160.543 25.6932C160.793 26.1818 160.918 26.7652 160.918 27.4432V33H158.497V27.875C158.501 27.3409 158.365 26.9242 158.088 26.625C157.812 26.322 157.431 26.1705 156.946 26.1705C156.62 26.1705 156.332 26.2405 156.082 26.3807C155.836 26.5208 155.643 26.7254 155.503 26.9943C155.366 27.2595 155.296 27.5795 155.293 27.9545ZM167.467 24.2727V26.0909H162.212V24.2727H167.467ZM163.405 22.1818H165.825V30.3182C165.825 30.5417 165.859 30.7159 165.928 30.8409C165.996 30.9621 166.09 31.0473 166.212 31.0966C166.337 31.1458 166.481 31.1705 166.643 31.1705C166.757 31.1705 166.871 31.161 166.984 31.142C167.098 31.1193 167.185 31.1023 167.246 31.0909L167.626 32.892C167.505 32.9299 167.335 32.9735 167.115 33.0227C166.895 33.0758 166.628 33.108 166.314 33.1193C165.731 33.142 165.219 33.0644 164.78 32.8864C164.344 32.7083 164.005 32.4318 163.763 32.0568C163.52 31.6818 163.401 31.2083 163.405 30.6364V22.1818ZM169.044 33V24.2727H171.391V25.7955H171.482C171.641 25.2538 171.908 24.8447 172.283 24.5682C172.658 24.2879 173.089 24.1477 173.578 24.1477C173.699 24.1477 173.83 24.1553 173.97 24.1705C174.11 24.1856 174.233 24.2064 174.339 24.233V26.3807C174.226 26.3466 174.069 26.3163 173.868 26.2898C173.667 26.2633 173.483 26.25 173.317 26.25C172.961 26.25 172.643 26.3277 172.362 26.483C172.086 26.6345 171.866 26.8466 171.703 27.1193C171.544 27.392 171.464 27.7064 171.464 28.0625V33H169.044ZM177.83 33.1648C177.273 33.1648 176.777 33.0682 176.341 32.875C175.905 32.678 175.561 32.3883 175.307 32.0057C175.057 31.6193 174.932 31.1383 174.932 30.5625C174.932 30.0777 175.021 29.6705 175.199 29.3409C175.377 29.0114 175.619 28.7462 175.926 28.5455C176.233 28.3447 176.581 28.1932 176.972 28.0909C177.366 27.9886 177.778 27.9167 178.21 27.875C178.718 27.822 179.127 27.7727 179.438 27.7273C179.748 27.678 179.973 27.6061 180.114 27.5114C180.254 27.4167 180.324 27.2765 180.324 27.0909V27.0568C180.324 26.697 180.21 26.4186 179.983 26.2216C179.759 26.0246 179.441 25.9261 179.028 25.9261C178.593 25.9261 178.246 26.0227 177.989 26.2159C177.731 26.4053 177.561 26.6439 177.477 26.9318L175.239 26.75C175.352 26.2197 175.576 25.7614 175.909 25.375C176.242 24.9848 176.672 24.6856 177.199 24.4773C177.729 24.2652 178.343 24.1591 179.04 24.1591C179.525 24.1591 179.989 24.2159 180.432 24.3295C180.879 24.4432 181.275 24.6193 181.619 24.858C181.968 25.0966 182.242 25.4034 182.443 25.7784C182.644 26.1496 182.744 26.5947 182.744 27.1136V33H180.449V31.7898H180.381C180.241 32.0625 180.053 32.303 179.818 32.5114C179.583 32.7159 179.301 32.8769 178.972 32.9943C178.642 33.108 178.261 33.1648 177.83 33.1648ZM178.523 31.4943C178.879 31.4943 179.193 31.4242 179.466 31.2841C179.739 31.1402 179.953 30.947 180.108 30.7045C180.263 30.4621 180.341 30.1875 180.341 29.8807V28.9545C180.265 29.0038 180.161 29.0492 180.028 29.0909C179.9 29.1288 179.754 29.1648 179.591 29.1989C179.428 29.2292 179.265 29.2576 179.102 29.2841C178.939 29.3068 178.792 29.3277 178.659 29.3466C178.375 29.3883 178.127 29.4545 177.915 29.5455C177.703 29.6364 177.538 29.7595 177.42 29.9148C177.303 30.0663 177.244 30.2557 177.244 30.483C177.244 30.8125 177.364 31.0644 177.602 31.2386C177.845 31.4091 178.152 31.4943 178.523 31.4943ZM191.884 26.7614L189.668 26.8977C189.63 26.7083 189.548 26.5379 189.423 26.3864C189.298 26.2311 189.134 26.108 188.929 26.017C188.728 25.9223 188.488 25.875 188.207 25.875C187.832 25.875 187.516 25.9545 187.259 26.1136C187.001 26.2689 186.872 26.4773 186.872 26.7386C186.872 26.947 186.955 27.1231 187.122 27.267C187.289 27.411 187.575 27.5265 187.98 27.6136L189.56 27.9318C190.408 28.1061 191.041 28.3864 191.457 28.7727C191.874 29.1591 192.082 29.6667 192.082 30.2955C192.082 30.8674 191.914 31.3693 191.577 31.8011C191.243 32.233 190.785 32.5701 190.202 32.8125C189.622 33.0511 188.954 33.1705 188.196 33.1705C187.041 33.1705 186.12 32.9299 185.435 32.4489C184.753 31.964 184.353 31.3049 184.236 30.4716L186.616 30.3466C186.688 30.6989 186.863 30.9678 187.139 31.1534C187.416 31.3352 187.77 31.4261 188.202 31.4261C188.626 31.4261 188.967 31.3447 189.224 31.1818C189.486 31.0152 189.618 30.8011 189.622 30.5398C189.618 30.3201 189.526 30.1402 189.344 30C189.162 29.8561 188.882 29.7462 188.503 29.6705L186.991 29.3693C186.139 29.1989 185.505 28.9034 185.088 28.483C184.675 28.0625 184.469 27.5265 184.469 26.875C184.469 26.3144 184.62 25.8314 184.923 25.4261C185.23 25.0208 185.66 24.7083 186.213 24.4886C186.77 24.2689 187.421 24.1591 188.168 24.1591C189.27 24.1591 190.137 24.392 190.77 24.858C191.406 25.3239 191.777 25.9583 191.884 26.7614ZM197.584 33.1705C196.686 33.1705 195.913 32.9886 195.266 32.625C194.622 32.2576 194.125 31.7386 193.777 31.0682C193.429 30.3939 193.254 29.5966 193.254 28.6761C193.254 27.7784 193.429 26.9905 193.777 26.3125C194.125 25.6345 194.616 25.1061 195.249 24.7273C195.885 24.3485 196.631 24.1591 197.487 24.1591C198.063 24.1591 198.599 24.2519 199.095 24.4375C199.595 24.6193 200.031 24.8939 200.402 25.2614C200.777 25.6288 201.069 26.0909 201.277 26.6477C201.485 27.2008 201.589 27.8485 201.589 28.5909V29.2557H194.22V27.7557H199.311C199.311 27.4072 199.235 27.0985 199.084 26.8295C198.932 26.5606 198.722 26.3504 198.453 26.1989C198.188 26.0436 197.879 25.9659 197.527 25.9659C197.16 25.9659 196.834 26.0511 196.55 26.2216C196.269 26.3883 196.05 26.6136 195.891 26.8977C195.732 27.178 195.65 27.4905 195.646 27.8352V29.2614C195.646 29.6932 195.726 30.0663 195.885 30.3807C196.048 30.6951 196.277 30.9375 196.572 31.108C196.868 31.2784 197.218 31.3636 197.624 31.3636C197.893 31.3636 198.139 31.3258 198.362 31.25C198.586 31.1742 198.777 31.0606 198.936 30.9091C199.095 30.7576 199.216 30.572 199.3 30.3523L201.538 30.5C201.425 31.0379 201.192 31.5076 200.839 31.9091C200.491 32.3068 200.04 32.6174 199.487 32.8409C198.938 33.0606 198.304 33.1705 197.584 33.1705ZM205.589 27.9545V33H203.169V24.2727H205.476V25.8125H205.578C205.771 25.3049 206.095 24.9034 206.55 24.608C207.004 24.3087 207.555 24.1591 208.203 24.1591C208.809 24.1591 209.338 24.2917 209.788 24.5568C210.239 24.822 210.589 25.2008 210.839 25.6932C211.089 26.1818 211.214 26.7652 211.214 27.4432V33H208.794V27.875C208.798 27.3409 208.661 26.9242 208.385 26.625C208.108 26.322 207.728 26.1705 207.243 26.1705C206.917 26.1705 206.629 26.2405 206.379 26.3807C206.133 26.5208 205.94 26.7254 205.8 26.9943C205.663 27.2595 205.593 27.5795 205.589 27.9545ZM205.561 23.1989L204.214 23.1818C204.214 22.4583 204.393 21.9034 204.749 21.517C205.108 21.1307 205.546 20.9356 206.061 20.9318C206.326 20.9318 206.554 20.9754 206.743 21.0625C206.936 21.1458 207.108 21.2443 207.26 21.358C207.415 21.4716 207.563 21.572 207.703 21.6591C207.843 21.7424 207.995 21.7841 208.158 21.7841C208.377 21.7803 208.544 21.6989 208.658 21.5398C208.775 21.3769 208.834 21.1648 208.834 20.9034L210.158 20.9432C210.15 21.6591 209.968 22.2121 209.612 22.6023C209.256 22.9886 208.822 23.1837 208.311 23.1875C208.027 23.1875 207.788 23.1458 207.595 23.0625C207.406 22.9754 207.239 22.8769 207.095 22.767C206.951 22.6534 206.811 22.553 206.675 22.4659C206.538 22.3788 206.385 22.3352 206.214 22.3352C206.018 22.3352 205.858 22.4129 205.737 22.5682C205.62 22.7235 205.561 22.9337 205.561 23.1989ZM215.611 33.1648C215.054 33.1648 214.558 33.0682 214.122 32.875C213.687 32.678 213.342 32.3883 213.088 32.0057C212.838 31.6193 212.713 31.1383 212.713 30.5625C212.713 30.0777 212.802 29.6705 212.98 29.3409C213.158 29.0114 213.401 28.7462 213.707 28.5455C214.014 28.3447 214.363 28.1932 214.753 28.0909C215.147 27.9886 215.56 27.9167 215.991 27.875C216.499 27.822 216.908 27.7727 217.219 27.7273C217.529 27.678 217.755 27.6061 217.895 27.5114C218.035 27.4167 218.105 27.2765 218.105 27.0909V27.0568C218.105 26.697 217.991 26.4186 217.764 26.2216C217.541 26.0246 217.223 25.9261 216.81 25.9261C216.374 25.9261 216.027 26.0227 215.77 26.2159C215.512 26.4053 215.342 26.6439 215.259 26.9318L213.02 26.75C213.134 26.2197 213.357 25.7614 213.69 25.375C214.024 24.9848 214.454 24.6856 214.98 24.4773C215.51 24.2652 216.124 24.1591 216.821 24.1591C217.306 24.1591 217.77 24.2159 218.213 24.3295C218.66 24.4432 219.056 24.6193 219.401 24.858C219.749 25.0966 220.024 25.4034 220.224 25.7784C220.425 26.1496 220.526 26.5947 220.526 27.1136V33H218.23V31.7898H218.162C218.022 32.0625 217.834 32.303 217.599 32.5114C217.365 32.7159 217.082 32.8769 216.753 32.9943C216.423 33.108 216.043 33.1648 215.611 33.1648ZM216.304 31.4943C216.66 31.4943 216.974 31.4242 217.247 31.2841C217.52 31.1402 217.734 30.947 217.889 30.7045C218.045 30.4621 218.122 30.1875 218.122 29.8807V28.9545C218.046 29.0038 217.942 29.0492 217.81 29.0909C217.681 29.1288 217.535 29.1648 217.372 29.1989C217.209 29.2292 217.046 29.2576 216.884 29.2841C216.721 29.3068 216.573 29.3277 216.44 29.3466C216.156 29.3883 215.908 29.4545 215.696 29.5455C215.484 29.6364 215.319 29.7595 215.202 29.9148C215.084 30.0663 215.026 30.2557 215.026 30.483C215.026 30.8125 215.145 31.0644 215.384 31.2386C215.626 31.4091 215.933 31.4943 216.304 31.4943Z" fill="#333333"/>
<path d="M332 36C336.418 36 340 32.4183 340 28C340 23.5817 336.418 20 332 20C327.582 20 324 23.5817 324 28C324 32.4183 327.582 36 332 36Z" fill="#E0E0E0" stroke="#BDBDBD"/>
<path d="M330 96H30C24.4772 96 20 100.477 20 106V134C20 139.523 24.4772 144 30 144H330C335.523 144 340 139.523 340 134V106C340 100.477 335.523 96 330 96Z" fill="white" stroke="#DDDDDD"/>
<path d="M31.0568 126V117.273H36.3239V118.21H32.1136V121.159H36.0511V122.097H32.1136V125.062H36.392V126H31.0568ZM38.0923 126V119.455H39.0639V120.477H39.1491C39.2855 120.128 39.5057 119.857 39.8097 119.663C40.1136 119.467 40.4787 119.369 40.9048 119.369C41.3366 119.369 41.696 119.467 41.983 119.663C42.2727 119.857 42.4986 120.128 42.6605 120.477H42.7287C42.8963 120.139 43.1477 119.871 43.483 119.672C43.8182 119.47 44.2202 119.369 44.6889 119.369C45.2741 119.369 45.7528 119.553 46.125 119.919C46.4972 120.283 46.6832 120.849 46.6832 121.619V126H45.6776V121.619C45.6776 121.136 45.5455 120.791 45.2812 120.584C45.017 120.376 44.706 120.273 44.348 120.273C43.8878 120.273 43.5313 120.412 43.2784 120.69C43.0256 120.966 42.8991 121.315 42.8991 121.739V126H41.8764V121.517C41.8764 121.145 41.7557 120.845 41.5142 120.618C41.2727 120.388 40.9616 120.273 40.581 120.273C40.3196 120.273 40.0753 120.342 39.848 120.482C39.6236 120.621 39.4418 120.814 39.3026 121.061C39.1662 121.305 39.098 121.588 39.098 121.909V126H38.0923ZM50.4482 126.153C50.0334 126.153 49.657 126.075 49.3189 125.919C48.9808 125.76 48.7124 125.531 48.5135 125.233C48.3146 124.932 48.2152 124.568 48.2152 124.142C48.2152 123.767 48.2891 123.463 48.4368 123.23C48.5845 122.994 48.782 122.81 49.0291 122.676C49.2763 122.543 49.549 122.443 49.8473 122.378C50.1484 122.31 50.451 122.256 50.755 122.216C51.1527 122.165 51.4751 122.126 51.7223 122.101C51.9723 122.072 52.1541 122.026 52.2678 121.96C52.3842 121.895 52.4425 121.781 52.4425 121.619V121.585C52.4425 121.165 52.3274 120.838 52.0973 120.605C51.87 120.372 51.5249 120.256 51.0618 120.256C50.5817 120.256 50.2053 120.361 49.9325 120.571C49.6598 120.781 49.468 121.006 49.3572 121.244L48.4027 120.903C48.5732 120.506 48.8004 120.196 49.0845 119.974C49.3714 119.75 49.6839 119.594 50.022 119.506C50.3629 119.415 50.6982 119.369 51.0277 119.369C51.2379 119.369 51.4794 119.395 51.7521 119.446C52.0277 119.494 52.2933 119.595 52.549 119.749C52.8075 119.902 53.022 120.134 53.1925 120.443C53.3629 120.753 53.4482 121.168 53.4482 121.688V126H52.4425V125.114H52.3913C52.3232 125.256 52.2095 125.408 52.0504 125.57C51.8913 125.732 51.6797 125.869 51.4155 125.983C51.1513 126.097 50.8288 126.153 50.4482 126.153ZM50.6016 125.25C50.9993 125.25 51.3345 125.172 51.6072 125.016C51.8828 124.859 52.0902 124.658 52.2294 124.411C52.3714 124.163 52.4425 123.903 52.4425 123.631V122.71C52.3999 122.761 52.3061 122.808 52.1612 122.851C52.0192 122.891 51.8544 122.926 51.6669 122.957C51.4822 122.986 51.3018 123.011 51.1257 123.034C50.9524 123.054 50.8118 123.071 50.7038 123.085C50.4425 123.119 50.1982 123.175 49.9709 123.251C49.7464 123.325 49.5646 123.437 49.4254 123.588C49.2891 123.736 49.2209 123.937 49.2209 124.193C49.2209 124.543 49.3501 124.807 49.6087 124.986C49.87 125.162 50.201 125.25 50.6016 125.25ZM55.2837 126V119.455H56.2894V126H55.2837ZM55.7951 118.364C55.5991 118.364 55.43 118.297 55.288 118.163C55.1488 118.03 55.0792 117.869 55.0792 117.682C55.0792 117.494 55.1488 117.334 55.288 117.2C55.43 117.067 55.5991 117 55.7951 117C55.9911 117 56.1587 117.067 56.2979 117.2C56.44 117.334 56.511 117.494 56.511 117.682C56.511 117.869 56.44 118.03 56.2979 118.163C56.1587 118.297 55.9911 118.364 55.7951 118.364ZM59.1371 117.273V126H58.1314V117.273H59.1371Z" fill="#777777"/>
<path d="M318 160H42C29.8497 160 20 169.85 20 182C20 194.15 29.8497 204 42 204H318C330.15 204 340 194.15 340 182C340 169.85 330.15 160 318 160Z" fill="#E0E0E0" stroke="#BDBDBD"/>
<path d="M85.6662 188V179.273H90.9332V180.21H86.723V183.159H90.6605V184.097H86.723V187.062H91.0014V188H85.6662ZM93.7074 184.062V188H92.7017V181.455H93.6733V182.477H93.7585C93.9119 182.145 94.1449 181.878 94.4574 181.676C94.7699 181.472 95.1733 181.369 95.6676 181.369C96.1108 181.369 96.4986 181.46 96.831 181.642C97.1634 181.821 97.4219 182.094 97.6065 182.46C97.7912 182.824 97.8835 183.284 97.8835 183.841V188H96.8778V183.909C96.8778 183.395 96.7443 182.994 96.4773 182.707C96.2102 182.418 95.8438 182.273 95.3778 182.273C95.0568 182.273 94.7699 182.342 94.517 182.482C94.267 182.621 94.0696 182.824 93.9247 183.091C93.7798 183.358 93.7074 183.682 93.7074 184.062ZM104.839 181.455L102.419 188H101.396L98.9755 181.455H100.066L101.873 186.67H101.941L103.748 181.455H104.839ZM106.167 188V181.455H107.172V188H106.167ZM106.678 180.364C106.482 180.364 106.313 180.297 106.171 180.163C106.032 180.03 105.962 179.869 105.962 179.682C105.962 179.494 106.032 179.334 106.171 179.2C106.313 179.067 106.482 179 106.678 179C106.874 179 107.042 179.067 107.181 179.2C107.323 179.334 107.394 179.494 107.394 179.682C107.394 179.869 107.323 180.03 107.181 180.163C107.042 180.297 106.874 180.364 106.678 180.364ZM110.94 188.153C110.526 188.153 110.149 188.075 109.811 187.919C109.473 187.76 109.205 187.531 109.006 187.233C108.807 186.932 108.707 186.568 108.707 186.142C108.707 185.767 108.781 185.463 108.929 185.23C109.077 184.994 109.274 184.81 109.521 184.676C109.768 184.543 110.041 184.443 110.339 184.378C110.641 184.31 110.943 184.256 111.247 184.216C111.645 184.165 111.967 184.126 112.214 184.101C112.464 184.072 112.646 184.026 112.76 183.96C112.876 183.895 112.935 183.781 112.935 183.619V183.585C112.935 183.165 112.82 182.838 112.589 182.605C112.362 182.372 112.017 182.256 111.554 182.256C111.074 182.256 110.697 182.361 110.425 182.571C110.152 182.781 109.96 183.006 109.849 183.244L108.895 182.903C109.065 182.506 109.293 182.196 109.577 181.974C109.864 181.75 110.176 181.594 110.514 181.506C110.855 181.415 111.19 181.369 111.52 181.369C111.73 181.369 111.972 181.395 112.244 181.446C112.52 181.494 112.786 181.595 113.041 181.749C113.3 181.902 113.514 182.134 113.685 182.443C113.855 182.753 113.94 183.168 113.94 183.688V188H112.935V187.114H112.884C112.815 187.256 112.702 187.408 112.543 187.57C112.384 187.732 112.172 187.869 111.908 187.983C111.643 188.097 111.321 188.153 110.94 188.153ZM111.094 187.25C111.491 187.25 111.827 187.172 112.099 187.016C112.375 186.859 112.582 186.658 112.722 186.411C112.864 186.163 112.935 185.903 112.935 185.631V184.71C112.892 184.761 112.798 184.808 112.653 184.851C112.511 184.891 112.347 184.926 112.159 184.957C111.974 184.986 111.794 185.011 111.618 185.034C111.445 185.054 111.304 185.071 111.196 185.085C110.935 185.119 110.69 185.175 110.463 185.251C110.239 185.325 110.057 185.437 109.918 185.588C109.781 185.736 109.713 185.937 109.713 186.193C109.713 186.543 109.842 186.807 110.101 186.986C110.362 187.162 110.693 187.25 111.094 187.25ZM115.776 188V181.455H116.748V182.443H116.816C116.935 182.119 117.151 181.857 117.463 181.655C117.776 181.453 118.128 181.352 118.52 181.352C118.594 181.352 118.686 181.354 118.797 181.357C118.908 181.359 118.992 181.364 119.049 181.369V182.392C119.015 182.384 118.936 182.371 118.814 182.354C118.695 182.334 118.569 182.324 118.435 182.324C118.117 182.324 117.833 182.391 117.583 182.524C117.336 182.655 117.14 182.837 116.995 183.07C116.853 183.3 116.782 183.562 116.782 183.858V188H115.776ZM126.36 188.136C125.729 188.136 125.185 187.997 124.728 187.719C124.273 187.438 123.923 187.045 123.675 186.543C123.431 186.037 123.309 185.449 123.309 184.778C123.309 184.108 123.431 183.517 123.675 183.006C123.923 182.491 124.266 182.091 124.707 181.804C125.15 181.514 125.667 181.369 126.258 181.369C126.599 181.369 126.935 181.426 127.268 181.54C127.6 181.653 127.903 181.838 128.175 182.094C128.448 182.347 128.665 182.682 128.827 183.099C128.989 183.517 129.07 184.031 129.07 184.642V185.068H124.025V184.199H128.048C128.048 183.83 127.974 183.5 127.826 183.21C127.681 182.92 127.474 182.692 127.204 182.524C126.937 182.357 126.621 182.273 126.258 182.273C125.857 182.273 125.511 182.372 125.218 182.571C124.928 182.767 124.705 183.023 124.549 183.338C124.393 183.653 124.315 183.991 124.315 184.352V184.932C124.315 185.426 124.4 185.845 124.57 186.189C124.744 186.53 124.984 186.79 125.29 186.969C125.597 187.145 125.954 187.233 126.36 187.233C126.624 187.233 126.863 187.196 127.076 187.122C127.292 187.045 127.478 186.932 127.634 186.781C127.79 186.628 127.911 186.437 127.996 186.21L128.968 186.483C128.866 186.812 128.694 187.102 128.452 187.352C128.211 187.599 127.913 187.793 127.558 187.932C127.202 188.068 126.803 188.136 126.36 188.136ZM131.606 184.062V188H130.6V181.455H131.572V182.477H131.657C131.81 182.145 132.043 181.878 132.356 181.676C132.668 181.472 133.072 181.369 133.566 181.369C134.009 181.369 134.397 181.46 134.729 181.642C135.062 181.821 135.32 182.094 135.505 182.46C135.69 182.824 135.782 183.284 135.782 183.841V188H134.776V183.909C134.776 183.395 134.643 182.994 134.376 182.707C134.109 182.418 133.742 182.273 133.276 182.273C132.955 182.273 132.668 182.342 132.415 182.482C132.165 182.621 131.968 182.824 131.823 183.091C131.678 183.358 131.606 183.682 131.606 184.062ZM138.625 179.273V188H137.62V179.273H138.625ZM142.393 188.153C141.979 188.153 141.602 188.075 141.264 187.919C140.926 187.76 140.658 187.531 140.459 187.233C140.26 186.932 140.161 186.568 140.161 186.142C140.161 185.767 140.234 185.463 140.382 185.23C140.53 184.994 140.727 184.81 140.974 184.676C141.222 184.543 141.494 184.443 141.793 184.378C142.094 184.31 142.396 184.256 142.7 184.216C143.098 184.165 143.42 184.126 143.668 184.101C143.918 184.072 144.099 184.026 144.213 183.96C144.33 183.895 144.388 183.781 144.388 183.619V183.585C144.388 183.165 144.273 182.838 144.043 182.605C143.815 182.372 143.47 182.256 143.007 182.256C142.527 182.256 142.151 182.361 141.878 182.571C141.605 182.781 141.413 183.006 141.303 183.244L140.348 182.903C140.518 182.506 140.746 182.196 141.03 181.974C141.317 181.75 141.629 181.594 141.967 181.506C142.308 181.415 142.643 181.369 142.973 181.369C143.183 181.369 143.425 181.395 143.697 181.446C143.973 181.494 144.239 181.595 144.494 181.749C144.753 181.902 144.967 182.134 145.138 182.443C145.308 182.753 145.393 183.168 145.393 183.688V188H144.388V187.114H144.337C144.268 187.256 144.155 187.408 143.996 187.57C143.837 187.732 143.625 187.869 143.361 187.983C143.097 188.097 142.774 188.153 142.393 188.153ZM142.547 187.25C142.945 187.25 143.28 187.172 143.553 187.016C143.828 186.859 144.036 186.658 144.175 186.411C144.317 186.163 144.388 185.903 144.388 185.631V184.71C144.345 184.761 144.251 184.808 144.107 184.851C143.964 184.891 143.8 184.926 143.612 184.957C143.428 184.986 143.247 185.011 143.071 185.034C142.898 185.054 142.757 185.071 142.649 185.085C142.388 185.119 142.143 185.175 141.916 185.251C141.692 185.325 141.51 185.437 141.371 185.588C141.234 185.736 141.166 185.937 141.166 186.193C141.166 186.543 141.295 186.807 141.554 186.986C141.815 187.162 142.146 187.25 142.547 187.25ZM149.888 188.136C149.275 188.136 148.746 187.991 148.303 187.702C147.86 187.412 147.519 187.013 147.28 186.504C147.042 185.996 146.922 185.415 146.922 184.761C146.922 184.097 147.044 183.51 147.289 183.001C147.536 182.49 147.88 182.091 148.32 181.804C148.763 181.514 149.28 181.369 149.871 181.369C150.331 181.369 150.746 181.455 151.115 181.625C151.485 181.795 151.787 182.034 152.023 182.341C152.259 182.648 152.405 183.006 152.462 183.415H151.456C151.38 183.116 151.209 182.852 150.945 182.622C150.684 182.389 150.331 182.273 149.888 182.273C149.496 182.273 149.152 182.375 148.857 182.58C148.564 182.781 148.336 183.067 148.171 183.436C148.009 183.803 147.928 184.233 147.928 184.727C147.928 185.233 148.007 185.673 148.167 186.048C148.328 186.423 148.556 186.714 148.848 186.922C149.144 187.129 149.49 187.233 149.888 187.233C150.15 187.233 150.387 187.188 150.6 187.097C150.813 187.006 150.993 186.875 151.141 186.705C151.289 186.534 151.394 186.33 151.456 186.091H152.462C152.405 186.477 152.265 186.825 152.04 187.135C151.819 187.442 151.525 187.686 151.158 187.868C150.794 188.047 150.371 188.136 149.888 188.136ZM156.676 188.136C156.046 188.136 155.502 187.997 155.044 187.719C154.59 187.438 154.239 187.045 153.992 186.543C153.748 186.037 153.625 185.449 153.625 184.778C153.625 184.108 153.748 183.517 153.992 183.006C154.239 182.491 154.583 182.091 155.023 181.804C155.466 181.514 155.983 181.369 156.574 181.369C156.915 181.369 157.252 181.426 157.584 181.54C157.917 181.653 158.219 181.838 158.492 182.094C158.765 182.347 158.982 182.682 159.144 183.099C159.306 183.517 159.387 184.031 159.387 184.642V185.068H154.341V184.199H158.364C158.364 183.83 158.29 183.5 158.142 183.21C157.998 182.92 157.79 182.692 157.52 182.524C157.253 182.357 156.938 182.273 156.574 182.273C156.174 182.273 155.827 182.372 155.534 182.571C155.245 182.767 155.022 183.023 154.865 183.338C154.709 183.653 154.631 183.991 154.631 184.352V184.932C154.631 185.426 154.716 185.845 154.887 186.189C155.06 186.53 155.3 186.79 155.607 186.969C155.914 187.145 156.27 187.233 156.676 187.233C156.941 187.233 157.179 187.196 157.392 187.122C157.608 187.045 157.794 186.932 157.951 186.781C158.107 186.628 158.228 186.437 158.313 186.21L159.284 186.483C159.182 186.812 159.01 187.102 158.769 187.352C158.527 187.599 158.229 187.793 157.874 187.932C157.519 188.068 157.12 188.136 156.676 188.136ZM166.763 188.136C166.218 188.136 165.736 187.999 165.319 187.723C164.901 187.445 164.574 187.053 164.338 186.547C164.103 186.038 163.985 185.438 163.985 184.744C163.985 184.057 164.103 183.46 164.338 182.955C164.574 182.449 164.902 182.058 165.323 181.783C165.743 181.507 166.229 181.369 166.78 181.369C167.206 181.369 167.543 181.44 167.79 181.582C168.04 181.722 168.23 181.881 168.361 182.06C168.495 182.236 168.598 182.381 168.672 182.494H168.757V179.273H169.763V188H168.792V186.994H168.672C168.598 187.114 168.493 187.264 168.357 187.446C168.221 187.625 168.026 187.786 167.773 187.928C167.52 188.067 167.184 188.136 166.763 188.136ZM166.9 187.233C167.303 187.233 167.644 187.128 167.922 186.918C168.201 186.705 168.412 186.411 168.557 186.036C168.702 185.658 168.775 185.222 168.775 184.727C168.775 184.239 168.703 183.811 168.561 183.445C168.419 183.075 168.209 182.788 167.931 182.584C167.652 182.376 167.309 182.273 166.9 182.273C166.473 182.273 166.118 182.382 165.834 182.601C165.553 182.817 165.341 183.111 165.199 183.483C165.06 183.852 164.99 184.267 164.99 184.727C164.99 185.193 165.061 185.616 165.203 185.997C165.348 186.375 165.561 186.676 165.843 186.901C166.127 187.122 166.479 187.233 166.9 187.233ZM174.489 188.136C173.858 188.136 173.314 187.997 172.857 187.719C172.402 187.438 172.051 187.045 171.804 186.543C171.56 186.037 171.438 185.449 171.438 184.778C171.438 184.108 171.56 183.517 171.804 183.006C172.051 182.491 172.395 182.091 172.836 181.804C173.279 181.514 173.796 181.369 174.387 181.369C174.728 181.369 175.064 181.426 175.397 181.54C175.729 181.653 176.032 181.838 176.304 182.094C176.577 182.347 176.794 182.682 176.956 183.099C177.118 183.517 177.199 184.031 177.199 184.642V185.068H172.154V184.199H176.176C176.176 183.83 176.103 183.5 175.955 183.21C175.81 182.92 175.603 182.692 175.333 182.524C175.066 182.357 174.75 182.273 174.387 182.273C173.986 182.273 173.64 182.372 173.347 182.571C173.057 182.767 172.834 183.023 172.678 183.338C172.522 183.653 172.444 183.991 172.444 184.352V184.932C172.444 185.426 172.529 185.845 172.699 186.189C172.873 186.53 173.113 186.79 173.419 186.969C173.726 187.145 174.083 187.233 174.489 187.233C174.753 187.233 174.992 187.196 175.205 187.122C175.421 187.045 175.607 186.932 175.763 186.781C175.919 186.628 176.04 186.437 176.125 186.21L177.097 186.483C176.995 186.812 176.823 187.102 176.581 187.352C176.34 187.599 176.042 187.793 175.686 187.932C175.331 188.068 174.932 188.136 174.489 188.136ZM182.104 188V181.455H183.076V182.443H183.144C183.263 182.119 183.479 181.857 183.792 181.655C184.104 181.453 184.456 181.352 184.848 181.352C184.922 181.352 185.015 181.354 185.125 181.357C185.236 181.359 185.32 181.364 185.377 181.369V182.392C185.343 182.384 185.265 182.371 185.142 182.354C185.023 182.334 184.897 182.324 184.763 182.324C184.445 182.324 184.161 182.391 183.911 182.524C183.664 182.655 183.468 182.837 183.323 183.07C183.181 183.3 183.11 183.562 183.11 183.858V188H182.104ZM189.114 188.136C188.483 188.136 187.939 187.997 187.482 187.719C187.027 187.438 186.676 187.045 186.429 186.543C186.185 186.037 186.063 185.449 186.063 184.778C186.063 184.108 186.185 183.517 186.429 183.006C186.676 182.491 187.02 182.091 187.461 181.804C187.904 181.514 188.421 181.369 189.012 181.369C189.353 181.369 189.689 181.426 190.022 181.54C190.354 181.653 190.657 181.838 190.929 182.094C191.202 182.347 191.419 182.682 191.581 183.099C191.743 183.517 191.824 184.031 191.824 184.642V185.068H186.779V184.199H190.801C190.801 183.83 190.728 183.5 190.58 183.21C190.435 182.92 190.228 182.692 189.958 182.524C189.691 182.357 189.375 182.273 189.012 182.273C188.611 182.273 188.265 182.372 187.972 182.571C187.682 182.767 187.459 183.023 187.303 183.338C187.147 183.653 187.069 183.991 187.069 184.352V184.932C187.069 185.426 187.154 185.845 187.324 186.189C187.498 186.53 187.738 186.79 188.044 186.969C188.351 187.145 188.708 187.233 189.114 187.233C189.378 187.233 189.617 187.196 189.83 187.122C190.046 187.045 190.232 186.932 190.388 186.781C190.544 186.628 190.665 186.437 190.75 186.21L191.722 186.483C191.62 186.812 191.448 187.102 191.206 187.352C190.965 187.599 190.667 187.793 190.311 187.932C189.956 188.068 189.557 188.136 189.114 188.136ZM197.99 182.92L197.087 183.176C197.03 183.026 196.946 182.879 196.836 182.737C196.728 182.592 196.58 182.473 196.392 182.379C196.205 182.286 195.965 182.239 195.672 182.239C195.272 182.239 194.938 182.331 194.671 182.516C194.407 182.697 194.275 182.929 194.275 183.21C194.275 183.46 194.365 183.658 194.547 183.803C194.729 183.947 195.013 184.068 195.4 184.165L196.371 184.403C196.956 184.545 197.392 184.763 197.679 185.055C197.966 185.345 198.11 185.719 198.11 186.176C198.11 186.551 198.002 186.886 197.786 187.182C197.573 187.477 197.275 187.71 196.891 187.881C196.507 188.051 196.061 188.136 195.553 188.136C194.885 188.136 194.333 187.991 193.895 187.702C193.458 187.412 193.181 186.989 193.064 186.432L194.019 186.193C194.11 186.545 194.282 186.81 194.534 186.986C194.79 187.162 195.124 187.25 195.536 187.25C196.005 187.25 196.377 187.151 196.652 186.952C196.931 186.75 197.07 186.509 197.07 186.227C197.07 186 196.99 185.81 196.831 185.656C196.672 185.5 196.428 185.384 196.098 185.307L195.007 185.051C194.408 184.909 193.968 184.689 193.686 184.391C193.408 184.089 193.269 183.713 193.269 183.261C193.269 182.892 193.373 182.565 193.58 182.281C193.79 181.997 194.076 181.774 194.436 181.612C194.8 181.45 195.212 181.369 195.672 181.369C196.32 181.369 196.828 181.511 197.198 181.795C197.57 182.08 197.834 182.455 197.99 182.92ZM202.47 181.455V182.307H199.078V181.455H202.47ZM200.067 179.886H201.072V186.125C201.072 186.409 201.114 186.622 201.196 186.764C201.281 186.903 201.389 186.997 201.52 187.045C201.653 187.091 201.794 187.114 201.942 187.114C202.053 187.114 202.143 187.108 202.214 187.097C202.286 187.082 202.342 187.071 202.385 187.062L202.589 187.966C202.521 187.991 202.426 188.017 202.304 188.043C202.182 188.071 202.027 188.085 201.839 188.085C201.555 188.085 201.277 188.024 201.004 187.902C200.734 187.78 200.51 187.594 200.331 187.344C200.155 187.094 200.067 186.778 200.067 186.398V179.886ZM205.909 188.153C205.494 188.153 205.118 188.075 204.78 187.919C204.442 187.76 204.173 187.531 203.974 187.233C203.776 186.932 203.676 186.568 203.676 186.142C203.676 185.767 203.75 185.463 203.898 185.23C204.045 184.994 204.243 184.81 204.49 184.676C204.737 184.543 205.01 184.443 205.308 184.378C205.609 184.31 205.912 184.256 206.216 184.216C206.614 184.165 206.936 184.126 207.183 184.101C207.433 184.072 207.615 184.026 207.729 183.96C207.845 183.895 207.903 183.781 207.903 183.619V183.585C207.903 183.165 207.788 182.838 207.558 182.605C207.331 182.372 206.986 182.256 206.523 182.256C206.043 182.256 205.666 182.361 205.393 182.571C205.121 182.781 204.929 183.006 204.818 183.244L203.864 182.903C204.034 182.506 204.261 182.196 204.545 181.974C204.832 181.75 205.145 181.594 205.483 181.506C205.824 181.415 206.159 181.369 206.489 181.369C206.699 181.369 206.94 181.395 207.213 181.446C207.489 181.494 207.754 181.595 208.01 181.749C208.268 181.902 208.483 182.134 208.653 182.443C208.824 182.753 208.909 183.168 208.909 183.688V188H207.903V187.114H207.852C207.784 187.256 207.67 187.408 207.511 187.57C207.352 187.732 207.141 187.869 206.876 187.983C206.612 188.097 206.29 188.153 205.909 188.153ZM206.062 187.25C206.46 187.25 206.795 187.172 207.068 187.016C207.344 186.859 207.551 186.658 207.69 186.411C207.832 186.163 207.903 185.903 207.903 185.631V184.71C207.861 184.761 207.767 184.808 207.622 184.851C207.48 184.891 207.315 184.926 207.128 184.957C206.943 184.986 206.763 185.011 206.587 185.034C206.413 185.054 206.273 185.071 206.165 185.085C205.903 185.119 205.659 185.175 205.432 185.251C205.207 185.325 205.026 185.437 204.886 185.588C204.75 185.736 204.682 185.937 204.682 186.193C204.682 186.543 204.811 186.807 205.07 186.986C205.331 187.162 205.662 187.25 206.062 187.25ZM210.881 188V179.273H211.887V182.494H211.972C212.046 182.381 212.148 182.236 212.279 182.06C212.412 181.881 212.603 181.722 212.85 181.582C213.1 181.44 213.438 181.369 213.864 181.369C214.415 181.369 214.901 181.507 215.321 181.783C215.742 182.058 216.07 182.449 216.306 182.955C216.542 183.46 216.659 184.057 216.659 184.744C216.659 185.438 216.542 186.038 216.306 186.547C216.07 187.053 215.743 187.445 215.326 187.723C214.908 187.999 214.426 188.136 213.881 188.136C213.461 188.136 213.124 188.067 212.871 187.928C212.618 187.786 212.424 187.625 212.287 187.446C212.151 187.264 212.046 187.114 211.972 186.994H211.853V188H210.881ZM211.87 184.727C211.87 185.222 211.942 185.658 212.087 186.036C212.232 186.411 212.444 186.705 212.722 186.918C213 187.128 213.341 187.233 213.745 187.233C214.165 187.233 214.516 187.122 214.797 186.901C215.081 186.676 215.294 186.375 215.436 185.997C215.581 185.616 215.654 185.193 215.654 184.727C215.654 184.267 215.583 183.852 215.441 183.483C215.301 183.111 215.09 182.817 214.806 182.601C214.525 182.382 214.171 182.273 213.745 182.273C213.336 182.273 212.992 182.376 212.713 182.584C212.435 182.788 212.225 183.075 212.083 183.445C211.941 183.811 211.87 184.239 211.87 184.727ZM219.203 179.273V188H218.198V179.273H219.203ZM223.79 188.136C223.159 188.136 222.615 187.997 222.158 187.719C221.703 187.438 221.352 187.045 221.105 186.543C220.861 186.037 220.739 185.449 220.739 184.778C220.739 184.108 220.861 183.517 221.105 183.006C221.352 182.491 221.696 182.091 222.136 181.804C222.58 181.514 223.097 181.369 223.688 181.369C224.028 181.369 224.365 181.426 224.697 181.54C225.03 181.653 225.332 181.838 225.605 182.094C225.878 182.347 226.095 182.682 226.257 183.099C226.419 183.517 226.5 184.031 226.5 184.642V185.068H221.455V184.199H225.477C225.477 183.83 225.403 183.5 225.256 183.21C225.111 182.92 224.903 182.692 224.634 182.524C224.366 182.357 224.051 182.273 223.688 182.273C223.287 182.273 222.94 182.372 222.648 182.571C222.358 182.767 222.135 183.023 221.979 183.338C221.822 183.653 221.744 183.991 221.744 184.352V184.932C221.744 185.426 221.83 185.845 222 186.189C222.173 186.53 222.413 186.79 222.72 186.969C223.027 187.145 223.384 187.233 223.79 187.233C224.054 187.233 224.293 187.196 224.506 187.122C224.722 187.045 224.908 186.932 225.064 186.781C225.22 186.628 225.341 186.437 225.426 186.21L226.398 186.483C226.295 186.812 226.124 187.102 225.882 187.352C225.641 187.599 225.342 187.793 224.987 187.932C224.632 188.068 224.233 188.136 223.79 188.136ZM230.689 188.136C230.075 188.136 229.547 187.991 229.104 187.702C228.661 187.412 228.32 187.013 228.081 186.504C227.842 185.996 227.723 185.415 227.723 184.761C227.723 184.097 227.845 183.51 228.089 183.001C228.337 182.49 228.68 182.091 229.121 181.804C229.564 181.514 230.081 181.369 230.672 181.369C231.132 181.369 231.547 181.455 231.916 181.625C232.286 181.795 232.588 182.034 232.824 182.341C233.06 182.648 233.206 183.006 233.263 183.415H232.257C232.18 183.116 232.01 182.852 231.746 182.622C231.484 182.389 231.132 182.273 230.689 182.273C230.297 182.273 229.953 182.375 229.658 182.58C229.365 182.781 229.136 183.067 228.972 183.436C228.81 183.803 228.729 184.233 228.729 184.727C228.729 185.233 228.808 185.673 228.967 186.048C229.129 186.423 229.357 186.714 229.649 186.922C229.945 187.129 230.291 187.233 230.689 187.233C230.95 187.233 231.188 187.188 231.401 187.097C231.614 187.006 231.794 186.875 231.942 186.705C232.089 186.534 232.195 186.33 232.257 186.091H233.263C233.206 186.477 233.065 186.825 232.841 187.135C232.619 187.442 232.325 187.686 231.959 187.868C231.595 188.047 231.172 188.136 230.689 188.136ZM234.733 188V181.455H235.739V188H234.733ZM235.244 180.364C235.048 180.364 234.879 180.297 234.737 180.163C234.598 180.03 234.528 179.869 234.528 179.682C234.528 179.494 234.598 179.334 234.737 179.2C234.879 179.067 235.048 179 235.244 179C235.44 179 235.608 179.067 235.747 179.2C235.889 179.334 235.96 179.494 235.96 179.682C235.96 179.869 235.889 180.03 235.747 180.163C235.608 180.297 235.44 180.364 235.244 180.364ZM237.581 188V181.455H238.552V182.477H238.637C238.774 182.128 238.994 181.857 239.298 181.663C239.602 181.467 239.967 181.369 240.393 181.369C240.825 181.369 241.184 181.467 241.471 181.663C241.761 181.857 241.987 182.128 242.149 182.477H242.217C242.385 182.139 242.636 181.871 242.971 181.672C243.306 181.47 243.708 181.369 244.177 181.369C244.762 181.369 245.241 181.553 245.613 181.919C245.985 182.283 246.172 182.849 246.172 183.619V188H245.166V183.619C245.166 183.136 245.034 182.791 244.77 182.584C244.505 182.376 244.194 182.273 243.836 182.273C243.376 182.273 243.02 182.412 242.767 182.69C242.514 182.966 242.387 183.315 242.387 183.739V188H241.365V183.517C241.365 183.145 241.244 182.845 241.002 182.618C240.761 182.388 240.45 182.273 240.069 182.273C239.808 182.273 239.564 182.342 239.336 182.482C239.112 182.621 238.93 182.814 238.791 183.061C238.654 183.305 238.586 183.588 238.586 183.909V188H237.581ZM248.01 188V181.455H249.016V188H248.01ZM248.522 180.364C248.326 180.364 248.157 180.297 248.015 180.163C247.875 180.03 247.806 179.869 247.806 179.682C247.806 179.494 247.875 179.334 248.015 179.2C248.157 179.067 248.326 179 248.522 179C248.718 179 248.885 179.067 249.025 179.2C249.167 179.334 249.238 179.494 249.238 179.682C249.238 179.869 249.167 180.03 249.025 180.163C248.885 180.297 248.718 180.364 248.522 180.364ZM253.602 188.136C252.972 188.136 252.428 187.997 251.97 187.719C251.516 187.438 251.165 187.045 250.918 186.543C250.673 186.037 250.551 185.449 250.551 184.778C250.551 184.108 250.673 183.517 250.918 183.006C251.165 182.491 251.509 182.091 251.949 181.804C252.392 181.514 252.909 181.369 253.5 181.369C253.841 181.369 254.178 181.426 254.51 181.54C254.842 181.653 255.145 181.838 255.418 182.094C255.69 182.347 255.908 182.682 256.07 183.099C256.232 183.517 256.312 184.031 256.312 184.642V185.068H251.267V184.199H255.29C255.29 183.83 255.216 183.5 255.068 183.21C254.923 182.92 254.716 182.692 254.446 182.524C254.179 182.357 253.864 182.273 253.5 182.273C253.099 182.273 252.753 182.372 252.46 182.571C252.17 182.767 251.947 183.023 251.791 183.338C251.635 183.653 251.557 183.991 251.557 184.352V184.932C251.557 185.426 251.642 185.845 251.812 186.189C251.986 186.53 252.226 186.79 252.533 186.969C252.839 187.145 253.196 187.233 253.602 187.233C253.866 187.233 254.105 187.196 254.318 187.122C254.534 187.045 254.72 186.932 254.876 186.781C255.033 186.628 255.153 186.437 255.239 186.21L256.21 186.483C256.108 186.812 255.936 187.102 255.695 187.352C255.453 187.599 255.155 187.793 254.8 187.932C254.445 188.068 254.045 188.136 253.602 188.136ZM258.848 184.062V188H257.842V181.455H258.814V182.477H258.899C259.053 182.145 259.286 181.878 259.598 181.676C259.911 181.472 260.314 181.369 260.808 181.369C261.251 181.369 261.639 181.46 261.972 181.642C262.304 181.821 262.563 182.094 262.747 182.46C262.932 182.824 263.024 183.284 263.024 183.841V188H262.018V183.909C262.018 183.395 261.885 182.994 261.618 182.707C261.351 182.418 260.984 182.273 260.518 182.273C260.197 182.273 259.911 182.342 259.658 182.482C259.408 182.621 259.21 182.824 259.065 183.091C258.92 183.358 258.848 183.682 258.848 184.062ZM267.708 181.455V182.307H264.316V181.455H267.708ZM265.305 179.886H266.311V186.125C266.311 186.409 266.352 186.622 266.434 186.764C266.52 186.903 266.627 186.997 266.758 187.045C266.892 187.091 267.032 187.114 267.18 187.114C267.291 187.114 267.382 187.108 267.453 187.097C267.524 187.082 267.581 187.071 267.623 187.062L267.828 187.966C267.76 187.991 267.664 188.017 267.542 188.043C267.42 188.071 267.265 188.085 267.078 188.085C266.794 188.085 266.515 188.024 266.243 187.902C265.973 187.78 265.748 187.594 265.569 187.344C265.393 187.094 265.305 186.778 265.305 186.398V179.886ZM271.81 188.136C271.219 188.136 270.701 187.996 270.255 187.714C269.811 187.433 269.465 187.04 269.215 186.534C268.968 186.028 268.844 185.437 268.844 184.761C268.844 184.08 268.968 183.484 269.215 182.976C269.465 182.467 269.811 182.072 270.255 181.791C270.701 181.51 271.219 181.369 271.81 181.369C272.401 181.369 272.918 181.51 273.361 181.791C273.807 182.072 274.154 182.467 274.401 182.976C274.651 183.484 274.776 184.08 274.776 184.761C274.776 185.437 274.651 186.028 274.401 186.534C274.154 187.04 273.807 187.433 273.361 187.714C272.918 187.996 272.401 188.136 271.81 188.136ZM271.81 187.233C272.259 187.233 272.628 187.118 272.918 186.888C273.208 186.658 273.422 186.355 273.561 185.98C273.701 185.605 273.77 185.199 273.77 184.761C273.77 184.324 273.701 183.916 273.561 183.538C273.422 183.161 273.208 182.855 272.918 182.622C272.628 182.389 272.259 182.273 271.81 182.273C271.361 182.273 270.992 182.389 270.702 182.622C270.412 182.855 270.198 183.161 270.059 183.538C269.919 183.916 269.85 184.324 269.85 184.761C269.85 185.199 269.919 185.605 270.059 185.98C270.198 186.355 270.412 186.658 270.702 186.888C270.992 187.118 271.361 187.233 271.81 187.233Z" fill="#212121"/>
<path opacity="0.01" d="M318 160H42C29.8497 160 20 169.85 20 182C20 194.15 29.8497 204 42 204H318C330.15 204 340 194.15 340 182C340 169.85 330.15 160 318 160Z" fill="black" stroke="black"/>
<path d="M120.249 211.273L122.84 218.619H122.942L125.533 211.273H126.641L123.436 220H122.345L119.141 211.273H120.249ZM129.914 220.136C129.323 220.136 128.804 219.996 128.358 219.714C127.915 219.433 127.568 219.04 127.318 218.534C127.071 218.028 126.948 217.437 126.948 216.761C126.948 216.08 127.071 215.484 127.318 214.976C127.568 214.467 127.915 214.072 128.358 213.791C128.804 213.51 129.323 213.369 129.914 213.369C130.504 213.369 131.021 213.51 131.465 213.791C131.911 214.072 132.257 214.467 132.504 214.976C132.754 215.484 132.879 216.08 132.879 216.761C132.879 217.437 132.754 218.028 132.504 218.534C132.257 219.04 131.911 219.433 131.465 219.714C131.021 219.996 130.504 220.136 129.914 220.136ZM129.914 219.233C130.362 219.233 130.732 219.118 131.021 218.888C131.311 218.658 131.526 218.355 131.665 217.98C131.804 217.605 131.874 217.199 131.874 216.761C131.874 216.324 131.804 215.916 131.665 215.538C131.526 215.161 131.311 214.855 131.021 214.622C130.732 214.389 130.362 214.273 129.914 214.273C129.465 214.273 129.095 214.389 128.806 214.622C128.516 214.855 128.301 215.161 128.162 215.538C128.023 215.916 127.953 216.324 127.953 216.761C127.953 217.199 128.023 217.605 128.162 217.98C128.301 218.355 128.516 218.658 128.806 218.888C129.095 219.118 129.465 219.233 129.914 219.233ZM135.42 211.273V220H134.415V211.273H135.42ZM142.615 213.455L140.194 220H139.171L136.751 213.455H137.842L139.649 218.67H139.717L141.524 213.455H142.615ZM146.452 220.136C145.821 220.136 145.277 219.997 144.82 219.719C144.365 219.438 144.014 219.045 143.767 218.543C143.523 218.037 143.401 217.449 143.401 216.778C143.401 216.108 143.523 215.517 143.767 215.006C144.014 214.491 144.358 214.091 144.798 213.804C145.242 213.514 145.759 213.369 146.35 213.369C146.691 213.369 147.027 213.426 147.36 213.54C147.692 213.653 147.994 213.838 148.267 214.094C148.54 214.347 148.757 214.682 148.919 215.099C149.081 215.517 149.162 216.031 149.162 216.642V217.068H144.117V216.199H148.139C148.139 215.83 148.066 215.5 147.918 215.21C147.773 214.92 147.566 214.692 147.296 214.524C147.029 214.357 146.713 214.273 146.35 214.273C145.949 214.273 145.602 214.372 145.31 214.571C145.02 214.767 144.797 215.023 144.641 215.338C144.485 215.653 144.406 215.991 144.406 216.352V216.932C144.406 217.426 144.492 217.845 144.662 218.189C144.835 218.53 145.075 218.79 145.382 218.969C145.689 219.145 146.046 219.233 146.452 219.233C146.716 219.233 146.955 219.196 147.168 219.122C147.384 219.045 147.57 218.932 147.726 218.781C147.882 218.628 148.003 218.437 148.088 218.21L149.06 218.483C148.958 218.812 148.786 219.102 148.544 219.352C148.303 219.599 148.004 219.793 147.649 219.932C147.294 220.068 146.895 220.136 146.452 220.136ZM150.692 220V213.455H151.664V214.443H151.732C151.851 214.119 152.067 213.857 152.379 213.655C152.692 213.453 153.044 213.352 153.436 213.352C153.51 213.352 153.602 213.354 153.713 213.357C153.824 213.359 153.908 213.364 153.965 213.369V214.392C153.931 214.384 153.852 214.371 153.73 214.354C153.611 214.334 153.485 214.324 153.351 214.324C153.033 214.324 152.749 214.391 152.499 214.524C152.252 214.655 152.056 214.837 151.911 215.07C151.769 215.3 151.698 215.562 151.698 215.858V220H150.692ZM160.458 220.153C160.043 220.153 159.667 220.075 159.329 219.919C158.991 219.76 158.722 219.531 158.523 219.233C158.324 218.932 158.225 218.568 158.225 218.142C158.225 217.767 158.299 217.463 158.447 217.23C158.594 216.994 158.792 216.81 159.039 216.676C159.286 216.543 159.559 216.443 159.857 216.378C160.158 216.31 160.461 216.256 160.765 216.216C161.162 216.165 161.485 216.126 161.732 216.101C161.982 216.072 162.164 216.026 162.278 215.96C162.394 215.895 162.452 215.781 162.452 215.619V215.585C162.452 215.165 162.337 214.838 162.107 214.605C161.88 214.372 161.535 214.256 161.072 214.256C160.591 214.256 160.215 214.361 159.942 214.571C159.67 214.781 159.478 215.006 159.367 215.244L158.412 214.903C158.583 214.506 158.81 214.196 159.094 213.974C159.381 213.75 159.694 213.594 160.032 213.506C160.373 213.415 160.708 213.369 161.037 213.369C161.248 213.369 161.489 213.395 161.762 213.446C162.037 213.494 162.303 213.595 162.559 213.749C162.817 213.902 163.032 214.134 163.202 214.443C163.373 214.753 163.458 215.168 163.458 215.688V220H162.452V219.114H162.401C162.333 219.256 162.219 219.408 162.06 219.57C161.901 219.732 161.689 219.869 161.425 219.983C161.161 220.097 160.839 220.153 160.458 220.153ZM160.611 219.25C161.009 219.25 161.344 219.172 161.617 219.016C161.893 218.859 162.1 218.658 162.239 218.411C162.381 218.163 162.452 217.903 162.452 217.631V216.71C162.41 216.761 162.316 216.808 162.171 216.851C162.029 216.891 161.864 216.926 161.677 216.957C161.492 216.986 161.312 217.011 161.135 217.034C160.962 217.054 160.822 217.071 160.714 217.085C160.452 217.119 160.208 217.175 159.981 217.251C159.756 217.325 159.574 217.437 159.435 217.588C159.299 217.736 159.231 217.937 159.231 218.193C159.231 218.543 159.36 218.807 159.618 218.986C159.88 219.162 160.211 219.25 160.611 219.25ZM168.669 220V213.455H169.674V220H168.669ZM169.18 212.364C168.984 212.364 168.815 212.297 168.673 212.163C168.534 212.03 168.464 211.869 168.464 211.682C168.464 211.494 168.534 211.334 168.673 211.2C168.815 211.067 168.984 211 169.18 211C169.376 211 169.544 211.067 169.683 211.2C169.825 211.334 169.896 211.494 169.896 211.682C169.896 211.869 169.825 212.03 169.683 212.163C169.544 212.297 169.376 212.364 169.18 212.364ZM172.522 216.062V220H171.516V213.455H172.488V214.477H172.573C172.726 214.145 172.959 213.878 173.272 213.676C173.584 213.472 173.988 213.369 174.482 213.369C174.925 213.369 175.313 213.46 175.645 213.642C175.978 213.821 176.236 214.094 176.421 214.46C176.606 214.824 176.698 215.284 176.698 215.841V220H175.692V215.909C175.692 215.395 175.559 214.994 175.292 214.707C175.025 214.418 174.658 214.273 174.192 214.273C173.871 214.273 173.584 214.342 173.331 214.482C173.081 214.621 172.884 214.824 172.739 215.091C172.594 215.358 172.522 215.682 172.522 216.062ZM178.536 220V213.455H179.541V220H178.536ZM179.047 212.364C178.851 212.364 178.682 212.297 178.54 212.163C178.401 212.03 178.331 211.869 178.331 211.682C178.331 211.494 178.401 211.334 178.54 211.2C178.682 211.067 178.851 211 179.047 211C179.243 211 179.411 211.067 179.55 211.2C179.692 211.334 179.763 211.494 179.763 211.682C179.763 211.869 179.692 212.03 179.55 212.163C179.411 212.297 179.243 212.364 179.047 212.364ZM184.042 220.136C183.429 220.136 182.9 219.991 182.457 219.702C182.014 219.412 181.673 219.013 181.434 218.504C181.196 217.996 181.077 217.415 181.077 216.761C181.077 216.097 181.199 215.51 181.443 215.001C181.69 214.49 182.034 214.091 182.474 213.804C182.917 213.514 183.434 213.369 184.025 213.369C184.486 213.369 184.9 213.455 185.27 213.625C185.639 213.795 185.942 214.034 186.177 214.341C186.413 214.648 186.559 215.006 186.616 215.415H185.611C185.534 215.116 185.363 214.852 185.099 214.622C184.838 214.389 184.486 214.273 184.042 214.273C183.65 214.273 183.307 214.375 183.011 214.58C182.719 214.781 182.49 215.067 182.325 215.436C182.163 215.803 182.082 216.233 182.082 216.727C182.082 217.233 182.162 217.673 182.321 218.048C182.483 218.423 182.71 218.714 183.003 218.922C183.298 219.129 183.645 219.233 184.042 219.233C184.304 219.233 184.541 219.188 184.754 219.097C184.967 219.006 185.148 218.875 185.295 218.705C185.443 218.534 185.548 218.33 185.611 218.091H186.616C186.559 218.477 186.419 218.825 186.194 219.135C185.973 219.442 185.679 219.686 185.312 219.868C184.949 220.047 184.525 220.136 184.042 220.136ZM188.086 220V213.455H189.092V220H188.086ZM188.598 212.364C188.402 212.364 188.233 212.297 188.091 212.163C187.952 212.03 187.882 211.869 187.882 211.682C187.882 211.494 187.952 211.334 188.091 211.2C188.233 211.067 188.402 211 188.598 211C188.794 211 188.961 211.067 189.101 211.2C189.243 211.334 189.314 211.494 189.314 211.682C189.314 211.869 189.243 212.03 189.101 212.163C188.961 212.297 188.794 212.364 188.598 212.364ZM192.86 220.153C192.445 220.153 192.069 220.075 191.731 219.919C191.393 219.76 191.124 219.531 190.926 219.233C190.727 218.932 190.627 218.568 190.627 218.142C190.627 217.767 190.701 217.463 190.849 217.23C190.997 216.994 191.194 216.81 191.441 216.676C191.688 216.543 191.961 216.443 192.259 216.378C192.561 216.31 192.863 216.256 193.167 216.216C193.565 216.165 193.887 216.126 194.134 216.101C194.384 216.072 194.566 216.026 194.68 215.96C194.796 215.895 194.855 215.781 194.855 215.619V215.585C194.855 215.165 194.74 214.838 194.509 214.605C194.282 214.372 193.937 214.256 193.474 214.256C192.994 214.256 192.617 214.361 192.345 214.571C192.072 214.781 191.88 215.006 191.769 215.244L190.815 214.903C190.985 214.506 191.213 214.196 191.497 213.974C191.784 213.75 192.096 213.594 192.434 213.506C192.775 213.415 193.11 213.369 193.44 213.369C193.65 213.369 193.892 213.395 194.164 213.446C194.44 213.494 194.705 213.595 194.961 213.749C195.22 213.902 195.434 214.134 195.605 214.443C195.775 214.753 195.86 215.168 195.86 215.688V220H194.855V219.114H194.803C194.735 219.256 194.622 219.408 194.463 219.57C194.303 219.732 194.092 219.869 193.828 219.983C193.563 220.097 193.241 220.153 192.86 220.153ZM193.014 219.25C193.411 219.25 193.747 219.172 194.019 219.016C194.295 218.859 194.502 218.658 194.642 218.411C194.784 218.163 194.855 217.903 194.855 217.631V216.71C194.812 216.761 194.718 216.808 194.573 216.851C194.431 216.891 194.267 216.926 194.079 216.957C193.894 216.986 193.714 217.011 193.538 217.034C193.365 217.054 193.224 217.071 193.116 217.085C192.855 217.119 192.61 217.175 192.383 217.251C192.159 217.325 191.977 217.437 191.838 217.588C191.701 217.736 191.633 217.937 191.633 218.193C191.633 218.543 191.762 218.807 192.021 218.986C192.282 219.162 192.613 219.25 193.014 219.25ZM197.696 220V213.455H198.667V214.443H198.736C198.855 214.119 199.071 213.857 199.383 213.655C199.696 213.453 200.048 213.352 200.44 213.352C200.514 213.352 200.606 213.354 200.717 213.357C200.828 213.359 200.912 213.364 200.969 213.369V214.392C200.934 214.384 200.856 214.371 200.734 214.354C200.615 214.334 200.488 214.324 200.355 214.324C200.037 214.324 199.753 214.391 199.503 214.524C199.256 214.655 199.059 214.837 198.915 215.07C198.773 215.3 198.702 215.562 198.702 215.858V220H197.696ZM210.172 214.92L209.269 215.176C209.212 215.026 209.128 214.879 209.017 214.737C208.909 214.592 208.762 214.473 208.574 214.379C208.387 214.286 208.146 214.239 207.854 214.239C207.453 214.239 207.119 214.331 206.852 214.516C206.588 214.697 206.456 214.929 206.456 215.21C206.456 215.46 206.547 215.658 206.729 215.803C206.911 215.947 207.195 216.068 207.581 216.165L208.553 216.403C209.138 216.545 209.574 216.763 209.861 217.055C210.148 217.345 210.291 217.719 210.291 218.176C210.291 218.551 210.183 218.886 209.968 219.182C209.754 219.477 209.456 219.71 209.073 219.881C208.689 220.051 208.243 220.136 207.735 220.136C207.067 220.136 206.514 219.991 206.077 219.702C205.639 219.412 205.362 218.989 205.246 218.432L206.2 218.193C206.291 218.545 206.463 218.81 206.716 218.986C206.972 219.162 207.306 219.25 207.718 219.25C208.186 219.25 208.558 219.151 208.834 218.952C209.112 218.75 209.252 218.509 209.252 218.227C209.252 218 209.172 217.81 209.013 217.656C208.854 217.5 208.61 217.384 208.28 217.307L207.189 217.051C206.59 216.909 206.149 216.689 205.868 216.391C205.59 216.089 205.45 215.713 205.45 215.261C205.45 214.892 205.554 214.565 205.762 214.281C205.972 213.997 206.257 213.774 206.618 213.612C206.982 213.45 207.394 213.369 207.854 213.369C208.502 213.369 209.01 213.511 209.379 213.795C209.752 214.08 210.016 214.455 210.172 214.92ZM214.55 220.136C213.919 220.136 213.375 219.997 212.917 219.719C212.463 219.438 212.112 219.045 211.865 218.543C211.621 218.037 211.498 217.449 211.498 216.778C211.498 216.108 211.621 215.517 211.865 215.006C212.112 214.491 212.456 214.091 212.896 213.804C213.339 213.514 213.856 213.369 214.447 213.369C214.788 213.369 215.125 213.426 215.457 213.54C215.79 213.653 216.092 213.838 216.365 214.094C216.638 214.347 216.855 214.682 217.017 215.099C217.179 215.517 217.26 216.031 217.26 216.642V217.068H212.214V216.199H216.237C216.237 215.83 216.163 215.5 216.015 215.21C215.871 214.92 215.663 214.692 215.393 214.524C215.126 214.357 214.811 214.273 214.447 214.273C214.047 214.273 213.7 214.372 213.407 214.571C213.118 214.767 212.895 215.023 212.738 215.338C212.582 215.653 212.504 215.991 212.504 216.352V216.932C212.504 217.426 212.589 217.845 212.76 218.189C212.933 218.53 213.173 218.79 213.48 218.969C213.787 219.145 214.143 219.233 214.55 219.233C214.814 219.233 215.052 219.196 215.265 219.122C215.481 219.045 215.667 218.932 215.824 218.781C215.98 218.628 216.101 218.437 216.186 218.21L217.157 218.483C217.055 218.812 216.883 219.102 216.642 219.352C216.4 219.599 216.102 219.793 215.747 219.932C215.392 220.068 214.993 220.136 214.55 220.136ZM223.426 214.92L222.523 215.176C222.466 215.026 222.382 214.879 222.271 214.737C222.163 214.592 222.015 214.473 221.828 214.379C221.64 214.286 221.4 214.239 221.108 214.239C220.707 214.239 220.373 214.331 220.106 214.516C219.842 214.697 219.71 214.929 219.71 215.21C219.71 215.46 219.801 215.658 219.983 215.803C220.165 215.947 220.449 216.068 220.835 216.165L221.807 216.403C222.392 216.545 222.828 216.763 223.115 217.055C223.402 217.345 223.545 217.719 223.545 218.176C223.545 218.551 223.437 218.886 223.221 219.182C223.008 219.477 222.71 219.71 222.327 219.881C221.943 220.051 221.497 220.136 220.988 220.136C220.321 220.136 219.768 219.991 219.331 219.702C218.893 219.412 218.616 218.989 218.5 218.432L219.454 218.193C219.545 218.545 219.717 218.81 219.97 218.986C220.226 219.162 220.559 219.25 220.971 219.25C221.44 219.25 221.812 219.151 222.088 218.952C222.366 218.75 222.506 218.509 222.506 218.227C222.506 218 222.426 217.81 222.267 217.656C222.108 217.5 221.863 217.384 221.534 217.307L220.443 217.051C219.844 216.909 219.403 216.689 219.122 216.391C218.844 216.089 218.704 215.713 218.704 215.261C218.704 214.892 218.808 214.565 219.015 214.281C219.226 213.997 219.511 213.774 219.872 213.612C220.236 213.45 220.648 213.369 221.108 213.369C221.756 213.369 222.264 213.511 222.633 213.795C223.006 214.08 223.27 214.455 223.426 214.92ZM225.059 220V213.455H226.065V220H225.059ZM225.57 212.364C225.374 212.364 225.205 212.297 225.063 212.163C224.924 212.03 224.855 211.869 224.855 211.682C224.855 211.494 224.924 211.334 225.063 211.2C225.205 211.067 225.374 211 225.57 211C225.767 211 225.934 211.067 226.073 211.2C226.215 211.334 226.286 211.494 226.286 211.682C226.286 211.869 226.215 212.03 226.073 212.163C225.934 212.297 225.767 212.364 225.57 212.364ZM230.566 220.136C229.975 220.136 229.456 219.996 229.01 219.714C228.567 219.433 228.221 219.04 227.971 218.534C227.724 218.028 227.6 217.437 227.6 216.761C227.6 216.08 227.724 215.484 227.971 214.976C228.221 214.467 228.567 214.072 229.01 213.791C229.456 213.51 229.975 213.369 230.566 213.369C231.157 213.369 231.674 213.51 232.117 213.791C232.563 214.072 232.91 214.467 233.157 214.976C233.407 215.484 233.532 216.08 233.532 216.761C233.532 217.437 233.407 218.028 233.157 218.534C232.91 219.04 232.563 219.433 232.117 219.714C231.674 219.996 231.157 220.136 230.566 220.136ZM230.566 219.233C231.015 219.233 231.384 219.118 231.674 218.888C231.964 218.658 232.178 218.355 232.317 217.98C232.456 217.605 232.526 217.199 232.526 216.761C232.526 216.324 232.456 215.916 232.317 215.538C232.178 215.161 231.964 214.855 231.674 214.622C231.384 214.389 231.015 214.273 230.566 214.273C230.117 214.273 229.748 214.389 229.458 214.622C229.168 214.855 228.954 215.161 228.814 215.538C228.675 215.916 228.606 216.324 228.606 216.761C228.606 217.199 228.675 217.605 228.814 217.98C228.954 218.355 229.168 218.658 229.458 218.888C229.748 219.118 230.117 219.233 230.566 219.233ZM230.106 212.568L231.145 210.591H232.322L230.992 212.568H230.106ZM236.073 216.062V220H235.067V213.455H236.039V214.477H236.124C236.277 214.145 236.51 213.878 236.823 213.676C237.135 213.472 237.539 213.369 238.033 213.369C238.476 213.369 238.864 213.46 239.196 213.642C239.529 213.821 239.787 214.094 239.972 214.46C240.156 214.824 240.249 215.284 240.249 215.841V220H239.243V215.909C239.243 215.395 239.11 214.994 238.843 214.707C238.575 214.418 238.209 214.273 237.743 214.273C237.422 214.273 237.135 214.342 236.882 214.482C236.632 214.621 236.435 214.824 236.29 215.091C236.145 215.358 236.073 215.682 236.073 216.062Z" fill="#666666"/>
<path d="M360 736H0V800H360V736Z" fill="white" stroke="#D0D0D0"/>
<path d="M36 766C41.5228 766 46 761.523 46 756C46 750.477 41.5228 746 36 746C30.4772 746 26 750.477 26 756C26 761.523 30.4772 766 36 766Z" fill="#E0E0E0" stroke="#BDBDBD"/>
<path d="M25.3639 774.727V782H24.4832V774.727H25.3639ZM27.8541 778.719V782H27.0161V776.545H27.8257V777.398H27.8968C28.0246 777.121 28.2187 776.898 28.4791 776.73C28.7396 776.56 29.0757 776.474 29.4877 776.474C29.857 776.474 30.1801 776.55 30.4571 776.702C30.7341 776.851 30.9495 777.078 31.1034 777.384C31.2573 777.687 31.3343 778.07 31.3343 778.534V782H30.4962V778.591C30.4962 778.162 30.3849 777.829 30.1624 777.589C29.9398 777.348 29.6344 777.227 29.2462 777.227C28.9787 777.227 28.7396 777.285 28.5289 777.401C28.3205 777.517 28.156 777.687 28.0352 777.909C27.9145 778.132 27.8541 778.402 27.8541 778.719ZM32.8657 782V776.545H33.7037V782H32.8657ZM33.2918 775.636C33.1285 775.636 32.9876 775.581 32.8692 775.469C32.7532 775.358 32.6952 775.224 32.6952 775.068C32.6952 774.912 32.7532 774.778 32.8692 774.667C32.9876 774.556 33.1285 774.5 33.2918 774.5C33.4552 774.5 33.5948 774.556 33.7108 774.667C33.8292 774.778 33.8884 774.912 33.8884 775.068C33.8884 775.224 33.8292 775.358 33.7108 775.469C33.5948 775.581 33.4552 775.636 33.2918 775.636ZM37.4546 782.114C36.9433 782.114 36.5029 781.993 36.1336 781.751C35.7643 781.51 35.4802 781.177 35.2813 780.754C35.0825 780.33 34.983 779.846 34.983 779.301C34.983 778.747 35.0848 778.258 35.2884 777.835C35.4944 777.408 35.7809 777.076 36.1478 776.837C36.5171 776.595 36.948 776.474 37.4404 776.474C37.824 776.474 38.1696 776.545 38.4774 776.688C38.7851 776.83 39.0373 777.028 39.2338 777.284C39.4302 777.54 39.5522 777.838 39.5995 778.179H38.7615C38.6975 777.93 38.5555 777.71 38.3353 777.518C38.1175 777.324 37.824 777.227 37.4546 777.227C37.1279 777.227 36.8415 777.312 36.5953 777.483C36.3514 777.651 36.1608 777.889 36.0235 778.197C35.8886 778.502 35.8211 778.861 35.8211 779.273C35.8211 779.694 35.8874 780.061 36.02 780.374C36.1549 780.686 36.3443 780.929 36.5882 781.102C36.8344 781.274 37.1232 781.361 37.4546 781.361C37.6724 781.361 37.8701 781.323 38.0477 781.247C38.2252 781.171 38.3756 781.062 38.4987 780.92C38.6218 780.778 38.7094 780.608 38.7615 780.409H39.5995C39.5522 780.731 39.435 781.021 39.248 781.279C39.0633 781.535 38.8183 781.738 38.5129 781.89C38.2098 782.039 37.8571 782.114 37.4546 782.114ZM40.8247 782V776.545H41.6627V782H40.8247ZM41.2508 775.636C41.0874 775.636 40.9466 775.581 40.8282 775.469C40.7122 775.358 40.6542 775.224 40.6542 775.068C40.6542 774.912 40.7122 774.778 40.8282 774.667C40.9466 774.556 41.0874 774.5 41.2508 774.5C41.4142 774.5 41.5538 774.556 41.6698 774.667C41.7882 774.778 41.8474 774.912 41.8474 775.068C41.8474 775.224 41.7882 775.358 41.6698 775.469C41.5538 775.581 41.4142 775.636 41.2508 775.636ZM45.4136 782.114C44.9212 782.114 44.4891 781.996 44.1175 781.762C43.7481 781.528 43.4593 781.2 43.251 780.778C43.045 780.357 42.942 779.865 42.942 779.301C42.942 778.733 43.045 778.237 43.251 777.813C43.4593 777.389 43.7481 777.06 44.1175 776.826C44.4891 776.592 44.9212 776.474 45.4136 776.474C45.906 776.474 46.3369 776.592 46.7062 776.826C47.0779 777.06 47.3667 777.389 47.5727 777.813C47.781 778.237 47.8852 778.733 47.8852 779.301C47.8852 779.865 47.781 780.357 47.5727 780.778C47.3667 781.2 47.0779 781.528 46.7062 781.762C46.3369 781.996 45.906 782.114 45.4136 782.114ZM45.4136 781.361C45.7877 781.361 46.0954 781.265 46.3369 781.073C46.5784 780.881 46.7571 780.629 46.8731 780.317C46.9891 780.004 47.0471 779.666 47.0471 779.301C47.0471 778.937 46.9891 778.597 46.8731 778.282C46.7571 777.967 46.5784 777.713 46.3369 777.518C46.0954 777.324 45.7877 777.227 45.4136 777.227C45.0396 777.227 44.7318 777.324 44.4903 777.518C44.2488 777.713 44.0701 777.967 43.9541 778.282C43.8381 778.597 43.7801 778.937 43.7801 779.301C43.7801 779.666 43.8381 780.004 43.9541 780.317C44.0701 780.629 44.2488 780.881 44.4903 781.073C44.7318 781.265 45.0396 781.361 45.4136 781.361Z" fill="#666666"/>
<path d="M108 766C113.523 766 118 761.523 118 756C118 750.477 113.523 746 108 746C102.477 746 98 750.477 98 756C98 761.523 102.477 766 108 766Z" fill="#E0E0E0" stroke="#BDBDBD"/>
<path d="M95.7508 774.727H96.8019L99.2735 780.764H99.3588L101.83 774.727H102.881V782H102.058V776.474H101.987L99.7139 782H98.9184L96.6457 776.474H96.5747V782H95.7508V774.727ZM106.139 782.128C105.793 782.128 105.479 782.063 105.198 781.933C104.916 781.8 104.692 781.609 104.527 781.361C104.361 781.11 104.278 780.807 104.278 780.452C104.278 780.139 104.34 779.886 104.463 779.692C104.586 779.495 104.75 779.341 104.956 779.23C105.162 779.119 105.389 779.036 105.638 778.982C105.889 778.925 106.141 778.88 106.394 778.847C106.726 778.804 106.995 778.772 107.201 778.751C107.409 778.727 107.56 778.688 107.655 778.634C107.752 778.579 107.801 778.484 107.801 778.349V778.321C107.801 777.971 107.705 777.698 107.513 777.504C107.324 777.31 107.036 777.213 106.65 777.213C106.25 777.213 105.936 777.301 105.709 777.476C105.482 777.651 105.322 777.838 105.23 778.037L104.434 777.753C104.576 777.421 104.766 777.163 105.002 776.979C105.242 776.792 105.502 776.661 105.784 776.588C106.068 776.512 106.347 776.474 106.622 776.474C106.797 776.474 106.998 776.496 107.225 776.538C107.455 776.579 107.676 776.663 107.889 776.79C108.105 776.918 108.284 777.111 108.426 777.369C108.568 777.627 108.639 777.973 108.639 778.406V782H107.801V781.261H107.758C107.701 781.38 107.607 781.506 107.474 781.641C107.341 781.776 107.165 781.891 106.945 781.986C106.725 782.08 106.456 782.128 106.139 782.128ZM106.267 781.375C106.598 781.375 106.877 781.31 107.105 781.18C107.334 781.049 107.507 780.881 107.623 780.675C107.742 780.469 107.801 780.253 107.801 780.026V779.259C107.765 779.301 107.687 779.34 107.566 779.376C107.448 779.409 107.311 779.438 107.154 779.464C107.001 779.488 106.85 779.509 106.703 779.528C106.559 779.545 106.442 779.559 106.352 779.571C106.134 779.599 105.93 779.646 105.741 779.71C105.554 779.771 105.402 779.865 105.286 779.99C105.173 780.113 105.116 780.281 105.116 780.494C105.116 780.786 105.224 781.006 105.439 781.155C105.657 781.302 105.933 781.375 106.267 781.375ZM110.168 784.045V776.545H110.978V777.412H111.078C111.139 777.317 111.224 777.196 111.333 777.05C111.444 776.901 111.603 776.768 111.809 776.652C112.017 776.534 112.299 776.474 112.654 776.474C113.113 776.474 113.518 776.589 113.869 776.819C114.219 777.049 114.493 777.374 114.689 777.795C114.886 778.217 114.984 778.714 114.984 779.287C114.984 779.865 114.886 780.365 114.689 780.789C114.493 781.21 114.22 781.537 113.872 781.769C113.524 781.999 113.123 782.114 112.668 782.114C112.318 782.114 112.037 782.056 111.827 781.94C111.616 781.821 111.454 781.687 111.34 781.538C111.227 781.387 111.139 781.261 111.078 781.162H111.006V784.045H110.168ZM110.992 779.273C110.992 779.685 111.053 780.048 111.173 780.363C111.294 780.675 111.47 780.92 111.703 781.098C111.935 781.273 112.219 781.361 112.555 781.361C112.905 781.361 113.198 781.268 113.432 781.084C113.669 780.897 113.846 780.646 113.965 780.331C114.085 780.014 114.146 779.661 114.146 779.273C114.146 778.889 114.086 778.544 113.968 778.236C113.852 777.926 113.676 777.681 113.439 777.501C113.205 777.318 112.91 777.227 112.555 777.227C112.214 777.227 111.927 777.314 111.695 777.487C111.463 777.657 111.288 777.896 111.17 778.204C111.051 778.509 110.992 778.866 110.992 779.273ZM117.867 782.128C117.522 782.128 117.208 782.063 116.926 781.933C116.645 781.8 116.421 781.609 116.255 781.361C116.089 781.11 116.006 780.807 116.006 780.452C116.006 780.139 116.068 779.886 116.191 779.692C116.314 779.495 116.479 779.341 116.685 779.23C116.891 779.119 117.118 779.036 117.367 778.982C117.618 778.925 117.87 778.88 118.123 778.847C118.454 778.804 118.723 778.772 118.929 778.751C119.137 778.727 119.289 778.688 119.384 778.634C119.481 778.579 119.529 778.484 119.529 778.349V778.321C119.529 777.971 119.433 777.698 119.242 777.504C119.052 777.31 118.765 777.213 118.379 777.213C117.979 777.213 117.665 777.301 117.438 777.476C117.21 777.651 117.051 777.838 116.958 778.037L116.163 777.753C116.305 777.421 116.494 777.163 116.731 776.979C116.97 776.792 117.23 776.661 117.512 776.588C117.796 776.512 118.076 776.474 118.35 776.474C118.525 776.474 118.727 776.496 118.954 776.538C119.184 776.579 119.405 776.663 119.618 776.79C119.833 776.918 120.012 777.111 120.154 777.369C120.296 777.627 120.367 777.973 120.367 778.406V782H119.529V781.261H119.487C119.43 781.38 119.335 781.506 119.203 781.641C119.07 781.776 118.894 781.891 118.673 781.986C118.453 782.08 118.185 782.128 117.867 782.128ZM117.995 781.375C118.327 781.375 118.606 781.31 118.833 781.18C119.063 781.049 119.236 780.881 119.352 780.675C119.47 780.469 119.529 780.253 119.529 780.026V779.259C119.494 779.301 119.416 779.34 119.295 779.376C119.176 779.409 119.039 779.438 118.883 779.464C118.729 779.488 118.579 779.509 118.432 779.528C118.287 779.545 118.17 779.559 118.08 779.571C117.863 779.599 117.659 779.646 117.47 779.71C117.283 779.771 117.131 779.865 117.015 779.99C116.901 780.113 116.845 780.281 116.845 780.494C116.845 780.786 116.952 781.006 117.168 781.155C117.386 781.302 117.661 781.375 117.995 781.375Z" fill="#666666"/>
<path d="M180 766C185.523 766 190 761.523 190 756C190 750.477 185.523 746 180 746C174.477 746 170 750.477 170 756C170 761.523 174.477 766 180 766Z" fill="#E0E0E0" stroke="#BDBDBD"/>
<path d="M174.663 777H173.782C173.73 776.747 173.639 776.524 173.509 776.332C173.381 776.141 173.224 775.98 173.04 775.849C172.857 775.717 172.655 775.617 172.433 775.551C172.21 775.485 171.978 775.452 171.737 775.452C171.296 775.452 170.897 775.563 170.54 775.786C170.185 776.008 169.902 776.336 169.691 776.769C169.483 777.202 169.379 777.734 169.379 778.364C169.379 778.993 169.483 779.525 169.691 779.958C169.902 780.391 170.185 780.719 170.54 780.942C170.897 781.164 171.296 781.276 171.737 781.276C171.978 781.276 172.21 781.242 172.433 781.176C172.655 781.11 172.857 781.012 173.04 780.881C173.224 780.749 173.381 780.587 173.509 780.395C173.639 780.201 173.73 779.978 173.782 779.727H174.663C174.596 780.099 174.476 780.432 174.3 780.725C174.125 781.019 173.907 781.268 173.647 781.474C173.387 781.678 173.094 781.833 172.77 781.94C172.448 782.046 172.103 782.099 171.737 782.099C171.116 782.099 170.565 781.948 170.082 781.645C169.599 781.342 169.219 780.911 168.942 780.352C168.665 779.794 168.526 779.131 168.526 778.364C168.526 777.597 168.665 776.934 168.942 776.375C169.219 775.816 169.599 775.385 170.082 775.082C170.565 774.779 171.116 774.628 171.737 774.628C172.103 774.628 172.448 774.681 172.77 774.788C173.094 774.894 173.387 775.05 173.647 775.256C173.907 775.46 174.125 775.709 174.3 776.002C174.476 776.293 174.596 776.626 174.663 777ZM175.972 782V776.545H176.81V782H175.972ZM176.398 775.636C176.235 775.636 176.094 775.581 175.976 775.469C175.86 775.358 175.802 775.224 175.802 775.068C175.802 774.912 175.86 774.778 175.976 774.667C176.094 774.556 176.235 774.5 176.398 774.5C176.562 774.5 176.701 774.556 176.817 774.667C176.936 774.778 176.995 774.912 176.995 775.068C176.995 775.224 176.936 775.358 176.817 775.469C176.701 775.581 176.562 775.636 176.398 775.636ZM180.717 776.545V777.256H177.891V776.545H180.717ZM178.714 775.239H179.553V780.438C179.553 780.674 179.587 780.852 179.656 780.97C179.727 781.086 179.817 781.164 179.925 781.205C180.037 781.242 180.154 781.261 180.277 781.261C180.369 781.261 180.445 781.257 180.504 781.247C180.563 781.235 180.611 781.226 180.646 781.219L180.817 781.972C180.76 781.993 180.681 782.014 180.579 782.036C180.477 782.059 180.348 782.071 180.192 782.071C179.955 782.071 179.723 782.02 179.496 781.918C179.271 781.817 179.084 781.661 178.935 781.453C178.788 781.245 178.714 780.982 178.714 780.665V775.239ZM183.583 782.128C183.237 782.128 182.924 782.063 182.642 781.933C182.36 781.8 182.137 781.609 181.971 781.361C181.805 781.11 181.722 780.807 181.722 780.452C181.722 780.139 181.784 779.886 181.907 779.692C182.03 779.495 182.195 779.341 182.401 779.23C182.607 779.119 182.834 779.036 183.082 778.982C183.333 778.925 183.585 778.88 183.839 778.847C184.17 778.804 184.439 778.772 184.645 778.751C184.853 778.727 185.005 778.688 185.099 778.634C185.196 778.579 185.245 778.484 185.245 778.349V778.321C185.245 777.971 185.149 777.698 184.957 777.504C184.768 777.31 184.48 777.213 184.094 777.213C183.694 777.213 183.381 777.301 183.153 777.476C182.926 777.651 182.766 777.838 182.674 778.037L181.879 777.753C182.021 777.421 182.21 777.163 182.447 776.979C182.686 776.792 182.946 776.661 183.228 776.588C183.512 776.512 183.791 776.474 184.066 776.474C184.241 776.474 184.442 776.496 184.67 776.538C184.899 776.579 185.121 776.663 185.334 776.79C185.549 776.918 185.728 777.111 185.87 777.369C186.012 777.627 186.083 777.973 186.083 778.406V782H185.245V781.261H185.202C185.146 781.38 185.051 781.506 184.918 781.641C184.786 781.776 184.609 781.891 184.389 781.986C184.169 782.08 183.9 782.128 183.583 782.128ZM183.711 781.375C184.042 781.375 184.322 781.31 184.549 781.18C184.779 781.049 184.951 780.881 185.067 780.675C185.186 780.469 185.245 780.253 185.245 780.026V779.259C185.21 779.301 185.131 779.34 185.011 779.376C184.892 779.409 184.755 779.438 184.599 779.464C184.445 779.488 184.295 779.509 184.148 779.528C184.003 779.545 183.886 779.559 183.796 779.571C183.578 779.599 183.375 779.646 183.185 779.71C182.998 779.771 182.847 779.865 182.731 779.99C182.617 780.113 182.56 780.281 182.56 780.494C182.56 780.786 182.668 781.006 182.884 781.155C183.101 781.302 183.377 781.375 183.711 781.375ZM191.476 777.767L190.724 777.98C190.676 777.855 190.606 777.733 190.514 777.614C190.424 777.494 190.301 777.394 190.145 777.316C189.988 777.238 189.788 777.199 189.545 777.199C189.211 777.199 188.933 777.276 188.71 777.43C188.49 777.581 188.38 777.774 188.38 778.009C188.38 778.217 188.456 778.381 188.607 778.502C188.759 778.623 188.995 778.723 189.317 778.804L190.127 779.003C190.615 779.121 190.978 779.302 191.217 779.546C191.456 779.788 191.576 780.099 191.576 780.48C191.576 780.793 191.486 781.072 191.306 781.318C191.128 781.564 190.88 781.759 190.56 781.901C190.241 782.043 189.869 782.114 189.445 782.114C188.889 782.114 188.428 781.993 188.064 781.751C187.699 781.51 187.468 781.157 187.371 780.693L188.167 780.494C188.242 780.788 188.386 781.008 188.596 781.155C188.809 781.302 189.088 781.375 189.431 781.375C189.822 781.375 190.132 781.292 190.361 781.126C190.593 780.958 190.709 780.757 190.709 780.523C190.709 780.333 190.643 780.175 190.51 780.047C190.378 779.917 190.174 779.82 189.9 779.756L188.991 779.543C188.491 779.424 188.124 779.241 187.89 778.992C187.658 778.741 187.542 778.428 187.542 778.051C187.542 777.743 187.628 777.471 187.801 777.234C187.976 776.998 188.214 776.812 188.515 776.677C188.818 776.542 189.161 776.474 189.545 776.474C190.084 776.474 190.508 776.593 190.816 776.83C191.126 777.066 191.346 777.379 191.476 777.767Z" fill="#666666"/>
<path d="M252 766C257.523 766 262 761.523 262 756C262 750.477 257.523 746 252 746C246.477 746 242 750.477 242 756C242 761.523 246.477 766 252 766Z" fill="#E0E0E0" stroke="#BDBDBD"/>
<path d="M234.665 774.727V782H233.784V774.727H234.665ZM236.317 782V776.545H237.127V777.398H237.198C237.311 777.107 237.495 776.88 237.748 776.719C238.001 776.556 238.305 776.474 238.661 776.474C239.02 776.474 239.32 776.556 239.559 776.719C239.801 776.88 239.989 777.107 240.124 777.398H240.18C240.32 777.116 240.53 776.892 240.809 776.727C241.088 776.558 241.423 776.474 241.814 776.474C242.302 776.474 242.701 776.627 243.011 776.933C243.321 777.236 243.476 777.708 243.476 778.349V782H242.638V778.349C242.638 777.947 242.528 777.659 242.308 777.487C242.087 777.314 241.828 777.227 241.53 777.227C241.146 777.227 240.849 777.343 240.639 777.575C240.428 777.805 240.323 778.096 240.323 778.449V782H239.47V778.264C239.47 777.954 239.37 777.704 239.168 777.515C238.967 777.323 238.708 777.227 238.391 777.227C238.173 777.227 237.969 777.285 237.78 777.401C237.593 777.517 237.441 777.678 237.325 777.884C237.212 778.088 237.155 778.323 237.155 778.591V782H236.317ZM245.008 784.045V776.545H245.818V777.412H245.917C245.979 777.317 246.064 777.196 246.173 777.05C246.284 776.901 246.443 776.768 246.649 776.652C246.857 776.534 247.139 776.474 247.494 776.474C247.953 776.474 248.358 776.589 248.709 776.819C249.059 777.049 249.332 777.374 249.529 777.795C249.725 778.217 249.824 778.714 249.824 779.287C249.824 779.865 249.725 780.365 249.529 780.789C249.332 781.21 249.06 781.537 248.712 781.769C248.364 781.999 247.963 782.114 247.508 782.114C247.158 782.114 246.877 782.056 246.667 781.94C246.456 781.821 246.294 781.687 246.18 781.538C246.066 781.387 245.979 781.261 245.917 781.162H245.846V784.045H245.008ZM245.832 779.273C245.832 779.685 245.892 780.048 246.013 780.363C246.134 780.675 246.31 780.92 246.542 781.098C246.774 781.273 247.058 781.361 247.395 781.361C247.745 781.361 248.037 781.268 248.272 781.084C248.508 780.897 248.686 780.646 248.804 780.331C248.925 780.014 248.986 779.661 248.986 779.273C248.986 778.889 248.926 778.544 248.808 778.236C248.692 777.926 248.516 777.681 248.279 777.501C248.044 777.318 247.75 777.227 247.395 777.227C247.054 777.227 246.767 777.314 246.535 777.487C246.303 777.657 246.128 777.896 246.01 778.204C245.891 778.509 245.832 778.866 245.832 779.273ZM252.707 782.128C252.361 782.128 252.048 782.063 251.766 781.933C251.484 781.8 251.261 781.609 251.095 781.361C250.929 781.11 250.846 780.807 250.846 780.452C250.846 780.139 250.908 779.886 251.031 779.692C251.154 779.495 251.319 779.341 251.525 779.23C251.731 779.119 251.958 779.036 252.206 778.982C252.457 778.925 252.709 778.88 252.963 778.847C253.294 778.804 253.563 778.772 253.769 778.751C253.977 778.727 254.129 778.688 254.223 778.634C254.321 778.579 254.369 778.484 254.369 778.349V778.321C254.369 777.971 254.273 777.698 254.081 777.504C253.892 777.31 253.604 777.213 253.218 777.213C252.818 777.213 252.505 777.301 252.277 777.476C252.05 777.651 251.89 777.838 251.798 778.037L251.003 777.753C251.145 777.421 251.334 777.163 251.571 776.979C251.81 776.792 252.07 776.661 252.352 776.588C252.636 776.512 252.915 776.474 253.19 776.474C253.365 776.474 253.566 776.496 253.794 776.538C254.023 776.579 254.245 776.663 254.458 776.79C254.673 776.918 254.852 777.111 254.994 777.369C255.136 777.627 255.207 777.973 255.207 778.406V782H254.369V781.261H254.326C254.27 781.38 254.175 781.506 254.042 781.641C253.91 781.776 253.733 781.891 253.513 781.986C253.293 782.08 253.024 782.128 252.707 782.128ZM252.835 781.375C253.166 781.375 253.446 781.31 253.673 781.18C253.903 781.049 254.075 780.881 254.191 780.675C254.31 780.469 254.369 780.253 254.369 780.026V779.259C254.334 779.301 254.255 779.34 254.135 779.376C254.016 779.409 253.879 779.438 253.723 779.464C253.569 779.488 253.419 779.509 253.272 779.528C253.127 779.545 253.01 779.559 252.92 779.571C252.702 779.599 252.499 779.646 252.309 779.71C252.122 779.771 251.971 779.865 251.855 779.99C251.741 780.113 251.684 780.281 251.684 780.494C251.684 780.786 251.792 781.006 252.008 781.155C252.225 781.302 252.501 781.375 252.835 781.375ZM258.953 782.114C258.441 782.114 258.001 781.993 257.632 781.751C257.262 781.51 256.978 781.177 256.779 780.754C256.581 780.33 256.481 779.846 256.481 779.301C256.481 778.747 256.583 778.258 256.786 777.835C256.992 777.408 257.279 777.076 257.646 776.837C258.015 776.595 258.446 776.474 258.938 776.474C259.322 776.474 259.668 776.545 259.975 776.688C260.283 776.83 260.535 777.028 260.732 777.284C260.928 777.54 261.05 777.838 261.098 778.179H260.259C260.196 777.93 260.054 777.71 259.833 777.518C259.616 777.324 259.322 777.227 258.953 777.227C258.626 777.227 258.34 777.312 258.093 777.483C257.849 777.651 257.659 777.889 257.522 778.197C257.387 778.502 257.319 778.861 257.319 779.273C257.319 779.694 257.385 780.061 257.518 780.374C257.653 780.686 257.842 780.929 258.086 781.102C258.332 781.274 258.621 781.361 258.953 781.361C259.17 781.361 259.368 781.323 259.546 781.247C259.723 781.171 259.874 781.062 259.997 780.92C260.12 780.778 260.207 780.608 260.259 780.409H261.098C261.05 780.731 260.933 781.021 260.746 781.279C260.561 781.535 260.316 781.738 260.011 781.89C259.708 782.039 259.355 782.114 258.953 782.114ZM264.695 776.545V777.256H261.868V776.545H264.695ZM262.692 775.239H263.53V780.438C263.53 780.674 263.564 780.852 263.633 780.97C263.704 781.086 263.794 781.164 263.903 781.205C264.014 781.242 264.131 781.261 264.255 781.261C264.347 781.261 264.423 781.257 264.482 781.247C264.541 781.235 264.588 781.226 264.624 781.219L264.794 781.972C264.737 781.993 264.658 782.014 264.556 782.036C264.455 782.059 264.326 782.071 264.169 782.071C263.933 782.071 263.701 782.02 263.473 781.918C263.248 781.817 263.061 781.661 262.912 781.453C262.765 781.245 262.692 780.982 262.692 780.665V775.239ZM268.113 782.114C267.62 782.114 267.188 781.996 266.817 781.762C266.447 781.528 266.159 781.2 265.95 780.778C265.744 780.357 265.641 779.865 265.641 779.301C265.641 778.733 265.744 778.237 265.95 777.813C266.159 777.389 266.447 777.06 266.817 776.826C267.188 776.592 267.62 776.474 268.113 776.474C268.605 776.474 269.036 776.592 269.405 776.826C269.777 777.06 270.066 777.389 270.272 777.813C270.48 778.237 270.584 778.733 270.584 779.301C270.584 779.865 270.48 780.357 270.272 780.778C270.066 781.2 269.777 781.528 269.405 781.762C269.036 781.996 268.605 782.114 268.113 782.114ZM268.113 781.361C268.487 781.361 268.795 781.265 269.036 781.073C269.278 780.881 269.456 780.629 269.572 780.317C269.688 780.004 269.746 779.666 269.746 779.301C269.746 778.937 269.688 778.597 269.572 778.282C269.456 777.967 269.278 777.713 269.036 777.518C268.795 777.324 268.487 777.227 268.113 777.227C267.739 777.227 267.431 777.324 267.19 777.518C266.948 777.713 266.769 777.967 266.653 778.282C266.537 778.597 266.479 778.937 266.479 779.301C266.479 779.666 266.537 780.004 266.653 780.317C266.769 780.629 266.948 780.881 267.19 781.073C267.431 781.265 267.739 781.361 268.113 781.361Z" fill="#666666"/>
<path d="M324 766C329.523 766 334 761.523 334 756C334 750.477 329.523 746 324 746C318.477 746 314 750.477 314 756C314 761.523 318.477 766 324 766Z" fill="#E0E0E0" stroke="#BDBDBD"/>
<path d="M312.62 782V774.727H315.077C315.648 774.727 316.114 774.83 316.476 775.036C316.841 775.24 317.111 775.516 317.286 775.864C317.461 776.212 317.549 776.6 317.549 777.028C317.549 777.457 317.461 777.846 317.286 778.197C317.113 778.547 316.846 778.826 316.484 779.035C316.121 779.241 315.657 779.344 315.092 779.344H313.33V778.562H315.063C315.454 778.562 315.767 778.495 316.004 778.36C316.241 778.225 316.413 778.043 316.519 777.813C316.628 777.581 316.682 777.32 316.682 777.028C316.682 776.737 316.628 776.477 316.519 776.247C316.413 776.018 316.24 775.838 316.001 775.707C315.762 775.575 315.444 775.509 315.049 775.509H313.501V782H312.62ZM321.082 782.114C320.557 782.114 320.103 781.998 319.722 781.766C319.343 781.531 319.051 781.205 318.845 780.786C318.641 780.364 318.54 779.874 318.54 779.315C318.54 778.757 318.641 778.264 318.845 777.838C319.051 777.41 319.338 777.076 319.704 776.837C320.074 776.595 320.505 776.474 320.997 776.474C321.281 776.474 321.562 776.522 321.839 776.616C322.116 776.711 322.368 776.865 322.595 777.078C322.822 777.289 323.003 777.568 323.138 777.916C323.273 778.264 323.341 778.693 323.341 779.202V779.557H319.136V778.832H322.489C322.489 778.525 322.427 778.25 322.304 778.009C322.183 777.767 322.01 777.576 321.785 777.437C321.563 777.297 321.3 777.227 320.997 777.227C320.663 777.227 320.374 777.31 320.131 777.476C319.889 777.639 319.703 777.852 319.573 778.115C319.443 778.378 319.378 778.66 319.378 778.96V779.443C319.378 779.855 319.449 780.204 319.591 780.491C319.735 780.775 319.935 780.991 320.191 781.141C320.447 781.287 320.744 781.361 321.082 781.361C321.302 781.361 321.501 781.33 321.679 781.268C321.859 781.205 322.014 781.11 322.144 780.984C322.274 780.857 322.375 780.698 322.446 780.509L323.256 780.736C323.17 781.01 323.027 781.252 322.826 781.46C322.625 781.666 322.376 781.827 322.08 781.943C321.784 782.057 321.452 782.114 321.082 782.114ZM324.616 782V776.545H325.425V777.369H325.482C325.582 777.099 325.762 776.88 326.022 776.712C326.282 776.544 326.576 776.46 326.903 776.46C326.964 776.46 327.041 776.461 327.133 776.464C327.226 776.466 327.296 776.47 327.343 776.474V777.327C327.315 777.32 327.249 777.309 327.148 777.295C327.048 777.278 326.943 777.27 326.832 777.27C326.566 777.27 326.33 777.326 326.121 777.437C325.915 777.546 325.752 777.697 325.631 777.891C325.513 778.083 325.454 778.302 325.454 778.548V782H324.616ZM331.107 776.545V777.256H328.167V776.545H331.107ZM329.047 782V775.793C329.047 775.48 329.121 775.22 329.268 775.011C329.414 774.803 329.605 774.647 329.839 774.543C330.074 774.438 330.321 774.386 330.582 774.386C330.788 774.386 330.956 774.403 331.086 774.436C331.216 774.469 331.313 774.5 331.377 774.528L331.136 775.253C331.093 775.239 331.034 775.221 330.958 775.2C330.885 775.178 330.788 775.168 330.667 775.168C330.39 775.168 330.19 775.237 330.067 775.377C329.946 775.517 329.886 775.722 329.886 775.991V782H329.047ZM332.282 782V776.545H333.12V782H332.282ZM332.708 775.636C332.544 775.636 332.404 775.581 332.285 775.469C332.169 775.358 332.111 775.224 332.111 775.068C332.111 774.912 332.169 774.778 332.285 774.667C332.404 774.556 332.544 774.5 332.708 774.5C332.871 774.5 333.011 774.556 333.127 774.667C333.245 774.778 333.304 774.912 333.304 775.068C333.304 775.224 333.245 775.358 333.127 775.469C333.011 775.581 332.871 775.636 332.708 775.636ZM335.493 774.727V782H334.655V774.727H335.493Z" fill="#D32F2F"/>
</g>
<defs>
<clipPath id="clip0_63_1526">
<rect width="360" height="800" fill="white"/>
</clipPath>
</defs>
</svg>
